G75*
%MOIN*%
%OFA0B0*%
%FSLAX25Y25*%
%IPPOS*%
%LPD*%
%AMOC8*
5,1,8,0,0,1.08239X$1,22.5*
%
%ADD10C,0.00500*%
%ADD11C,0.00700*%
%ADD12C,0.00787*%
D10*
X0154059Y0012077D02*
X0180634Y0012077D01*
X0180634Y0001250D01*
X0198350Y0001250D01*
X0198350Y0053415D01*
X0180634Y0053415D01*
X0180634Y0043573D01*
X0154059Y0043573D01*
X0154059Y0012077D01*
X0180634Y0056368D02*
X0198350Y0056368D01*
X0198350Y0108533D01*
X0180634Y0108533D01*
X0180634Y0098691D01*
X0154059Y0098691D01*
X0154059Y0067195D01*
X0180634Y0067195D01*
X0180634Y0056368D01*
X0180634Y0111486D02*
X0198350Y0111486D01*
X0198350Y0163652D01*
X0180634Y0163652D01*
X0180634Y0153809D01*
X0154059Y0153809D01*
X0154059Y0122313D01*
X0180634Y0122313D01*
X0180634Y0111486D01*
X0153075Y0166604D02*
X0135358Y0166604D01*
X0135358Y0177431D01*
X0108783Y0177431D01*
X0108783Y0208927D01*
X0135358Y0208927D01*
X0135358Y0218770D01*
X0153075Y0218770D01*
X0153075Y0166604D01*
D11*
X0169404Y0159717D02*
X0172878Y0159717D01*
X0170273Y0162322D01*
X0170273Y0157112D01*
X0174842Y0162322D02*
X0176579Y0162322D01*
X0175710Y0162322D02*
X0175710Y0157980D01*
X0176579Y0157112D01*
X0177447Y0157112D01*
X0178315Y0157980D01*
X0176579Y0107204D02*
X0174842Y0107204D01*
X0175710Y0107204D02*
X0175710Y0102862D01*
X0176579Y0101994D01*
X0177447Y0101994D01*
X0178315Y0102862D01*
X0172878Y0101994D02*
X0169404Y0105467D01*
X0169404Y0106335D01*
X0170273Y0107204D01*
X0172009Y0107204D01*
X0172878Y0106335D01*
X0172878Y0101994D02*
X0169404Y0101994D01*
X0169404Y0052086D02*
X0172878Y0052086D01*
X0172878Y0049481D01*
X0171141Y0050349D01*
X0170273Y0050349D01*
X0169404Y0049481D01*
X0169404Y0047744D01*
X0170273Y0046876D01*
X0172009Y0046876D01*
X0172878Y0047744D01*
X0175710Y0047744D02*
X0175710Y0052086D01*
X0174842Y0052086D02*
X0176579Y0052086D01*
X0175710Y0047744D02*
X0176579Y0046876D01*
X0177447Y0046876D01*
X0178315Y0047744D01*
X0132171Y0212230D02*
X0131303Y0212230D01*
X0130435Y0213098D01*
X0130435Y0217440D01*
X0131303Y0217440D02*
X0129566Y0217440D01*
X0127602Y0216572D02*
X0127602Y0215703D01*
X0126734Y0214835D01*
X0124129Y0214835D01*
X0124129Y0213098D02*
X0124129Y0216572D01*
X0124997Y0217440D01*
X0126734Y0217440D01*
X0127602Y0216572D01*
X0127602Y0213098D02*
X0126734Y0212230D01*
X0124997Y0212230D01*
X0124129Y0213098D01*
X0132171Y0212230D02*
X0133040Y0213098D01*
D12*
X0058587Y0021919D02*
X0048744Y0021919D01*
X0048744Y0026841D01*
X0058587Y0026841D01*
X0058587Y0021919D01*
X0058587Y0028809D02*
X0048744Y0028809D01*
X0048744Y0033730D01*
X0058587Y0033730D01*
X0058587Y0028809D01*
X0085161Y0026348D02*
X0095004Y0026348D01*
X0095004Y0031270D01*
X0085161Y0031270D01*
X0085161Y0026348D01*
X0059571Y0123297D02*
X0049728Y0123297D01*
X0049728Y0128219D01*
X0049728Y0133140D01*
X0059571Y0133140D01*
X0059571Y0128219D01*
X0049728Y0128219D01*
X0059571Y0128219D01*
X0059571Y0123297D01*
X0059571Y0143967D02*
X0049728Y0143967D01*
X0049728Y0148888D01*
X0049728Y0153809D01*
X0059571Y0153809D01*
X0059571Y0148888D01*
X0049728Y0148888D01*
X0059571Y0148888D01*
X0059571Y0143967D01*
X0090083Y0138553D02*
X0090083Y0133632D01*
X0099925Y0133632D01*
X0099925Y0138553D01*
X0090083Y0138553D01*
X0053173Y0191703D02*
X0043331Y0191703D01*
X0043331Y0196624D01*
X0053173Y0196624D01*
X0053173Y0201545D01*
X0043331Y0201545D01*
X0043331Y0196624D01*
X0053173Y0196624D01*
X0053173Y0191703D01*
M02*
