G75*
%MOIN*%
%OFA0B0*%
%FSLAX25Y25*%
%IPPOS*%
%LPD*%
%AMOC8*
5,1,8,0,0,1.08239X$1,22.5*
%
%ADD10C,0.00787*%
%ADD11C,0.00600*%
%ADD12C,0.00200*%
%ADD13C,0.00500*%
%ADD14C,0.00400*%
D10*
X0018724Y0016014D02*
X0023646Y0016014D01*
X0023646Y0025856D01*
X0028567Y0025856D01*
X0028567Y0016014D01*
X0023646Y0016014D01*
X0023646Y0025856D01*
X0018724Y0025856D01*
X0018724Y0016014D01*
X0028567Y0016014D02*
X0028567Y0025856D01*
X0033488Y0025856D01*
X0033488Y0016014D01*
X0038409Y0016014D01*
X0043331Y0016014D01*
X0043331Y0025856D01*
X0038409Y0025856D01*
X0038409Y0016014D01*
X0038409Y0025856D01*
X0033488Y0025856D01*
X0033488Y0016014D01*
X0028567Y0016014D01*
X0028567Y0029793D02*
X0023646Y0029793D01*
X0023646Y0039636D01*
X0028567Y0039636D01*
X0028567Y0029793D01*
X0028567Y0039636D01*
X0033488Y0039636D01*
X0033488Y0029793D01*
X0038409Y0029793D01*
X0038409Y0039636D01*
X0043331Y0039636D01*
X0043331Y0029793D01*
X0038409Y0029793D01*
X0038409Y0039636D01*
X0033488Y0039636D01*
X0033488Y0029793D01*
X0028567Y0029793D01*
X0023646Y0029793D02*
X0023646Y0039636D01*
X0018724Y0039636D01*
X0018724Y0029793D01*
X0023646Y0029793D01*
X0043823Y0043573D02*
X0053665Y0043573D01*
X0063508Y0043573D01*
X0063508Y0048494D01*
X0053665Y0048494D01*
X0053665Y0043573D01*
X0053665Y0048494D01*
X0043823Y0048494D01*
X0043823Y0043573D01*
X0044807Y0062766D02*
X0034965Y0062766D01*
X0034965Y0067687D01*
X0044807Y0067687D01*
X0044807Y0062766D01*
X0054650Y0062766D01*
X0054650Y0067687D01*
X0044807Y0067687D01*
X0044807Y0062766D01*
X0038409Y0071624D02*
X0038409Y0081467D01*
X0033488Y0081467D01*
X0033488Y0071624D01*
X0038409Y0071624D01*
X0033488Y0071624D02*
X0033488Y0081467D01*
X0028567Y0081467D01*
X0023646Y0081467D01*
X0023646Y0071624D01*
X0028567Y0071624D01*
X0028567Y0081467D01*
X0028567Y0071624D01*
X0033488Y0071624D01*
X0023646Y0071624D02*
X0023646Y0081467D01*
X0018724Y0081467D01*
X0018724Y0071624D01*
X0023646Y0071624D01*
X0023646Y0083927D02*
X0018724Y0083927D01*
X0018724Y0093770D01*
X0023646Y0093770D01*
X0023646Y0083927D01*
X0028567Y0083927D01*
X0028567Y0093770D01*
X0023646Y0093770D01*
X0023646Y0083927D01*
X0028567Y0083927D02*
X0028567Y0093770D01*
X0033488Y0093770D01*
X0033488Y0083927D01*
X0038409Y0083927D01*
X0038409Y0093770D01*
X0033488Y0093770D01*
X0033488Y0083927D01*
X0028567Y0083927D01*
X0028567Y0093770D02*
X0038409Y0093770D01*
X0038409Y0098691D01*
X0028567Y0098691D01*
X0028567Y0093770D01*
X0028567Y0098691D02*
X0038409Y0098691D01*
X0038409Y0103612D01*
X0028567Y0103612D01*
X0028567Y0098691D01*
X0039886Y0098199D02*
X0049728Y0098199D01*
X0049728Y0103120D01*
X0039886Y0103120D01*
X0039886Y0098199D01*
X0049728Y0098199D02*
X0059571Y0098199D01*
X0059571Y0103120D01*
X0049728Y0103120D01*
X0049728Y0098199D01*
X0060555Y0087864D02*
X0070398Y0087864D01*
X0070398Y0082943D01*
X0060555Y0082943D01*
X0060555Y0078022D01*
X0070398Y0078022D01*
X0070398Y0082943D01*
X0060555Y0082943D01*
X0060555Y0087864D01*
X0062524Y0093770D02*
X0068429Y0093770D01*
X0068429Y0105581D01*
X0062524Y0105581D01*
X0062524Y0093770D01*
X0070398Y0083435D02*
X0070398Y0073593D01*
X0075319Y0073593D01*
X0075319Y0083435D01*
X0070398Y0083435D01*
X0069413Y0075561D02*
X0059571Y0075561D01*
X0059571Y0070640D01*
X0069413Y0070640D01*
X0069413Y0075561D01*
X0070398Y0072116D02*
X0076303Y0072116D01*
X0076303Y0060305D01*
X0070398Y0060305D01*
X0070398Y0072116D01*
X0069413Y0070640D02*
X0059571Y0070640D01*
X0059571Y0065719D01*
X0069413Y0065719D01*
X0069413Y0070640D01*
X0076795Y0072608D02*
X0076795Y0062766D01*
X0081717Y0062766D01*
X0081717Y0072608D01*
X0086638Y0072608D01*
X0086638Y0062766D01*
X0081717Y0062766D01*
X0081717Y0072608D01*
X0076795Y0072608D01*
X0087130Y0072608D02*
X0087130Y0066703D01*
X0098941Y0066703D01*
X0098941Y0072608D01*
X0087130Y0072608D01*
X0107307Y0073100D02*
X0107307Y0068179D01*
X0117150Y0068179D01*
X0117150Y0073100D01*
X0107307Y0073100D01*
X0112228Y0073100D01*
X0112228Y0082943D01*
X0117150Y0082943D01*
X0117150Y0073100D01*
X0112228Y0073100D01*
X0112228Y0082943D01*
X0107307Y0082943D01*
X0107307Y0073100D01*
X0107799Y0084419D02*
X0117642Y0084419D01*
X0117642Y0089341D01*
X0107799Y0089341D01*
X0107799Y0084419D01*
X0107799Y0089341D02*
X0117642Y0089341D01*
X0117642Y0094262D01*
X0107799Y0094262D01*
X0107799Y0089341D01*
X0106815Y0094754D02*
X0106815Y0100659D01*
X0118626Y0100659D01*
X0118626Y0094754D01*
X0106815Y0094754D01*
X0095988Y0093278D02*
X0095988Y0098199D01*
X0086146Y0098199D01*
X0086146Y0093278D01*
X0095988Y0093278D01*
X0096972Y0120344D02*
X0087130Y0120344D01*
X0087130Y0125266D01*
X0096972Y0125266D01*
X0096972Y0120344D01*
X0106815Y0120344D01*
X0106815Y0125266D01*
X0096972Y0125266D01*
X0096972Y0120344D01*
X0084669Y0118376D02*
X0084669Y0123297D01*
X0074827Y0123297D01*
X0074827Y0118376D01*
X0084669Y0118376D01*
X0079748Y0123297D02*
X0079748Y0128219D01*
X0069906Y0128219D01*
X0069906Y0123297D01*
X0079748Y0123297D01*
X0074827Y0128219D02*
X0074827Y0138061D01*
X0069906Y0138061D01*
X0069906Y0128219D01*
X0074827Y0128219D01*
X0074827Y0131171D02*
X0074827Y0141014D01*
X0079748Y0141014D01*
X0079748Y0131171D01*
X0074827Y0131171D01*
X0069906Y0143967D02*
X0079748Y0143967D01*
X0079748Y0148888D01*
X0069906Y0148888D01*
X0069906Y0143967D01*
X0069906Y0148888D02*
X0069906Y0158730D01*
X0074827Y0158730D01*
X0074827Y0148888D01*
X0079748Y0148888D01*
X0079748Y0158730D01*
X0074827Y0158730D01*
X0074827Y0148888D01*
X0069906Y0148888D01*
X0086146Y0154006D02*
X0088114Y0154006D01*
X0088114Y0157549D02*
X0086146Y0157549D01*
X0086736Y0180581D02*
X0095398Y0180581D01*
X0103665Y0188848D02*
X0103665Y0197510D01*
X0107996Y0204596D02*
X0123744Y0204596D01*
X0123744Y0181762D01*
X0124925Y0179793D01*
X0133193Y0179793D01*
X0134374Y0181762D01*
X0134374Y0204596D01*
X0136736Y0204596D01*
X0136736Y0181762D01*
X0134374Y0181762D01*
X0123744Y0181762D02*
X0107996Y0181762D01*
X0084374Y0193179D02*
X0084376Y0193343D01*
X0084382Y0193507D01*
X0084392Y0193671D01*
X0084406Y0193835D01*
X0084424Y0193998D01*
X0084446Y0194161D01*
X0084473Y0194323D01*
X0084503Y0194485D01*
X0084537Y0194645D01*
X0084575Y0194805D01*
X0084616Y0194964D01*
X0084662Y0195122D01*
X0084712Y0195278D01*
X0084765Y0195434D01*
X0084822Y0195588D01*
X0084883Y0195740D01*
X0084948Y0195891D01*
X0085017Y0196041D01*
X0085089Y0196188D01*
X0085164Y0196334D01*
X0085244Y0196478D01*
X0085326Y0196620D01*
X0085412Y0196760D01*
X0085502Y0196897D01*
X0085595Y0197033D01*
X0085691Y0197166D01*
X0085791Y0197297D01*
X0085893Y0197425D01*
X0085999Y0197551D01*
X0086108Y0197674D01*
X0086220Y0197794D01*
X0086334Y0197912D01*
X0086452Y0198026D01*
X0086572Y0198138D01*
X0086695Y0198247D01*
X0086821Y0198353D01*
X0086949Y0198455D01*
X0087080Y0198555D01*
X0087213Y0198651D01*
X0087349Y0198744D01*
X0087486Y0198834D01*
X0087626Y0198920D01*
X0087768Y0199002D01*
X0087912Y0199082D01*
X0088058Y0199157D01*
X0088205Y0199229D01*
X0088355Y0199298D01*
X0088506Y0199363D01*
X0088658Y0199424D01*
X0088812Y0199481D01*
X0088968Y0199534D01*
X0089124Y0199584D01*
X0089282Y0199630D01*
X0089441Y0199671D01*
X0089601Y0199709D01*
X0089761Y0199743D01*
X0089923Y0199773D01*
X0090085Y0199800D01*
X0090248Y0199822D01*
X0090411Y0199840D01*
X0090575Y0199854D01*
X0090739Y0199864D01*
X0090903Y0199870D01*
X0091067Y0199872D01*
X0091231Y0199870D01*
X0091395Y0199864D01*
X0091559Y0199854D01*
X0091723Y0199840D01*
X0091886Y0199822D01*
X0092049Y0199800D01*
X0092211Y0199773D01*
X0092373Y0199743D01*
X0092533Y0199709D01*
X0092693Y0199671D01*
X0092852Y0199630D01*
X0093010Y0199584D01*
X0093166Y0199534D01*
X0093322Y0199481D01*
X0093476Y0199424D01*
X0093628Y0199363D01*
X0093779Y0199298D01*
X0093929Y0199229D01*
X0094076Y0199157D01*
X0094222Y0199082D01*
X0094366Y0199002D01*
X0094508Y0198920D01*
X0094648Y0198834D01*
X0094785Y0198744D01*
X0094921Y0198651D01*
X0095054Y0198555D01*
X0095185Y0198455D01*
X0095313Y0198353D01*
X0095439Y0198247D01*
X0095562Y0198138D01*
X0095682Y0198026D01*
X0095800Y0197912D01*
X0095914Y0197794D01*
X0096026Y0197674D01*
X0096135Y0197551D01*
X0096241Y0197425D01*
X0096343Y0197297D01*
X0096443Y0197166D01*
X0096539Y0197033D01*
X0096632Y0196897D01*
X0096722Y0196760D01*
X0096808Y0196620D01*
X0096890Y0196478D01*
X0096970Y0196334D01*
X0097045Y0196188D01*
X0097117Y0196041D01*
X0097186Y0195891D01*
X0097251Y0195740D01*
X0097312Y0195588D01*
X0097369Y0195434D01*
X0097422Y0195278D01*
X0097472Y0195122D01*
X0097518Y0194964D01*
X0097559Y0194805D01*
X0097597Y0194645D01*
X0097631Y0194485D01*
X0097661Y0194323D01*
X0097688Y0194161D01*
X0097710Y0193998D01*
X0097728Y0193835D01*
X0097742Y0193671D01*
X0097752Y0193507D01*
X0097758Y0193343D01*
X0097760Y0193179D01*
X0097758Y0193015D01*
X0097752Y0192851D01*
X0097742Y0192687D01*
X0097728Y0192523D01*
X0097710Y0192360D01*
X0097688Y0192197D01*
X0097661Y0192035D01*
X0097631Y0191873D01*
X0097597Y0191713D01*
X0097559Y0191553D01*
X0097518Y0191394D01*
X0097472Y0191236D01*
X0097422Y0191080D01*
X0097369Y0190924D01*
X0097312Y0190770D01*
X0097251Y0190618D01*
X0097186Y0190467D01*
X0097117Y0190317D01*
X0097045Y0190170D01*
X0096970Y0190024D01*
X0096890Y0189880D01*
X0096808Y0189738D01*
X0096722Y0189598D01*
X0096632Y0189461D01*
X0096539Y0189325D01*
X0096443Y0189192D01*
X0096343Y0189061D01*
X0096241Y0188933D01*
X0096135Y0188807D01*
X0096026Y0188684D01*
X0095914Y0188564D01*
X0095800Y0188446D01*
X0095682Y0188332D01*
X0095562Y0188220D01*
X0095439Y0188111D01*
X0095313Y0188005D01*
X0095185Y0187903D01*
X0095054Y0187803D01*
X0094921Y0187707D01*
X0094785Y0187614D01*
X0094648Y0187524D01*
X0094508Y0187438D01*
X0094366Y0187356D01*
X0094222Y0187276D01*
X0094076Y0187201D01*
X0093929Y0187129D01*
X0093779Y0187060D01*
X0093628Y0186995D01*
X0093476Y0186934D01*
X0093322Y0186877D01*
X0093166Y0186824D01*
X0093010Y0186774D01*
X0092852Y0186728D01*
X0092693Y0186687D01*
X0092533Y0186649D01*
X0092373Y0186615D01*
X0092211Y0186585D01*
X0092049Y0186558D01*
X0091886Y0186536D01*
X0091723Y0186518D01*
X0091559Y0186504D01*
X0091395Y0186494D01*
X0091231Y0186488D01*
X0091067Y0186486D01*
X0090903Y0186488D01*
X0090739Y0186494D01*
X0090575Y0186504D01*
X0090411Y0186518D01*
X0090248Y0186536D01*
X0090085Y0186558D01*
X0089923Y0186585D01*
X0089761Y0186615D01*
X0089601Y0186649D01*
X0089441Y0186687D01*
X0089282Y0186728D01*
X0089124Y0186774D01*
X0088968Y0186824D01*
X0088812Y0186877D01*
X0088658Y0186934D01*
X0088506Y0186995D01*
X0088355Y0187060D01*
X0088205Y0187129D01*
X0088058Y0187201D01*
X0087912Y0187276D01*
X0087768Y0187356D01*
X0087626Y0187438D01*
X0087486Y0187524D01*
X0087349Y0187614D01*
X0087213Y0187707D01*
X0087080Y0187803D01*
X0086949Y0187903D01*
X0086821Y0188005D01*
X0086695Y0188111D01*
X0086572Y0188220D01*
X0086452Y0188332D01*
X0086334Y0188446D01*
X0086220Y0188564D01*
X0086108Y0188684D01*
X0085999Y0188807D01*
X0085893Y0188933D01*
X0085791Y0189061D01*
X0085691Y0189192D01*
X0085595Y0189325D01*
X0085502Y0189461D01*
X0085412Y0189598D01*
X0085326Y0189738D01*
X0085244Y0189880D01*
X0085164Y0190024D01*
X0085089Y0190170D01*
X0085017Y0190317D01*
X0084948Y0190467D01*
X0084883Y0190618D01*
X0084822Y0190770D01*
X0084765Y0190924D01*
X0084712Y0191080D01*
X0084662Y0191236D01*
X0084616Y0191394D01*
X0084575Y0191553D01*
X0084537Y0191713D01*
X0084503Y0191873D01*
X0084473Y0192035D01*
X0084446Y0192197D01*
X0084424Y0192360D01*
X0084406Y0192523D01*
X0084392Y0192687D01*
X0084382Y0192851D01*
X0084376Y0193015D01*
X0084374Y0193179D01*
X0078469Y0188848D02*
X0078469Y0197510D01*
X0073843Y0199085D02*
X0073843Y0194163D01*
X0068921Y0194163D01*
X0068921Y0184321D01*
X0073843Y0184321D01*
X0064000Y0184321D01*
X0064000Y0179400D01*
X0073843Y0179400D01*
X0073843Y0184321D01*
X0073843Y0194163D01*
X0064000Y0194163D01*
X0064000Y0184321D01*
X0068921Y0184321D01*
X0068921Y0194163D01*
X0064000Y0194163D01*
X0064000Y0199085D01*
X0073843Y0199085D01*
X0073843Y0204006D01*
X0064000Y0204006D01*
X0064000Y0199085D01*
X0073843Y0199085D01*
X0074827Y0204006D02*
X0074827Y0209911D01*
X0063016Y0209911D01*
X0063016Y0204006D01*
X0074827Y0204006D01*
X0086736Y0205778D02*
X0095398Y0205778D01*
X0123744Y0204596D02*
X0124925Y0206565D01*
X0133193Y0206565D01*
X0134374Y0204596D01*
X0167346Y0204006D02*
X0167346Y0194163D01*
X0172268Y0194163D01*
X0172268Y0204006D01*
X0167346Y0204006D01*
X0166854Y0193671D02*
X0172760Y0193671D01*
X0172760Y0181860D01*
X0166854Y0181860D01*
X0166854Y0193671D01*
X0198744Y0178514D02*
X0198744Y0208829D01*
X0198744Y0211978D02*
X0204453Y0211978D01*
X0204453Y0201545D01*
X0212917Y0201545D01*
X0215870Y0204498D01*
X0230831Y0204498D01*
X0230831Y0201152D01*
X0235457Y0201152D01*
X0235457Y0186191D01*
X0230831Y0186191D01*
X0230831Y0182844D01*
X0215870Y0182844D01*
X0212917Y0185797D01*
X0204453Y0185797D01*
X0204453Y0175364D01*
X0198744Y0175364D01*
X0178469Y0151447D02*
X0170201Y0151447D01*
X0169020Y0149478D01*
X0169020Y0126644D01*
X0170201Y0124675D01*
X0178469Y0124675D01*
X0179650Y0126644D01*
X0179650Y0149478D01*
X0182012Y0149478D01*
X0182012Y0126644D01*
X0179650Y0126644D01*
X0169020Y0126644D02*
X0153272Y0126644D01*
X0148941Y0133730D02*
X0148941Y0142392D01*
X0153272Y0149478D02*
X0169020Y0149478D01*
X0178469Y0151447D02*
X0179650Y0149478D01*
X0140673Y0150659D02*
X0132012Y0150659D01*
X0123744Y0142392D02*
X0123744Y0133730D01*
X0120102Y0136093D02*
X0115181Y0136093D01*
X0115181Y0126250D01*
X0120102Y0126250D01*
X0110260Y0126250D01*
X0110260Y0121329D01*
X0120102Y0121329D01*
X0120102Y0126250D01*
X0120102Y0136093D01*
X0120102Y0136585D02*
X0120102Y0141506D01*
X0110260Y0141506D01*
X0110260Y0136585D01*
X0120102Y0136585D01*
X0120102Y0141506D02*
X0120102Y0146427D01*
X0110260Y0146427D01*
X0110260Y0141506D01*
X0120102Y0141506D01*
X0115181Y0136093D02*
X0115181Y0126250D01*
X0110260Y0126250D01*
X0110260Y0136093D01*
X0115181Y0136093D01*
X0114689Y0152037D02*
X0116657Y0152037D01*
X0116657Y0155581D02*
X0114689Y0155581D01*
X0129650Y0138061D02*
X0129652Y0138225D01*
X0129658Y0138389D01*
X0129668Y0138553D01*
X0129682Y0138717D01*
X0129700Y0138880D01*
X0129722Y0139043D01*
X0129749Y0139205D01*
X0129779Y0139367D01*
X0129813Y0139527D01*
X0129851Y0139687D01*
X0129892Y0139846D01*
X0129938Y0140004D01*
X0129988Y0140160D01*
X0130041Y0140316D01*
X0130098Y0140470D01*
X0130159Y0140622D01*
X0130224Y0140773D01*
X0130293Y0140923D01*
X0130365Y0141070D01*
X0130440Y0141216D01*
X0130520Y0141360D01*
X0130602Y0141502D01*
X0130688Y0141642D01*
X0130778Y0141779D01*
X0130871Y0141915D01*
X0130967Y0142048D01*
X0131067Y0142179D01*
X0131169Y0142307D01*
X0131275Y0142433D01*
X0131384Y0142556D01*
X0131496Y0142676D01*
X0131610Y0142794D01*
X0131728Y0142908D01*
X0131848Y0143020D01*
X0131971Y0143129D01*
X0132097Y0143235D01*
X0132225Y0143337D01*
X0132356Y0143437D01*
X0132489Y0143533D01*
X0132625Y0143626D01*
X0132762Y0143716D01*
X0132902Y0143802D01*
X0133044Y0143884D01*
X0133188Y0143964D01*
X0133334Y0144039D01*
X0133481Y0144111D01*
X0133631Y0144180D01*
X0133782Y0144245D01*
X0133934Y0144306D01*
X0134088Y0144363D01*
X0134244Y0144416D01*
X0134400Y0144466D01*
X0134558Y0144512D01*
X0134717Y0144553D01*
X0134877Y0144591D01*
X0135037Y0144625D01*
X0135199Y0144655D01*
X0135361Y0144682D01*
X0135524Y0144704D01*
X0135687Y0144722D01*
X0135851Y0144736D01*
X0136015Y0144746D01*
X0136179Y0144752D01*
X0136343Y0144754D01*
X0136507Y0144752D01*
X0136671Y0144746D01*
X0136835Y0144736D01*
X0136999Y0144722D01*
X0137162Y0144704D01*
X0137325Y0144682D01*
X0137487Y0144655D01*
X0137649Y0144625D01*
X0137809Y0144591D01*
X0137969Y0144553D01*
X0138128Y0144512D01*
X0138286Y0144466D01*
X0138442Y0144416D01*
X0138598Y0144363D01*
X0138752Y0144306D01*
X0138904Y0144245D01*
X0139055Y0144180D01*
X0139205Y0144111D01*
X0139352Y0144039D01*
X0139498Y0143964D01*
X0139642Y0143884D01*
X0139784Y0143802D01*
X0139924Y0143716D01*
X0140061Y0143626D01*
X0140197Y0143533D01*
X0140330Y0143437D01*
X0140461Y0143337D01*
X0140589Y0143235D01*
X0140715Y0143129D01*
X0140838Y0143020D01*
X0140958Y0142908D01*
X0141076Y0142794D01*
X0141190Y0142676D01*
X0141302Y0142556D01*
X0141411Y0142433D01*
X0141517Y0142307D01*
X0141619Y0142179D01*
X0141719Y0142048D01*
X0141815Y0141915D01*
X0141908Y0141779D01*
X0141998Y0141642D01*
X0142084Y0141502D01*
X0142166Y0141360D01*
X0142246Y0141216D01*
X0142321Y0141070D01*
X0142393Y0140923D01*
X0142462Y0140773D01*
X0142527Y0140622D01*
X0142588Y0140470D01*
X0142645Y0140316D01*
X0142698Y0140160D01*
X0142748Y0140004D01*
X0142794Y0139846D01*
X0142835Y0139687D01*
X0142873Y0139527D01*
X0142907Y0139367D01*
X0142937Y0139205D01*
X0142964Y0139043D01*
X0142986Y0138880D01*
X0143004Y0138717D01*
X0143018Y0138553D01*
X0143028Y0138389D01*
X0143034Y0138225D01*
X0143036Y0138061D01*
X0143034Y0137897D01*
X0143028Y0137733D01*
X0143018Y0137569D01*
X0143004Y0137405D01*
X0142986Y0137242D01*
X0142964Y0137079D01*
X0142937Y0136917D01*
X0142907Y0136755D01*
X0142873Y0136595D01*
X0142835Y0136435D01*
X0142794Y0136276D01*
X0142748Y0136118D01*
X0142698Y0135962D01*
X0142645Y0135806D01*
X0142588Y0135652D01*
X0142527Y0135500D01*
X0142462Y0135349D01*
X0142393Y0135199D01*
X0142321Y0135052D01*
X0142246Y0134906D01*
X0142166Y0134762D01*
X0142084Y0134620D01*
X0141998Y0134480D01*
X0141908Y0134343D01*
X0141815Y0134207D01*
X0141719Y0134074D01*
X0141619Y0133943D01*
X0141517Y0133815D01*
X0141411Y0133689D01*
X0141302Y0133566D01*
X0141190Y0133446D01*
X0141076Y0133328D01*
X0140958Y0133214D01*
X0140838Y0133102D01*
X0140715Y0132993D01*
X0140589Y0132887D01*
X0140461Y0132785D01*
X0140330Y0132685D01*
X0140197Y0132589D01*
X0140061Y0132496D01*
X0139924Y0132406D01*
X0139784Y0132320D01*
X0139642Y0132238D01*
X0139498Y0132158D01*
X0139352Y0132083D01*
X0139205Y0132011D01*
X0139055Y0131942D01*
X0138904Y0131877D01*
X0138752Y0131816D01*
X0138598Y0131759D01*
X0138442Y0131706D01*
X0138286Y0131656D01*
X0138128Y0131610D01*
X0137969Y0131569D01*
X0137809Y0131531D01*
X0137649Y0131497D01*
X0137487Y0131467D01*
X0137325Y0131440D01*
X0137162Y0131418D01*
X0136999Y0131400D01*
X0136835Y0131386D01*
X0136671Y0131376D01*
X0136507Y0131370D01*
X0136343Y0131368D01*
X0136179Y0131370D01*
X0136015Y0131376D01*
X0135851Y0131386D01*
X0135687Y0131400D01*
X0135524Y0131418D01*
X0135361Y0131440D01*
X0135199Y0131467D01*
X0135037Y0131497D01*
X0134877Y0131531D01*
X0134717Y0131569D01*
X0134558Y0131610D01*
X0134400Y0131656D01*
X0134244Y0131706D01*
X0134088Y0131759D01*
X0133934Y0131816D01*
X0133782Y0131877D01*
X0133631Y0131942D01*
X0133481Y0132011D01*
X0133334Y0132083D01*
X0133188Y0132158D01*
X0133044Y0132238D01*
X0132902Y0132320D01*
X0132762Y0132406D01*
X0132625Y0132496D01*
X0132489Y0132589D01*
X0132356Y0132685D01*
X0132225Y0132785D01*
X0132097Y0132887D01*
X0131971Y0132993D01*
X0131848Y0133102D01*
X0131728Y0133214D01*
X0131610Y0133328D01*
X0131496Y0133446D01*
X0131384Y0133566D01*
X0131275Y0133689D01*
X0131169Y0133815D01*
X0131067Y0133943D01*
X0130967Y0134074D01*
X0130871Y0134207D01*
X0130778Y0134343D01*
X0130688Y0134480D01*
X0130602Y0134620D01*
X0130520Y0134762D01*
X0130440Y0134906D01*
X0130365Y0135052D01*
X0130293Y0135199D01*
X0130224Y0135349D01*
X0130159Y0135500D01*
X0130098Y0135652D01*
X0130041Y0135806D01*
X0129988Y0135962D01*
X0129938Y0136118D01*
X0129892Y0136276D01*
X0129851Y0136435D01*
X0129813Y0136595D01*
X0129779Y0136755D01*
X0129749Y0136917D01*
X0129722Y0137079D01*
X0129700Y0137242D01*
X0129682Y0137405D01*
X0129668Y0137569D01*
X0129658Y0137733D01*
X0129652Y0137897D01*
X0129650Y0138061D01*
X0132012Y0125463D02*
X0140673Y0125463D01*
X0140673Y0095541D02*
X0132012Y0095541D01*
X0123744Y0087274D02*
X0123744Y0078612D01*
X0132012Y0070344D02*
X0140673Y0070344D01*
X0148941Y0078612D02*
X0148941Y0087274D01*
X0153272Y0094360D02*
X0169020Y0094360D01*
X0169020Y0071526D01*
X0170201Y0069557D01*
X0178469Y0069557D01*
X0179650Y0071526D01*
X0179650Y0094360D01*
X0182012Y0094360D01*
X0182012Y0071526D01*
X0179650Y0071526D01*
X0169020Y0071526D02*
X0153272Y0071526D01*
X0129650Y0082943D02*
X0129652Y0083107D01*
X0129658Y0083271D01*
X0129668Y0083435D01*
X0129682Y0083599D01*
X0129700Y0083762D01*
X0129722Y0083925D01*
X0129749Y0084087D01*
X0129779Y0084249D01*
X0129813Y0084409D01*
X0129851Y0084569D01*
X0129892Y0084728D01*
X0129938Y0084886D01*
X0129988Y0085042D01*
X0130041Y0085198D01*
X0130098Y0085352D01*
X0130159Y0085504D01*
X0130224Y0085655D01*
X0130293Y0085805D01*
X0130365Y0085952D01*
X0130440Y0086098D01*
X0130520Y0086242D01*
X0130602Y0086384D01*
X0130688Y0086524D01*
X0130778Y0086661D01*
X0130871Y0086797D01*
X0130967Y0086930D01*
X0131067Y0087061D01*
X0131169Y0087189D01*
X0131275Y0087315D01*
X0131384Y0087438D01*
X0131496Y0087558D01*
X0131610Y0087676D01*
X0131728Y0087790D01*
X0131848Y0087902D01*
X0131971Y0088011D01*
X0132097Y0088117D01*
X0132225Y0088219D01*
X0132356Y0088319D01*
X0132489Y0088415D01*
X0132625Y0088508D01*
X0132762Y0088598D01*
X0132902Y0088684D01*
X0133044Y0088766D01*
X0133188Y0088846D01*
X0133334Y0088921D01*
X0133481Y0088993D01*
X0133631Y0089062D01*
X0133782Y0089127D01*
X0133934Y0089188D01*
X0134088Y0089245D01*
X0134244Y0089298D01*
X0134400Y0089348D01*
X0134558Y0089394D01*
X0134717Y0089435D01*
X0134877Y0089473D01*
X0135037Y0089507D01*
X0135199Y0089537D01*
X0135361Y0089564D01*
X0135524Y0089586D01*
X0135687Y0089604D01*
X0135851Y0089618D01*
X0136015Y0089628D01*
X0136179Y0089634D01*
X0136343Y0089636D01*
X0136507Y0089634D01*
X0136671Y0089628D01*
X0136835Y0089618D01*
X0136999Y0089604D01*
X0137162Y0089586D01*
X0137325Y0089564D01*
X0137487Y0089537D01*
X0137649Y0089507D01*
X0137809Y0089473D01*
X0137969Y0089435D01*
X0138128Y0089394D01*
X0138286Y0089348D01*
X0138442Y0089298D01*
X0138598Y0089245D01*
X0138752Y0089188D01*
X0138904Y0089127D01*
X0139055Y0089062D01*
X0139205Y0088993D01*
X0139352Y0088921D01*
X0139498Y0088846D01*
X0139642Y0088766D01*
X0139784Y0088684D01*
X0139924Y0088598D01*
X0140061Y0088508D01*
X0140197Y0088415D01*
X0140330Y0088319D01*
X0140461Y0088219D01*
X0140589Y0088117D01*
X0140715Y0088011D01*
X0140838Y0087902D01*
X0140958Y0087790D01*
X0141076Y0087676D01*
X0141190Y0087558D01*
X0141302Y0087438D01*
X0141411Y0087315D01*
X0141517Y0087189D01*
X0141619Y0087061D01*
X0141719Y0086930D01*
X0141815Y0086797D01*
X0141908Y0086661D01*
X0141998Y0086524D01*
X0142084Y0086384D01*
X0142166Y0086242D01*
X0142246Y0086098D01*
X0142321Y0085952D01*
X0142393Y0085805D01*
X0142462Y0085655D01*
X0142527Y0085504D01*
X0142588Y0085352D01*
X0142645Y0085198D01*
X0142698Y0085042D01*
X0142748Y0084886D01*
X0142794Y0084728D01*
X0142835Y0084569D01*
X0142873Y0084409D01*
X0142907Y0084249D01*
X0142937Y0084087D01*
X0142964Y0083925D01*
X0142986Y0083762D01*
X0143004Y0083599D01*
X0143018Y0083435D01*
X0143028Y0083271D01*
X0143034Y0083107D01*
X0143036Y0082943D01*
X0143034Y0082779D01*
X0143028Y0082615D01*
X0143018Y0082451D01*
X0143004Y0082287D01*
X0142986Y0082124D01*
X0142964Y0081961D01*
X0142937Y0081799D01*
X0142907Y0081637D01*
X0142873Y0081477D01*
X0142835Y0081317D01*
X0142794Y0081158D01*
X0142748Y0081000D01*
X0142698Y0080844D01*
X0142645Y0080688D01*
X0142588Y0080534D01*
X0142527Y0080382D01*
X0142462Y0080231D01*
X0142393Y0080081D01*
X0142321Y0079934D01*
X0142246Y0079788D01*
X0142166Y0079644D01*
X0142084Y0079502D01*
X0141998Y0079362D01*
X0141908Y0079225D01*
X0141815Y0079089D01*
X0141719Y0078956D01*
X0141619Y0078825D01*
X0141517Y0078697D01*
X0141411Y0078571D01*
X0141302Y0078448D01*
X0141190Y0078328D01*
X0141076Y0078210D01*
X0140958Y0078096D01*
X0140838Y0077984D01*
X0140715Y0077875D01*
X0140589Y0077769D01*
X0140461Y0077667D01*
X0140330Y0077567D01*
X0140197Y0077471D01*
X0140061Y0077378D01*
X0139924Y0077288D01*
X0139784Y0077202D01*
X0139642Y0077120D01*
X0139498Y0077040D01*
X0139352Y0076965D01*
X0139205Y0076893D01*
X0139055Y0076824D01*
X0138904Y0076759D01*
X0138752Y0076698D01*
X0138598Y0076641D01*
X0138442Y0076588D01*
X0138286Y0076538D01*
X0138128Y0076492D01*
X0137969Y0076451D01*
X0137809Y0076413D01*
X0137649Y0076379D01*
X0137487Y0076349D01*
X0137325Y0076322D01*
X0137162Y0076300D01*
X0136999Y0076282D01*
X0136835Y0076268D01*
X0136671Y0076258D01*
X0136507Y0076252D01*
X0136343Y0076250D01*
X0136179Y0076252D01*
X0136015Y0076258D01*
X0135851Y0076268D01*
X0135687Y0076282D01*
X0135524Y0076300D01*
X0135361Y0076322D01*
X0135199Y0076349D01*
X0135037Y0076379D01*
X0134877Y0076413D01*
X0134717Y0076451D01*
X0134558Y0076492D01*
X0134400Y0076538D01*
X0134244Y0076588D01*
X0134088Y0076641D01*
X0133934Y0076698D01*
X0133782Y0076759D01*
X0133631Y0076824D01*
X0133481Y0076893D01*
X0133334Y0076965D01*
X0133188Y0077040D01*
X0133044Y0077120D01*
X0132902Y0077202D01*
X0132762Y0077288D01*
X0132625Y0077378D01*
X0132489Y0077471D01*
X0132356Y0077567D01*
X0132225Y0077667D01*
X0132097Y0077769D01*
X0131971Y0077875D01*
X0131848Y0077984D01*
X0131728Y0078096D01*
X0131610Y0078210D01*
X0131496Y0078328D01*
X0131384Y0078448D01*
X0131275Y0078571D01*
X0131169Y0078697D01*
X0131067Y0078825D01*
X0130967Y0078956D01*
X0130871Y0079089D01*
X0130778Y0079225D01*
X0130688Y0079362D01*
X0130602Y0079502D01*
X0130520Y0079644D01*
X0130440Y0079788D01*
X0130365Y0079934D01*
X0130293Y0080081D01*
X0130224Y0080231D01*
X0130159Y0080382D01*
X0130098Y0080534D01*
X0130041Y0080688D01*
X0129988Y0080844D01*
X0129938Y0081000D01*
X0129892Y0081158D01*
X0129851Y0081317D01*
X0129813Y0081477D01*
X0129779Y0081637D01*
X0129749Y0081799D01*
X0129722Y0081961D01*
X0129700Y0082124D01*
X0129682Y0082287D01*
X0129668Y0082451D01*
X0129658Y0082615D01*
X0129652Y0082779D01*
X0129650Y0082943D01*
X0116165Y0044557D02*
X0104354Y0044557D01*
X0104354Y0038652D01*
X0116165Y0038652D01*
X0116165Y0044557D01*
X0115181Y0038652D02*
X0105339Y0038652D01*
X0105339Y0033730D01*
X0115181Y0033730D01*
X0115181Y0038652D01*
X0115181Y0033730D02*
X0105339Y0033730D01*
X0105339Y0028809D01*
X0115181Y0028809D01*
X0110260Y0028809D01*
X0110260Y0018967D01*
X0115181Y0018967D01*
X0105339Y0018967D01*
X0105339Y0014045D01*
X0115181Y0014045D01*
X0115181Y0018967D01*
X0115181Y0028809D01*
X0115181Y0033730D01*
X0110260Y0028809D02*
X0110260Y0018967D01*
X0105339Y0018967D01*
X0105339Y0028809D01*
X0110260Y0028809D01*
X0123744Y0032156D02*
X0123744Y0023494D01*
X0132012Y0015226D02*
X0140673Y0015226D01*
X0148941Y0023494D02*
X0148941Y0032156D01*
X0153272Y0039242D02*
X0169020Y0039242D01*
X0169020Y0016407D01*
X0170201Y0014439D01*
X0178469Y0014439D01*
X0179650Y0016407D01*
X0179650Y0039242D01*
X0182012Y0039242D01*
X0182012Y0016407D01*
X0179650Y0016407D01*
X0169020Y0016407D02*
X0153272Y0016407D01*
X0129650Y0027825D02*
X0129652Y0027989D01*
X0129658Y0028153D01*
X0129668Y0028317D01*
X0129682Y0028481D01*
X0129700Y0028644D01*
X0129722Y0028807D01*
X0129749Y0028969D01*
X0129779Y0029131D01*
X0129813Y0029291D01*
X0129851Y0029451D01*
X0129892Y0029610D01*
X0129938Y0029768D01*
X0129988Y0029924D01*
X0130041Y0030080D01*
X0130098Y0030234D01*
X0130159Y0030386D01*
X0130224Y0030537D01*
X0130293Y0030687D01*
X0130365Y0030834D01*
X0130440Y0030980D01*
X0130520Y0031124D01*
X0130602Y0031266D01*
X0130688Y0031406D01*
X0130778Y0031543D01*
X0130871Y0031679D01*
X0130967Y0031812D01*
X0131067Y0031943D01*
X0131169Y0032071D01*
X0131275Y0032197D01*
X0131384Y0032320D01*
X0131496Y0032440D01*
X0131610Y0032558D01*
X0131728Y0032672D01*
X0131848Y0032784D01*
X0131971Y0032893D01*
X0132097Y0032999D01*
X0132225Y0033101D01*
X0132356Y0033201D01*
X0132489Y0033297D01*
X0132625Y0033390D01*
X0132762Y0033480D01*
X0132902Y0033566D01*
X0133044Y0033648D01*
X0133188Y0033728D01*
X0133334Y0033803D01*
X0133481Y0033875D01*
X0133631Y0033944D01*
X0133782Y0034009D01*
X0133934Y0034070D01*
X0134088Y0034127D01*
X0134244Y0034180D01*
X0134400Y0034230D01*
X0134558Y0034276D01*
X0134717Y0034317D01*
X0134877Y0034355D01*
X0135037Y0034389D01*
X0135199Y0034419D01*
X0135361Y0034446D01*
X0135524Y0034468D01*
X0135687Y0034486D01*
X0135851Y0034500D01*
X0136015Y0034510D01*
X0136179Y0034516D01*
X0136343Y0034518D01*
X0136507Y0034516D01*
X0136671Y0034510D01*
X0136835Y0034500D01*
X0136999Y0034486D01*
X0137162Y0034468D01*
X0137325Y0034446D01*
X0137487Y0034419D01*
X0137649Y0034389D01*
X0137809Y0034355D01*
X0137969Y0034317D01*
X0138128Y0034276D01*
X0138286Y0034230D01*
X0138442Y0034180D01*
X0138598Y0034127D01*
X0138752Y0034070D01*
X0138904Y0034009D01*
X0139055Y0033944D01*
X0139205Y0033875D01*
X0139352Y0033803D01*
X0139498Y0033728D01*
X0139642Y0033648D01*
X0139784Y0033566D01*
X0139924Y0033480D01*
X0140061Y0033390D01*
X0140197Y0033297D01*
X0140330Y0033201D01*
X0140461Y0033101D01*
X0140589Y0032999D01*
X0140715Y0032893D01*
X0140838Y0032784D01*
X0140958Y0032672D01*
X0141076Y0032558D01*
X0141190Y0032440D01*
X0141302Y0032320D01*
X0141411Y0032197D01*
X0141517Y0032071D01*
X0141619Y0031943D01*
X0141719Y0031812D01*
X0141815Y0031679D01*
X0141908Y0031543D01*
X0141998Y0031406D01*
X0142084Y0031266D01*
X0142166Y0031124D01*
X0142246Y0030980D01*
X0142321Y0030834D01*
X0142393Y0030687D01*
X0142462Y0030537D01*
X0142527Y0030386D01*
X0142588Y0030234D01*
X0142645Y0030080D01*
X0142698Y0029924D01*
X0142748Y0029768D01*
X0142794Y0029610D01*
X0142835Y0029451D01*
X0142873Y0029291D01*
X0142907Y0029131D01*
X0142937Y0028969D01*
X0142964Y0028807D01*
X0142986Y0028644D01*
X0143004Y0028481D01*
X0143018Y0028317D01*
X0143028Y0028153D01*
X0143034Y0027989D01*
X0143036Y0027825D01*
X0143034Y0027661D01*
X0143028Y0027497D01*
X0143018Y0027333D01*
X0143004Y0027169D01*
X0142986Y0027006D01*
X0142964Y0026843D01*
X0142937Y0026681D01*
X0142907Y0026519D01*
X0142873Y0026359D01*
X0142835Y0026199D01*
X0142794Y0026040D01*
X0142748Y0025882D01*
X0142698Y0025726D01*
X0142645Y0025570D01*
X0142588Y0025416D01*
X0142527Y0025264D01*
X0142462Y0025113D01*
X0142393Y0024963D01*
X0142321Y0024816D01*
X0142246Y0024670D01*
X0142166Y0024526D01*
X0142084Y0024384D01*
X0141998Y0024244D01*
X0141908Y0024107D01*
X0141815Y0023971D01*
X0141719Y0023838D01*
X0141619Y0023707D01*
X0141517Y0023579D01*
X0141411Y0023453D01*
X0141302Y0023330D01*
X0141190Y0023210D01*
X0141076Y0023092D01*
X0140958Y0022978D01*
X0140838Y0022866D01*
X0140715Y0022757D01*
X0140589Y0022651D01*
X0140461Y0022549D01*
X0140330Y0022449D01*
X0140197Y0022353D01*
X0140061Y0022260D01*
X0139924Y0022170D01*
X0139784Y0022084D01*
X0139642Y0022002D01*
X0139498Y0021922D01*
X0139352Y0021847D01*
X0139205Y0021775D01*
X0139055Y0021706D01*
X0138904Y0021641D01*
X0138752Y0021580D01*
X0138598Y0021523D01*
X0138442Y0021470D01*
X0138286Y0021420D01*
X0138128Y0021374D01*
X0137969Y0021333D01*
X0137809Y0021295D01*
X0137649Y0021261D01*
X0137487Y0021231D01*
X0137325Y0021204D01*
X0137162Y0021182D01*
X0136999Y0021164D01*
X0136835Y0021150D01*
X0136671Y0021140D01*
X0136507Y0021134D01*
X0136343Y0021132D01*
X0136179Y0021134D01*
X0136015Y0021140D01*
X0135851Y0021150D01*
X0135687Y0021164D01*
X0135524Y0021182D01*
X0135361Y0021204D01*
X0135199Y0021231D01*
X0135037Y0021261D01*
X0134877Y0021295D01*
X0134717Y0021333D01*
X0134558Y0021374D01*
X0134400Y0021420D01*
X0134244Y0021470D01*
X0134088Y0021523D01*
X0133934Y0021580D01*
X0133782Y0021641D01*
X0133631Y0021706D01*
X0133481Y0021775D01*
X0133334Y0021847D01*
X0133188Y0021922D01*
X0133044Y0022002D01*
X0132902Y0022084D01*
X0132762Y0022170D01*
X0132625Y0022260D01*
X0132489Y0022353D01*
X0132356Y0022449D01*
X0132225Y0022549D01*
X0132097Y0022651D01*
X0131971Y0022757D01*
X0131848Y0022866D01*
X0131728Y0022978D01*
X0131610Y0023092D01*
X0131496Y0023210D01*
X0131384Y0023330D01*
X0131275Y0023453D01*
X0131169Y0023579D01*
X0131067Y0023707D01*
X0130967Y0023838D01*
X0130871Y0023971D01*
X0130778Y0024107D01*
X0130688Y0024244D01*
X0130602Y0024384D01*
X0130520Y0024526D01*
X0130440Y0024670D01*
X0130365Y0024816D01*
X0130293Y0024963D01*
X0130224Y0025113D01*
X0130159Y0025264D01*
X0130098Y0025416D01*
X0130041Y0025570D01*
X0129988Y0025726D01*
X0129938Y0025882D01*
X0129892Y0026040D01*
X0129851Y0026199D01*
X0129813Y0026359D01*
X0129779Y0026519D01*
X0129749Y0026681D01*
X0129722Y0026843D01*
X0129700Y0027006D01*
X0129682Y0027169D01*
X0129668Y0027333D01*
X0129658Y0027497D01*
X0129652Y0027661D01*
X0129650Y0027825D01*
X0132012Y0040423D02*
X0140673Y0040423D01*
X0169020Y0039242D02*
X0170201Y0041211D01*
X0178469Y0041211D01*
X0179650Y0039242D01*
X0179650Y0094360D02*
X0178469Y0096329D01*
X0170201Y0096329D01*
X0169020Y0094360D01*
X0095004Y0018967D02*
X0089098Y0018967D01*
X0089098Y0007156D01*
X0095004Y0007156D01*
X0095004Y0018967D01*
X0088606Y0018474D02*
X0083685Y0018474D01*
X0083685Y0008632D01*
X0088606Y0008632D01*
X0088606Y0018474D01*
X0083685Y0018474D02*
X0078764Y0018474D01*
X0078764Y0008632D01*
X0083685Y0008632D01*
X0083685Y0018474D01*
X0077287Y0012569D02*
X0077287Y0006663D01*
X0065476Y0006663D01*
X0065476Y0012569D01*
X0077287Y0012569D01*
X0073843Y0015030D02*
X0073843Y0024872D01*
X0068921Y0024872D01*
X0068921Y0015030D01*
X0073843Y0015030D01*
X0068921Y0015030D02*
X0068921Y0024872D01*
X0064000Y0024872D01*
X0064000Y0015030D01*
X0068921Y0015030D01*
X0063508Y0012077D02*
X0063508Y0007156D01*
X0053665Y0007156D01*
X0053665Y0012077D01*
X0063508Y0012077D01*
X0053665Y0011093D02*
X0053665Y0006171D01*
X0043823Y0006171D01*
X0043823Y0011093D01*
X0053665Y0011093D01*
X0064000Y0030778D02*
X0068921Y0030778D01*
X0068921Y0040620D01*
X0064000Y0040620D01*
X0064000Y0030778D01*
X0064984Y0043081D02*
X0064984Y0048986D01*
X0076795Y0048986D01*
X0076795Y0043081D01*
X0064984Y0043081D01*
X0039394Y0115423D02*
X0029551Y0115423D01*
X0029551Y0120344D01*
X0039394Y0120344D01*
X0039394Y0115423D01*
X0039394Y0120344D02*
X0039394Y0125266D01*
X0039394Y0135108D01*
X0034472Y0135108D01*
X0034472Y0125266D01*
X0039394Y0125266D01*
X0029551Y0125266D01*
X0029551Y0120344D01*
X0039394Y0120344D01*
X0034472Y0125266D02*
X0034472Y0135108D01*
X0029551Y0135108D01*
X0039394Y0135108D01*
X0039394Y0140030D01*
X0029551Y0140030D01*
X0029551Y0135108D01*
X0029551Y0125266D01*
X0034472Y0125266D01*
X0028567Y0126250D02*
X0028567Y0136093D01*
X0023646Y0136093D01*
X0023646Y0126250D01*
X0028567Y0126250D01*
X0023646Y0126250D02*
X0023646Y0136093D01*
X0018724Y0136093D01*
X0018724Y0126250D01*
X0023646Y0126250D01*
X0023646Y0140030D02*
X0018724Y0140030D01*
X0018724Y0149872D01*
X0023646Y0149872D01*
X0023646Y0140030D01*
X0028567Y0140030D01*
X0028567Y0149872D01*
X0023646Y0149872D01*
X0023646Y0140030D01*
X0029551Y0140030D02*
X0039394Y0140030D01*
X0039394Y0144951D01*
X0029551Y0144951D01*
X0029551Y0140030D01*
X0029551Y0145935D02*
X0029551Y0155778D01*
X0034472Y0155778D01*
X0034472Y0145935D01*
X0039394Y0145935D01*
X0039394Y0155778D01*
X0034472Y0155778D01*
X0034472Y0145935D01*
X0029551Y0145935D01*
X0043331Y0171526D02*
X0049236Y0171526D01*
X0049236Y0183337D01*
X0043331Y0183337D01*
X0043331Y0171526D01*
X0043331Y0173494D02*
X0043331Y0183337D01*
X0038409Y0183337D01*
X0033488Y0183337D01*
X0033488Y0173494D01*
X0038409Y0173494D01*
X0038409Y0183337D01*
X0038409Y0173494D01*
X0043331Y0173494D01*
X0032504Y0179400D02*
X0032504Y0189242D01*
X0027583Y0189242D01*
X0027583Y0179400D01*
X0032504Y0179400D01*
X0027583Y0179400D02*
X0027583Y0189242D01*
X0027583Y0199085D01*
X0022661Y0199085D01*
X0022661Y0189242D01*
X0027583Y0189242D01*
X0022661Y0189242D01*
X0022661Y0179400D01*
X0027583Y0179400D01*
X0027583Y0189242D02*
X0032504Y0189242D01*
X0032504Y0199085D01*
X0027583Y0199085D01*
X0027583Y0189242D01*
D11*
X0041154Y0184864D02*
X0055350Y0184864D01*
X0055350Y0203463D02*
X0041154Y0203463D01*
X0064740Y0223039D02*
X0065808Y0221971D01*
X0067943Y0221971D01*
X0069011Y0223039D01*
X0069011Y0224106D01*
X0067943Y0225174D01*
X0065808Y0225174D01*
X0064740Y0226242D01*
X0064740Y0227309D01*
X0065808Y0228377D01*
X0067943Y0228377D01*
X0069011Y0227309D01*
X0071186Y0228377D02*
X0073321Y0226242D01*
X0075456Y0228377D01*
X0075456Y0221971D01*
X0077631Y0221971D02*
X0077631Y0226242D01*
X0079766Y0228377D01*
X0081902Y0226242D01*
X0081902Y0221971D01*
X0081902Y0225174D02*
X0077631Y0225174D01*
X0071186Y0221971D02*
X0071186Y0228377D01*
X0084077Y0225174D02*
X0088347Y0225174D01*
X0090522Y0226242D02*
X0092657Y0228377D01*
X0092657Y0221971D01*
X0090522Y0221971D02*
X0094793Y0221971D01*
X0096968Y0225174D02*
X0101238Y0225174D01*
X0103413Y0227309D02*
X0104481Y0228377D01*
X0106616Y0228377D01*
X0107684Y0227309D01*
X0107684Y0226242D01*
X0103413Y0221971D01*
X0107684Y0221971D01*
X0109859Y0225174D02*
X0114129Y0225174D01*
X0116304Y0223039D02*
X0116304Y0227309D01*
X0117372Y0228377D01*
X0119507Y0228377D01*
X0120575Y0227309D01*
X0116304Y0223039D01*
X0117372Y0221971D01*
X0119507Y0221971D01*
X0120575Y0223039D01*
X0120575Y0227309D01*
X0122750Y0228377D02*
X0127020Y0228377D01*
X0127020Y0227309D01*
X0122750Y0223039D01*
X0122750Y0221971D01*
X0129195Y0221971D02*
X0133466Y0221971D01*
X0131330Y0221971D02*
X0131330Y0228377D01*
X0129195Y0226242D01*
X0135641Y0226242D02*
X0137776Y0228377D01*
X0137776Y0221971D01*
X0135641Y0221971D02*
X0139911Y0221971D01*
X0142086Y0225174D02*
X0146356Y0225174D01*
X0148532Y0226242D02*
X0148532Y0227309D01*
X0149599Y0228377D01*
X0151734Y0228377D01*
X0152802Y0227309D01*
X0152802Y0226242D01*
X0151734Y0225174D01*
X0149599Y0225174D01*
X0148532Y0226242D01*
X0149599Y0225174D02*
X0148532Y0224106D01*
X0148532Y0223039D01*
X0149599Y0221971D01*
X0151734Y0221971D01*
X0152802Y0223039D01*
X0152802Y0224106D01*
X0151734Y0225174D01*
X0154977Y0227309D02*
X0156045Y0228377D01*
X0158180Y0228377D01*
X0159247Y0227309D01*
X0159247Y0226242D01*
X0154977Y0221971D01*
X0159247Y0221971D01*
X0161423Y0221971D02*
X0165693Y0221971D01*
X0163558Y0221971D02*
X0163558Y0228377D01*
X0161423Y0226242D01*
X0167868Y0221971D02*
X0172138Y0228377D01*
X0174314Y0227309D02*
X0174314Y0226242D01*
X0175381Y0225174D01*
X0177516Y0225174D01*
X0178584Y0224106D01*
X0178584Y0223039D01*
X0177516Y0221971D01*
X0175381Y0221971D01*
X0174314Y0223039D01*
X0174314Y0224106D01*
X0175381Y0225174D01*
X0177516Y0225174D02*
X0178584Y0226242D01*
X0178584Y0227309D01*
X0177516Y0228377D01*
X0175381Y0228377D01*
X0174314Y0227309D01*
X0180759Y0227309D02*
X0181827Y0228377D01*
X0183962Y0228377D01*
X0185029Y0227309D01*
X0185029Y0226242D01*
X0180759Y0221971D01*
X0185029Y0221971D01*
X0187205Y0223039D02*
X0188272Y0221971D01*
X0190407Y0221971D01*
X0191475Y0223039D01*
X0191475Y0224106D01*
X0190407Y0225174D01*
X0187205Y0225174D01*
X0187205Y0223039D01*
X0187205Y0225174D02*
X0189340Y0227309D01*
X0191475Y0228377D01*
X0192908Y0168377D02*
X0189705Y0165174D01*
X0193975Y0165174D01*
X0192908Y0161971D02*
X0192908Y0168377D01*
X0187530Y0168377D02*
X0183259Y0161971D01*
X0187530Y0161971D02*
X0183259Y0168377D01*
X0102102Y0145392D02*
X0087906Y0145392D01*
X0087906Y0126793D02*
X0102102Y0126793D01*
X0098165Y0092242D02*
X0083969Y0092242D01*
X0083969Y0073644D02*
X0098165Y0073644D01*
X0097181Y0038108D02*
X0082984Y0038108D01*
X0082984Y0019510D02*
X0097181Y0019510D01*
X0062965Y0020726D02*
X0062965Y0034923D01*
X0044366Y0034923D02*
X0044366Y0020726D01*
X0040429Y0075844D02*
X0040429Y0090041D01*
X0059028Y0090041D02*
X0059028Y0075844D01*
X0061748Y0118919D02*
X0047551Y0118919D01*
X0047551Y0137518D02*
X0061748Y0137518D01*
X0061748Y0139589D02*
X0047551Y0139589D01*
X0047551Y0158187D02*
X0061748Y0158187D01*
X0100170Y0221971D02*
X0100170Y0228377D01*
X0096968Y0225174D01*
D12*
X0042952Y0201263D02*
X0042954Y0201338D01*
X0042960Y0201412D01*
X0042970Y0201486D01*
X0042984Y0201559D01*
X0043001Y0201631D01*
X0043023Y0201703D01*
X0043048Y0201773D01*
X0043077Y0201841D01*
X0043110Y0201909D01*
X0043146Y0201974D01*
X0043185Y0202037D01*
X0043228Y0202098D01*
X0043274Y0202157D01*
X0043323Y0202213D01*
X0043375Y0202266D01*
X0043430Y0202317D01*
X0043487Y0202364D01*
X0043547Y0202409D01*
X0043609Y0202450D01*
X0043674Y0202488D01*
X0043740Y0202522D01*
X0043808Y0202553D01*
X0043877Y0202580D01*
X0043948Y0202603D01*
X0044020Y0202623D01*
X0044093Y0202639D01*
X0044166Y0202651D01*
X0044240Y0202659D01*
X0044315Y0202663D01*
X0044389Y0202663D01*
X0044464Y0202659D01*
X0044538Y0202651D01*
X0044611Y0202639D01*
X0044684Y0202623D01*
X0044756Y0202603D01*
X0044827Y0202580D01*
X0044896Y0202553D01*
X0044964Y0202522D01*
X0045030Y0202488D01*
X0045095Y0202450D01*
X0045157Y0202409D01*
X0045217Y0202364D01*
X0045274Y0202317D01*
X0045329Y0202266D01*
X0045381Y0202213D01*
X0045430Y0202157D01*
X0045476Y0202098D01*
X0045519Y0202037D01*
X0045558Y0201974D01*
X0045594Y0201909D01*
X0045627Y0201841D01*
X0045656Y0201773D01*
X0045681Y0201703D01*
X0045703Y0201631D01*
X0045720Y0201559D01*
X0045734Y0201486D01*
X0045744Y0201412D01*
X0045750Y0201338D01*
X0045752Y0201263D01*
X0045750Y0201188D01*
X0045744Y0201114D01*
X0045734Y0201040D01*
X0045720Y0200967D01*
X0045703Y0200895D01*
X0045681Y0200823D01*
X0045656Y0200753D01*
X0045627Y0200685D01*
X0045594Y0200617D01*
X0045558Y0200552D01*
X0045519Y0200489D01*
X0045476Y0200428D01*
X0045430Y0200369D01*
X0045381Y0200313D01*
X0045329Y0200260D01*
X0045274Y0200209D01*
X0045217Y0200162D01*
X0045157Y0200117D01*
X0045095Y0200076D01*
X0045030Y0200038D01*
X0044964Y0200004D01*
X0044896Y0199973D01*
X0044827Y0199946D01*
X0044756Y0199923D01*
X0044684Y0199903D01*
X0044611Y0199887D01*
X0044538Y0199875D01*
X0044464Y0199867D01*
X0044389Y0199863D01*
X0044315Y0199863D01*
X0044240Y0199867D01*
X0044166Y0199875D01*
X0044093Y0199887D01*
X0044020Y0199903D01*
X0043948Y0199923D01*
X0043877Y0199946D01*
X0043808Y0199973D01*
X0043740Y0200004D01*
X0043674Y0200038D01*
X0043609Y0200076D01*
X0043547Y0200117D01*
X0043487Y0200162D01*
X0043430Y0200209D01*
X0043375Y0200260D01*
X0043323Y0200313D01*
X0043274Y0200369D01*
X0043228Y0200428D01*
X0043185Y0200489D01*
X0043146Y0200552D01*
X0043110Y0200617D01*
X0043077Y0200685D01*
X0043048Y0200753D01*
X0043023Y0200823D01*
X0043001Y0200895D01*
X0042984Y0200967D01*
X0042970Y0201040D01*
X0042960Y0201114D01*
X0042954Y0201188D01*
X0042952Y0201263D01*
X0049350Y0155988D02*
X0049352Y0156063D01*
X0049358Y0156137D01*
X0049368Y0156211D01*
X0049382Y0156284D01*
X0049399Y0156356D01*
X0049421Y0156428D01*
X0049446Y0156498D01*
X0049475Y0156566D01*
X0049508Y0156634D01*
X0049544Y0156699D01*
X0049583Y0156762D01*
X0049626Y0156823D01*
X0049672Y0156882D01*
X0049721Y0156938D01*
X0049773Y0156991D01*
X0049828Y0157042D01*
X0049885Y0157089D01*
X0049945Y0157134D01*
X0050007Y0157175D01*
X0050072Y0157213D01*
X0050138Y0157247D01*
X0050206Y0157278D01*
X0050275Y0157305D01*
X0050346Y0157328D01*
X0050418Y0157348D01*
X0050491Y0157364D01*
X0050564Y0157376D01*
X0050638Y0157384D01*
X0050713Y0157388D01*
X0050787Y0157388D01*
X0050862Y0157384D01*
X0050936Y0157376D01*
X0051009Y0157364D01*
X0051082Y0157348D01*
X0051154Y0157328D01*
X0051225Y0157305D01*
X0051294Y0157278D01*
X0051362Y0157247D01*
X0051428Y0157213D01*
X0051493Y0157175D01*
X0051555Y0157134D01*
X0051615Y0157089D01*
X0051672Y0157042D01*
X0051727Y0156991D01*
X0051779Y0156938D01*
X0051828Y0156882D01*
X0051874Y0156823D01*
X0051917Y0156762D01*
X0051956Y0156699D01*
X0051992Y0156634D01*
X0052025Y0156566D01*
X0052054Y0156498D01*
X0052079Y0156428D01*
X0052101Y0156356D01*
X0052118Y0156284D01*
X0052132Y0156211D01*
X0052142Y0156137D01*
X0052148Y0156063D01*
X0052150Y0155988D01*
X0052148Y0155913D01*
X0052142Y0155839D01*
X0052132Y0155765D01*
X0052118Y0155692D01*
X0052101Y0155620D01*
X0052079Y0155548D01*
X0052054Y0155478D01*
X0052025Y0155410D01*
X0051992Y0155342D01*
X0051956Y0155277D01*
X0051917Y0155214D01*
X0051874Y0155153D01*
X0051828Y0155094D01*
X0051779Y0155038D01*
X0051727Y0154985D01*
X0051672Y0154934D01*
X0051615Y0154887D01*
X0051555Y0154842D01*
X0051493Y0154801D01*
X0051428Y0154763D01*
X0051362Y0154729D01*
X0051294Y0154698D01*
X0051225Y0154671D01*
X0051154Y0154648D01*
X0051082Y0154628D01*
X0051009Y0154612D01*
X0050936Y0154600D01*
X0050862Y0154592D01*
X0050787Y0154588D01*
X0050713Y0154588D01*
X0050638Y0154592D01*
X0050564Y0154600D01*
X0050491Y0154612D01*
X0050418Y0154628D01*
X0050346Y0154648D01*
X0050275Y0154671D01*
X0050206Y0154698D01*
X0050138Y0154729D01*
X0050072Y0154763D01*
X0050007Y0154801D01*
X0049945Y0154842D01*
X0049885Y0154887D01*
X0049828Y0154934D01*
X0049773Y0154985D01*
X0049721Y0155038D01*
X0049672Y0155094D01*
X0049626Y0155153D01*
X0049583Y0155214D01*
X0049544Y0155277D01*
X0049508Y0155342D01*
X0049475Y0155410D01*
X0049446Y0155478D01*
X0049421Y0155548D01*
X0049399Y0155620D01*
X0049382Y0155692D01*
X0049368Y0155765D01*
X0049358Y0155839D01*
X0049352Y0155913D01*
X0049350Y0155988D01*
X0049350Y0135319D02*
X0049352Y0135394D01*
X0049358Y0135468D01*
X0049368Y0135542D01*
X0049382Y0135615D01*
X0049399Y0135687D01*
X0049421Y0135759D01*
X0049446Y0135829D01*
X0049475Y0135897D01*
X0049508Y0135965D01*
X0049544Y0136030D01*
X0049583Y0136093D01*
X0049626Y0136154D01*
X0049672Y0136213D01*
X0049721Y0136269D01*
X0049773Y0136322D01*
X0049828Y0136373D01*
X0049885Y0136420D01*
X0049945Y0136465D01*
X0050007Y0136506D01*
X0050072Y0136544D01*
X0050138Y0136578D01*
X0050206Y0136609D01*
X0050275Y0136636D01*
X0050346Y0136659D01*
X0050418Y0136679D01*
X0050491Y0136695D01*
X0050564Y0136707D01*
X0050638Y0136715D01*
X0050713Y0136719D01*
X0050787Y0136719D01*
X0050862Y0136715D01*
X0050936Y0136707D01*
X0051009Y0136695D01*
X0051082Y0136679D01*
X0051154Y0136659D01*
X0051225Y0136636D01*
X0051294Y0136609D01*
X0051362Y0136578D01*
X0051428Y0136544D01*
X0051493Y0136506D01*
X0051555Y0136465D01*
X0051615Y0136420D01*
X0051672Y0136373D01*
X0051727Y0136322D01*
X0051779Y0136269D01*
X0051828Y0136213D01*
X0051874Y0136154D01*
X0051917Y0136093D01*
X0051956Y0136030D01*
X0051992Y0135965D01*
X0052025Y0135897D01*
X0052054Y0135829D01*
X0052079Y0135759D01*
X0052101Y0135687D01*
X0052118Y0135615D01*
X0052132Y0135542D01*
X0052142Y0135468D01*
X0052148Y0135394D01*
X0052150Y0135319D01*
X0052148Y0135244D01*
X0052142Y0135170D01*
X0052132Y0135096D01*
X0052118Y0135023D01*
X0052101Y0134951D01*
X0052079Y0134879D01*
X0052054Y0134809D01*
X0052025Y0134741D01*
X0051992Y0134673D01*
X0051956Y0134608D01*
X0051917Y0134545D01*
X0051874Y0134484D01*
X0051828Y0134425D01*
X0051779Y0134369D01*
X0051727Y0134316D01*
X0051672Y0134265D01*
X0051615Y0134218D01*
X0051555Y0134173D01*
X0051493Y0134132D01*
X0051428Y0134094D01*
X0051362Y0134060D01*
X0051294Y0134029D01*
X0051225Y0134002D01*
X0051154Y0133979D01*
X0051082Y0133959D01*
X0051009Y0133943D01*
X0050936Y0133931D01*
X0050862Y0133923D01*
X0050787Y0133919D01*
X0050713Y0133919D01*
X0050638Y0133923D01*
X0050564Y0133931D01*
X0050491Y0133943D01*
X0050418Y0133959D01*
X0050346Y0133979D01*
X0050275Y0134002D01*
X0050206Y0134029D01*
X0050138Y0134060D01*
X0050072Y0134094D01*
X0050007Y0134132D01*
X0049945Y0134173D01*
X0049885Y0134218D01*
X0049828Y0134265D01*
X0049773Y0134316D01*
X0049721Y0134369D01*
X0049672Y0134425D01*
X0049626Y0134484D01*
X0049583Y0134545D01*
X0049544Y0134608D01*
X0049508Y0134673D01*
X0049475Y0134741D01*
X0049446Y0134809D01*
X0049421Y0134879D01*
X0049399Y0134951D01*
X0049382Y0135023D01*
X0049368Y0135096D01*
X0049358Y0135170D01*
X0049352Y0135244D01*
X0049350Y0135319D01*
X0089704Y0143193D02*
X0089706Y0143268D01*
X0089712Y0143342D01*
X0089722Y0143416D01*
X0089736Y0143489D01*
X0089753Y0143561D01*
X0089775Y0143633D01*
X0089800Y0143703D01*
X0089829Y0143771D01*
X0089862Y0143839D01*
X0089898Y0143904D01*
X0089937Y0143967D01*
X0089980Y0144028D01*
X0090026Y0144087D01*
X0090075Y0144143D01*
X0090127Y0144196D01*
X0090182Y0144247D01*
X0090239Y0144294D01*
X0090299Y0144339D01*
X0090361Y0144380D01*
X0090426Y0144418D01*
X0090492Y0144452D01*
X0090560Y0144483D01*
X0090629Y0144510D01*
X0090700Y0144533D01*
X0090772Y0144553D01*
X0090845Y0144569D01*
X0090918Y0144581D01*
X0090992Y0144589D01*
X0091067Y0144593D01*
X0091141Y0144593D01*
X0091216Y0144589D01*
X0091290Y0144581D01*
X0091363Y0144569D01*
X0091436Y0144553D01*
X0091508Y0144533D01*
X0091579Y0144510D01*
X0091648Y0144483D01*
X0091716Y0144452D01*
X0091782Y0144418D01*
X0091847Y0144380D01*
X0091909Y0144339D01*
X0091969Y0144294D01*
X0092026Y0144247D01*
X0092081Y0144196D01*
X0092133Y0144143D01*
X0092182Y0144087D01*
X0092228Y0144028D01*
X0092271Y0143967D01*
X0092310Y0143904D01*
X0092346Y0143839D01*
X0092379Y0143771D01*
X0092408Y0143703D01*
X0092433Y0143633D01*
X0092455Y0143561D01*
X0092472Y0143489D01*
X0092486Y0143416D01*
X0092496Y0143342D01*
X0092502Y0143268D01*
X0092504Y0143193D01*
X0092502Y0143118D01*
X0092496Y0143044D01*
X0092486Y0142970D01*
X0092472Y0142897D01*
X0092455Y0142825D01*
X0092433Y0142753D01*
X0092408Y0142683D01*
X0092379Y0142615D01*
X0092346Y0142547D01*
X0092310Y0142482D01*
X0092271Y0142419D01*
X0092228Y0142358D01*
X0092182Y0142299D01*
X0092133Y0142243D01*
X0092081Y0142190D01*
X0092026Y0142139D01*
X0091969Y0142092D01*
X0091909Y0142047D01*
X0091847Y0142006D01*
X0091782Y0141968D01*
X0091716Y0141934D01*
X0091648Y0141903D01*
X0091579Y0141876D01*
X0091508Y0141853D01*
X0091436Y0141833D01*
X0091363Y0141817D01*
X0091290Y0141805D01*
X0091216Y0141797D01*
X0091141Y0141793D01*
X0091067Y0141793D01*
X0090992Y0141797D01*
X0090918Y0141805D01*
X0090845Y0141817D01*
X0090772Y0141833D01*
X0090700Y0141853D01*
X0090629Y0141876D01*
X0090560Y0141903D01*
X0090492Y0141934D01*
X0090426Y0141968D01*
X0090361Y0142006D01*
X0090299Y0142047D01*
X0090239Y0142092D01*
X0090182Y0142139D01*
X0090127Y0142190D01*
X0090075Y0142243D01*
X0090026Y0142299D01*
X0089980Y0142358D01*
X0089937Y0142419D01*
X0089898Y0142482D01*
X0089862Y0142547D01*
X0089829Y0142615D01*
X0089800Y0142683D01*
X0089775Y0142753D01*
X0089753Y0142825D01*
X0089736Y0142897D01*
X0089722Y0142970D01*
X0089712Y0143044D01*
X0089706Y0143118D01*
X0089704Y0143193D01*
X0085767Y0090043D02*
X0085769Y0090118D01*
X0085775Y0090192D01*
X0085785Y0090266D01*
X0085799Y0090339D01*
X0085816Y0090411D01*
X0085838Y0090483D01*
X0085863Y0090553D01*
X0085892Y0090621D01*
X0085925Y0090689D01*
X0085961Y0090754D01*
X0086000Y0090817D01*
X0086043Y0090878D01*
X0086089Y0090937D01*
X0086138Y0090993D01*
X0086190Y0091046D01*
X0086245Y0091097D01*
X0086302Y0091144D01*
X0086362Y0091189D01*
X0086424Y0091230D01*
X0086489Y0091268D01*
X0086555Y0091302D01*
X0086623Y0091333D01*
X0086692Y0091360D01*
X0086763Y0091383D01*
X0086835Y0091403D01*
X0086908Y0091419D01*
X0086981Y0091431D01*
X0087055Y0091439D01*
X0087130Y0091443D01*
X0087204Y0091443D01*
X0087279Y0091439D01*
X0087353Y0091431D01*
X0087426Y0091419D01*
X0087499Y0091403D01*
X0087571Y0091383D01*
X0087642Y0091360D01*
X0087711Y0091333D01*
X0087779Y0091302D01*
X0087845Y0091268D01*
X0087910Y0091230D01*
X0087972Y0091189D01*
X0088032Y0091144D01*
X0088089Y0091097D01*
X0088144Y0091046D01*
X0088196Y0090993D01*
X0088245Y0090937D01*
X0088291Y0090878D01*
X0088334Y0090817D01*
X0088373Y0090754D01*
X0088409Y0090689D01*
X0088442Y0090621D01*
X0088471Y0090553D01*
X0088496Y0090483D01*
X0088518Y0090411D01*
X0088535Y0090339D01*
X0088549Y0090266D01*
X0088559Y0090192D01*
X0088565Y0090118D01*
X0088567Y0090043D01*
X0088565Y0089968D01*
X0088559Y0089894D01*
X0088549Y0089820D01*
X0088535Y0089747D01*
X0088518Y0089675D01*
X0088496Y0089603D01*
X0088471Y0089533D01*
X0088442Y0089465D01*
X0088409Y0089397D01*
X0088373Y0089332D01*
X0088334Y0089269D01*
X0088291Y0089208D01*
X0088245Y0089149D01*
X0088196Y0089093D01*
X0088144Y0089040D01*
X0088089Y0088989D01*
X0088032Y0088942D01*
X0087972Y0088897D01*
X0087910Y0088856D01*
X0087845Y0088818D01*
X0087779Y0088784D01*
X0087711Y0088753D01*
X0087642Y0088726D01*
X0087571Y0088703D01*
X0087499Y0088683D01*
X0087426Y0088667D01*
X0087353Y0088655D01*
X0087279Y0088647D01*
X0087204Y0088643D01*
X0087130Y0088643D01*
X0087055Y0088647D01*
X0086981Y0088655D01*
X0086908Y0088667D01*
X0086835Y0088683D01*
X0086763Y0088703D01*
X0086692Y0088726D01*
X0086623Y0088753D01*
X0086555Y0088784D01*
X0086489Y0088818D01*
X0086424Y0088856D01*
X0086362Y0088897D01*
X0086302Y0088942D01*
X0086245Y0088989D01*
X0086190Y0089040D01*
X0086138Y0089093D01*
X0086089Y0089149D01*
X0086043Y0089208D01*
X0086000Y0089269D01*
X0085961Y0089332D01*
X0085925Y0089397D01*
X0085892Y0089465D01*
X0085863Y0089533D01*
X0085838Y0089603D01*
X0085816Y0089675D01*
X0085799Y0089747D01*
X0085785Y0089820D01*
X0085775Y0089894D01*
X0085769Y0089968D01*
X0085767Y0090043D01*
X0055428Y0086843D02*
X0055430Y0086918D01*
X0055436Y0086992D01*
X0055446Y0087066D01*
X0055460Y0087139D01*
X0055477Y0087211D01*
X0055499Y0087283D01*
X0055524Y0087353D01*
X0055553Y0087421D01*
X0055586Y0087489D01*
X0055622Y0087554D01*
X0055661Y0087617D01*
X0055704Y0087678D01*
X0055750Y0087737D01*
X0055799Y0087793D01*
X0055851Y0087846D01*
X0055906Y0087897D01*
X0055963Y0087944D01*
X0056023Y0087989D01*
X0056085Y0088030D01*
X0056150Y0088068D01*
X0056216Y0088102D01*
X0056284Y0088133D01*
X0056353Y0088160D01*
X0056424Y0088183D01*
X0056496Y0088203D01*
X0056569Y0088219D01*
X0056642Y0088231D01*
X0056716Y0088239D01*
X0056791Y0088243D01*
X0056865Y0088243D01*
X0056940Y0088239D01*
X0057014Y0088231D01*
X0057087Y0088219D01*
X0057160Y0088203D01*
X0057232Y0088183D01*
X0057303Y0088160D01*
X0057372Y0088133D01*
X0057440Y0088102D01*
X0057506Y0088068D01*
X0057571Y0088030D01*
X0057633Y0087989D01*
X0057693Y0087944D01*
X0057750Y0087897D01*
X0057805Y0087846D01*
X0057857Y0087793D01*
X0057906Y0087737D01*
X0057952Y0087678D01*
X0057995Y0087617D01*
X0058034Y0087554D01*
X0058070Y0087489D01*
X0058103Y0087421D01*
X0058132Y0087353D01*
X0058157Y0087283D01*
X0058179Y0087211D01*
X0058196Y0087139D01*
X0058210Y0087066D01*
X0058220Y0086992D01*
X0058226Y0086918D01*
X0058228Y0086843D01*
X0058226Y0086768D01*
X0058220Y0086694D01*
X0058210Y0086620D01*
X0058196Y0086547D01*
X0058179Y0086475D01*
X0058157Y0086403D01*
X0058132Y0086333D01*
X0058103Y0086265D01*
X0058070Y0086197D01*
X0058034Y0086132D01*
X0057995Y0086069D01*
X0057952Y0086008D01*
X0057906Y0085949D01*
X0057857Y0085893D01*
X0057805Y0085840D01*
X0057750Y0085789D01*
X0057693Y0085742D01*
X0057633Y0085697D01*
X0057571Y0085656D01*
X0057506Y0085618D01*
X0057440Y0085584D01*
X0057372Y0085553D01*
X0057303Y0085526D01*
X0057232Y0085503D01*
X0057160Y0085483D01*
X0057087Y0085467D01*
X0057014Y0085455D01*
X0056940Y0085447D01*
X0056865Y0085443D01*
X0056791Y0085443D01*
X0056716Y0085447D01*
X0056642Y0085455D01*
X0056569Y0085467D01*
X0056496Y0085483D01*
X0056424Y0085503D01*
X0056353Y0085526D01*
X0056284Y0085553D01*
X0056216Y0085584D01*
X0056150Y0085618D01*
X0056085Y0085656D01*
X0056023Y0085697D01*
X0055963Y0085742D01*
X0055906Y0085789D01*
X0055851Y0085840D01*
X0055799Y0085893D01*
X0055750Y0085949D01*
X0055704Y0086008D01*
X0055661Y0086069D01*
X0055622Y0086132D01*
X0055586Y0086197D01*
X0055553Y0086265D01*
X0055524Y0086333D01*
X0055499Y0086403D01*
X0055477Y0086475D01*
X0055460Y0086547D01*
X0055446Y0086620D01*
X0055436Y0086694D01*
X0055430Y0086768D01*
X0055428Y0086843D01*
X0084783Y0035909D02*
X0084785Y0035984D01*
X0084791Y0036058D01*
X0084801Y0036132D01*
X0084815Y0036205D01*
X0084832Y0036277D01*
X0084854Y0036349D01*
X0084879Y0036419D01*
X0084908Y0036487D01*
X0084941Y0036555D01*
X0084977Y0036620D01*
X0085016Y0036683D01*
X0085059Y0036744D01*
X0085105Y0036803D01*
X0085154Y0036859D01*
X0085206Y0036912D01*
X0085261Y0036963D01*
X0085318Y0037010D01*
X0085378Y0037055D01*
X0085440Y0037096D01*
X0085505Y0037134D01*
X0085571Y0037168D01*
X0085639Y0037199D01*
X0085708Y0037226D01*
X0085779Y0037249D01*
X0085851Y0037269D01*
X0085924Y0037285D01*
X0085997Y0037297D01*
X0086071Y0037305D01*
X0086146Y0037309D01*
X0086220Y0037309D01*
X0086295Y0037305D01*
X0086369Y0037297D01*
X0086442Y0037285D01*
X0086515Y0037269D01*
X0086587Y0037249D01*
X0086658Y0037226D01*
X0086727Y0037199D01*
X0086795Y0037168D01*
X0086861Y0037134D01*
X0086926Y0037096D01*
X0086988Y0037055D01*
X0087048Y0037010D01*
X0087105Y0036963D01*
X0087160Y0036912D01*
X0087212Y0036859D01*
X0087261Y0036803D01*
X0087307Y0036744D01*
X0087350Y0036683D01*
X0087389Y0036620D01*
X0087425Y0036555D01*
X0087458Y0036487D01*
X0087487Y0036419D01*
X0087512Y0036349D01*
X0087534Y0036277D01*
X0087551Y0036205D01*
X0087565Y0036132D01*
X0087575Y0036058D01*
X0087581Y0035984D01*
X0087583Y0035909D01*
X0087581Y0035834D01*
X0087575Y0035760D01*
X0087565Y0035686D01*
X0087551Y0035613D01*
X0087534Y0035541D01*
X0087512Y0035469D01*
X0087487Y0035399D01*
X0087458Y0035331D01*
X0087425Y0035263D01*
X0087389Y0035198D01*
X0087350Y0035135D01*
X0087307Y0035074D01*
X0087261Y0035015D01*
X0087212Y0034959D01*
X0087160Y0034906D01*
X0087105Y0034855D01*
X0087048Y0034808D01*
X0086988Y0034763D01*
X0086926Y0034722D01*
X0086861Y0034684D01*
X0086795Y0034650D01*
X0086727Y0034619D01*
X0086658Y0034592D01*
X0086587Y0034569D01*
X0086515Y0034549D01*
X0086442Y0034533D01*
X0086369Y0034521D01*
X0086295Y0034513D01*
X0086220Y0034509D01*
X0086146Y0034509D01*
X0086071Y0034513D01*
X0085997Y0034521D01*
X0085924Y0034533D01*
X0085851Y0034549D01*
X0085779Y0034569D01*
X0085708Y0034592D01*
X0085639Y0034619D01*
X0085571Y0034650D01*
X0085505Y0034684D01*
X0085440Y0034722D01*
X0085378Y0034763D01*
X0085318Y0034808D01*
X0085261Y0034855D01*
X0085206Y0034906D01*
X0085154Y0034959D01*
X0085105Y0035015D01*
X0085059Y0035074D01*
X0085016Y0035135D01*
X0084977Y0035198D01*
X0084941Y0035263D01*
X0084908Y0035331D01*
X0084879Y0035399D01*
X0084854Y0035469D01*
X0084832Y0035541D01*
X0084815Y0035613D01*
X0084801Y0035686D01*
X0084791Y0035760D01*
X0084785Y0035834D01*
X0084783Y0035909D01*
X0045165Y0023925D02*
X0045167Y0024000D01*
X0045173Y0024074D01*
X0045183Y0024148D01*
X0045197Y0024221D01*
X0045214Y0024293D01*
X0045236Y0024365D01*
X0045261Y0024435D01*
X0045290Y0024503D01*
X0045323Y0024571D01*
X0045359Y0024636D01*
X0045398Y0024699D01*
X0045441Y0024760D01*
X0045487Y0024819D01*
X0045536Y0024875D01*
X0045588Y0024928D01*
X0045643Y0024979D01*
X0045700Y0025026D01*
X0045760Y0025071D01*
X0045822Y0025112D01*
X0045887Y0025150D01*
X0045953Y0025184D01*
X0046021Y0025215D01*
X0046090Y0025242D01*
X0046161Y0025265D01*
X0046233Y0025285D01*
X0046306Y0025301D01*
X0046379Y0025313D01*
X0046453Y0025321D01*
X0046528Y0025325D01*
X0046602Y0025325D01*
X0046677Y0025321D01*
X0046751Y0025313D01*
X0046824Y0025301D01*
X0046897Y0025285D01*
X0046969Y0025265D01*
X0047040Y0025242D01*
X0047109Y0025215D01*
X0047177Y0025184D01*
X0047243Y0025150D01*
X0047308Y0025112D01*
X0047370Y0025071D01*
X0047430Y0025026D01*
X0047487Y0024979D01*
X0047542Y0024928D01*
X0047594Y0024875D01*
X0047643Y0024819D01*
X0047689Y0024760D01*
X0047732Y0024699D01*
X0047771Y0024636D01*
X0047807Y0024571D01*
X0047840Y0024503D01*
X0047869Y0024435D01*
X0047894Y0024365D01*
X0047916Y0024293D01*
X0047933Y0024221D01*
X0047947Y0024148D01*
X0047957Y0024074D01*
X0047963Y0024000D01*
X0047965Y0023925D01*
X0047963Y0023850D01*
X0047957Y0023776D01*
X0047947Y0023702D01*
X0047933Y0023629D01*
X0047916Y0023557D01*
X0047894Y0023485D01*
X0047869Y0023415D01*
X0047840Y0023347D01*
X0047807Y0023279D01*
X0047771Y0023214D01*
X0047732Y0023151D01*
X0047689Y0023090D01*
X0047643Y0023031D01*
X0047594Y0022975D01*
X0047542Y0022922D01*
X0047487Y0022871D01*
X0047430Y0022824D01*
X0047370Y0022779D01*
X0047308Y0022738D01*
X0047243Y0022700D01*
X0047177Y0022666D01*
X0047109Y0022635D01*
X0047040Y0022608D01*
X0046969Y0022585D01*
X0046897Y0022565D01*
X0046824Y0022549D01*
X0046751Y0022537D01*
X0046677Y0022529D01*
X0046602Y0022525D01*
X0046528Y0022525D01*
X0046453Y0022529D01*
X0046379Y0022537D01*
X0046306Y0022549D01*
X0046233Y0022565D01*
X0046161Y0022585D01*
X0046090Y0022608D01*
X0046021Y0022635D01*
X0045953Y0022666D01*
X0045887Y0022700D01*
X0045822Y0022738D01*
X0045760Y0022779D01*
X0045700Y0022824D01*
X0045643Y0022871D01*
X0045588Y0022922D01*
X0045536Y0022975D01*
X0045487Y0023031D01*
X0045441Y0023090D01*
X0045398Y0023151D01*
X0045359Y0023214D01*
X0045323Y0023279D01*
X0045290Y0023347D01*
X0045261Y0023415D01*
X0045236Y0023485D01*
X0045214Y0023557D01*
X0045197Y0023629D01*
X0045183Y0023702D01*
X0045173Y0023776D01*
X0045167Y0023850D01*
X0045165Y0023925D01*
D13*
X0042665Y0024679D02*
X0042665Y0027681D01*
X0042665Y0026180D02*
X0038162Y0026180D01*
X0039663Y0024679D01*
X0038162Y0023077D02*
X0041915Y0023077D01*
X0042665Y0022327D01*
X0042665Y0020825D01*
X0041915Y0020075D01*
X0038162Y0020075D01*
X0064662Y0020075D02*
X0069165Y0020075D01*
X0069165Y0023077D01*
X0069165Y0024679D02*
X0064662Y0024679D01*
X0066163Y0026180D01*
X0064662Y0027681D01*
X0069165Y0027681D01*
X0069165Y0029283D02*
X0064662Y0029283D01*
X0066913Y0029283D02*
X0066913Y0032285D01*
X0066913Y0033887D02*
X0066913Y0036138D01*
X0067664Y0036889D01*
X0068415Y0036889D01*
X0069165Y0036138D01*
X0069165Y0034637D01*
X0068415Y0033887D01*
X0066913Y0033887D01*
X0065412Y0035388D01*
X0064662Y0036889D01*
X0064662Y0038491D02*
X0066913Y0038491D01*
X0066163Y0039992D01*
X0066163Y0040742D01*
X0066913Y0041493D01*
X0068415Y0041493D01*
X0069165Y0040742D01*
X0069165Y0039241D01*
X0068415Y0038491D01*
X0064662Y0038491D02*
X0064662Y0041493D01*
X0064662Y0043094D02*
X0066913Y0043094D01*
X0066163Y0044596D01*
X0066163Y0045346D01*
X0066913Y0046097D01*
X0068415Y0046097D01*
X0069165Y0045346D01*
X0069165Y0043845D01*
X0068415Y0043094D01*
X0064662Y0043094D02*
X0064662Y0046097D01*
X0065412Y0047698D02*
X0064662Y0048449D01*
X0064662Y0049950D01*
X0065412Y0050701D01*
X0066163Y0050701D01*
X0069165Y0047698D01*
X0069165Y0050701D01*
X0082333Y0044313D02*
X0083834Y0044313D01*
X0083083Y0044313D02*
X0083083Y0039809D01*
X0082333Y0039809D02*
X0083834Y0039809D01*
X0085402Y0040560D02*
X0085402Y0043562D01*
X0086153Y0044313D01*
X0087654Y0044313D01*
X0088405Y0043562D01*
X0090006Y0044313D02*
X0093008Y0044313D01*
X0093008Y0043562D01*
X0090006Y0040560D01*
X0090006Y0039809D01*
X0088405Y0040560D02*
X0087654Y0039809D01*
X0086153Y0039809D01*
X0085402Y0040560D01*
X0069165Y0032285D02*
X0064662Y0032285D01*
X0082333Y0017813D02*
X0085335Y0017813D01*
X0083834Y0017813D02*
X0083834Y0013309D01*
X0086937Y0013309D02*
X0086937Y0017813D01*
X0086937Y0015561D02*
X0089939Y0015561D01*
X0091541Y0016312D02*
X0092291Y0015561D01*
X0093792Y0015561D01*
X0094543Y0014810D01*
X0094543Y0014060D01*
X0093792Y0013309D01*
X0092291Y0013309D01*
X0091541Y0014060D01*
X0089939Y0013309D02*
X0089939Y0017813D01*
X0091541Y0017062D02*
X0091541Y0016312D01*
X0091541Y0017062D02*
X0092291Y0017813D01*
X0093792Y0017813D01*
X0094543Y0017062D01*
X0096144Y0015561D02*
X0099147Y0015561D01*
X0100748Y0014060D02*
X0100748Y0013309D01*
X0100748Y0014060D02*
X0103751Y0017062D01*
X0103751Y0017813D01*
X0100748Y0017813D01*
X0098396Y0017813D02*
X0096144Y0015561D01*
X0098396Y0013309D02*
X0098396Y0017813D01*
X0105352Y0017062D02*
X0106103Y0017813D01*
X0107604Y0017813D01*
X0108355Y0017062D01*
X0108355Y0016312D01*
X0105352Y0013309D01*
X0108355Y0013309D01*
X0109956Y0013309D02*
X0112959Y0013309D01*
X0111458Y0013309D02*
X0111458Y0017813D01*
X0109956Y0016312D01*
X0109339Y0067443D02*
X0106337Y0067443D01*
X0109339Y0070445D01*
X0109339Y0071196D01*
X0108588Y0071947D01*
X0107087Y0071947D01*
X0106337Y0071196D01*
X0104735Y0071196D02*
X0101733Y0068194D01*
X0101733Y0067443D01*
X0099381Y0067443D02*
X0099381Y0071947D01*
X0097129Y0069695D01*
X0100131Y0069695D01*
X0101733Y0071947D02*
X0104735Y0071947D01*
X0104735Y0071196D01*
X0110940Y0070445D02*
X0112442Y0071947D01*
X0112442Y0067443D01*
X0113943Y0067443D02*
X0110940Y0067443D01*
X0095527Y0068194D02*
X0094777Y0067443D01*
X0093275Y0067443D01*
X0092525Y0068194D01*
X0093275Y0069695D02*
X0094777Y0069695D01*
X0095527Y0068944D01*
X0095527Y0068194D01*
X0093275Y0069695D02*
X0092525Y0070445D01*
X0092525Y0071196D01*
X0093275Y0071947D01*
X0094777Y0071947D01*
X0095527Y0071196D01*
X0090923Y0071947D02*
X0090923Y0067443D01*
X0090923Y0069695D02*
X0087921Y0069695D01*
X0087921Y0067443D02*
X0087921Y0071947D01*
X0086319Y0071947D02*
X0083317Y0071947D01*
X0084818Y0071947D02*
X0084818Y0067443D01*
X0065228Y0078916D02*
X0065228Y0080417D01*
X0065228Y0079666D02*
X0060725Y0079666D01*
X0060725Y0078916D02*
X0060725Y0080417D01*
X0061475Y0081985D02*
X0064478Y0081985D01*
X0065228Y0082736D01*
X0065228Y0084237D01*
X0064478Y0084988D01*
X0065228Y0086589D02*
X0062226Y0089592D01*
X0061475Y0089592D01*
X0060725Y0088841D01*
X0060725Y0087340D01*
X0061475Y0086589D01*
X0061475Y0084988D02*
X0060725Y0084237D01*
X0060725Y0082736D01*
X0061475Y0081985D01*
X0065228Y0086589D02*
X0065228Y0089592D01*
X0083317Y0093943D02*
X0084818Y0093943D01*
X0084068Y0093943D02*
X0084068Y0098447D01*
X0084818Y0098447D02*
X0083317Y0098447D01*
X0086386Y0097696D02*
X0086386Y0094694D01*
X0087137Y0093943D01*
X0088638Y0093943D01*
X0089389Y0094694D01*
X0090990Y0093943D02*
X0093993Y0093943D01*
X0092491Y0093943D02*
X0092491Y0098447D01*
X0090990Y0096945D01*
X0089389Y0097696D02*
X0088638Y0098447D01*
X0087137Y0098447D01*
X0086386Y0097696D01*
X0077526Y0112719D02*
X0074523Y0112719D01*
X0077526Y0115721D01*
X0077526Y0116472D01*
X0076775Y0117222D01*
X0075274Y0117222D01*
X0074523Y0116472D01*
X0072922Y0116472D02*
X0069919Y0113469D01*
X0070670Y0112719D01*
X0072171Y0112719D01*
X0072922Y0113469D01*
X0072922Y0116472D01*
X0072171Y0117222D01*
X0070670Y0117222D01*
X0069919Y0116472D01*
X0069919Y0113469D01*
X0068318Y0116472D02*
X0065315Y0113469D01*
X0065315Y0112719D01*
X0063714Y0113469D02*
X0063714Y0114220D01*
X0062963Y0114970D01*
X0060711Y0114970D01*
X0060711Y0113469D01*
X0061462Y0112719D01*
X0062963Y0112719D01*
X0063714Y0113469D01*
X0062213Y0116472D02*
X0060711Y0114970D01*
X0059110Y0114970D02*
X0056107Y0114970D01*
X0056107Y0112719D02*
X0056107Y0117222D01*
X0054506Y0117222D02*
X0054506Y0112719D01*
X0053005Y0115721D02*
X0054506Y0117222D01*
X0053005Y0115721D02*
X0051504Y0117222D01*
X0051504Y0112719D01*
X0049902Y0112719D02*
X0046900Y0112719D01*
X0046900Y0117222D01*
X0059110Y0117222D02*
X0059110Y0112719D01*
X0062213Y0116472D02*
X0063714Y0117222D01*
X0065315Y0117222D02*
X0068318Y0117222D01*
X0068318Y0116472D01*
X0070670Y0133388D02*
X0069919Y0134138D01*
X0072922Y0137141D01*
X0072922Y0134138D01*
X0072171Y0133388D01*
X0070670Y0133388D01*
X0069919Y0134138D02*
X0069919Y0137141D01*
X0070670Y0137892D01*
X0072171Y0137892D01*
X0072922Y0137141D01*
X0074523Y0137141D02*
X0075274Y0137892D01*
X0076775Y0137892D01*
X0077526Y0137141D01*
X0077526Y0136390D01*
X0074523Y0133388D01*
X0077526Y0133388D01*
X0068318Y0137141D02*
X0065315Y0134138D01*
X0065315Y0133388D01*
X0063714Y0134138D02*
X0063714Y0134889D01*
X0062963Y0135640D01*
X0060711Y0135640D01*
X0060711Y0134138D01*
X0061462Y0133388D01*
X0062963Y0133388D01*
X0063714Y0134138D01*
X0062213Y0137141D02*
X0060711Y0135640D01*
X0059110Y0135640D02*
X0056107Y0135640D01*
X0056107Y0133388D02*
X0056107Y0137892D01*
X0056825Y0139219D02*
X0055323Y0139219D01*
X0054573Y0139969D01*
X0052971Y0139969D02*
X0052221Y0139219D01*
X0050720Y0139219D01*
X0049969Y0139969D01*
X0049969Y0142972D01*
X0050720Y0143722D01*
X0052221Y0143722D01*
X0052971Y0142972D01*
X0054573Y0142972D02*
X0055323Y0143722D01*
X0056825Y0143722D01*
X0057575Y0142972D01*
X0057575Y0142221D01*
X0056825Y0141470D01*
X0057575Y0140720D01*
X0057575Y0139969D01*
X0056825Y0139219D01*
X0056825Y0141470D02*
X0056074Y0141470D01*
X0054506Y0137892D02*
X0054506Y0133388D01*
X0053005Y0136390D02*
X0054506Y0137892D01*
X0053005Y0136390D02*
X0051504Y0137892D01*
X0051504Y0133388D01*
X0049902Y0133388D02*
X0046900Y0133388D01*
X0046900Y0137892D01*
X0046900Y0139219D02*
X0048401Y0139219D01*
X0047650Y0139219D02*
X0047650Y0143722D01*
X0046900Y0143722D02*
X0048401Y0143722D01*
X0059110Y0137892D02*
X0059110Y0133388D01*
X0062213Y0137141D02*
X0063714Y0137892D01*
X0065315Y0137892D02*
X0068318Y0137892D01*
X0068318Y0137141D01*
X0087254Y0147093D02*
X0088755Y0147093D01*
X0088005Y0147093D02*
X0088005Y0151596D01*
X0088755Y0151596D02*
X0087254Y0151596D01*
X0090323Y0150846D02*
X0090323Y0147843D01*
X0091074Y0147093D01*
X0092575Y0147093D01*
X0093326Y0147843D01*
X0094927Y0149344D02*
X0097930Y0149344D01*
X0097179Y0147093D02*
X0097179Y0151596D01*
X0094927Y0149344D01*
X0093326Y0150846D02*
X0092575Y0151596D01*
X0091074Y0151596D01*
X0090323Y0150846D01*
X0091858Y0125096D02*
X0093359Y0123595D01*
X0094860Y0125096D01*
X0094860Y0120593D01*
X0096462Y0120593D02*
X0096462Y0125096D01*
X0096462Y0122844D02*
X0099464Y0122844D01*
X0101066Y0122844D02*
X0103318Y0122844D01*
X0104068Y0122094D01*
X0104068Y0121343D01*
X0103318Y0120593D01*
X0101816Y0120593D01*
X0101066Y0121343D01*
X0101066Y0122844D01*
X0102567Y0124346D01*
X0104068Y0125096D01*
X0105670Y0125096D02*
X0108672Y0125096D01*
X0108672Y0124346D01*
X0105670Y0121343D01*
X0105670Y0120593D01*
X0110274Y0121343D02*
X0110274Y0124346D01*
X0111024Y0125096D01*
X0112525Y0125096D01*
X0113276Y0124346D01*
X0110274Y0121343D01*
X0111024Y0120593D01*
X0112525Y0120593D01*
X0113276Y0121343D01*
X0113276Y0124346D01*
X0114877Y0124346D02*
X0115628Y0125096D01*
X0117129Y0125096D01*
X0117880Y0124346D01*
X0117880Y0123595D01*
X0114877Y0120593D01*
X0117880Y0120593D01*
X0099464Y0120593D02*
X0099464Y0125096D01*
X0091858Y0125096D02*
X0091858Y0120593D01*
X0090256Y0120593D02*
X0087254Y0120593D01*
X0087254Y0125096D01*
X0056825Y0159888D02*
X0055323Y0159888D01*
X0054573Y0160638D01*
X0054573Y0162140D02*
X0056074Y0162890D01*
X0056825Y0162890D01*
X0057575Y0162140D01*
X0057575Y0160638D01*
X0056825Y0159888D01*
X0054573Y0162140D02*
X0054573Y0164392D01*
X0057575Y0164392D01*
X0052971Y0163641D02*
X0052221Y0164392D01*
X0050720Y0164392D01*
X0049969Y0163641D01*
X0049969Y0160638D01*
X0050720Y0159888D01*
X0052221Y0159888D01*
X0052971Y0160638D01*
X0048401Y0159888D02*
X0046900Y0159888D01*
X0047650Y0159888D02*
X0047650Y0164392D01*
X0046900Y0164392D02*
X0048401Y0164392D01*
X0048108Y0178663D02*
X0048108Y0183167D01*
X0046607Y0181666D01*
X0045106Y0183167D01*
X0045106Y0178663D01*
X0043505Y0178663D02*
X0040502Y0178663D01*
X0040502Y0183167D01*
X0049710Y0183167D02*
X0049710Y0178663D01*
X0049710Y0180915D02*
X0052712Y0180915D01*
X0054314Y0180915D02*
X0056566Y0180915D01*
X0057316Y0180165D01*
X0057316Y0179414D01*
X0056566Y0178663D01*
X0055064Y0178663D01*
X0054314Y0179414D01*
X0054314Y0180915D01*
X0055815Y0182417D01*
X0057316Y0183167D01*
X0058918Y0183167D02*
X0061920Y0183167D01*
X0061920Y0182417D01*
X0058918Y0179414D01*
X0058918Y0178663D01*
X0063522Y0179414D02*
X0066524Y0182417D01*
X0066524Y0179414D01*
X0065774Y0178663D01*
X0064272Y0178663D01*
X0063522Y0179414D01*
X0063522Y0182417D01*
X0064272Y0183167D01*
X0065774Y0183167D01*
X0066524Y0182417D01*
X0068126Y0182417D02*
X0068876Y0183167D01*
X0070377Y0183167D01*
X0071128Y0182417D01*
X0071128Y0181666D01*
X0068126Y0178663D01*
X0071128Y0178663D01*
X0052712Y0178663D02*
X0052712Y0183167D01*
X0052779Y0205163D02*
X0055782Y0205163D01*
X0054280Y0205163D02*
X0054280Y0209667D01*
X0052779Y0208166D01*
X0051178Y0205163D02*
X0048175Y0205163D01*
X0049676Y0205163D02*
X0049676Y0209667D01*
X0048175Y0208166D01*
X0046574Y0208917D02*
X0045823Y0209667D01*
X0044322Y0209667D01*
X0043571Y0208917D01*
X0043571Y0205914D01*
X0044322Y0205163D01*
X0045823Y0205163D01*
X0046574Y0205914D01*
X0042003Y0205163D02*
X0040502Y0205163D01*
X0041253Y0205163D02*
X0041253Y0209667D01*
X0042003Y0209667D02*
X0040502Y0209667D01*
X0037978Y0089591D02*
X0034225Y0089591D01*
X0034225Y0086589D02*
X0037978Y0086589D01*
X0038728Y0087340D01*
X0038728Y0088841D01*
X0037978Y0089591D01*
X0037978Y0084988D02*
X0034975Y0084988D01*
X0037978Y0081985D01*
X0038728Y0082736D01*
X0038728Y0084237D01*
X0037978Y0084988D01*
X0037978Y0081985D02*
X0034975Y0081985D01*
X0034225Y0082736D01*
X0034225Y0084237D01*
X0034975Y0084988D01*
X0034975Y0080384D02*
X0035726Y0080384D01*
X0036476Y0079633D01*
X0037227Y0080384D01*
X0037978Y0080384D01*
X0038728Y0079633D01*
X0038728Y0078132D01*
X0037978Y0077381D01*
X0038728Y0075780D02*
X0038728Y0072777D01*
X0038728Y0074278D02*
X0034225Y0074278D01*
X0035726Y0072777D01*
X0035726Y0071176D02*
X0034975Y0071176D01*
X0034225Y0070425D01*
X0034225Y0068924D01*
X0034975Y0068173D01*
X0035726Y0066572D02*
X0034225Y0065071D01*
X0035726Y0063569D01*
X0038728Y0063569D01*
X0036476Y0063569D02*
X0036476Y0066572D01*
X0035726Y0066572D02*
X0038728Y0066572D01*
X0038728Y0068173D02*
X0035726Y0071176D01*
X0038728Y0071176D02*
X0038728Y0068173D01*
X0036476Y0061968D02*
X0034975Y0061968D01*
X0034225Y0061217D01*
X0034225Y0058965D01*
X0038728Y0058965D01*
X0037227Y0058965D02*
X0037227Y0061217D01*
X0036476Y0061968D01*
X0034975Y0057364D02*
X0034225Y0056613D01*
X0034225Y0055112D01*
X0034975Y0054361D01*
X0037978Y0054361D01*
X0038728Y0055112D01*
X0038728Y0056613D01*
X0037978Y0057364D01*
X0034975Y0057364D01*
X0034975Y0077381D02*
X0034225Y0078132D01*
X0034225Y0079633D01*
X0034975Y0080384D01*
X0036476Y0079633D02*
X0036476Y0078882D01*
D14*
X0124043Y0064480D02*
X0124043Y0063712D01*
X0124810Y0062945D01*
X0126344Y0062945D01*
X0127112Y0062178D01*
X0127112Y0061410D01*
X0126344Y0060643D01*
X0124810Y0060643D01*
X0124043Y0061410D01*
X0124043Y0064480D02*
X0124810Y0065247D01*
X0126344Y0065247D01*
X0127112Y0064480D01*
X0128646Y0065247D02*
X0128646Y0060643D01*
X0131716Y0060643D02*
X0131716Y0065247D01*
X0130181Y0063712D01*
X0128646Y0065247D01*
X0133250Y0063712D02*
X0133250Y0060643D01*
X0133250Y0062945D02*
X0136320Y0062945D01*
X0136320Y0063712D02*
X0136320Y0060643D01*
X0137854Y0062945D02*
X0140924Y0062945D01*
X0142458Y0062945D02*
X0145527Y0062945D01*
X0147062Y0062945D02*
X0149364Y0062945D01*
X0150131Y0062178D01*
X0150131Y0061410D01*
X0149364Y0060643D01*
X0147062Y0060643D01*
X0147062Y0065247D01*
X0149364Y0065247D01*
X0150131Y0064480D01*
X0150131Y0063712D01*
X0149364Y0062945D01*
X0151666Y0061410D02*
X0152433Y0060643D01*
X0153968Y0060643D01*
X0154735Y0061410D01*
X0154735Y0065247D01*
X0156270Y0062945D02*
X0159339Y0062945D01*
X0160874Y0063712D02*
X0161641Y0062945D01*
X0163176Y0062945D01*
X0163943Y0062178D01*
X0163943Y0061410D01*
X0163176Y0060643D01*
X0161641Y0060643D01*
X0160874Y0061410D01*
X0160874Y0063712D02*
X0160874Y0064480D01*
X0161641Y0065247D01*
X0163176Y0065247D01*
X0163943Y0064480D01*
X0165478Y0065247D02*
X0165478Y0060643D01*
X0167012Y0063712D02*
X0168547Y0065247D01*
X0168547Y0060643D01*
X0170082Y0060643D02*
X0170082Y0063712D01*
X0171616Y0065247D01*
X0173151Y0063712D01*
X0173151Y0060643D01*
X0173151Y0062945D02*
X0170082Y0062945D01*
X0167012Y0063712D02*
X0165478Y0065247D01*
X0174686Y0062945D02*
X0177755Y0062945D01*
X0179290Y0062945D02*
X0182359Y0062945D01*
X0182359Y0065247D02*
X0182359Y0060643D01*
X0179290Y0060643D02*
X0179290Y0065247D01*
X0151666Y0065247D02*
X0151666Y0061410D01*
X0136320Y0063712D02*
X0134785Y0065247D01*
X0133250Y0063712D01*
X0133448Y0050129D02*
X0131914Y0050129D01*
X0131146Y0049361D01*
X0129612Y0050129D02*
X0126543Y0045525D01*
X0129612Y0045525D02*
X0126543Y0050129D01*
X0131146Y0046292D02*
X0131914Y0045525D01*
X0133448Y0045525D01*
X0134216Y0046292D01*
X0134216Y0047059D01*
X0133448Y0047827D01*
X0132681Y0047827D01*
X0133448Y0047827D02*
X0134216Y0048594D01*
X0134216Y0049361D01*
X0133448Y0050129D01*
X0134785Y0010129D02*
X0136320Y0008594D01*
X0136320Y0005525D01*
X0136320Y0007827D02*
X0133250Y0007827D01*
X0133250Y0008594D02*
X0134785Y0010129D01*
X0133250Y0008594D02*
X0133250Y0005525D01*
X0131716Y0005525D02*
X0131716Y0010129D01*
X0130181Y0008594D01*
X0128646Y0010129D01*
X0128646Y0005525D01*
X0127112Y0006292D02*
X0127112Y0007059D01*
X0126344Y0007827D01*
X0124810Y0007827D01*
X0124043Y0008594D01*
X0124043Y0009361D01*
X0124810Y0010129D01*
X0126344Y0010129D01*
X0127112Y0009361D01*
X0127112Y0006292D02*
X0126344Y0005525D01*
X0124810Y0005525D01*
X0124043Y0006292D01*
X0137854Y0007827D02*
X0140924Y0007827D01*
X0142458Y0007827D02*
X0145527Y0007827D01*
X0147062Y0007827D02*
X0149364Y0007827D01*
X0150131Y0007059D01*
X0150131Y0006292D01*
X0149364Y0005525D01*
X0147062Y0005525D01*
X0147062Y0010129D01*
X0149364Y0010129D01*
X0150131Y0009361D01*
X0150131Y0008594D01*
X0149364Y0007827D01*
X0151666Y0006292D02*
X0152433Y0005525D01*
X0153968Y0005525D01*
X0154735Y0006292D01*
X0154735Y0010129D01*
X0156270Y0007827D02*
X0159339Y0007827D01*
X0160874Y0008594D02*
X0161641Y0007827D01*
X0163176Y0007827D01*
X0163943Y0007059D01*
X0163943Y0006292D01*
X0163176Y0005525D01*
X0161641Y0005525D01*
X0160874Y0006292D01*
X0160874Y0008594D02*
X0160874Y0009361D01*
X0161641Y0010129D01*
X0163176Y0010129D01*
X0163943Y0009361D01*
X0165478Y0010129D02*
X0167012Y0008594D01*
X0168547Y0010129D01*
X0168547Y0005525D01*
X0170082Y0005525D02*
X0170082Y0008594D01*
X0171616Y0010129D01*
X0173151Y0008594D01*
X0173151Y0005525D01*
X0173151Y0007827D02*
X0170082Y0007827D01*
X0174686Y0007827D02*
X0177755Y0007827D01*
X0179290Y0007827D02*
X0182359Y0007827D01*
X0182359Y0010129D02*
X0182359Y0005525D01*
X0179290Y0005525D02*
X0179290Y0010129D01*
X0165478Y0010129D02*
X0165478Y0005525D01*
X0151666Y0006292D02*
X0151666Y0010129D01*
X0134216Y0100643D02*
X0131146Y0100643D01*
X0129612Y0100643D02*
X0126543Y0105247D01*
X0129612Y0105247D02*
X0126543Y0100643D01*
X0131146Y0103712D02*
X0132681Y0105247D01*
X0132681Y0100643D01*
X0133250Y0115761D02*
X0133250Y0118830D01*
X0134785Y0120365D01*
X0136320Y0118830D01*
X0136320Y0115761D01*
X0136320Y0118063D02*
X0133250Y0118063D01*
X0131716Y0120365D02*
X0131716Y0115761D01*
X0128646Y0115761D02*
X0128646Y0120365D01*
X0130181Y0118830D01*
X0131716Y0120365D01*
X0127112Y0119598D02*
X0126344Y0120365D01*
X0124810Y0120365D01*
X0124043Y0119598D01*
X0124043Y0118830D01*
X0124810Y0118063D01*
X0126344Y0118063D01*
X0127112Y0117296D01*
X0127112Y0116528D01*
X0126344Y0115761D01*
X0124810Y0115761D01*
X0124043Y0116528D01*
X0137854Y0118063D02*
X0140924Y0118063D01*
X0142458Y0118063D02*
X0145527Y0118063D01*
X0147062Y0118063D02*
X0149364Y0118063D01*
X0150131Y0117296D01*
X0150131Y0116528D01*
X0149364Y0115761D01*
X0147062Y0115761D01*
X0147062Y0120365D01*
X0149364Y0120365D01*
X0150131Y0119598D01*
X0150131Y0118830D01*
X0149364Y0118063D01*
X0151666Y0116528D02*
X0152433Y0115761D01*
X0153968Y0115761D01*
X0154735Y0116528D01*
X0154735Y0120365D01*
X0156270Y0118063D02*
X0159339Y0118063D01*
X0160874Y0118830D02*
X0161641Y0118063D01*
X0163176Y0118063D01*
X0163943Y0117296D01*
X0163943Y0116528D01*
X0163176Y0115761D01*
X0161641Y0115761D01*
X0160874Y0116528D01*
X0160874Y0118830D02*
X0160874Y0119598D01*
X0161641Y0120365D01*
X0163176Y0120365D01*
X0163943Y0119598D01*
X0165478Y0120365D02*
X0167012Y0118830D01*
X0168547Y0120365D01*
X0168547Y0115761D01*
X0170082Y0115761D02*
X0170082Y0118830D01*
X0171616Y0120365D01*
X0173151Y0118830D01*
X0173151Y0115761D01*
X0173151Y0118063D02*
X0170082Y0118063D01*
X0174686Y0118063D02*
X0177755Y0118063D01*
X0179290Y0118063D02*
X0182359Y0118063D01*
X0182359Y0120365D02*
X0182359Y0115761D01*
X0179290Y0115761D02*
X0179290Y0120365D01*
X0165478Y0120365D02*
X0165478Y0115761D01*
X0151666Y0116528D02*
X0151666Y0120365D01*
X0134216Y0155761D02*
X0131146Y0155761D01*
X0134216Y0158830D01*
X0134216Y0159598D01*
X0133448Y0160365D01*
X0131914Y0160365D01*
X0131146Y0159598D01*
X0129612Y0160365D02*
X0126543Y0155761D01*
X0129612Y0155761D02*
X0126543Y0160365D01*
X0127875Y0170879D02*
X0127875Y0173948D01*
X0126341Y0175483D01*
X0124806Y0173948D01*
X0124806Y0170879D01*
X0123272Y0170879D02*
X0123272Y0175483D01*
X0121737Y0173948D01*
X0120202Y0175483D01*
X0120202Y0170879D01*
X0118668Y0171646D02*
X0117900Y0170879D01*
X0116366Y0170879D01*
X0115598Y0171646D01*
X0116366Y0173181D02*
X0115598Y0173948D01*
X0115598Y0174716D01*
X0116366Y0175483D01*
X0117900Y0175483D01*
X0118668Y0174716D01*
X0117900Y0173181D02*
X0118668Y0172414D01*
X0118668Y0171646D01*
X0117900Y0173181D02*
X0116366Y0173181D01*
X0114064Y0173181D02*
X0110994Y0173181D01*
X0109460Y0171646D02*
X0108692Y0170879D01*
X0107158Y0170879D01*
X0106390Y0171646D01*
X0106390Y0175483D01*
X0104856Y0174716D02*
X0104856Y0173948D01*
X0104089Y0173181D01*
X0101787Y0173181D01*
X0100252Y0173181D02*
X0097183Y0173181D01*
X0095648Y0173181D02*
X0092579Y0173181D01*
X0091044Y0173181D02*
X0087975Y0173181D01*
X0087975Y0173948D02*
X0089509Y0175483D01*
X0091044Y0173948D01*
X0091044Y0170879D01*
X0087975Y0170879D02*
X0087975Y0173948D01*
X0086440Y0175483D02*
X0086440Y0170879D01*
X0083371Y0170879D02*
X0083371Y0175483D01*
X0084905Y0173948D01*
X0086440Y0175483D01*
X0081836Y0174716D02*
X0081069Y0175483D01*
X0079534Y0175483D01*
X0078767Y0174716D01*
X0078767Y0173948D01*
X0079534Y0173181D01*
X0081069Y0173181D01*
X0081836Y0172414D01*
X0081836Y0171646D01*
X0081069Y0170879D01*
X0079534Y0170879D01*
X0078767Y0171646D01*
X0101787Y0170879D02*
X0104089Y0170879D01*
X0104856Y0171646D01*
X0104856Y0172414D01*
X0104089Y0173181D01*
X0104856Y0174716D02*
X0104089Y0175483D01*
X0101787Y0175483D01*
X0101787Y0170879D01*
X0109460Y0171646D02*
X0109460Y0175483D01*
X0124806Y0173181D02*
X0127875Y0173181D01*
X0129410Y0173181D02*
X0132479Y0173181D01*
X0134014Y0173181D02*
X0137083Y0173181D01*
X0137083Y0175483D02*
X0137083Y0170879D01*
X0134014Y0170879D02*
X0134014Y0175483D01*
X0088940Y0211646D02*
X0088173Y0210879D01*
X0086638Y0210879D01*
X0085871Y0211646D01*
X0085871Y0213181D02*
X0087405Y0213948D01*
X0088173Y0213948D01*
X0088940Y0213181D01*
X0088940Y0211646D01*
X0085871Y0213181D02*
X0085871Y0215483D01*
X0088940Y0215483D01*
X0084336Y0215483D02*
X0081267Y0210879D01*
X0084336Y0210879D02*
X0081267Y0215483D01*
M02*
