G75*
%MOIN*%
%OFA0B0*%
%FSLAX25Y25*%
%IPPOS*%
%LPD*%
%AMOC8*
5,1,8,0,0,1.08239X$1,22.5*
%
%ADD10C,0.00394*%
%ADD11C,0.00000*%
D10*
X0015617Y0017982D02*
X0015741Y0017980D01*
X0015864Y0017974D01*
X0015988Y0017965D01*
X0016110Y0017951D01*
X0016233Y0017934D01*
X0016355Y0017912D01*
X0016476Y0017887D01*
X0016596Y0017858D01*
X0016715Y0017826D01*
X0016834Y0017789D01*
X0016951Y0017749D01*
X0017066Y0017706D01*
X0017181Y0017658D01*
X0017293Y0017607D01*
X0017404Y0017553D01*
X0017514Y0017495D01*
X0017621Y0017434D01*
X0017727Y0017369D01*
X0017830Y0017301D01*
X0017931Y0017230D01*
X0018030Y0017156D01*
X0018127Y0017079D01*
X0018221Y0016998D01*
X0018312Y0016915D01*
X0018401Y0016829D01*
X0029874Y0005356D01*
X0032658Y0004203D02*
X0196382Y0004203D01*
X0196382Y0004202D02*
X0196468Y0004204D01*
X0196554Y0004209D01*
X0196639Y0004219D01*
X0196724Y0004232D01*
X0196808Y0004249D01*
X0196892Y0004269D01*
X0196974Y0004293D01*
X0197055Y0004321D01*
X0197136Y0004352D01*
X0197214Y0004386D01*
X0197291Y0004424D01*
X0197367Y0004466D01*
X0197440Y0004510D01*
X0197511Y0004558D01*
X0197581Y0004609D01*
X0197648Y0004663D01*
X0197712Y0004719D01*
X0197774Y0004779D01*
X0197834Y0004841D01*
X0197890Y0004905D01*
X0197944Y0004972D01*
X0197995Y0005042D01*
X0198043Y0005113D01*
X0198087Y0005186D01*
X0198129Y0005262D01*
X0198167Y0005339D01*
X0198201Y0005417D01*
X0198232Y0005498D01*
X0198260Y0005579D01*
X0198284Y0005661D01*
X0198304Y0005745D01*
X0198321Y0005829D01*
X0198334Y0005914D01*
X0198344Y0005999D01*
X0198349Y0006085D01*
X0198351Y0006171D01*
X0198350Y0006171D02*
X0198350Y0049478D01*
X0198351Y0049478D02*
X0198349Y0049564D01*
X0198344Y0049650D01*
X0198334Y0049735D01*
X0198321Y0049820D01*
X0198304Y0049904D01*
X0198284Y0049988D01*
X0198260Y0050070D01*
X0198232Y0050151D01*
X0198201Y0050232D01*
X0198167Y0050310D01*
X0198129Y0050387D01*
X0198087Y0050463D01*
X0198043Y0050536D01*
X0197995Y0050607D01*
X0197944Y0050677D01*
X0197890Y0050744D01*
X0197834Y0050808D01*
X0197774Y0050870D01*
X0197712Y0050930D01*
X0197648Y0050986D01*
X0197581Y0051040D01*
X0197511Y0051091D01*
X0197440Y0051139D01*
X0197367Y0051183D01*
X0197291Y0051225D01*
X0197214Y0051263D01*
X0197136Y0051297D01*
X0197055Y0051328D01*
X0196974Y0051356D01*
X0196892Y0051380D01*
X0196808Y0051400D01*
X0196724Y0051417D01*
X0196639Y0051430D01*
X0196554Y0051440D01*
X0196468Y0051445D01*
X0196382Y0051447D01*
X0192445Y0051447D01*
X0192321Y0051449D01*
X0192198Y0051455D01*
X0192074Y0051464D01*
X0191952Y0051478D01*
X0191829Y0051495D01*
X0191707Y0051517D01*
X0191586Y0051542D01*
X0191466Y0051571D01*
X0191347Y0051603D01*
X0191228Y0051640D01*
X0191111Y0051680D01*
X0190996Y0051723D01*
X0190881Y0051771D01*
X0190769Y0051822D01*
X0190658Y0051876D01*
X0190548Y0051934D01*
X0190441Y0051995D01*
X0190335Y0052060D01*
X0190232Y0052128D01*
X0190131Y0052199D01*
X0190032Y0052273D01*
X0189935Y0052350D01*
X0189841Y0052431D01*
X0189750Y0052514D01*
X0189661Y0052600D01*
X0189575Y0052689D01*
X0189492Y0052780D01*
X0189411Y0052874D01*
X0189334Y0052971D01*
X0189260Y0053070D01*
X0189189Y0053171D01*
X0189121Y0053274D01*
X0189056Y0053380D01*
X0188995Y0053487D01*
X0188937Y0053597D01*
X0188883Y0053708D01*
X0188832Y0053820D01*
X0188784Y0053935D01*
X0188741Y0054050D01*
X0188701Y0054167D01*
X0188664Y0054286D01*
X0188632Y0054405D01*
X0188603Y0054525D01*
X0188578Y0054646D01*
X0188556Y0054768D01*
X0188539Y0054891D01*
X0188525Y0055013D01*
X0188516Y0055137D01*
X0188510Y0055260D01*
X0188508Y0055384D01*
X0188510Y0055508D01*
X0188516Y0055631D01*
X0188525Y0055755D01*
X0188539Y0055877D01*
X0188556Y0056000D01*
X0188578Y0056122D01*
X0188603Y0056243D01*
X0188632Y0056363D01*
X0188664Y0056482D01*
X0188701Y0056601D01*
X0188741Y0056718D01*
X0188784Y0056833D01*
X0188832Y0056948D01*
X0188883Y0057060D01*
X0188937Y0057171D01*
X0188995Y0057281D01*
X0189056Y0057388D01*
X0189121Y0057494D01*
X0189189Y0057597D01*
X0189260Y0057698D01*
X0189334Y0057797D01*
X0189411Y0057894D01*
X0189492Y0057988D01*
X0189575Y0058079D01*
X0189661Y0058168D01*
X0189750Y0058254D01*
X0189841Y0058337D01*
X0189935Y0058418D01*
X0190032Y0058495D01*
X0190131Y0058569D01*
X0190232Y0058640D01*
X0190335Y0058708D01*
X0190441Y0058773D01*
X0190548Y0058834D01*
X0190658Y0058892D01*
X0190769Y0058946D01*
X0190881Y0058997D01*
X0190996Y0059045D01*
X0191111Y0059088D01*
X0191228Y0059128D01*
X0191347Y0059165D01*
X0191466Y0059197D01*
X0191586Y0059226D01*
X0191707Y0059251D01*
X0191829Y0059273D01*
X0191952Y0059290D01*
X0192074Y0059304D01*
X0192198Y0059313D01*
X0192321Y0059319D01*
X0192445Y0059321D01*
X0196382Y0059321D01*
X0196382Y0059320D02*
X0196468Y0059322D01*
X0196554Y0059327D01*
X0196639Y0059337D01*
X0196724Y0059350D01*
X0196808Y0059367D01*
X0196892Y0059387D01*
X0196974Y0059411D01*
X0197055Y0059439D01*
X0197136Y0059470D01*
X0197214Y0059504D01*
X0197291Y0059542D01*
X0197367Y0059584D01*
X0197440Y0059628D01*
X0197511Y0059676D01*
X0197581Y0059727D01*
X0197648Y0059781D01*
X0197712Y0059837D01*
X0197774Y0059897D01*
X0197834Y0059959D01*
X0197890Y0060023D01*
X0197944Y0060090D01*
X0197995Y0060160D01*
X0198043Y0060231D01*
X0198087Y0060305D01*
X0198129Y0060380D01*
X0198167Y0060457D01*
X0198201Y0060535D01*
X0198232Y0060616D01*
X0198260Y0060697D01*
X0198284Y0060779D01*
X0198304Y0060863D01*
X0198321Y0060947D01*
X0198334Y0061032D01*
X0198344Y0061117D01*
X0198349Y0061203D01*
X0198351Y0061289D01*
X0198350Y0061289D02*
X0198350Y0104596D01*
X0198351Y0104596D02*
X0198349Y0104682D01*
X0198344Y0104768D01*
X0198334Y0104853D01*
X0198321Y0104938D01*
X0198304Y0105022D01*
X0198284Y0105106D01*
X0198260Y0105188D01*
X0198232Y0105269D01*
X0198201Y0105350D01*
X0198167Y0105428D01*
X0198129Y0105505D01*
X0198087Y0105581D01*
X0198043Y0105654D01*
X0197995Y0105725D01*
X0197944Y0105795D01*
X0197890Y0105862D01*
X0197834Y0105926D01*
X0197774Y0105988D01*
X0197712Y0106048D01*
X0197648Y0106104D01*
X0197581Y0106158D01*
X0197511Y0106209D01*
X0197440Y0106257D01*
X0197367Y0106301D01*
X0197291Y0106343D01*
X0197214Y0106381D01*
X0197136Y0106415D01*
X0197055Y0106446D01*
X0196974Y0106474D01*
X0196892Y0106498D01*
X0196808Y0106518D01*
X0196724Y0106535D01*
X0196639Y0106548D01*
X0196554Y0106558D01*
X0196468Y0106563D01*
X0196382Y0106565D01*
X0192445Y0106565D01*
X0192321Y0106567D01*
X0192198Y0106573D01*
X0192074Y0106582D01*
X0191952Y0106596D01*
X0191829Y0106613D01*
X0191707Y0106635D01*
X0191586Y0106660D01*
X0191466Y0106689D01*
X0191347Y0106721D01*
X0191228Y0106758D01*
X0191111Y0106798D01*
X0190996Y0106841D01*
X0190881Y0106889D01*
X0190769Y0106940D01*
X0190658Y0106994D01*
X0190548Y0107052D01*
X0190441Y0107113D01*
X0190335Y0107178D01*
X0190232Y0107246D01*
X0190131Y0107317D01*
X0190032Y0107391D01*
X0189935Y0107468D01*
X0189841Y0107549D01*
X0189750Y0107632D01*
X0189661Y0107718D01*
X0189575Y0107807D01*
X0189492Y0107898D01*
X0189411Y0107992D01*
X0189334Y0108089D01*
X0189260Y0108188D01*
X0189189Y0108289D01*
X0189121Y0108392D01*
X0189056Y0108498D01*
X0188995Y0108605D01*
X0188937Y0108715D01*
X0188883Y0108826D01*
X0188832Y0108938D01*
X0188784Y0109053D01*
X0188741Y0109168D01*
X0188701Y0109285D01*
X0188664Y0109404D01*
X0188632Y0109523D01*
X0188603Y0109643D01*
X0188578Y0109764D01*
X0188556Y0109886D01*
X0188539Y0110009D01*
X0188525Y0110131D01*
X0188516Y0110255D01*
X0188510Y0110378D01*
X0188508Y0110502D01*
X0188510Y0110626D01*
X0188516Y0110749D01*
X0188525Y0110873D01*
X0188539Y0110995D01*
X0188556Y0111118D01*
X0188578Y0111240D01*
X0188603Y0111361D01*
X0188632Y0111481D01*
X0188664Y0111600D01*
X0188701Y0111719D01*
X0188741Y0111836D01*
X0188784Y0111951D01*
X0188832Y0112066D01*
X0188883Y0112178D01*
X0188937Y0112289D01*
X0188995Y0112399D01*
X0189056Y0112506D01*
X0189121Y0112612D01*
X0189189Y0112715D01*
X0189260Y0112816D01*
X0189334Y0112915D01*
X0189411Y0113012D01*
X0189492Y0113106D01*
X0189575Y0113197D01*
X0189661Y0113286D01*
X0189750Y0113372D01*
X0189841Y0113455D01*
X0189935Y0113536D01*
X0190032Y0113613D01*
X0190131Y0113687D01*
X0190232Y0113758D01*
X0190335Y0113826D01*
X0190441Y0113891D01*
X0190548Y0113952D01*
X0190658Y0114010D01*
X0190769Y0114064D01*
X0190881Y0114115D01*
X0190996Y0114163D01*
X0191111Y0114206D01*
X0191228Y0114246D01*
X0191347Y0114283D01*
X0191466Y0114315D01*
X0191586Y0114344D01*
X0191707Y0114369D01*
X0191829Y0114391D01*
X0191952Y0114408D01*
X0192074Y0114422D01*
X0192198Y0114431D01*
X0192321Y0114437D01*
X0192445Y0114439D01*
X0196382Y0114439D01*
X0196382Y0114438D02*
X0196468Y0114440D01*
X0196554Y0114445D01*
X0196639Y0114455D01*
X0196724Y0114468D01*
X0196808Y0114485D01*
X0196892Y0114505D01*
X0196974Y0114529D01*
X0197055Y0114557D01*
X0197136Y0114588D01*
X0197214Y0114622D01*
X0197291Y0114660D01*
X0197367Y0114702D01*
X0197440Y0114746D01*
X0197511Y0114794D01*
X0197581Y0114845D01*
X0197648Y0114899D01*
X0197712Y0114955D01*
X0197774Y0115015D01*
X0197834Y0115077D01*
X0197890Y0115141D01*
X0197944Y0115208D01*
X0197995Y0115278D01*
X0198043Y0115349D01*
X0198087Y0115423D01*
X0198129Y0115498D01*
X0198167Y0115575D01*
X0198201Y0115653D01*
X0198232Y0115734D01*
X0198260Y0115815D01*
X0198284Y0115897D01*
X0198304Y0115981D01*
X0198321Y0116065D01*
X0198334Y0116150D01*
X0198344Y0116235D01*
X0198349Y0116321D01*
X0198351Y0116407D01*
X0198350Y0116407D02*
X0198350Y0159715D01*
X0198351Y0159715D02*
X0198349Y0159801D01*
X0198344Y0159887D01*
X0198334Y0159972D01*
X0198321Y0160057D01*
X0198304Y0160141D01*
X0198284Y0160225D01*
X0198260Y0160307D01*
X0198232Y0160388D01*
X0198201Y0160469D01*
X0198167Y0160547D01*
X0198129Y0160624D01*
X0198087Y0160700D01*
X0198043Y0160773D01*
X0197995Y0160844D01*
X0197944Y0160914D01*
X0197890Y0160981D01*
X0197834Y0161045D01*
X0197774Y0161107D01*
X0197712Y0161167D01*
X0197648Y0161223D01*
X0197581Y0161277D01*
X0197511Y0161328D01*
X0197440Y0161376D01*
X0197367Y0161420D01*
X0197291Y0161462D01*
X0197214Y0161500D01*
X0197136Y0161534D01*
X0197055Y0161565D01*
X0196974Y0161593D01*
X0196892Y0161617D01*
X0196808Y0161637D01*
X0196724Y0161654D01*
X0196639Y0161667D01*
X0196554Y0161677D01*
X0196468Y0161682D01*
X0196382Y0161684D01*
X0196382Y0161683D02*
X0192445Y0161683D01*
X0192321Y0161685D01*
X0192198Y0161691D01*
X0192074Y0161700D01*
X0191952Y0161714D01*
X0191829Y0161731D01*
X0191707Y0161753D01*
X0191586Y0161778D01*
X0191466Y0161807D01*
X0191347Y0161839D01*
X0191228Y0161876D01*
X0191111Y0161916D01*
X0190996Y0161959D01*
X0190881Y0162007D01*
X0190769Y0162058D01*
X0190658Y0162112D01*
X0190548Y0162170D01*
X0190441Y0162231D01*
X0190335Y0162296D01*
X0190232Y0162364D01*
X0190131Y0162435D01*
X0190032Y0162509D01*
X0189935Y0162586D01*
X0189841Y0162667D01*
X0189750Y0162750D01*
X0189661Y0162836D01*
X0189575Y0162925D01*
X0189492Y0163016D01*
X0189411Y0163110D01*
X0189334Y0163207D01*
X0189260Y0163306D01*
X0189189Y0163407D01*
X0189121Y0163510D01*
X0189056Y0163616D01*
X0188995Y0163723D01*
X0188937Y0163833D01*
X0188883Y0163944D01*
X0188832Y0164056D01*
X0188784Y0164171D01*
X0188741Y0164286D01*
X0188701Y0164403D01*
X0188664Y0164522D01*
X0188632Y0164641D01*
X0188603Y0164761D01*
X0188578Y0164882D01*
X0188556Y0165004D01*
X0188539Y0165127D01*
X0188525Y0165249D01*
X0188516Y0165373D01*
X0188510Y0165496D01*
X0188508Y0165620D01*
X0188510Y0165744D01*
X0188516Y0165867D01*
X0188525Y0165991D01*
X0188539Y0166113D01*
X0188556Y0166236D01*
X0188578Y0166358D01*
X0188603Y0166479D01*
X0188632Y0166599D01*
X0188664Y0166718D01*
X0188701Y0166837D01*
X0188741Y0166954D01*
X0188784Y0167069D01*
X0188832Y0167184D01*
X0188883Y0167296D01*
X0188937Y0167407D01*
X0188995Y0167517D01*
X0189056Y0167624D01*
X0189121Y0167730D01*
X0189189Y0167833D01*
X0189260Y0167934D01*
X0189334Y0168033D01*
X0189411Y0168130D01*
X0189492Y0168224D01*
X0189575Y0168315D01*
X0189661Y0168404D01*
X0189750Y0168490D01*
X0189841Y0168573D01*
X0189935Y0168654D01*
X0190032Y0168731D01*
X0190131Y0168805D01*
X0190232Y0168876D01*
X0190335Y0168944D01*
X0190441Y0169009D01*
X0190548Y0169070D01*
X0190658Y0169128D01*
X0190769Y0169182D01*
X0190881Y0169233D01*
X0190996Y0169281D01*
X0191111Y0169324D01*
X0191228Y0169364D01*
X0191347Y0169401D01*
X0191466Y0169433D01*
X0191586Y0169462D01*
X0191707Y0169487D01*
X0191829Y0169509D01*
X0191952Y0169526D01*
X0192074Y0169540D01*
X0192198Y0169549D01*
X0192321Y0169555D01*
X0192445Y0169557D01*
X0196382Y0169557D01*
X0196468Y0169559D01*
X0196554Y0169564D01*
X0196639Y0169574D01*
X0196724Y0169587D01*
X0196808Y0169604D01*
X0196892Y0169624D01*
X0196974Y0169648D01*
X0197055Y0169676D01*
X0197136Y0169707D01*
X0197214Y0169741D01*
X0197291Y0169779D01*
X0197367Y0169821D01*
X0197440Y0169865D01*
X0197511Y0169913D01*
X0197581Y0169964D01*
X0197648Y0170018D01*
X0197712Y0170074D01*
X0197774Y0170134D01*
X0197834Y0170196D01*
X0197890Y0170260D01*
X0197944Y0170327D01*
X0197995Y0170397D01*
X0198043Y0170468D01*
X0198087Y0170542D01*
X0198129Y0170617D01*
X0198167Y0170694D01*
X0198201Y0170772D01*
X0198232Y0170853D01*
X0198260Y0170934D01*
X0198284Y0171016D01*
X0198304Y0171100D01*
X0198321Y0171184D01*
X0198334Y0171269D01*
X0198344Y0171354D01*
X0198349Y0171440D01*
X0198351Y0171526D01*
X0198350Y0171526D02*
X0198350Y0214833D01*
X0198351Y0214833D02*
X0198349Y0214919D01*
X0198344Y0215005D01*
X0198334Y0215090D01*
X0198321Y0215175D01*
X0198304Y0215259D01*
X0198284Y0215343D01*
X0198260Y0215425D01*
X0198232Y0215506D01*
X0198201Y0215587D01*
X0198167Y0215665D01*
X0198129Y0215742D01*
X0198087Y0215818D01*
X0198043Y0215891D01*
X0197995Y0215962D01*
X0197944Y0216032D01*
X0197890Y0216099D01*
X0197834Y0216163D01*
X0197774Y0216225D01*
X0197712Y0216285D01*
X0197648Y0216341D01*
X0197581Y0216395D01*
X0197511Y0216446D01*
X0197440Y0216494D01*
X0197367Y0216538D01*
X0197291Y0216580D01*
X0197214Y0216618D01*
X0197136Y0216652D01*
X0197055Y0216683D01*
X0196974Y0216711D01*
X0196892Y0216735D01*
X0196808Y0216755D01*
X0196724Y0216772D01*
X0196639Y0216785D01*
X0196554Y0216795D01*
X0196468Y0216800D01*
X0196382Y0216802D01*
X0196382Y0216801D02*
X0162917Y0216801D01*
X0162917Y0216802D02*
X0162831Y0216800D01*
X0162745Y0216795D01*
X0162660Y0216785D01*
X0162575Y0216772D01*
X0162491Y0216755D01*
X0162407Y0216735D01*
X0162325Y0216711D01*
X0162244Y0216683D01*
X0162163Y0216652D01*
X0162085Y0216618D01*
X0162008Y0216580D01*
X0161933Y0216538D01*
X0161859Y0216494D01*
X0161788Y0216446D01*
X0161718Y0216395D01*
X0161651Y0216341D01*
X0161587Y0216285D01*
X0161525Y0216225D01*
X0161465Y0216163D01*
X0161409Y0216099D01*
X0161355Y0216032D01*
X0161304Y0215962D01*
X0161256Y0215891D01*
X0161212Y0215818D01*
X0161170Y0215742D01*
X0161132Y0215665D01*
X0161098Y0215587D01*
X0161067Y0215506D01*
X0161039Y0215425D01*
X0161015Y0215343D01*
X0160995Y0215259D01*
X0160978Y0215175D01*
X0160965Y0215090D01*
X0160955Y0215005D01*
X0160950Y0214919D01*
X0160948Y0214833D01*
X0160949Y0214833D02*
X0160949Y0200069D01*
X0160947Y0199945D01*
X0160941Y0199822D01*
X0160932Y0199698D01*
X0160918Y0199576D01*
X0160901Y0199453D01*
X0160879Y0199331D01*
X0160854Y0199210D01*
X0160825Y0199090D01*
X0160793Y0198971D01*
X0160756Y0198852D01*
X0160716Y0198735D01*
X0160673Y0198620D01*
X0160625Y0198505D01*
X0160574Y0198393D01*
X0160520Y0198282D01*
X0160462Y0198172D01*
X0160401Y0198065D01*
X0160336Y0197959D01*
X0160268Y0197856D01*
X0160197Y0197755D01*
X0160123Y0197656D01*
X0160046Y0197559D01*
X0159965Y0197465D01*
X0159882Y0197374D01*
X0159796Y0197285D01*
X0159707Y0197199D01*
X0159616Y0197116D01*
X0159522Y0197035D01*
X0159425Y0196958D01*
X0159326Y0196884D01*
X0159225Y0196813D01*
X0159122Y0196745D01*
X0159016Y0196680D01*
X0158909Y0196619D01*
X0158799Y0196561D01*
X0158688Y0196507D01*
X0158576Y0196456D01*
X0158461Y0196408D01*
X0158346Y0196365D01*
X0158229Y0196325D01*
X0158110Y0196288D01*
X0157991Y0196256D01*
X0157871Y0196227D01*
X0157750Y0196202D01*
X0157628Y0196180D01*
X0157505Y0196163D01*
X0157383Y0196149D01*
X0157259Y0196140D01*
X0157136Y0196134D01*
X0157012Y0196132D01*
X0156888Y0196134D01*
X0156765Y0196140D01*
X0156641Y0196149D01*
X0156519Y0196163D01*
X0156396Y0196180D01*
X0156274Y0196202D01*
X0156153Y0196227D01*
X0156033Y0196256D01*
X0155914Y0196288D01*
X0155795Y0196325D01*
X0155678Y0196365D01*
X0155563Y0196408D01*
X0155448Y0196456D01*
X0155336Y0196507D01*
X0155225Y0196561D01*
X0155115Y0196619D01*
X0155008Y0196680D01*
X0154902Y0196745D01*
X0154799Y0196813D01*
X0154698Y0196884D01*
X0154599Y0196958D01*
X0154502Y0197035D01*
X0154408Y0197116D01*
X0154317Y0197199D01*
X0154228Y0197285D01*
X0154142Y0197374D01*
X0154059Y0197465D01*
X0153978Y0197559D01*
X0153901Y0197656D01*
X0153827Y0197755D01*
X0153756Y0197856D01*
X0153688Y0197959D01*
X0153623Y0198065D01*
X0153562Y0198172D01*
X0153504Y0198282D01*
X0153450Y0198393D01*
X0153399Y0198505D01*
X0153351Y0198620D01*
X0153308Y0198735D01*
X0153268Y0198852D01*
X0153231Y0198971D01*
X0153199Y0199090D01*
X0153170Y0199210D01*
X0153145Y0199331D01*
X0153123Y0199453D01*
X0153106Y0199576D01*
X0153092Y0199698D01*
X0153083Y0199822D01*
X0153077Y0199945D01*
X0153075Y0200069D01*
X0153075Y0214833D01*
X0153073Y0214919D01*
X0153068Y0215005D01*
X0153058Y0215090D01*
X0153045Y0215175D01*
X0153028Y0215259D01*
X0153008Y0215343D01*
X0152984Y0215425D01*
X0152956Y0215506D01*
X0152925Y0215587D01*
X0152891Y0215665D01*
X0152853Y0215742D01*
X0152811Y0215818D01*
X0152767Y0215891D01*
X0152719Y0215962D01*
X0152668Y0216032D01*
X0152614Y0216099D01*
X0152558Y0216163D01*
X0152498Y0216225D01*
X0152436Y0216285D01*
X0152372Y0216341D01*
X0152305Y0216395D01*
X0152235Y0216446D01*
X0152164Y0216494D01*
X0152091Y0216538D01*
X0152015Y0216580D01*
X0151938Y0216618D01*
X0151860Y0216652D01*
X0151779Y0216683D01*
X0151698Y0216711D01*
X0151616Y0216735D01*
X0151532Y0216755D01*
X0151448Y0216772D01*
X0151363Y0216785D01*
X0151278Y0216795D01*
X0151192Y0216800D01*
X0151106Y0216802D01*
X0151106Y0216801D02*
X0032658Y0216801D01*
X0029874Y0215648D02*
X0018401Y0204175D01*
X0015617Y0203022D02*
X0003469Y0203022D01*
X0003383Y0203020D01*
X0003297Y0203015D01*
X0003212Y0203005D01*
X0003127Y0202992D01*
X0003043Y0202975D01*
X0002959Y0202955D01*
X0002877Y0202931D01*
X0002796Y0202903D01*
X0002715Y0202872D01*
X0002637Y0202838D01*
X0002560Y0202800D01*
X0002485Y0202758D01*
X0002411Y0202714D01*
X0002340Y0202666D01*
X0002270Y0202615D01*
X0002203Y0202561D01*
X0002139Y0202505D01*
X0002077Y0202445D01*
X0002017Y0202383D01*
X0001961Y0202319D01*
X0001907Y0202252D01*
X0001856Y0202182D01*
X0001808Y0202111D01*
X0001764Y0202038D01*
X0001722Y0201962D01*
X0001684Y0201885D01*
X0001650Y0201807D01*
X0001619Y0201726D01*
X0001591Y0201645D01*
X0001567Y0201563D01*
X0001547Y0201479D01*
X0001530Y0201395D01*
X0001517Y0201310D01*
X0001507Y0201225D01*
X0001502Y0201139D01*
X0001500Y0201053D01*
X0001500Y0185305D01*
X0001502Y0185219D01*
X0001507Y0185133D01*
X0001517Y0185048D01*
X0001530Y0184963D01*
X0001547Y0184879D01*
X0001567Y0184795D01*
X0001591Y0184713D01*
X0001619Y0184632D01*
X0001650Y0184551D01*
X0001684Y0184473D01*
X0001722Y0184396D01*
X0001764Y0184321D01*
X0001808Y0184247D01*
X0001856Y0184176D01*
X0001907Y0184106D01*
X0001961Y0184039D01*
X0002017Y0183975D01*
X0002077Y0183913D01*
X0002139Y0183853D01*
X0002203Y0183797D01*
X0002270Y0183743D01*
X0002340Y0183692D01*
X0002411Y0183644D01*
X0002484Y0183600D01*
X0002560Y0183558D01*
X0002637Y0183520D01*
X0002715Y0183486D01*
X0002796Y0183455D01*
X0002877Y0183427D01*
X0002959Y0183403D01*
X0003043Y0183383D01*
X0003127Y0183366D01*
X0003212Y0183353D01*
X0003297Y0183343D01*
X0003383Y0183338D01*
X0003469Y0183336D01*
X0003469Y0183337D02*
X0015617Y0183337D01*
X0018401Y0182183D02*
X0029874Y0170710D01*
X0032658Y0169557D02*
X0036933Y0169557D01*
X0037057Y0169555D01*
X0037180Y0169549D01*
X0037304Y0169540D01*
X0037426Y0169526D01*
X0037549Y0169509D01*
X0037671Y0169487D01*
X0037792Y0169462D01*
X0037912Y0169433D01*
X0038031Y0169401D01*
X0038150Y0169364D01*
X0038267Y0169324D01*
X0038382Y0169281D01*
X0038497Y0169233D01*
X0038609Y0169182D01*
X0038720Y0169128D01*
X0038830Y0169070D01*
X0038937Y0169009D01*
X0039043Y0168944D01*
X0039146Y0168876D01*
X0039247Y0168805D01*
X0039346Y0168731D01*
X0039443Y0168654D01*
X0039537Y0168573D01*
X0039628Y0168490D01*
X0039717Y0168404D01*
X0039803Y0168315D01*
X0039886Y0168224D01*
X0039967Y0168130D01*
X0040044Y0168033D01*
X0040118Y0167934D01*
X0040189Y0167833D01*
X0040257Y0167730D01*
X0040322Y0167624D01*
X0040383Y0167517D01*
X0040441Y0167407D01*
X0040495Y0167296D01*
X0040546Y0167184D01*
X0040594Y0167069D01*
X0040637Y0166954D01*
X0040677Y0166837D01*
X0040714Y0166718D01*
X0040746Y0166599D01*
X0040775Y0166479D01*
X0040800Y0166358D01*
X0040822Y0166236D01*
X0040839Y0166113D01*
X0040853Y0165991D01*
X0040862Y0165867D01*
X0040868Y0165744D01*
X0040870Y0165620D01*
X0040868Y0165496D01*
X0040862Y0165373D01*
X0040853Y0165249D01*
X0040839Y0165127D01*
X0040822Y0165004D01*
X0040800Y0164882D01*
X0040775Y0164761D01*
X0040746Y0164641D01*
X0040714Y0164522D01*
X0040677Y0164403D01*
X0040637Y0164286D01*
X0040594Y0164171D01*
X0040546Y0164056D01*
X0040495Y0163944D01*
X0040441Y0163833D01*
X0040383Y0163723D01*
X0040322Y0163616D01*
X0040257Y0163510D01*
X0040189Y0163407D01*
X0040118Y0163306D01*
X0040044Y0163207D01*
X0039967Y0163110D01*
X0039886Y0163016D01*
X0039803Y0162925D01*
X0039717Y0162836D01*
X0039628Y0162750D01*
X0039537Y0162667D01*
X0039443Y0162586D01*
X0039346Y0162509D01*
X0039247Y0162435D01*
X0039146Y0162364D01*
X0039043Y0162296D01*
X0038937Y0162231D01*
X0038830Y0162170D01*
X0038720Y0162112D01*
X0038609Y0162058D01*
X0038497Y0162007D01*
X0038382Y0161959D01*
X0038267Y0161916D01*
X0038150Y0161876D01*
X0038031Y0161839D01*
X0037912Y0161807D01*
X0037792Y0161778D01*
X0037671Y0161753D01*
X0037549Y0161731D01*
X0037426Y0161714D01*
X0037304Y0161700D01*
X0037180Y0161691D01*
X0037057Y0161685D01*
X0036933Y0161683D01*
X0032658Y0161683D01*
X0029874Y0160530D02*
X0018401Y0149057D01*
X0015617Y0147904D02*
X0003469Y0147904D01*
X0003383Y0147902D01*
X0003297Y0147897D01*
X0003212Y0147887D01*
X0003127Y0147874D01*
X0003043Y0147857D01*
X0002959Y0147837D01*
X0002877Y0147813D01*
X0002796Y0147785D01*
X0002715Y0147754D01*
X0002637Y0147720D01*
X0002560Y0147682D01*
X0002485Y0147640D01*
X0002411Y0147596D01*
X0002340Y0147548D01*
X0002270Y0147497D01*
X0002203Y0147443D01*
X0002139Y0147387D01*
X0002077Y0147327D01*
X0002017Y0147265D01*
X0001961Y0147201D01*
X0001907Y0147134D01*
X0001856Y0147064D01*
X0001808Y0146993D01*
X0001764Y0146920D01*
X0001722Y0146844D01*
X0001684Y0146767D01*
X0001650Y0146689D01*
X0001619Y0146608D01*
X0001591Y0146527D01*
X0001567Y0146445D01*
X0001547Y0146361D01*
X0001530Y0146277D01*
X0001517Y0146192D01*
X0001507Y0146107D01*
X0001502Y0146021D01*
X0001500Y0145935D01*
X0001500Y0130187D01*
X0001502Y0130101D01*
X0001507Y0130015D01*
X0001517Y0129930D01*
X0001530Y0129845D01*
X0001547Y0129761D01*
X0001567Y0129677D01*
X0001591Y0129595D01*
X0001619Y0129514D01*
X0001650Y0129433D01*
X0001684Y0129355D01*
X0001722Y0129278D01*
X0001764Y0129203D01*
X0001808Y0129129D01*
X0001856Y0129058D01*
X0001907Y0128988D01*
X0001961Y0128921D01*
X0002017Y0128857D01*
X0002077Y0128795D01*
X0002139Y0128735D01*
X0002203Y0128679D01*
X0002270Y0128625D01*
X0002340Y0128574D01*
X0002411Y0128526D01*
X0002484Y0128482D01*
X0002560Y0128440D01*
X0002637Y0128402D01*
X0002715Y0128368D01*
X0002796Y0128337D01*
X0002877Y0128309D01*
X0002959Y0128285D01*
X0003043Y0128265D01*
X0003127Y0128248D01*
X0003212Y0128235D01*
X0003297Y0128225D01*
X0003383Y0128220D01*
X0003469Y0128218D01*
X0003469Y0128219D02*
X0015617Y0128219D01*
X0018401Y0127065D02*
X0029874Y0115592D01*
X0032658Y0114439D02*
X0036933Y0114439D01*
X0037057Y0114437D01*
X0037180Y0114431D01*
X0037304Y0114422D01*
X0037426Y0114408D01*
X0037549Y0114391D01*
X0037671Y0114369D01*
X0037792Y0114344D01*
X0037912Y0114315D01*
X0038031Y0114283D01*
X0038150Y0114246D01*
X0038267Y0114206D01*
X0038382Y0114163D01*
X0038497Y0114115D01*
X0038609Y0114064D01*
X0038720Y0114010D01*
X0038830Y0113952D01*
X0038937Y0113891D01*
X0039043Y0113826D01*
X0039146Y0113758D01*
X0039247Y0113687D01*
X0039346Y0113613D01*
X0039443Y0113536D01*
X0039537Y0113455D01*
X0039628Y0113372D01*
X0039717Y0113286D01*
X0039803Y0113197D01*
X0039886Y0113106D01*
X0039967Y0113012D01*
X0040044Y0112915D01*
X0040118Y0112816D01*
X0040189Y0112715D01*
X0040257Y0112612D01*
X0040322Y0112506D01*
X0040383Y0112399D01*
X0040441Y0112289D01*
X0040495Y0112178D01*
X0040546Y0112066D01*
X0040594Y0111951D01*
X0040637Y0111836D01*
X0040677Y0111719D01*
X0040714Y0111600D01*
X0040746Y0111481D01*
X0040775Y0111361D01*
X0040800Y0111240D01*
X0040822Y0111118D01*
X0040839Y0110995D01*
X0040853Y0110873D01*
X0040862Y0110749D01*
X0040868Y0110626D01*
X0040870Y0110502D01*
X0040868Y0110378D01*
X0040862Y0110255D01*
X0040853Y0110131D01*
X0040839Y0110009D01*
X0040822Y0109886D01*
X0040800Y0109764D01*
X0040775Y0109643D01*
X0040746Y0109523D01*
X0040714Y0109404D01*
X0040677Y0109285D01*
X0040637Y0109168D01*
X0040594Y0109053D01*
X0040546Y0108938D01*
X0040495Y0108826D01*
X0040441Y0108715D01*
X0040383Y0108605D01*
X0040322Y0108498D01*
X0040257Y0108392D01*
X0040189Y0108289D01*
X0040118Y0108188D01*
X0040044Y0108089D01*
X0039967Y0107992D01*
X0039886Y0107898D01*
X0039803Y0107807D01*
X0039717Y0107718D01*
X0039628Y0107632D01*
X0039537Y0107549D01*
X0039443Y0107468D01*
X0039346Y0107391D01*
X0039247Y0107317D01*
X0039146Y0107246D01*
X0039043Y0107178D01*
X0038937Y0107113D01*
X0038830Y0107052D01*
X0038720Y0106994D01*
X0038609Y0106940D01*
X0038497Y0106889D01*
X0038382Y0106841D01*
X0038267Y0106798D01*
X0038150Y0106758D01*
X0038031Y0106721D01*
X0037912Y0106689D01*
X0037792Y0106660D01*
X0037671Y0106635D01*
X0037549Y0106613D01*
X0037426Y0106596D01*
X0037304Y0106582D01*
X0037180Y0106573D01*
X0037057Y0106567D01*
X0036933Y0106565D01*
X0032658Y0106565D01*
X0029874Y0105412D02*
X0018401Y0093939D01*
X0015617Y0092785D02*
X0003469Y0092785D01*
X0003469Y0092786D02*
X0003383Y0092784D01*
X0003297Y0092779D01*
X0003212Y0092769D01*
X0003127Y0092756D01*
X0003043Y0092739D01*
X0002959Y0092719D01*
X0002877Y0092695D01*
X0002796Y0092667D01*
X0002715Y0092636D01*
X0002637Y0092602D01*
X0002560Y0092564D01*
X0002485Y0092522D01*
X0002411Y0092478D01*
X0002340Y0092430D01*
X0002270Y0092379D01*
X0002203Y0092325D01*
X0002139Y0092269D01*
X0002077Y0092209D01*
X0002017Y0092147D01*
X0001961Y0092083D01*
X0001907Y0092016D01*
X0001856Y0091946D01*
X0001808Y0091875D01*
X0001764Y0091802D01*
X0001722Y0091726D01*
X0001684Y0091649D01*
X0001650Y0091571D01*
X0001619Y0091490D01*
X0001591Y0091409D01*
X0001567Y0091327D01*
X0001547Y0091243D01*
X0001530Y0091159D01*
X0001517Y0091074D01*
X0001507Y0090989D01*
X0001502Y0090903D01*
X0001500Y0090817D01*
X0001500Y0075069D01*
X0001502Y0074983D01*
X0001507Y0074897D01*
X0001517Y0074812D01*
X0001530Y0074727D01*
X0001547Y0074643D01*
X0001567Y0074559D01*
X0001591Y0074477D01*
X0001619Y0074396D01*
X0001650Y0074315D01*
X0001684Y0074237D01*
X0001722Y0074160D01*
X0001764Y0074085D01*
X0001808Y0074011D01*
X0001856Y0073940D01*
X0001907Y0073870D01*
X0001961Y0073803D01*
X0002017Y0073739D01*
X0002077Y0073677D01*
X0002139Y0073617D01*
X0002203Y0073561D01*
X0002270Y0073507D01*
X0002340Y0073456D01*
X0002411Y0073408D01*
X0002484Y0073364D01*
X0002560Y0073322D01*
X0002637Y0073284D01*
X0002715Y0073250D01*
X0002796Y0073219D01*
X0002877Y0073191D01*
X0002959Y0073167D01*
X0003043Y0073147D01*
X0003127Y0073130D01*
X0003212Y0073117D01*
X0003297Y0073107D01*
X0003383Y0073102D01*
X0003469Y0073100D01*
X0015617Y0073100D01*
X0018401Y0071947D02*
X0029874Y0060474D01*
X0032658Y0059321D02*
X0036933Y0059321D01*
X0037057Y0059319D01*
X0037180Y0059313D01*
X0037304Y0059304D01*
X0037426Y0059290D01*
X0037549Y0059273D01*
X0037671Y0059251D01*
X0037792Y0059226D01*
X0037912Y0059197D01*
X0038031Y0059165D01*
X0038150Y0059128D01*
X0038267Y0059088D01*
X0038382Y0059045D01*
X0038497Y0058997D01*
X0038609Y0058946D01*
X0038720Y0058892D01*
X0038830Y0058834D01*
X0038937Y0058773D01*
X0039043Y0058708D01*
X0039146Y0058640D01*
X0039247Y0058569D01*
X0039346Y0058495D01*
X0039443Y0058418D01*
X0039537Y0058337D01*
X0039628Y0058254D01*
X0039717Y0058168D01*
X0039803Y0058079D01*
X0039886Y0057988D01*
X0039967Y0057894D01*
X0040044Y0057797D01*
X0040118Y0057698D01*
X0040189Y0057597D01*
X0040257Y0057494D01*
X0040322Y0057388D01*
X0040383Y0057281D01*
X0040441Y0057171D01*
X0040495Y0057060D01*
X0040546Y0056948D01*
X0040594Y0056833D01*
X0040637Y0056718D01*
X0040677Y0056601D01*
X0040714Y0056482D01*
X0040746Y0056363D01*
X0040775Y0056243D01*
X0040800Y0056122D01*
X0040822Y0056000D01*
X0040839Y0055877D01*
X0040853Y0055755D01*
X0040862Y0055631D01*
X0040868Y0055508D01*
X0040870Y0055384D01*
X0040868Y0055260D01*
X0040862Y0055137D01*
X0040853Y0055013D01*
X0040839Y0054891D01*
X0040822Y0054768D01*
X0040800Y0054646D01*
X0040775Y0054525D01*
X0040746Y0054405D01*
X0040714Y0054286D01*
X0040677Y0054167D01*
X0040637Y0054050D01*
X0040594Y0053935D01*
X0040546Y0053820D01*
X0040495Y0053708D01*
X0040441Y0053597D01*
X0040383Y0053487D01*
X0040322Y0053380D01*
X0040257Y0053274D01*
X0040189Y0053171D01*
X0040118Y0053070D01*
X0040044Y0052971D01*
X0039967Y0052874D01*
X0039886Y0052780D01*
X0039803Y0052689D01*
X0039717Y0052600D01*
X0039628Y0052514D01*
X0039537Y0052431D01*
X0039443Y0052350D01*
X0039346Y0052273D01*
X0039247Y0052199D01*
X0039146Y0052128D01*
X0039043Y0052060D01*
X0038937Y0051995D01*
X0038830Y0051934D01*
X0038720Y0051876D01*
X0038609Y0051822D01*
X0038497Y0051771D01*
X0038382Y0051723D01*
X0038267Y0051680D01*
X0038150Y0051640D01*
X0038031Y0051603D01*
X0037912Y0051571D01*
X0037792Y0051542D01*
X0037671Y0051517D01*
X0037549Y0051495D01*
X0037426Y0051478D01*
X0037304Y0051464D01*
X0037180Y0051455D01*
X0037057Y0051449D01*
X0036933Y0051447D01*
X0032658Y0051447D01*
X0029874Y0050294D02*
X0018401Y0038820D01*
X0015617Y0037667D02*
X0003469Y0037667D01*
X0003469Y0037668D02*
X0003383Y0037666D01*
X0003297Y0037661D01*
X0003212Y0037651D01*
X0003127Y0037638D01*
X0003043Y0037621D01*
X0002959Y0037601D01*
X0002877Y0037577D01*
X0002796Y0037549D01*
X0002715Y0037518D01*
X0002637Y0037484D01*
X0002560Y0037446D01*
X0002485Y0037404D01*
X0002411Y0037360D01*
X0002340Y0037312D01*
X0002270Y0037261D01*
X0002203Y0037207D01*
X0002139Y0037151D01*
X0002077Y0037091D01*
X0002017Y0037029D01*
X0001961Y0036965D01*
X0001907Y0036898D01*
X0001856Y0036828D01*
X0001808Y0036757D01*
X0001764Y0036684D01*
X0001722Y0036608D01*
X0001684Y0036531D01*
X0001650Y0036453D01*
X0001619Y0036372D01*
X0001591Y0036291D01*
X0001567Y0036209D01*
X0001547Y0036125D01*
X0001530Y0036041D01*
X0001517Y0035956D01*
X0001507Y0035871D01*
X0001502Y0035785D01*
X0001500Y0035699D01*
X0001500Y0019951D01*
X0001502Y0019865D01*
X0001507Y0019779D01*
X0001517Y0019694D01*
X0001530Y0019609D01*
X0001547Y0019525D01*
X0001567Y0019441D01*
X0001591Y0019359D01*
X0001619Y0019278D01*
X0001650Y0019197D01*
X0001684Y0019119D01*
X0001722Y0019042D01*
X0001764Y0018967D01*
X0001808Y0018893D01*
X0001856Y0018822D01*
X0001907Y0018752D01*
X0001961Y0018685D01*
X0002017Y0018621D01*
X0002077Y0018559D01*
X0002139Y0018499D01*
X0002203Y0018443D01*
X0002270Y0018389D01*
X0002340Y0018338D01*
X0002411Y0018290D01*
X0002484Y0018246D01*
X0002560Y0018204D01*
X0002637Y0018166D01*
X0002715Y0018132D01*
X0002796Y0018101D01*
X0002877Y0018073D01*
X0002959Y0018049D01*
X0003043Y0018029D01*
X0003127Y0018012D01*
X0003212Y0017999D01*
X0003297Y0017989D01*
X0003383Y0017984D01*
X0003469Y0017982D01*
X0015617Y0017982D01*
X0029874Y0005356D02*
X0029963Y0005270D01*
X0030054Y0005187D01*
X0030148Y0005106D01*
X0030245Y0005029D01*
X0030344Y0004955D01*
X0030445Y0004884D01*
X0030548Y0004816D01*
X0030654Y0004751D01*
X0030761Y0004690D01*
X0030871Y0004632D01*
X0030982Y0004578D01*
X0031094Y0004527D01*
X0031209Y0004479D01*
X0031324Y0004436D01*
X0031441Y0004396D01*
X0031560Y0004359D01*
X0031679Y0004327D01*
X0031799Y0004298D01*
X0031920Y0004273D01*
X0032042Y0004251D01*
X0032165Y0004234D01*
X0032287Y0004220D01*
X0032411Y0004211D01*
X0032534Y0004205D01*
X0032658Y0004203D01*
X0018401Y0038820D02*
X0018312Y0038734D01*
X0018221Y0038651D01*
X0018127Y0038570D01*
X0018030Y0038493D01*
X0017931Y0038419D01*
X0017830Y0038348D01*
X0017727Y0038280D01*
X0017621Y0038215D01*
X0017514Y0038154D01*
X0017404Y0038096D01*
X0017293Y0038042D01*
X0017181Y0037991D01*
X0017066Y0037943D01*
X0016951Y0037900D01*
X0016834Y0037860D01*
X0016715Y0037823D01*
X0016596Y0037791D01*
X0016476Y0037762D01*
X0016355Y0037737D01*
X0016233Y0037715D01*
X0016110Y0037698D01*
X0015988Y0037684D01*
X0015864Y0037675D01*
X0015741Y0037669D01*
X0015617Y0037667D01*
X0029874Y0050294D02*
X0029963Y0050380D01*
X0030054Y0050463D01*
X0030148Y0050544D01*
X0030245Y0050621D01*
X0030344Y0050695D01*
X0030445Y0050766D01*
X0030548Y0050834D01*
X0030654Y0050899D01*
X0030761Y0050960D01*
X0030871Y0051018D01*
X0030982Y0051072D01*
X0031094Y0051123D01*
X0031209Y0051171D01*
X0031324Y0051214D01*
X0031441Y0051254D01*
X0031560Y0051291D01*
X0031679Y0051323D01*
X0031799Y0051352D01*
X0031920Y0051377D01*
X0032042Y0051399D01*
X0032165Y0051416D01*
X0032287Y0051430D01*
X0032411Y0051439D01*
X0032534Y0051445D01*
X0032658Y0051447D01*
X0032658Y0059321D02*
X0032534Y0059323D01*
X0032411Y0059329D01*
X0032287Y0059338D01*
X0032165Y0059352D01*
X0032042Y0059369D01*
X0031920Y0059391D01*
X0031799Y0059416D01*
X0031679Y0059445D01*
X0031560Y0059477D01*
X0031441Y0059514D01*
X0031324Y0059554D01*
X0031209Y0059597D01*
X0031094Y0059645D01*
X0030982Y0059696D01*
X0030871Y0059750D01*
X0030761Y0059808D01*
X0030654Y0059869D01*
X0030548Y0059934D01*
X0030445Y0060002D01*
X0030344Y0060073D01*
X0030245Y0060147D01*
X0030148Y0060224D01*
X0030054Y0060305D01*
X0029963Y0060388D01*
X0029874Y0060474D01*
X0018401Y0071947D02*
X0018312Y0072033D01*
X0018221Y0072116D01*
X0018127Y0072197D01*
X0018030Y0072274D01*
X0017931Y0072348D01*
X0017830Y0072419D01*
X0017727Y0072487D01*
X0017621Y0072552D01*
X0017514Y0072613D01*
X0017404Y0072671D01*
X0017293Y0072725D01*
X0017181Y0072776D01*
X0017066Y0072824D01*
X0016951Y0072867D01*
X0016834Y0072907D01*
X0016715Y0072944D01*
X0016596Y0072976D01*
X0016476Y0073005D01*
X0016355Y0073030D01*
X0016233Y0073052D01*
X0016110Y0073069D01*
X0015988Y0073083D01*
X0015864Y0073092D01*
X0015741Y0073098D01*
X0015617Y0073100D01*
X0015617Y0092785D02*
X0015741Y0092787D01*
X0015864Y0092793D01*
X0015988Y0092802D01*
X0016110Y0092816D01*
X0016233Y0092833D01*
X0016355Y0092855D01*
X0016476Y0092880D01*
X0016596Y0092909D01*
X0016715Y0092941D01*
X0016834Y0092978D01*
X0016951Y0093018D01*
X0017066Y0093061D01*
X0017181Y0093109D01*
X0017293Y0093160D01*
X0017404Y0093214D01*
X0017514Y0093272D01*
X0017621Y0093333D01*
X0017727Y0093398D01*
X0017830Y0093466D01*
X0017931Y0093537D01*
X0018030Y0093611D01*
X0018127Y0093688D01*
X0018221Y0093769D01*
X0018312Y0093852D01*
X0018401Y0093938D01*
X0029874Y0105412D02*
X0029963Y0105498D01*
X0030054Y0105581D01*
X0030148Y0105662D01*
X0030245Y0105739D01*
X0030344Y0105813D01*
X0030445Y0105884D01*
X0030548Y0105952D01*
X0030654Y0106017D01*
X0030761Y0106078D01*
X0030871Y0106136D01*
X0030982Y0106190D01*
X0031094Y0106241D01*
X0031209Y0106289D01*
X0031324Y0106332D01*
X0031441Y0106372D01*
X0031560Y0106409D01*
X0031679Y0106441D01*
X0031799Y0106470D01*
X0031920Y0106495D01*
X0032042Y0106517D01*
X0032165Y0106534D01*
X0032287Y0106548D01*
X0032411Y0106557D01*
X0032534Y0106563D01*
X0032658Y0106565D01*
X0032658Y0114439D02*
X0032534Y0114441D01*
X0032411Y0114447D01*
X0032287Y0114456D01*
X0032165Y0114470D01*
X0032042Y0114487D01*
X0031920Y0114509D01*
X0031799Y0114534D01*
X0031679Y0114563D01*
X0031560Y0114595D01*
X0031441Y0114632D01*
X0031324Y0114672D01*
X0031209Y0114715D01*
X0031094Y0114763D01*
X0030982Y0114814D01*
X0030871Y0114868D01*
X0030761Y0114926D01*
X0030654Y0114987D01*
X0030548Y0115052D01*
X0030445Y0115120D01*
X0030344Y0115191D01*
X0030245Y0115265D01*
X0030148Y0115342D01*
X0030054Y0115423D01*
X0029963Y0115506D01*
X0029874Y0115592D01*
X0018401Y0127065D02*
X0018312Y0127151D01*
X0018221Y0127234D01*
X0018127Y0127315D01*
X0018030Y0127392D01*
X0017931Y0127466D01*
X0017830Y0127537D01*
X0017727Y0127605D01*
X0017621Y0127670D01*
X0017514Y0127731D01*
X0017404Y0127789D01*
X0017293Y0127843D01*
X0017181Y0127894D01*
X0017066Y0127942D01*
X0016951Y0127985D01*
X0016834Y0128025D01*
X0016715Y0128062D01*
X0016596Y0128094D01*
X0016476Y0128123D01*
X0016355Y0128148D01*
X0016233Y0128170D01*
X0016110Y0128187D01*
X0015988Y0128201D01*
X0015864Y0128210D01*
X0015741Y0128216D01*
X0015617Y0128218D01*
X0015617Y0147904D02*
X0015741Y0147906D01*
X0015864Y0147912D01*
X0015988Y0147921D01*
X0016110Y0147935D01*
X0016233Y0147952D01*
X0016355Y0147974D01*
X0016476Y0147999D01*
X0016596Y0148028D01*
X0016715Y0148060D01*
X0016834Y0148097D01*
X0016951Y0148137D01*
X0017066Y0148180D01*
X0017181Y0148228D01*
X0017293Y0148279D01*
X0017404Y0148333D01*
X0017514Y0148391D01*
X0017621Y0148452D01*
X0017727Y0148517D01*
X0017830Y0148585D01*
X0017931Y0148656D01*
X0018030Y0148730D01*
X0018127Y0148807D01*
X0018221Y0148888D01*
X0018312Y0148971D01*
X0018401Y0149057D01*
X0029874Y0160530D02*
X0029963Y0160616D01*
X0030054Y0160699D01*
X0030148Y0160780D01*
X0030245Y0160857D01*
X0030344Y0160931D01*
X0030445Y0161002D01*
X0030548Y0161070D01*
X0030654Y0161135D01*
X0030761Y0161196D01*
X0030871Y0161254D01*
X0030982Y0161308D01*
X0031094Y0161359D01*
X0031209Y0161407D01*
X0031324Y0161450D01*
X0031441Y0161490D01*
X0031560Y0161527D01*
X0031679Y0161559D01*
X0031799Y0161588D01*
X0031920Y0161613D01*
X0032042Y0161635D01*
X0032165Y0161652D01*
X0032287Y0161666D01*
X0032411Y0161675D01*
X0032534Y0161681D01*
X0032658Y0161683D01*
X0032658Y0169557D02*
X0032534Y0169559D01*
X0032411Y0169565D01*
X0032287Y0169574D01*
X0032165Y0169588D01*
X0032042Y0169605D01*
X0031920Y0169627D01*
X0031799Y0169652D01*
X0031679Y0169681D01*
X0031560Y0169713D01*
X0031441Y0169750D01*
X0031324Y0169790D01*
X0031209Y0169833D01*
X0031094Y0169881D01*
X0030982Y0169932D01*
X0030871Y0169986D01*
X0030761Y0170044D01*
X0030654Y0170105D01*
X0030548Y0170170D01*
X0030445Y0170238D01*
X0030344Y0170309D01*
X0030245Y0170383D01*
X0030148Y0170460D01*
X0030054Y0170541D01*
X0029963Y0170624D01*
X0029874Y0170710D01*
X0018401Y0182184D02*
X0018312Y0182270D01*
X0018221Y0182353D01*
X0018127Y0182434D01*
X0018030Y0182511D01*
X0017931Y0182585D01*
X0017830Y0182656D01*
X0017727Y0182724D01*
X0017621Y0182789D01*
X0017514Y0182850D01*
X0017404Y0182908D01*
X0017293Y0182962D01*
X0017181Y0183013D01*
X0017066Y0183061D01*
X0016951Y0183104D01*
X0016834Y0183144D01*
X0016715Y0183181D01*
X0016596Y0183213D01*
X0016476Y0183242D01*
X0016355Y0183267D01*
X0016233Y0183289D01*
X0016110Y0183306D01*
X0015988Y0183320D01*
X0015864Y0183329D01*
X0015741Y0183335D01*
X0015617Y0183337D01*
X0015617Y0203022D02*
X0015741Y0203024D01*
X0015864Y0203030D01*
X0015988Y0203039D01*
X0016110Y0203053D01*
X0016233Y0203070D01*
X0016355Y0203092D01*
X0016476Y0203117D01*
X0016596Y0203146D01*
X0016715Y0203178D01*
X0016834Y0203215D01*
X0016951Y0203255D01*
X0017066Y0203298D01*
X0017181Y0203346D01*
X0017293Y0203397D01*
X0017404Y0203451D01*
X0017514Y0203509D01*
X0017621Y0203570D01*
X0017727Y0203635D01*
X0017830Y0203703D01*
X0017931Y0203774D01*
X0018030Y0203848D01*
X0018127Y0203925D01*
X0018221Y0204006D01*
X0018312Y0204089D01*
X0018401Y0204175D01*
X0029874Y0215648D02*
X0029963Y0215734D01*
X0030054Y0215817D01*
X0030148Y0215898D01*
X0030245Y0215975D01*
X0030344Y0216049D01*
X0030445Y0216120D01*
X0030548Y0216188D01*
X0030654Y0216253D01*
X0030761Y0216314D01*
X0030871Y0216372D01*
X0030982Y0216426D01*
X0031094Y0216477D01*
X0031209Y0216525D01*
X0031324Y0216568D01*
X0031441Y0216608D01*
X0031560Y0216645D01*
X0031679Y0216677D01*
X0031799Y0216706D01*
X0031920Y0216731D01*
X0032042Y0216753D01*
X0032165Y0216770D01*
X0032287Y0216784D01*
X0032411Y0216793D01*
X0032534Y0216799D01*
X0032658Y0216801D01*
X0048744Y0169557D02*
X0125516Y0169557D01*
X0125640Y0169555D01*
X0125763Y0169549D01*
X0125887Y0169540D01*
X0126009Y0169526D01*
X0126132Y0169509D01*
X0126254Y0169487D01*
X0126375Y0169462D01*
X0126495Y0169433D01*
X0126614Y0169401D01*
X0126733Y0169364D01*
X0126850Y0169324D01*
X0126965Y0169281D01*
X0127080Y0169233D01*
X0127192Y0169182D01*
X0127303Y0169128D01*
X0127413Y0169070D01*
X0127520Y0169009D01*
X0127626Y0168944D01*
X0127729Y0168876D01*
X0127830Y0168805D01*
X0127929Y0168731D01*
X0128026Y0168654D01*
X0128120Y0168573D01*
X0128211Y0168490D01*
X0128300Y0168404D01*
X0128386Y0168315D01*
X0128469Y0168224D01*
X0128550Y0168130D01*
X0128627Y0168033D01*
X0128701Y0167934D01*
X0128772Y0167833D01*
X0128840Y0167730D01*
X0128905Y0167624D01*
X0128966Y0167517D01*
X0129024Y0167407D01*
X0129078Y0167296D01*
X0129129Y0167184D01*
X0129177Y0167069D01*
X0129220Y0166954D01*
X0129260Y0166837D01*
X0129297Y0166718D01*
X0129329Y0166599D01*
X0129358Y0166479D01*
X0129383Y0166358D01*
X0129405Y0166236D01*
X0129422Y0166113D01*
X0129436Y0165991D01*
X0129445Y0165867D01*
X0129451Y0165744D01*
X0129453Y0165620D01*
X0129451Y0165496D01*
X0129445Y0165373D01*
X0129436Y0165249D01*
X0129422Y0165127D01*
X0129405Y0165004D01*
X0129383Y0164882D01*
X0129358Y0164761D01*
X0129329Y0164641D01*
X0129297Y0164522D01*
X0129260Y0164403D01*
X0129220Y0164286D01*
X0129177Y0164171D01*
X0129129Y0164056D01*
X0129078Y0163944D01*
X0129024Y0163833D01*
X0128966Y0163723D01*
X0128905Y0163616D01*
X0128840Y0163510D01*
X0128772Y0163407D01*
X0128701Y0163306D01*
X0128627Y0163207D01*
X0128550Y0163110D01*
X0128469Y0163016D01*
X0128386Y0162925D01*
X0128300Y0162836D01*
X0128211Y0162750D01*
X0128120Y0162667D01*
X0128026Y0162586D01*
X0127929Y0162509D01*
X0127830Y0162435D01*
X0127729Y0162364D01*
X0127626Y0162296D01*
X0127520Y0162231D01*
X0127413Y0162170D01*
X0127303Y0162112D01*
X0127192Y0162058D01*
X0127080Y0162007D01*
X0126965Y0161959D01*
X0126850Y0161916D01*
X0126733Y0161876D01*
X0126614Y0161839D01*
X0126495Y0161807D01*
X0126375Y0161778D01*
X0126254Y0161753D01*
X0126132Y0161731D01*
X0126009Y0161714D01*
X0125887Y0161700D01*
X0125763Y0161691D01*
X0125640Y0161685D01*
X0125516Y0161683D01*
X0048744Y0161683D01*
X0048620Y0161685D01*
X0048497Y0161691D01*
X0048373Y0161700D01*
X0048251Y0161714D01*
X0048128Y0161731D01*
X0048006Y0161753D01*
X0047885Y0161778D01*
X0047765Y0161807D01*
X0047646Y0161839D01*
X0047527Y0161876D01*
X0047410Y0161916D01*
X0047295Y0161959D01*
X0047180Y0162007D01*
X0047068Y0162058D01*
X0046957Y0162112D01*
X0046847Y0162170D01*
X0046740Y0162231D01*
X0046634Y0162296D01*
X0046531Y0162364D01*
X0046430Y0162435D01*
X0046331Y0162509D01*
X0046234Y0162586D01*
X0046140Y0162667D01*
X0046049Y0162750D01*
X0045960Y0162836D01*
X0045874Y0162925D01*
X0045791Y0163016D01*
X0045710Y0163110D01*
X0045633Y0163207D01*
X0045559Y0163306D01*
X0045488Y0163407D01*
X0045420Y0163510D01*
X0045355Y0163616D01*
X0045294Y0163723D01*
X0045236Y0163833D01*
X0045182Y0163944D01*
X0045131Y0164056D01*
X0045083Y0164171D01*
X0045040Y0164286D01*
X0045000Y0164403D01*
X0044963Y0164522D01*
X0044931Y0164641D01*
X0044902Y0164761D01*
X0044877Y0164882D01*
X0044855Y0165004D01*
X0044838Y0165127D01*
X0044824Y0165249D01*
X0044815Y0165373D01*
X0044809Y0165496D01*
X0044807Y0165620D01*
X0044809Y0165744D01*
X0044815Y0165867D01*
X0044824Y0165991D01*
X0044838Y0166113D01*
X0044855Y0166236D01*
X0044877Y0166358D01*
X0044902Y0166479D01*
X0044931Y0166599D01*
X0044963Y0166718D01*
X0045000Y0166837D01*
X0045040Y0166954D01*
X0045083Y0167069D01*
X0045131Y0167184D01*
X0045182Y0167296D01*
X0045236Y0167407D01*
X0045294Y0167517D01*
X0045355Y0167624D01*
X0045420Y0167730D01*
X0045488Y0167833D01*
X0045559Y0167934D01*
X0045633Y0168033D01*
X0045710Y0168130D01*
X0045791Y0168224D01*
X0045874Y0168315D01*
X0045960Y0168404D01*
X0046049Y0168490D01*
X0046140Y0168573D01*
X0046234Y0168654D01*
X0046331Y0168731D01*
X0046430Y0168805D01*
X0046531Y0168876D01*
X0046634Y0168944D01*
X0046740Y0169009D01*
X0046847Y0169070D01*
X0046957Y0169128D01*
X0047068Y0169182D01*
X0047180Y0169233D01*
X0047295Y0169281D01*
X0047410Y0169324D01*
X0047527Y0169364D01*
X0047646Y0169401D01*
X0047765Y0169433D01*
X0047885Y0169462D01*
X0048006Y0169487D01*
X0048128Y0169509D01*
X0048251Y0169526D01*
X0048373Y0169540D01*
X0048497Y0169549D01*
X0048620Y0169555D01*
X0048744Y0169557D01*
X0048744Y0114439D02*
X0180634Y0114439D01*
X0180758Y0114437D01*
X0180881Y0114431D01*
X0181005Y0114422D01*
X0181127Y0114408D01*
X0181250Y0114391D01*
X0181372Y0114369D01*
X0181493Y0114344D01*
X0181613Y0114315D01*
X0181732Y0114283D01*
X0181851Y0114246D01*
X0181968Y0114206D01*
X0182083Y0114163D01*
X0182198Y0114115D01*
X0182310Y0114064D01*
X0182421Y0114010D01*
X0182531Y0113952D01*
X0182638Y0113891D01*
X0182744Y0113826D01*
X0182847Y0113758D01*
X0182948Y0113687D01*
X0183047Y0113613D01*
X0183144Y0113536D01*
X0183238Y0113455D01*
X0183329Y0113372D01*
X0183418Y0113286D01*
X0183504Y0113197D01*
X0183587Y0113106D01*
X0183668Y0113012D01*
X0183745Y0112915D01*
X0183819Y0112816D01*
X0183890Y0112715D01*
X0183958Y0112612D01*
X0184023Y0112506D01*
X0184084Y0112399D01*
X0184142Y0112289D01*
X0184196Y0112178D01*
X0184247Y0112066D01*
X0184295Y0111951D01*
X0184338Y0111836D01*
X0184378Y0111719D01*
X0184415Y0111600D01*
X0184447Y0111481D01*
X0184476Y0111361D01*
X0184501Y0111240D01*
X0184523Y0111118D01*
X0184540Y0110995D01*
X0184554Y0110873D01*
X0184563Y0110749D01*
X0184569Y0110626D01*
X0184571Y0110502D01*
X0184569Y0110378D01*
X0184563Y0110255D01*
X0184554Y0110131D01*
X0184540Y0110009D01*
X0184523Y0109886D01*
X0184501Y0109764D01*
X0184476Y0109643D01*
X0184447Y0109523D01*
X0184415Y0109404D01*
X0184378Y0109285D01*
X0184338Y0109168D01*
X0184295Y0109053D01*
X0184247Y0108938D01*
X0184196Y0108826D01*
X0184142Y0108715D01*
X0184084Y0108605D01*
X0184023Y0108498D01*
X0183958Y0108392D01*
X0183890Y0108289D01*
X0183819Y0108188D01*
X0183745Y0108089D01*
X0183668Y0107992D01*
X0183587Y0107898D01*
X0183504Y0107807D01*
X0183418Y0107718D01*
X0183329Y0107632D01*
X0183238Y0107549D01*
X0183144Y0107468D01*
X0183047Y0107391D01*
X0182948Y0107317D01*
X0182847Y0107246D01*
X0182744Y0107178D01*
X0182638Y0107113D01*
X0182531Y0107052D01*
X0182421Y0106994D01*
X0182310Y0106940D01*
X0182198Y0106889D01*
X0182083Y0106841D01*
X0181968Y0106798D01*
X0181851Y0106758D01*
X0181732Y0106721D01*
X0181613Y0106689D01*
X0181493Y0106660D01*
X0181372Y0106635D01*
X0181250Y0106613D01*
X0181127Y0106596D01*
X0181005Y0106582D01*
X0180881Y0106573D01*
X0180758Y0106567D01*
X0180634Y0106565D01*
X0048744Y0106565D01*
X0048620Y0106567D01*
X0048497Y0106573D01*
X0048373Y0106582D01*
X0048251Y0106596D01*
X0048128Y0106613D01*
X0048006Y0106635D01*
X0047885Y0106660D01*
X0047765Y0106689D01*
X0047646Y0106721D01*
X0047527Y0106758D01*
X0047410Y0106798D01*
X0047295Y0106841D01*
X0047180Y0106889D01*
X0047068Y0106940D01*
X0046957Y0106994D01*
X0046847Y0107052D01*
X0046740Y0107113D01*
X0046634Y0107178D01*
X0046531Y0107246D01*
X0046430Y0107317D01*
X0046331Y0107391D01*
X0046234Y0107468D01*
X0046140Y0107549D01*
X0046049Y0107632D01*
X0045960Y0107718D01*
X0045874Y0107807D01*
X0045791Y0107898D01*
X0045710Y0107992D01*
X0045633Y0108089D01*
X0045559Y0108188D01*
X0045488Y0108289D01*
X0045420Y0108392D01*
X0045355Y0108498D01*
X0045294Y0108605D01*
X0045236Y0108715D01*
X0045182Y0108826D01*
X0045131Y0108938D01*
X0045083Y0109053D01*
X0045040Y0109168D01*
X0045000Y0109285D01*
X0044963Y0109404D01*
X0044931Y0109523D01*
X0044902Y0109643D01*
X0044877Y0109764D01*
X0044855Y0109886D01*
X0044838Y0110009D01*
X0044824Y0110131D01*
X0044815Y0110255D01*
X0044809Y0110378D01*
X0044807Y0110502D01*
X0044809Y0110626D01*
X0044815Y0110749D01*
X0044824Y0110873D01*
X0044838Y0110995D01*
X0044855Y0111118D01*
X0044877Y0111240D01*
X0044902Y0111361D01*
X0044931Y0111481D01*
X0044963Y0111600D01*
X0045000Y0111719D01*
X0045040Y0111836D01*
X0045083Y0111951D01*
X0045131Y0112066D01*
X0045182Y0112178D01*
X0045236Y0112289D01*
X0045294Y0112399D01*
X0045355Y0112506D01*
X0045420Y0112612D01*
X0045488Y0112715D01*
X0045559Y0112816D01*
X0045633Y0112915D01*
X0045710Y0113012D01*
X0045791Y0113106D01*
X0045874Y0113197D01*
X0045960Y0113286D01*
X0046049Y0113372D01*
X0046140Y0113455D01*
X0046234Y0113536D01*
X0046331Y0113613D01*
X0046430Y0113687D01*
X0046531Y0113758D01*
X0046634Y0113826D01*
X0046740Y0113891D01*
X0046847Y0113952D01*
X0046957Y0114010D01*
X0047068Y0114064D01*
X0047180Y0114115D01*
X0047295Y0114163D01*
X0047410Y0114206D01*
X0047527Y0114246D01*
X0047646Y0114283D01*
X0047765Y0114315D01*
X0047885Y0114344D01*
X0048006Y0114369D01*
X0048128Y0114391D01*
X0048251Y0114408D01*
X0048373Y0114422D01*
X0048497Y0114431D01*
X0048620Y0114437D01*
X0048744Y0114439D01*
X0048744Y0059321D02*
X0180634Y0059321D01*
X0180758Y0059319D01*
X0180881Y0059313D01*
X0181005Y0059304D01*
X0181127Y0059290D01*
X0181250Y0059273D01*
X0181372Y0059251D01*
X0181493Y0059226D01*
X0181613Y0059197D01*
X0181732Y0059165D01*
X0181851Y0059128D01*
X0181968Y0059088D01*
X0182083Y0059045D01*
X0182198Y0058997D01*
X0182310Y0058946D01*
X0182421Y0058892D01*
X0182531Y0058834D01*
X0182638Y0058773D01*
X0182744Y0058708D01*
X0182847Y0058640D01*
X0182948Y0058569D01*
X0183047Y0058495D01*
X0183144Y0058418D01*
X0183238Y0058337D01*
X0183329Y0058254D01*
X0183418Y0058168D01*
X0183504Y0058079D01*
X0183587Y0057988D01*
X0183668Y0057894D01*
X0183745Y0057797D01*
X0183819Y0057698D01*
X0183890Y0057597D01*
X0183958Y0057494D01*
X0184023Y0057388D01*
X0184084Y0057281D01*
X0184142Y0057171D01*
X0184196Y0057060D01*
X0184247Y0056948D01*
X0184295Y0056833D01*
X0184338Y0056718D01*
X0184378Y0056601D01*
X0184415Y0056482D01*
X0184447Y0056363D01*
X0184476Y0056243D01*
X0184501Y0056122D01*
X0184523Y0056000D01*
X0184540Y0055877D01*
X0184554Y0055755D01*
X0184563Y0055631D01*
X0184569Y0055508D01*
X0184571Y0055384D01*
X0184569Y0055260D01*
X0184563Y0055137D01*
X0184554Y0055013D01*
X0184540Y0054891D01*
X0184523Y0054768D01*
X0184501Y0054646D01*
X0184476Y0054525D01*
X0184447Y0054405D01*
X0184415Y0054286D01*
X0184378Y0054167D01*
X0184338Y0054050D01*
X0184295Y0053935D01*
X0184247Y0053820D01*
X0184196Y0053708D01*
X0184142Y0053597D01*
X0184084Y0053487D01*
X0184023Y0053380D01*
X0183958Y0053274D01*
X0183890Y0053171D01*
X0183819Y0053070D01*
X0183745Y0052971D01*
X0183668Y0052874D01*
X0183587Y0052780D01*
X0183504Y0052689D01*
X0183418Y0052600D01*
X0183329Y0052514D01*
X0183238Y0052431D01*
X0183144Y0052350D01*
X0183047Y0052273D01*
X0182948Y0052199D01*
X0182847Y0052128D01*
X0182744Y0052060D01*
X0182638Y0051995D01*
X0182531Y0051934D01*
X0182421Y0051876D01*
X0182310Y0051822D01*
X0182198Y0051771D01*
X0182083Y0051723D01*
X0181968Y0051680D01*
X0181851Y0051640D01*
X0181732Y0051603D01*
X0181613Y0051571D01*
X0181493Y0051542D01*
X0181372Y0051517D01*
X0181250Y0051495D01*
X0181127Y0051478D01*
X0181005Y0051464D01*
X0180881Y0051455D01*
X0180758Y0051449D01*
X0180634Y0051447D01*
X0048744Y0051447D01*
X0048620Y0051449D01*
X0048497Y0051455D01*
X0048373Y0051464D01*
X0048251Y0051478D01*
X0048128Y0051495D01*
X0048006Y0051517D01*
X0047885Y0051542D01*
X0047765Y0051571D01*
X0047646Y0051603D01*
X0047527Y0051640D01*
X0047410Y0051680D01*
X0047295Y0051723D01*
X0047180Y0051771D01*
X0047068Y0051822D01*
X0046957Y0051876D01*
X0046847Y0051934D01*
X0046740Y0051995D01*
X0046634Y0052060D01*
X0046531Y0052128D01*
X0046430Y0052199D01*
X0046331Y0052273D01*
X0046234Y0052350D01*
X0046140Y0052431D01*
X0046049Y0052514D01*
X0045960Y0052600D01*
X0045874Y0052689D01*
X0045791Y0052780D01*
X0045710Y0052874D01*
X0045633Y0052971D01*
X0045559Y0053070D01*
X0045488Y0053171D01*
X0045420Y0053274D01*
X0045355Y0053380D01*
X0045294Y0053487D01*
X0045236Y0053597D01*
X0045182Y0053708D01*
X0045131Y0053820D01*
X0045083Y0053935D01*
X0045040Y0054050D01*
X0045000Y0054167D01*
X0044963Y0054286D01*
X0044931Y0054405D01*
X0044902Y0054525D01*
X0044877Y0054646D01*
X0044855Y0054768D01*
X0044838Y0054891D01*
X0044824Y0055013D01*
X0044815Y0055137D01*
X0044809Y0055260D01*
X0044807Y0055384D01*
X0044809Y0055508D01*
X0044815Y0055631D01*
X0044824Y0055755D01*
X0044838Y0055877D01*
X0044855Y0056000D01*
X0044877Y0056122D01*
X0044902Y0056243D01*
X0044931Y0056363D01*
X0044963Y0056482D01*
X0045000Y0056601D01*
X0045040Y0056718D01*
X0045083Y0056833D01*
X0045131Y0056948D01*
X0045182Y0057060D01*
X0045236Y0057171D01*
X0045294Y0057281D01*
X0045355Y0057388D01*
X0045420Y0057494D01*
X0045488Y0057597D01*
X0045559Y0057698D01*
X0045633Y0057797D01*
X0045710Y0057894D01*
X0045791Y0057988D01*
X0045874Y0058079D01*
X0045960Y0058168D01*
X0046049Y0058254D01*
X0046140Y0058337D01*
X0046234Y0058418D01*
X0046331Y0058495D01*
X0046430Y0058569D01*
X0046531Y0058640D01*
X0046634Y0058708D01*
X0046740Y0058773D01*
X0046847Y0058834D01*
X0046957Y0058892D01*
X0047068Y0058946D01*
X0047180Y0058997D01*
X0047295Y0059045D01*
X0047410Y0059088D01*
X0047527Y0059128D01*
X0047646Y0059165D01*
X0047765Y0059197D01*
X0047885Y0059226D01*
X0048006Y0059251D01*
X0048128Y0059273D01*
X0048251Y0059290D01*
X0048373Y0059304D01*
X0048497Y0059313D01*
X0048620Y0059319D01*
X0048744Y0059321D01*
X0137327Y0161683D02*
X0180634Y0161683D01*
X0180758Y0161685D01*
X0180881Y0161691D01*
X0181005Y0161700D01*
X0181127Y0161714D01*
X0181250Y0161731D01*
X0181372Y0161753D01*
X0181493Y0161778D01*
X0181613Y0161807D01*
X0181732Y0161839D01*
X0181851Y0161876D01*
X0181968Y0161916D01*
X0182083Y0161959D01*
X0182198Y0162007D01*
X0182310Y0162058D01*
X0182421Y0162112D01*
X0182531Y0162170D01*
X0182638Y0162231D01*
X0182744Y0162296D01*
X0182847Y0162364D01*
X0182948Y0162435D01*
X0183047Y0162509D01*
X0183144Y0162586D01*
X0183238Y0162667D01*
X0183329Y0162750D01*
X0183418Y0162836D01*
X0183504Y0162925D01*
X0183587Y0163016D01*
X0183668Y0163110D01*
X0183745Y0163207D01*
X0183819Y0163306D01*
X0183890Y0163407D01*
X0183958Y0163510D01*
X0184023Y0163616D01*
X0184084Y0163723D01*
X0184142Y0163833D01*
X0184196Y0163944D01*
X0184247Y0164056D01*
X0184295Y0164171D01*
X0184338Y0164286D01*
X0184378Y0164403D01*
X0184415Y0164522D01*
X0184447Y0164641D01*
X0184476Y0164761D01*
X0184501Y0164882D01*
X0184523Y0165004D01*
X0184540Y0165127D01*
X0184554Y0165249D01*
X0184563Y0165373D01*
X0184569Y0165496D01*
X0184571Y0165620D01*
X0184569Y0165744D01*
X0184563Y0165867D01*
X0184554Y0165991D01*
X0184540Y0166113D01*
X0184523Y0166236D01*
X0184501Y0166358D01*
X0184476Y0166479D01*
X0184447Y0166599D01*
X0184415Y0166718D01*
X0184378Y0166837D01*
X0184338Y0166954D01*
X0184295Y0167069D01*
X0184247Y0167184D01*
X0184196Y0167296D01*
X0184142Y0167407D01*
X0184084Y0167517D01*
X0184023Y0167624D01*
X0183958Y0167730D01*
X0183890Y0167833D01*
X0183819Y0167934D01*
X0183745Y0168033D01*
X0183668Y0168130D01*
X0183587Y0168224D01*
X0183504Y0168315D01*
X0183418Y0168404D01*
X0183329Y0168490D01*
X0183238Y0168573D01*
X0183144Y0168654D01*
X0183047Y0168731D01*
X0182948Y0168805D01*
X0182847Y0168876D01*
X0182744Y0168944D01*
X0182638Y0169009D01*
X0182531Y0169070D01*
X0182421Y0169128D01*
X0182310Y0169182D01*
X0182198Y0169233D01*
X0182083Y0169281D01*
X0181968Y0169324D01*
X0181851Y0169364D01*
X0181732Y0169401D01*
X0181613Y0169433D01*
X0181493Y0169462D01*
X0181372Y0169487D01*
X0181250Y0169509D01*
X0181127Y0169526D01*
X0181005Y0169540D01*
X0180881Y0169549D01*
X0180758Y0169555D01*
X0180634Y0169557D01*
X0162917Y0169557D01*
X0162831Y0169559D01*
X0162745Y0169564D01*
X0162660Y0169574D01*
X0162575Y0169587D01*
X0162491Y0169604D01*
X0162407Y0169624D01*
X0162325Y0169648D01*
X0162244Y0169676D01*
X0162163Y0169707D01*
X0162085Y0169741D01*
X0162008Y0169779D01*
X0161933Y0169821D01*
X0161859Y0169865D01*
X0161788Y0169913D01*
X0161718Y0169964D01*
X0161651Y0170018D01*
X0161587Y0170074D01*
X0161525Y0170134D01*
X0161465Y0170196D01*
X0161409Y0170260D01*
X0161355Y0170327D01*
X0161304Y0170397D01*
X0161256Y0170468D01*
X0161212Y0170542D01*
X0161170Y0170617D01*
X0161132Y0170694D01*
X0161098Y0170772D01*
X0161067Y0170853D01*
X0161039Y0170934D01*
X0161015Y0171016D01*
X0160995Y0171100D01*
X0160978Y0171184D01*
X0160965Y0171269D01*
X0160955Y0171354D01*
X0160950Y0171440D01*
X0160948Y0171526D01*
X0160949Y0171526D02*
X0160949Y0188258D01*
X0160947Y0188382D01*
X0160941Y0188505D01*
X0160932Y0188629D01*
X0160918Y0188751D01*
X0160901Y0188874D01*
X0160879Y0188996D01*
X0160854Y0189117D01*
X0160825Y0189237D01*
X0160793Y0189356D01*
X0160756Y0189475D01*
X0160716Y0189592D01*
X0160673Y0189707D01*
X0160625Y0189822D01*
X0160574Y0189934D01*
X0160520Y0190045D01*
X0160462Y0190155D01*
X0160401Y0190262D01*
X0160336Y0190368D01*
X0160268Y0190471D01*
X0160197Y0190572D01*
X0160123Y0190671D01*
X0160046Y0190768D01*
X0159965Y0190862D01*
X0159882Y0190953D01*
X0159796Y0191042D01*
X0159707Y0191128D01*
X0159616Y0191211D01*
X0159522Y0191292D01*
X0159425Y0191369D01*
X0159326Y0191443D01*
X0159225Y0191514D01*
X0159122Y0191582D01*
X0159016Y0191647D01*
X0158909Y0191708D01*
X0158799Y0191766D01*
X0158688Y0191820D01*
X0158576Y0191871D01*
X0158461Y0191919D01*
X0158346Y0191962D01*
X0158229Y0192002D01*
X0158110Y0192039D01*
X0157991Y0192071D01*
X0157871Y0192100D01*
X0157750Y0192125D01*
X0157628Y0192147D01*
X0157505Y0192164D01*
X0157383Y0192178D01*
X0157259Y0192187D01*
X0157136Y0192193D01*
X0157012Y0192195D01*
X0156888Y0192193D01*
X0156765Y0192187D01*
X0156641Y0192178D01*
X0156519Y0192164D01*
X0156396Y0192147D01*
X0156274Y0192125D01*
X0156153Y0192100D01*
X0156033Y0192071D01*
X0155914Y0192039D01*
X0155795Y0192002D01*
X0155678Y0191962D01*
X0155563Y0191919D01*
X0155448Y0191871D01*
X0155336Y0191820D01*
X0155225Y0191766D01*
X0155115Y0191708D01*
X0155008Y0191647D01*
X0154902Y0191582D01*
X0154799Y0191514D01*
X0154698Y0191443D01*
X0154599Y0191369D01*
X0154502Y0191292D01*
X0154408Y0191211D01*
X0154317Y0191128D01*
X0154228Y0191042D01*
X0154142Y0190953D01*
X0154059Y0190862D01*
X0153978Y0190768D01*
X0153901Y0190671D01*
X0153827Y0190572D01*
X0153756Y0190471D01*
X0153688Y0190368D01*
X0153623Y0190262D01*
X0153562Y0190155D01*
X0153504Y0190045D01*
X0153450Y0189934D01*
X0153399Y0189822D01*
X0153351Y0189707D01*
X0153308Y0189592D01*
X0153268Y0189475D01*
X0153231Y0189356D01*
X0153199Y0189237D01*
X0153170Y0189117D01*
X0153145Y0188996D01*
X0153123Y0188874D01*
X0153106Y0188751D01*
X0153092Y0188629D01*
X0153083Y0188505D01*
X0153077Y0188382D01*
X0153075Y0188258D01*
X0153075Y0171526D01*
X0153073Y0171440D01*
X0153068Y0171354D01*
X0153058Y0171269D01*
X0153045Y0171184D01*
X0153028Y0171100D01*
X0153008Y0171016D01*
X0152984Y0170934D01*
X0152956Y0170853D01*
X0152925Y0170772D01*
X0152891Y0170694D01*
X0152853Y0170617D01*
X0152811Y0170542D01*
X0152767Y0170468D01*
X0152719Y0170397D01*
X0152668Y0170327D01*
X0152614Y0170260D01*
X0152558Y0170196D01*
X0152498Y0170134D01*
X0152436Y0170074D01*
X0152372Y0170018D01*
X0152305Y0169964D01*
X0152235Y0169913D01*
X0152164Y0169865D01*
X0152091Y0169821D01*
X0152015Y0169779D01*
X0151938Y0169741D01*
X0151860Y0169707D01*
X0151779Y0169676D01*
X0151698Y0169648D01*
X0151616Y0169624D01*
X0151532Y0169604D01*
X0151448Y0169587D01*
X0151363Y0169574D01*
X0151278Y0169564D01*
X0151192Y0169559D01*
X0151106Y0169557D01*
X0137327Y0169557D01*
X0137203Y0169555D01*
X0137080Y0169549D01*
X0136956Y0169540D01*
X0136834Y0169526D01*
X0136711Y0169509D01*
X0136589Y0169487D01*
X0136468Y0169462D01*
X0136348Y0169433D01*
X0136229Y0169401D01*
X0136110Y0169364D01*
X0135993Y0169324D01*
X0135878Y0169281D01*
X0135763Y0169233D01*
X0135651Y0169182D01*
X0135540Y0169128D01*
X0135430Y0169070D01*
X0135323Y0169009D01*
X0135217Y0168944D01*
X0135114Y0168876D01*
X0135013Y0168805D01*
X0134914Y0168731D01*
X0134817Y0168654D01*
X0134723Y0168573D01*
X0134632Y0168490D01*
X0134543Y0168404D01*
X0134457Y0168315D01*
X0134374Y0168224D01*
X0134293Y0168130D01*
X0134216Y0168033D01*
X0134142Y0167934D01*
X0134071Y0167833D01*
X0134003Y0167730D01*
X0133938Y0167624D01*
X0133877Y0167517D01*
X0133819Y0167407D01*
X0133765Y0167296D01*
X0133714Y0167184D01*
X0133666Y0167069D01*
X0133623Y0166954D01*
X0133583Y0166837D01*
X0133546Y0166718D01*
X0133514Y0166599D01*
X0133485Y0166479D01*
X0133460Y0166358D01*
X0133438Y0166236D01*
X0133421Y0166113D01*
X0133407Y0165991D01*
X0133398Y0165867D01*
X0133392Y0165744D01*
X0133390Y0165620D01*
X0133392Y0165496D01*
X0133398Y0165373D01*
X0133407Y0165249D01*
X0133421Y0165127D01*
X0133438Y0165004D01*
X0133460Y0164882D01*
X0133485Y0164761D01*
X0133514Y0164641D01*
X0133546Y0164522D01*
X0133583Y0164403D01*
X0133623Y0164286D01*
X0133666Y0164171D01*
X0133714Y0164056D01*
X0133765Y0163944D01*
X0133819Y0163833D01*
X0133877Y0163723D01*
X0133938Y0163616D01*
X0134003Y0163510D01*
X0134071Y0163407D01*
X0134142Y0163306D01*
X0134216Y0163207D01*
X0134293Y0163110D01*
X0134374Y0163016D01*
X0134457Y0162925D01*
X0134543Y0162836D01*
X0134632Y0162750D01*
X0134723Y0162667D01*
X0134817Y0162586D01*
X0134914Y0162509D01*
X0135013Y0162435D01*
X0135114Y0162364D01*
X0135217Y0162296D01*
X0135323Y0162231D01*
X0135430Y0162170D01*
X0135540Y0162112D01*
X0135651Y0162058D01*
X0135763Y0162007D01*
X0135878Y0161959D01*
X0135993Y0161916D01*
X0136110Y0161876D01*
X0136229Y0161839D01*
X0136348Y0161807D01*
X0136468Y0161778D01*
X0136589Y0161753D01*
X0136711Y0161731D01*
X0136834Y0161714D01*
X0136956Y0161700D01*
X0137080Y0161691D01*
X0137203Y0161685D01*
X0137327Y0161683D01*
X0137203Y0161685D01*
X0137080Y0161691D01*
X0136956Y0161700D01*
X0136834Y0161714D01*
X0136711Y0161731D01*
X0136589Y0161753D01*
X0136468Y0161778D01*
X0136348Y0161807D01*
X0136229Y0161839D01*
X0136110Y0161876D01*
X0135993Y0161916D01*
X0135878Y0161959D01*
X0135763Y0162007D01*
X0135651Y0162058D01*
X0135540Y0162112D01*
X0135430Y0162170D01*
X0135323Y0162231D01*
X0135217Y0162296D01*
X0135114Y0162364D01*
X0135013Y0162435D01*
X0134914Y0162509D01*
X0134817Y0162586D01*
X0134723Y0162667D01*
X0134632Y0162750D01*
X0134543Y0162836D01*
X0134457Y0162925D01*
X0134374Y0163016D01*
X0134293Y0163110D01*
X0134216Y0163207D01*
X0134142Y0163306D01*
X0134071Y0163407D01*
X0134003Y0163510D01*
X0133938Y0163616D01*
X0133877Y0163723D01*
X0133819Y0163833D01*
X0133765Y0163944D01*
X0133714Y0164056D01*
X0133666Y0164171D01*
X0133623Y0164286D01*
X0133583Y0164403D01*
X0133546Y0164522D01*
X0133514Y0164641D01*
X0133485Y0164761D01*
X0133460Y0164882D01*
X0133438Y0165004D01*
X0133421Y0165127D01*
X0133407Y0165249D01*
X0133398Y0165373D01*
X0133392Y0165496D01*
X0133390Y0165620D01*
X0133392Y0165744D01*
X0133398Y0165867D01*
X0133407Y0165991D01*
X0133421Y0166113D01*
X0133438Y0166236D01*
X0133460Y0166358D01*
X0133485Y0166479D01*
X0133514Y0166599D01*
X0133546Y0166718D01*
X0133583Y0166837D01*
X0133623Y0166954D01*
X0133666Y0167069D01*
X0133714Y0167184D01*
X0133765Y0167296D01*
X0133819Y0167407D01*
X0133877Y0167517D01*
X0133938Y0167624D01*
X0134003Y0167730D01*
X0134071Y0167833D01*
X0134142Y0167934D01*
X0134216Y0168033D01*
X0134293Y0168130D01*
X0134374Y0168224D01*
X0134457Y0168315D01*
X0134543Y0168404D01*
X0134632Y0168490D01*
X0134723Y0168573D01*
X0134817Y0168654D01*
X0134914Y0168731D01*
X0135013Y0168805D01*
X0135114Y0168876D01*
X0135217Y0168944D01*
X0135323Y0169009D01*
X0135430Y0169070D01*
X0135540Y0169128D01*
X0135651Y0169182D01*
X0135763Y0169233D01*
X0135878Y0169281D01*
X0135993Y0169324D01*
X0136110Y0169364D01*
X0136229Y0169401D01*
X0136348Y0169433D01*
X0136468Y0169462D01*
X0136589Y0169487D01*
X0136711Y0169509D01*
X0136834Y0169526D01*
X0136956Y0169540D01*
X0137080Y0169549D01*
X0137203Y0169555D01*
X0137327Y0169557D01*
D11*
X0130634Y0168573D02*
X0130636Y0168629D01*
X0130642Y0168684D01*
X0130652Y0168738D01*
X0130665Y0168792D01*
X0130683Y0168845D01*
X0130704Y0168896D01*
X0130728Y0168946D01*
X0130756Y0168994D01*
X0130788Y0169040D01*
X0130822Y0169084D01*
X0130860Y0169125D01*
X0130900Y0169163D01*
X0130943Y0169198D01*
X0130988Y0169230D01*
X0131036Y0169259D01*
X0131085Y0169285D01*
X0131136Y0169307D01*
X0131188Y0169325D01*
X0131242Y0169339D01*
X0131297Y0169350D01*
X0131352Y0169357D01*
X0131407Y0169360D01*
X0131463Y0169359D01*
X0131518Y0169354D01*
X0131573Y0169345D01*
X0131627Y0169333D01*
X0131680Y0169316D01*
X0131732Y0169296D01*
X0131782Y0169272D01*
X0131830Y0169245D01*
X0131877Y0169215D01*
X0131921Y0169181D01*
X0131963Y0169144D01*
X0132001Y0169104D01*
X0132038Y0169062D01*
X0132071Y0169017D01*
X0132100Y0168971D01*
X0132127Y0168922D01*
X0132149Y0168871D01*
X0132169Y0168819D01*
X0132184Y0168765D01*
X0132196Y0168711D01*
X0132204Y0168656D01*
X0132208Y0168601D01*
X0132208Y0168545D01*
X0132204Y0168490D01*
X0132196Y0168435D01*
X0132184Y0168381D01*
X0132169Y0168327D01*
X0132149Y0168275D01*
X0132127Y0168224D01*
X0132100Y0168175D01*
X0132071Y0168129D01*
X0132038Y0168084D01*
X0132001Y0168042D01*
X0131963Y0168002D01*
X0131921Y0167965D01*
X0131877Y0167931D01*
X0131830Y0167901D01*
X0131782Y0167874D01*
X0131732Y0167850D01*
X0131680Y0167830D01*
X0131627Y0167813D01*
X0131573Y0167801D01*
X0131518Y0167792D01*
X0131463Y0167787D01*
X0131407Y0167786D01*
X0131352Y0167789D01*
X0131297Y0167796D01*
X0131242Y0167807D01*
X0131188Y0167821D01*
X0131136Y0167839D01*
X0131085Y0167861D01*
X0131036Y0167887D01*
X0130988Y0167916D01*
X0130943Y0167948D01*
X0130900Y0167983D01*
X0130860Y0168021D01*
X0130822Y0168062D01*
X0130788Y0168106D01*
X0130756Y0168152D01*
X0130728Y0168200D01*
X0130704Y0168250D01*
X0130683Y0168301D01*
X0130665Y0168354D01*
X0130652Y0168408D01*
X0130642Y0168462D01*
X0130636Y0168517D01*
X0130634Y0168573D01*
X0130634Y0162667D02*
X0130636Y0162723D01*
X0130642Y0162778D01*
X0130652Y0162832D01*
X0130665Y0162886D01*
X0130683Y0162939D01*
X0130704Y0162990D01*
X0130728Y0163040D01*
X0130756Y0163088D01*
X0130788Y0163134D01*
X0130822Y0163178D01*
X0130860Y0163219D01*
X0130900Y0163257D01*
X0130943Y0163292D01*
X0130988Y0163324D01*
X0131036Y0163353D01*
X0131085Y0163379D01*
X0131136Y0163401D01*
X0131188Y0163419D01*
X0131242Y0163433D01*
X0131297Y0163444D01*
X0131352Y0163451D01*
X0131407Y0163454D01*
X0131463Y0163453D01*
X0131518Y0163448D01*
X0131573Y0163439D01*
X0131627Y0163427D01*
X0131680Y0163410D01*
X0131732Y0163390D01*
X0131782Y0163366D01*
X0131830Y0163339D01*
X0131877Y0163309D01*
X0131921Y0163275D01*
X0131963Y0163238D01*
X0132001Y0163198D01*
X0132038Y0163156D01*
X0132071Y0163111D01*
X0132100Y0163065D01*
X0132127Y0163016D01*
X0132149Y0162965D01*
X0132169Y0162913D01*
X0132184Y0162859D01*
X0132196Y0162805D01*
X0132204Y0162750D01*
X0132208Y0162695D01*
X0132208Y0162639D01*
X0132204Y0162584D01*
X0132196Y0162529D01*
X0132184Y0162475D01*
X0132169Y0162421D01*
X0132149Y0162369D01*
X0132127Y0162318D01*
X0132100Y0162269D01*
X0132071Y0162223D01*
X0132038Y0162178D01*
X0132001Y0162136D01*
X0131963Y0162096D01*
X0131921Y0162059D01*
X0131877Y0162025D01*
X0131830Y0161995D01*
X0131782Y0161968D01*
X0131732Y0161944D01*
X0131680Y0161924D01*
X0131627Y0161907D01*
X0131573Y0161895D01*
X0131518Y0161886D01*
X0131463Y0161881D01*
X0131407Y0161880D01*
X0131352Y0161883D01*
X0131297Y0161890D01*
X0131242Y0161901D01*
X0131188Y0161915D01*
X0131136Y0161933D01*
X0131085Y0161955D01*
X0131036Y0161981D01*
X0130988Y0162010D01*
X0130943Y0162042D01*
X0130900Y0162077D01*
X0130860Y0162115D01*
X0130822Y0162156D01*
X0130788Y0162200D01*
X0130756Y0162246D01*
X0130728Y0162294D01*
X0130704Y0162344D01*
X0130683Y0162395D01*
X0130665Y0162448D01*
X0130652Y0162502D01*
X0130642Y0162556D01*
X0130636Y0162611D01*
X0130634Y0162667D01*
X0130044Y0191998D02*
X0130046Y0192095D01*
X0130052Y0192192D01*
X0130062Y0192288D01*
X0130076Y0192384D01*
X0130094Y0192480D01*
X0130115Y0192574D01*
X0130141Y0192668D01*
X0130170Y0192760D01*
X0130204Y0192851D01*
X0130240Y0192941D01*
X0130281Y0193029D01*
X0130325Y0193115D01*
X0130373Y0193200D01*
X0130424Y0193282D01*
X0130478Y0193363D01*
X0130536Y0193441D01*
X0130597Y0193516D01*
X0130660Y0193589D01*
X0130727Y0193660D01*
X0130797Y0193727D01*
X0130869Y0193792D01*
X0130944Y0193853D01*
X0131022Y0193912D01*
X0131101Y0193967D01*
X0131183Y0194019D01*
X0131267Y0194067D01*
X0131353Y0194112D01*
X0131441Y0194154D01*
X0131530Y0194192D01*
X0131621Y0194226D01*
X0131713Y0194256D01*
X0131806Y0194283D01*
X0131901Y0194305D01*
X0131996Y0194324D01*
X0132092Y0194339D01*
X0132188Y0194350D01*
X0132285Y0194357D01*
X0132382Y0194360D01*
X0132479Y0194359D01*
X0132576Y0194354D01*
X0132672Y0194345D01*
X0132768Y0194332D01*
X0132864Y0194315D01*
X0132959Y0194294D01*
X0133052Y0194270D01*
X0133145Y0194241D01*
X0133237Y0194209D01*
X0133327Y0194173D01*
X0133415Y0194134D01*
X0133502Y0194090D01*
X0133587Y0194044D01*
X0133670Y0193993D01*
X0133751Y0193940D01*
X0133829Y0193883D01*
X0133906Y0193823D01*
X0133979Y0193760D01*
X0134050Y0193694D01*
X0134118Y0193625D01*
X0134184Y0193553D01*
X0134246Y0193479D01*
X0134305Y0193402D01*
X0134361Y0193323D01*
X0134414Y0193241D01*
X0134464Y0193158D01*
X0134509Y0193072D01*
X0134552Y0192985D01*
X0134591Y0192896D01*
X0134626Y0192806D01*
X0134657Y0192714D01*
X0134684Y0192621D01*
X0134708Y0192527D01*
X0134728Y0192432D01*
X0134744Y0192336D01*
X0134756Y0192240D01*
X0134764Y0192143D01*
X0134768Y0192046D01*
X0134768Y0191950D01*
X0134764Y0191853D01*
X0134756Y0191756D01*
X0134744Y0191660D01*
X0134728Y0191564D01*
X0134708Y0191469D01*
X0134684Y0191375D01*
X0134657Y0191282D01*
X0134626Y0191190D01*
X0134591Y0191100D01*
X0134552Y0191011D01*
X0134509Y0190924D01*
X0134464Y0190838D01*
X0134414Y0190755D01*
X0134361Y0190673D01*
X0134305Y0190594D01*
X0134246Y0190517D01*
X0134184Y0190443D01*
X0134118Y0190371D01*
X0134050Y0190302D01*
X0133979Y0190236D01*
X0133906Y0190173D01*
X0133829Y0190113D01*
X0133751Y0190056D01*
X0133670Y0190003D01*
X0133587Y0189952D01*
X0133502Y0189906D01*
X0133415Y0189862D01*
X0133327Y0189823D01*
X0133237Y0189787D01*
X0133145Y0189755D01*
X0133052Y0189726D01*
X0132959Y0189702D01*
X0132864Y0189681D01*
X0132768Y0189664D01*
X0132672Y0189651D01*
X0132576Y0189642D01*
X0132479Y0189637D01*
X0132382Y0189636D01*
X0132285Y0189639D01*
X0132188Y0189646D01*
X0132092Y0189657D01*
X0131996Y0189672D01*
X0131901Y0189691D01*
X0131806Y0189713D01*
X0131713Y0189740D01*
X0131621Y0189770D01*
X0131530Y0189804D01*
X0131441Y0189842D01*
X0131353Y0189884D01*
X0131267Y0189929D01*
X0131183Y0189977D01*
X0131101Y0190029D01*
X0131022Y0190084D01*
X0130944Y0190143D01*
X0130869Y0190204D01*
X0130797Y0190269D01*
X0130727Y0190336D01*
X0130660Y0190407D01*
X0130597Y0190480D01*
X0130536Y0190555D01*
X0130478Y0190633D01*
X0130424Y0190714D01*
X0130373Y0190796D01*
X0130325Y0190881D01*
X0130281Y0190967D01*
X0130240Y0191055D01*
X0130204Y0191145D01*
X0130170Y0191236D01*
X0130141Y0191328D01*
X0130115Y0191422D01*
X0130094Y0191516D01*
X0130076Y0191612D01*
X0130062Y0191708D01*
X0130052Y0191804D01*
X0130046Y0191901D01*
X0130044Y0191998D01*
X0141855Y0191998D02*
X0141857Y0192095D01*
X0141863Y0192192D01*
X0141873Y0192288D01*
X0141887Y0192384D01*
X0141905Y0192480D01*
X0141926Y0192574D01*
X0141952Y0192668D01*
X0141981Y0192760D01*
X0142015Y0192851D01*
X0142051Y0192941D01*
X0142092Y0193029D01*
X0142136Y0193115D01*
X0142184Y0193200D01*
X0142235Y0193282D01*
X0142289Y0193363D01*
X0142347Y0193441D01*
X0142408Y0193516D01*
X0142471Y0193589D01*
X0142538Y0193660D01*
X0142608Y0193727D01*
X0142680Y0193792D01*
X0142755Y0193853D01*
X0142833Y0193912D01*
X0142912Y0193967D01*
X0142994Y0194019D01*
X0143078Y0194067D01*
X0143164Y0194112D01*
X0143252Y0194154D01*
X0143341Y0194192D01*
X0143432Y0194226D01*
X0143524Y0194256D01*
X0143617Y0194283D01*
X0143712Y0194305D01*
X0143807Y0194324D01*
X0143903Y0194339D01*
X0143999Y0194350D01*
X0144096Y0194357D01*
X0144193Y0194360D01*
X0144290Y0194359D01*
X0144387Y0194354D01*
X0144483Y0194345D01*
X0144579Y0194332D01*
X0144675Y0194315D01*
X0144770Y0194294D01*
X0144863Y0194270D01*
X0144956Y0194241D01*
X0145048Y0194209D01*
X0145138Y0194173D01*
X0145226Y0194134D01*
X0145313Y0194090D01*
X0145398Y0194044D01*
X0145481Y0193993D01*
X0145562Y0193940D01*
X0145640Y0193883D01*
X0145717Y0193823D01*
X0145790Y0193760D01*
X0145861Y0193694D01*
X0145929Y0193625D01*
X0145995Y0193553D01*
X0146057Y0193479D01*
X0146116Y0193402D01*
X0146172Y0193323D01*
X0146225Y0193241D01*
X0146275Y0193158D01*
X0146320Y0193072D01*
X0146363Y0192985D01*
X0146402Y0192896D01*
X0146437Y0192806D01*
X0146468Y0192714D01*
X0146495Y0192621D01*
X0146519Y0192527D01*
X0146539Y0192432D01*
X0146555Y0192336D01*
X0146567Y0192240D01*
X0146575Y0192143D01*
X0146579Y0192046D01*
X0146579Y0191950D01*
X0146575Y0191853D01*
X0146567Y0191756D01*
X0146555Y0191660D01*
X0146539Y0191564D01*
X0146519Y0191469D01*
X0146495Y0191375D01*
X0146468Y0191282D01*
X0146437Y0191190D01*
X0146402Y0191100D01*
X0146363Y0191011D01*
X0146320Y0190924D01*
X0146275Y0190838D01*
X0146225Y0190755D01*
X0146172Y0190673D01*
X0146116Y0190594D01*
X0146057Y0190517D01*
X0145995Y0190443D01*
X0145929Y0190371D01*
X0145861Y0190302D01*
X0145790Y0190236D01*
X0145717Y0190173D01*
X0145640Y0190113D01*
X0145562Y0190056D01*
X0145481Y0190003D01*
X0145398Y0189952D01*
X0145313Y0189906D01*
X0145226Y0189862D01*
X0145138Y0189823D01*
X0145048Y0189787D01*
X0144956Y0189755D01*
X0144863Y0189726D01*
X0144770Y0189702D01*
X0144675Y0189681D01*
X0144579Y0189664D01*
X0144483Y0189651D01*
X0144387Y0189642D01*
X0144290Y0189637D01*
X0144193Y0189636D01*
X0144096Y0189639D01*
X0143999Y0189646D01*
X0143903Y0189657D01*
X0143807Y0189672D01*
X0143712Y0189691D01*
X0143617Y0189713D01*
X0143524Y0189740D01*
X0143432Y0189770D01*
X0143341Y0189804D01*
X0143252Y0189842D01*
X0143164Y0189884D01*
X0143078Y0189929D01*
X0142994Y0189977D01*
X0142912Y0190029D01*
X0142833Y0190084D01*
X0142755Y0190143D01*
X0142680Y0190204D01*
X0142608Y0190269D01*
X0142538Y0190336D01*
X0142471Y0190407D01*
X0142408Y0190480D01*
X0142347Y0190555D01*
X0142289Y0190633D01*
X0142235Y0190714D01*
X0142184Y0190796D01*
X0142136Y0190881D01*
X0142092Y0190967D01*
X0142051Y0191055D01*
X0142015Y0191145D01*
X0141981Y0191236D01*
X0141952Y0191328D01*
X0141926Y0191422D01*
X0141905Y0191516D01*
X0141887Y0191612D01*
X0141873Y0191708D01*
X0141863Y0191804D01*
X0141857Y0191901D01*
X0141855Y0191998D01*
X0153272Y0194163D02*
X0153274Y0194219D01*
X0153280Y0194274D01*
X0153290Y0194328D01*
X0153303Y0194382D01*
X0153321Y0194435D01*
X0153342Y0194486D01*
X0153366Y0194536D01*
X0153394Y0194584D01*
X0153426Y0194630D01*
X0153460Y0194674D01*
X0153498Y0194715D01*
X0153538Y0194753D01*
X0153581Y0194788D01*
X0153626Y0194820D01*
X0153674Y0194849D01*
X0153723Y0194875D01*
X0153774Y0194897D01*
X0153826Y0194915D01*
X0153880Y0194929D01*
X0153935Y0194940D01*
X0153990Y0194947D01*
X0154045Y0194950D01*
X0154101Y0194949D01*
X0154156Y0194944D01*
X0154211Y0194935D01*
X0154265Y0194923D01*
X0154318Y0194906D01*
X0154370Y0194886D01*
X0154420Y0194862D01*
X0154468Y0194835D01*
X0154515Y0194805D01*
X0154559Y0194771D01*
X0154601Y0194734D01*
X0154639Y0194694D01*
X0154676Y0194652D01*
X0154709Y0194607D01*
X0154738Y0194561D01*
X0154765Y0194512D01*
X0154787Y0194461D01*
X0154807Y0194409D01*
X0154822Y0194355D01*
X0154834Y0194301D01*
X0154842Y0194246D01*
X0154846Y0194191D01*
X0154846Y0194135D01*
X0154842Y0194080D01*
X0154834Y0194025D01*
X0154822Y0193971D01*
X0154807Y0193917D01*
X0154787Y0193865D01*
X0154765Y0193814D01*
X0154738Y0193765D01*
X0154709Y0193719D01*
X0154676Y0193674D01*
X0154639Y0193632D01*
X0154601Y0193592D01*
X0154559Y0193555D01*
X0154515Y0193521D01*
X0154468Y0193491D01*
X0154420Y0193464D01*
X0154370Y0193440D01*
X0154318Y0193420D01*
X0154265Y0193403D01*
X0154211Y0193391D01*
X0154156Y0193382D01*
X0154101Y0193377D01*
X0154045Y0193376D01*
X0153990Y0193379D01*
X0153935Y0193386D01*
X0153880Y0193397D01*
X0153826Y0193411D01*
X0153774Y0193429D01*
X0153723Y0193451D01*
X0153674Y0193477D01*
X0153626Y0193506D01*
X0153581Y0193538D01*
X0153538Y0193573D01*
X0153498Y0193611D01*
X0153460Y0193652D01*
X0153426Y0193696D01*
X0153394Y0193742D01*
X0153366Y0193790D01*
X0153342Y0193840D01*
X0153321Y0193891D01*
X0153303Y0193944D01*
X0153290Y0193998D01*
X0153280Y0194052D01*
X0153274Y0194107D01*
X0153272Y0194163D01*
X0159178Y0194163D02*
X0159180Y0194219D01*
X0159186Y0194274D01*
X0159196Y0194328D01*
X0159209Y0194382D01*
X0159227Y0194435D01*
X0159248Y0194486D01*
X0159272Y0194536D01*
X0159300Y0194584D01*
X0159332Y0194630D01*
X0159366Y0194674D01*
X0159404Y0194715D01*
X0159444Y0194753D01*
X0159487Y0194788D01*
X0159532Y0194820D01*
X0159580Y0194849D01*
X0159629Y0194875D01*
X0159680Y0194897D01*
X0159732Y0194915D01*
X0159786Y0194929D01*
X0159841Y0194940D01*
X0159896Y0194947D01*
X0159951Y0194950D01*
X0160007Y0194949D01*
X0160062Y0194944D01*
X0160117Y0194935D01*
X0160171Y0194923D01*
X0160224Y0194906D01*
X0160276Y0194886D01*
X0160326Y0194862D01*
X0160374Y0194835D01*
X0160421Y0194805D01*
X0160465Y0194771D01*
X0160507Y0194734D01*
X0160545Y0194694D01*
X0160582Y0194652D01*
X0160615Y0194607D01*
X0160644Y0194561D01*
X0160671Y0194512D01*
X0160693Y0194461D01*
X0160713Y0194409D01*
X0160728Y0194355D01*
X0160740Y0194301D01*
X0160748Y0194246D01*
X0160752Y0194191D01*
X0160752Y0194135D01*
X0160748Y0194080D01*
X0160740Y0194025D01*
X0160728Y0193971D01*
X0160713Y0193917D01*
X0160693Y0193865D01*
X0160671Y0193814D01*
X0160644Y0193765D01*
X0160615Y0193719D01*
X0160582Y0193674D01*
X0160545Y0193632D01*
X0160507Y0193592D01*
X0160465Y0193555D01*
X0160421Y0193521D01*
X0160374Y0193491D01*
X0160326Y0193464D01*
X0160276Y0193440D01*
X0160224Y0193420D01*
X0160171Y0193403D01*
X0160117Y0193391D01*
X0160062Y0193382D01*
X0160007Y0193377D01*
X0159951Y0193376D01*
X0159896Y0193379D01*
X0159841Y0193386D01*
X0159786Y0193397D01*
X0159732Y0193411D01*
X0159680Y0193429D01*
X0159629Y0193451D01*
X0159580Y0193477D01*
X0159532Y0193506D01*
X0159487Y0193538D01*
X0159444Y0193573D01*
X0159404Y0193611D01*
X0159366Y0193652D01*
X0159332Y0193696D01*
X0159300Y0193742D01*
X0159272Y0193790D01*
X0159248Y0193840D01*
X0159227Y0193891D01*
X0159209Y0193944D01*
X0159196Y0193998D01*
X0159186Y0194052D01*
X0159180Y0194107D01*
X0159178Y0194163D01*
X0185752Y0168573D02*
X0185754Y0168629D01*
X0185760Y0168684D01*
X0185770Y0168738D01*
X0185783Y0168792D01*
X0185801Y0168845D01*
X0185822Y0168896D01*
X0185846Y0168946D01*
X0185874Y0168994D01*
X0185906Y0169040D01*
X0185940Y0169084D01*
X0185978Y0169125D01*
X0186018Y0169163D01*
X0186061Y0169198D01*
X0186106Y0169230D01*
X0186154Y0169259D01*
X0186203Y0169285D01*
X0186254Y0169307D01*
X0186306Y0169325D01*
X0186360Y0169339D01*
X0186415Y0169350D01*
X0186470Y0169357D01*
X0186525Y0169360D01*
X0186581Y0169359D01*
X0186636Y0169354D01*
X0186691Y0169345D01*
X0186745Y0169333D01*
X0186798Y0169316D01*
X0186850Y0169296D01*
X0186900Y0169272D01*
X0186948Y0169245D01*
X0186995Y0169215D01*
X0187039Y0169181D01*
X0187081Y0169144D01*
X0187119Y0169104D01*
X0187156Y0169062D01*
X0187189Y0169017D01*
X0187218Y0168971D01*
X0187245Y0168922D01*
X0187267Y0168871D01*
X0187287Y0168819D01*
X0187302Y0168765D01*
X0187314Y0168711D01*
X0187322Y0168656D01*
X0187326Y0168601D01*
X0187326Y0168545D01*
X0187322Y0168490D01*
X0187314Y0168435D01*
X0187302Y0168381D01*
X0187287Y0168327D01*
X0187267Y0168275D01*
X0187245Y0168224D01*
X0187218Y0168175D01*
X0187189Y0168129D01*
X0187156Y0168084D01*
X0187119Y0168042D01*
X0187081Y0168002D01*
X0187039Y0167965D01*
X0186995Y0167931D01*
X0186948Y0167901D01*
X0186900Y0167874D01*
X0186850Y0167850D01*
X0186798Y0167830D01*
X0186745Y0167813D01*
X0186691Y0167801D01*
X0186636Y0167792D01*
X0186581Y0167787D01*
X0186525Y0167786D01*
X0186470Y0167789D01*
X0186415Y0167796D01*
X0186360Y0167807D01*
X0186306Y0167821D01*
X0186254Y0167839D01*
X0186203Y0167861D01*
X0186154Y0167887D01*
X0186106Y0167916D01*
X0186061Y0167948D01*
X0186018Y0167983D01*
X0185978Y0168021D01*
X0185940Y0168062D01*
X0185906Y0168106D01*
X0185874Y0168152D01*
X0185846Y0168200D01*
X0185822Y0168250D01*
X0185801Y0168301D01*
X0185783Y0168354D01*
X0185770Y0168408D01*
X0185760Y0168462D01*
X0185754Y0168517D01*
X0185752Y0168573D01*
X0185752Y0162667D02*
X0185754Y0162723D01*
X0185760Y0162778D01*
X0185770Y0162832D01*
X0185783Y0162886D01*
X0185801Y0162939D01*
X0185822Y0162990D01*
X0185846Y0163040D01*
X0185874Y0163088D01*
X0185906Y0163134D01*
X0185940Y0163178D01*
X0185978Y0163219D01*
X0186018Y0163257D01*
X0186061Y0163292D01*
X0186106Y0163324D01*
X0186154Y0163353D01*
X0186203Y0163379D01*
X0186254Y0163401D01*
X0186306Y0163419D01*
X0186360Y0163433D01*
X0186415Y0163444D01*
X0186470Y0163451D01*
X0186525Y0163454D01*
X0186581Y0163453D01*
X0186636Y0163448D01*
X0186691Y0163439D01*
X0186745Y0163427D01*
X0186798Y0163410D01*
X0186850Y0163390D01*
X0186900Y0163366D01*
X0186948Y0163339D01*
X0186995Y0163309D01*
X0187039Y0163275D01*
X0187081Y0163238D01*
X0187119Y0163198D01*
X0187156Y0163156D01*
X0187189Y0163111D01*
X0187218Y0163065D01*
X0187245Y0163016D01*
X0187267Y0162965D01*
X0187287Y0162913D01*
X0187302Y0162859D01*
X0187314Y0162805D01*
X0187322Y0162750D01*
X0187326Y0162695D01*
X0187326Y0162639D01*
X0187322Y0162584D01*
X0187314Y0162529D01*
X0187302Y0162475D01*
X0187287Y0162421D01*
X0187267Y0162369D01*
X0187245Y0162318D01*
X0187218Y0162269D01*
X0187189Y0162223D01*
X0187156Y0162178D01*
X0187119Y0162136D01*
X0187081Y0162096D01*
X0187039Y0162059D01*
X0186995Y0162025D01*
X0186948Y0161995D01*
X0186900Y0161968D01*
X0186850Y0161944D01*
X0186798Y0161924D01*
X0186745Y0161907D01*
X0186691Y0161895D01*
X0186636Y0161886D01*
X0186581Y0161881D01*
X0186525Y0161880D01*
X0186470Y0161883D01*
X0186415Y0161890D01*
X0186360Y0161901D01*
X0186306Y0161915D01*
X0186254Y0161933D01*
X0186203Y0161955D01*
X0186154Y0161981D01*
X0186106Y0162010D01*
X0186061Y0162042D01*
X0186018Y0162077D01*
X0185978Y0162115D01*
X0185940Y0162156D01*
X0185906Y0162200D01*
X0185874Y0162246D01*
X0185846Y0162294D01*
X0185822Y0162344D01*
X0185801Y0162395D01*
X0185783Y0162448D01*
X0185770Y0162502D01*
X0185760Y0162556D01*
X0185754Y0162611D01*
X0185752Y0162667D01*
X0187130Y0136880D02*
X0187132Y0136977D01*
X0187138Y0137074D01*
X0187148Y0137170D01*
X0187162Y0137266D01*
X0187180Y0137362D01*
X0187201Y0137456D01*
X0187227Y0137550D01*
X0187256Y0137642D01*
X0187290Y0137733D01*
X0187326Y0137823D01*
X0187367Y0137911D01*
X0187411Y0137997D01*
X0187459Y0138082D01*
X0187510Y0138164D01*
X0187564Y0138245D01*
X0187622Y0138323D01*
X0187683Y0138398D01*
X0187746Y0138471D01*
X0187813Y0138542D01*
X0187883Y0138609D01*
X0187955Y0138674D01*
X0188030Y0138735D01*
X0188108Y0138794D01*
X0188187Y0138849D01*
X0188269Y0138901D01*
X0188353Y0138949D01*
X0188439Y0138994D01*
X0188527Y0139036D01*
X0188616Y0139074D01*
X0188707Y0139108D01*
X0188799Y0139138D01*
X0188892Y0139165D01*
X0188987Y0139187D01*
X0189082Y0139206D01*
X0189178Y0139221D01*
X0189274Y0139232D01*
X0189371Y0139239D01*
X0189468Y0139242D01*
X0189565Y0139241D01*
X0189662Y0139236D01*
X0189758Y0139227D01*
X0189854Y0139214D01*
X0189950Y0139197D01*
X0190045Y0139176D01*
X0190138Y0139152D01*
X0190231Y0139123D01*
X0190323Y0139091D01*
X0190413Y0139055D01*
X0190501Y0139016D01*
X0190588Y0138972D01*
X0190673Y0138926D01*
X0190756Y0138875D01*
X0190837Y0138822D01*
X0190915Y0138765D01*
X0190992Y0138705D01*
X0191065Y0138642D01*
X0191136Y0138576D01*
X0191204Y0138507D01*
X0191270Y0138435D01*
X0191332Y0138361D01*
X0191391Y0138284D01*
X0191447Y0138205D01*
X0191500Y0138123D01*
X0191550Y0138040D01*
X0191595Y0137954D01*
X0191638Y0137867D01*
X0191677Y0137778D01*
X0191712Y0137688D01*
X0191743Y0137596D01*
X0191770Y0137503D01*
X0191794Y0137409D01*
X0191814Y0137314D01*
X0191830Y0137218D01*
X0191842Y0137122D01*
X0191850Y0137025D01*
X0191854Y0136928D01*
X0191854Y0136832D01*
X0191850Y0136735D01*
X0191842Y0136638D01*
X0191830Y0136542D01*
X0191814Y0136446D01*
X0191794Y0136351D01*
X0191770Y0136257D01*
X0191743Y0136164D01*
X0191712Y0136072D01*
X0191677Y0135982D01*
X0191638Y0135893D01*
X0191595Y0135806D01*
X0191550Y0135720D01*
X0191500Y0135637D01*
X0191447Y0135555D01*
X0191391Y0135476D01*
X0191332Y0135399D01*
X0191270Y0135325D01*
X0191204Y0135253D01*
X0191136Y0135184D01*
X0191065Y0135118D01*
X0190992Y0135055D01*
X0190915Y0134995D01*
X0190837Y0134938D01*
X0190756Y0134885D01*
X0190673Y0134834D01*
X0190588Y0134788D01*
X0190501Y0134744D01*
X0190413Y0134705D01*
X0190323Y0134669D01*
X0190231Y0134637D01*
X0190138Y0134608D01*
X0190045Y0134584D01*
X0189950Y0134563D01*
X0189854Y0134546D01*
X0189758Y0134533D01*
X0189662Y0134524D01*
X0189565Y0134519D01*
X0189468Y0134518D01*
X0189371Y0134521D01*
X0189274Y0134528D01*
X0189178Y0134539D01*
X0189082Y0134554D01*
X0188987Y0134573D01*
X0188892Y0134595D01*
X0188799Y0134622D01*
X0188707Y0134652D01*
X0188616Y0134686D01*
X0188527Y0134724D01*
X0188439Y0134766D01*
X0188353Y0134811D01*
X0188269Y0134859D01*
X0188187Y0134911D01*
X0188108Y0134966D01*
X0188030Y0135025D01*
X0187955Y0135086D01*
X0187883Y0135151D01*
X0187813Y0135218D01*
X0187746Y0135289D01*
X0187683Y0135362D01*
X0187622Y0135437D01*
X0187564Y0135515D01*
X0187510Y0135596D01*
X0187459Y0135678D01*
X0187411Y0135763D01*
X0187367Y0135849D01*
X0187326Y0135937D01*
X0187290Y0136027D01*
X0187256Y0136118D01*
X0187227Y0136210D01*
X0187201Y0136304D01*
X0187180Y0136398D01*
X0187162Y0136494D01*
X0187148Y0136590D01*
X0187138Y0136686D01*
X0187132Y0136783D01*
X0187130Y0136880D01*
X0175319Y0136880D02*
X0175321Y0136977D01*
X0175327Y0137074D01*
X0175337Y0137170D01*
X0175351Y0137266D01*
X0175369Y0137362D01*
X0175390Y0137456D01*
X0175416Y0137550D01*
X0175445Y0137642D01*
X0175479Y0137733D01*
X0175515Y0137823D01*
X0175556Y0137911D01*
X0175600Y0137997D01*
X0175648Y0138082D01*
X0175699Y0138164D01*
X0175753Y0138245D01*
X0175811Y0138323D01*
X0175872Y0138398D01*
X0175935Y0138471D01*
X0176002Y0138542D01*
X0176072Y0138609D01*
X0176144Y0138674D01*
X0176219Y0138735D01*
X0176297Y0138794D01*
X0176376Y0138849D01*
X0176458Y0138901D01*
X0176542Y0138949D01*
X0176628Y0138994D01*
X0176716Y0139036D01*
X0176805Y0139074D01*
X0176896Y0139108D01*
X0176988Y0139138D01*
X0177081Y0139165D01*
X0177176Y0139187D01*
X0177271Y0139206D01*
X0177367Y0139221D01*
X0177463Y0139232D01*
X0177560Y0139239D01*
X0177657Y0139242D01*
X0177754Y0139241D01*
X0177851Y0139236D01*
X0177947Y0139227D01*
X0178043Y0139214D01*
X0178139Y0139197D01*
X0178234Y0139176D01*
X0178327Y0139152D01*
X0178420Y0139123D01*
X0178512Y0139091D01*
X0178602Y0139055D01*
X0178690Y0139016D01*
X0178777Y0138972D01*
X0178862Y0138926D01*
X0178945Y0138875D01*
X0179026Y0138822D01*
X0179104Y0138765D01*
X0179181Y0138705D01*
X0179254Y0138642D01*
X0179325Y0138576D01*
X0179393Y0138507D01*
X0179459Y0138435D01*
X0179521Y0138361D01*
X0179580Y0138284D01*
X0179636Y0138205D01*
X0179689Y0138123D01*
X0179739Y0138040D01*
X0179784Y0137954D01*
X0179827Y0137867D01*
X0179866Y0137778D01*
X0179901Y0137688D01*
X0179932Y0137596D01*
X0179959Y0137503D01*
X0179983Y0137409D01*
X0180003Y0137314D01*
X0180019Y0137218D01*
X0180031Y0137122D01*
X0180039Y0137025D01*
X0180043Y0136928D01*
X0180043Y0136832D01*
X0180039Y0136735D01*
X0180031Y0136638D01*
X0180019Y0136542D01*
X0180003Y0136446D01*
X0179983Y0136351D01*
X0179959Y0136257D01*
X0179932Y0136164D01*
X0179901Y0136072D01*
X0179866Y0135982D01*
X0179827Y0135893D01*
X0179784Y0135806D01*
X0179739Y0135720D01*
X0179689Y0135637D01*
X0179636Y0135555D01*
X0179580Y0135476D01*
X0179521Y0135399D01*
X0179459Y0135325D01*
X0179393Y0135253D01*
X0179325Y0135184D01*
X0179254Y0135118D01*
X0179181Y0135055D01*
X0179104Y0134995D01*
X0179026Y0134938D01*
X0178945Y0134885D01*
X0178862Y0134834D01*
X0178777Y0134788D01*
X0178690Y0134744D01*
X0178602Y0134705D01*
X0178512Y0134669D01*
X0178420Y0134637D01*
X0178327Y0134608D01*
X0178234Y0134584D01*
X0178139Y0134563D01*
X0178043Y0134546D01*
X0177947Y0134533D01*
X0177851Y0134524D01*
X0177754Y0134519D01*
X0177657Y0134518D01*
X0177560Y0134521D01*
X0177463Y0134528D01*
X0177367Y0134539D01*
X0177271Y0134554D01*
X0177176Y0134573D01*
X0177081Y0134595D01*
X0176988Y0134622D01*
X0176896Y0134652D01*
X0176805Y0134686D01*
X0176716Y0134724D01*
X0176628Y0134766D01*
X0176542Y0134811D01*
X0176458Y0134859D01*
X0176376Y0134911D01*
X0176297Y0134966D01*
X0176219Y0135025D01*
X0176144Y0135086D01*
X0176072Y0135151D01*
X0176002Y0135218D01*
X0175935Y0135289D01*
X0175872Y0135362D01*
X0175811Y0135437D01*
X0175753Y0135515D01*
X0175699Y0135596D01*
X0175648Y0135678D01*
X0175600Y0135763D01*
X0175556Y0135849D01*
X0175515Y0135937D01*
X0175479Y0136027D01*
X0175445Y0136118D01*
X0175416Y0136210D01*
X0175390Y0136304D01*
X0175369Y0136398D01*
X0175351Y0136494D01*
X0175337Y0136590D01*
X0175327Y0136686D01*
X0175321Y0136783D01*
X0175319Y0136880D01*
X0185752Y0113455D02*
X0185754Y0113511D01*
X0185760Y0113566D01*
X0185770Y0113620D01*
X0185783Y0113674D01*
X0185801Y0113727D01*
X0185822Y0113778D01*
X0185846Y0113828D01*
X0185874Y0113876D01*
X0185906Y0113922D01*
X0185940Y0113966D01*
X0185978Y0114007D01*
X0186018Y0114045D01*
X0186061Y0114080D01*
X0186106Y0114112D01*
X0186154Y0114141D01*
X0186203Y0114167D01*
X0186254Y0114189D01*
X0186306Y0114207D01*
X0186360Y0114221D01*
X0186415Y0114232D01*
X0186470Y0114239D01*
X0186525Y0114242D01*
X0186581Y0114241D01*
X0186636Y0114236D01*
X0186691Y0114227D01*
X0186745Y0114215D01*
X0186798Y0114198D01*
X0186850Y0114178D01*
X0186900Y0114154D01*
X0186948Y0114127D01*
X0186995Y0114097D01*
X0187039Y0114063D01*
X0187081Y0114026D01*
X0187119Y0113986D01*
X0187156Y0113944D01*
X0187189Y0113899D01*
X0187218Y0113853D01*
X0187245Y0113804D01*
X0187267Y0113753D01*
X0187287Y0113701D01*
X0187302Y0113647D01*
X0187314Y0113593D01*
X0187322Y0113538D01*
X0187326Y0113483D01*
X0187326Y0113427D01*
X0187322Y0113372D01*
X0187314Y0113317D01*
X0187302Y0113263D01*
X0187287Y0113209D01*
X0187267Y0113157D01*
X0187245Y0113106D01*
X0187218Y0113057D01*
X0187189Y0113011D01*
X0187156Y0112966D01*
X0187119Y0112924D01*
X0187081Y0112884D01*
X0187039Y0112847D01*
X0186995Y0112813D01*
X0186948Y0112783D01*
X0186900Y0112756D01*
X0186850Y0112732D01*
X0186798Y0112712D01*
X0186745Y0112695D01*
X0186691Y0112683D01*
X0186636Y0112674D01*
X0186581Y0112669D01*
X0186525Y0112668D01*
X0186470Y0112671D01*
X0186415Y0112678D01*
X0186360Y0112689D01*
X0186306Y0112703D01*
X0186254Y0112721D01*
X0186203Y0112743D01*
X0186154Y0112769D01*
X0186106Y0112798D01*
X0186061Y0112830D01*
X0186018Y0112865D01*
X0185978Y0112903D01*
X0185940Y0112944D01*
X0185906Y0112988D01*
X0185874Y0113034D01*
X0185846Y0113082D01*
X0185822Y0113132D01*
X0185801Y0113183D01*
X0185783Y0113236D01*
X0185770Y0113290D01*
X0185760Y0113344D01*
X0185754Y0113399D01*
X0185752Y0113455D01*
X0185752Y0107549D02*
X0185754Y0107605D01*
X0185760Y0107660D01*
X0185770Y0107714D01*
X0185783Y0107768D01*
X0185801Y0107821D01*
X0185822Y0107872D01*
X0185846Y0107922D01*
X0185874Y0107970D01*
X0185906Y0108016D01*
X0185940Y0108060D01*
X0185978Y0108101D01*
X0186018Y0108139D01*
X0186061Y0108174D01*
X0186106Y0108206D01*
X0186154Y0108235D01*
X0186203Y0108261D01*
X0186254Y0108283D01*
X0186306Y0108301D01*
X0186360Y0108315D01*
X0186415Y0108326D01*
X0186470Y0108333D01*
X0186525Y0108336D01*
X0186581Y0108335D01*
X0186636Y0108330D01*
X0186691Y0108321D01*
X0186745Y0108309D01*
X0186798Y0108292D01*
X0186850Y0108272D01*
X0186900Y0108248D01*
X0186948Y0108221D01*
X0186995Y0108191D01*
X0187039Y0108157D01*
X0187081Y0108120D01*
X0187119Y0108080D01*
X0187156Y0108038D01*
X0187189Y0107993D01*
X0187218Y0107947D01*
X0187245Y0107898D01*
X0187267Y0107847D01*
X0187287Y0107795D01*
X0187302Y0107741D01*
X0187314Y0107687D01*
X0187322Y0107632D01*
X0187326Y0107577D01*
X0187326Y0107521D01*
X0187322Y0107466D01*
X0187314Y0107411D01*
X0187302Y0107357D01*
X0187287Y0107303D01*
X0187267Y0107251D01*
X0187245Y0107200D01*
X0187218Y0107151D01*
X0187189Y0107105D01*
X0187156Y0107060D01*
X0187119Y0107018D01*
X0187081Y0106978D01*
X0187039Y0106941D01*
X0186995Y0106907D01*
X0186948Y0106877D01*
X0186900Y0106850D01*
X0186850Y0106826D01*
X0186798Y0106806D01*
X0186745Y0106789D01*
X0186691Y0106777D01*
X0186636Y0106768D01*
X0186581Y0106763D01*
X0186525Y0106762D01*
X0186470Y0106765D01*
X0186415Y0106772D01*
X0186360Y0106783D01*
X0186306Y0106797D01*
X0186254Y0106815D01*
X0186203Y0106837D01*
X0186154Y0106863D01*
X0186106Y0106892D01*
X0186061Y0106924D01*
X0186018Y0106959D01*
X0185978Y0106997D01*
X0185940Y0107038D01*
X0185906Y0107082D01*
X0185874Y0107128D01*
X0185846Y0107176D01*
X0185822Y0107226D01*
X0185801Y0107277D01*
X0185783Y0107330D01*
X0185770Y0107384D01*
X0185760Y0107438D01*
X0185754Y0107493D01*
X0185752Y0107549D01*
X0187130Y0081762D02*
X0187132Y0081859D01*
X0187138Y0081956D01*
X0187148Y0082052D01*
X0187162Y0082148D01*
X0187180Y0082244D01*
X0187201Y0082338D01*
X0187227Y0082432D01*
X0187256Y0082524D01*
X0187290Y0082615D01*
X0187326Y0082705D01*
X0187367Y0082793D01*
X0187411Y0082879D01*
X0187459Y0082964D01*
X0187510Y0083046D01*
X0187564Y0083127D01*
X0187622Y0083205D01*
X0187683Y0083280D01*
X0187746Y0083353D01*
X0187813Y0083424D01*
X0187883Y0083491D01*
X0187955Y0083556D01*
X0188030Y0083617D01*
X0188108Y0083676D01*
X0188187Y0083731D01*
X0188269Y0083783D01*
X0188353Y0083831D01*
X0188439Y0083876D01*
X0188527Y0083918D01*
X0188616Y0083956D01*
X0188707Y0083990D01*
X0188799Y0084020D01*
X0188892Y0084047D01*
X0188987Y0084069D01*
X0189082Y0084088D01*
X0189178Y0084103D01*
X0189274Y0084114D01*
X0189371Y0084121D01*
X0189468Y0084124D01*
X0189565Y0084123D01*
X0189662Y0084118D01*
X0189758Y0084109D01*
X0189854Y0084096D01*
X0189950Y0084079D01*
X0190045Y0084058D01*
X0190138Y0084034D01*
X0190231Y0084005D01*
X0190323Y0083973D01*
X0190413Y0083937D01*
X0190501Y0083898D01*
X0190588Y0083854D01*
X0190673Y0083808D01*
X0190756Y0083757D01*
X0190837Y0083704D01*
X0190915Y0083647D01*
X0190992Y0083587D01*
X0191065Y0083524D01*
X0191136Y0083458D01*
X0191204Y0083389D01*
X0191270Y0083317D01*
X0191332Y0083243D01*
X0191391Y0083166D01*
X0191447Y0083087D01*
X0191500Y0083005D01*
X0191550Y0082922D01*
X0191595Y0082836D01*
X0191638Y0082749D01*
X0191677Y0082660D01*
X0191712Y0082570D01*
X0191743Y0082478D01*
X0191770Y0082385D01*
X0191794Y0082291D01*
X0191814Y0082196D01*
X0191830Y0082100D01*
X0191842Y0082004D01*
X0191850Y0081907D01*
X0191854Y0081810D01*
X0191854Y0081714D01*
X0191850Y0081617D01*
X0191842Y0081520D01*
X0191830Y0081424D01*
X0191814Y0081328D01*
X0191794Y0081233D01*
X0191770Y0081139D01*
X0191743Y0081046D01*
X0191712Y0080954D01*
X0191677Y0080864D01*
X0191638Y0080775D01*
X0191595Y0080688D01*
X0191550Y0080602D01*
X0191500Y0080519D01*
X0191447Y0080437D01*
X0191391Y0080358D01*
X0191332Y0080281D01*
X0191270Y0080207D01*
X0191204Y0080135D01*
X0191136Y0080066D01*
X0191065Y0080000D01*
X0190992Y0079937D01*
X0190915Y0079877D01*
X0190837Y0079820D01*
X0190756Y0079767D01*
X0190673Y0079716D01*
X0190588Y0079670D01*
X0190501Y0079626D01*
X0190413Y0079587D01*
X0190323Y0079551D01*
X0190231Y0079519D01*
X0190138Y0079490D01*
X0190045Y0079466D01*
X0189950Y0079445D01*
X0189854Y0079428D01*
X0189758Y0079415D01*
X0189662Y0079406D01*
X0189565Y0079401D01*
X0189468Y0079400D01*
X0189371Y0079403D01*
X0189274Y0079410D01*
X0189178Y0079421D01*
X0189082Y0079436D01*
X0188987Y0079455D01*
X0188892Y0079477D01*
X0188799Y0079504D01*
X0188707Y0079534D01*
X0188616Y0079568D01*
X0188527Y0079606D01*
X0188439Y0079648D01*
X0188353Y0079693D01*
X0188269Y0079741D01*
X0188187Y0079793D01*
X0188108Y0079848D01*
X0188030Y0079907D01*
X0187955Y0079968D01*
X0187883Y0080033D01*
X0187813Y0080100D01*
X0187746Y0080171D01*
X0187683Y0080244D01*
X0187622Y0080319D01*
X0187564Y0080397D01*
X0187510Y0080478D01*
X0187459Y0080560D01*
X0187411Y0080645D01*
X0187367Y0080731D01*
X0187326Y0080819D01*
X0187290Y0080909D01*
X0187256Y0081000D01*
X0187227Y0081092D01*
X0187201Y0081186D01*
X0187180Y0081280D01*
X0187162Y0081376D01*
X0187148Y0081472D01*
X0187138Y0081568D01*
X0187132Y0081665D01*
X0187130Y0081762D01*
X0175319Y0081762D02*
X0175321Y0081859D01*
X0175327Y0081956D01*
X0175337Y0082052D01*
X0175351Y0082148D01*
X0175369Y0082244D01*
X0175390Y0082338D01*
X0175416Y0082432D01*
X0175445Y0082524D01*
X0175479Y0082615D01*
X0175515Y0082705D01*
X0175556Y0082793D01*
X0175600Y0082879D01*
X0175648Y0082964D01*
X0175699Y0083046D01*
X0175753Y0083127D01*
X0175811Y0083205D01*
X0175872Y0083280D01*
X0175935Y0083353D01*
X0176002Y0083424D01*
X0176072Y0083491D01*
X0176144Y0083556D01*
X0176219Y0083617D01*
X0176297Y0083676D01*
X0176376Y0083731D01*
X0176458Y0083783D01*
X0176542Y0083831D01*
X0176628Y0083876D01*
X0176716Y0083918D01*
X0176805Y0083956D01*
X0176896Y0083990D01*
X0176988Y0084020D01*
X0177081Y0084047D01*
X0177176Y0084069D01*
X0177271Y0084088D01*
X0177367Y0084103D01*
X0177463Y0084114D01*
X0177560Y0084121D01*
X0177657Y0084124D01*
X0177754Y0084123D01*
X0177851Y0084118D01*
X0177947Y0084109D01*
X0178043Y0084096D01*
X0178139Y0084079D01*
X0178234Y0084058D01*
X0178327Y0084034D01*
X0178420Y0084005D01*
X0178512Y0083973D01*
X0178602Y0083937D01*
X0178690Y0083898D01*
X0178777Y0083854D01*
X0178862Y0083808D01*
X0178945Y0083757D01*
X0179026Y0083704D01*
X0179104Y0083647D01*
X0179181Y0083587D01*
X0179254Y0083524D01*
X0179325Y0083458D01*
X0179393Y0083389D01*
X0179459Y0083317D01*
X0179521Y0083243D01*
X0179580Y0083166D01*
X0179636Y0083087D01*
X0179689Y0083005D01*
X0179739Y0082922D01*
X0179784Y0082836D01*
X0179827Y0082749D01*
X0179866Y0082660D01*
X0179901Y0082570D01*
X0179932Y0082478D01*
X0179959Y0082385D01*
X0179983Y0082291D01*
X0180003Y0082196D01*
X0180019Y0082100D01*
X0180031Y0082004D01*
X0180039Y0081907D01*
X0180043Y0081810D01*
X0180043Y0081714D01*
X0180039Y0081617D01*
X0180031Y0081520D01*
X0180019Y0081424D01*
X0180003Y0081328D01*
X0179983Y0081233D01*
X0179959Y0081139D01*
X0179932Y0081046D01*
X0179901Y0080954D01*
X0179866Y0080864D01*
X0179827Y0080775D01*
X0179784Y0080688D01*
X0179739Y0080602D01*
X0179689Y0080519D01*
X0179636Y0080437D01*
X0179580Y0080358D01*
X0179521Y0080281D01*
X0179459Y0080207D01*
X0179393Y0080135D01*
X0179325Y0080066D01*
X0179254Y0080000D01*
X0179181Y0079937D01*
X0179104Y0079877D01*
X0179026Y0079820D01*
X0178945Y0079767D01*
X0178862Y0079716D01*
X0178777Y0079670D01*
X0178690Y0079626D01*
X0178602Y0079587D01*
X0178512Y0079551D01*
X0178420Y0079519D01*
X0178327Y0079490D01*
X0178234Y0079466D01*
X0178139Y0079445D01*
X0178043Y0079428D01*
X0177947Y0079415D01*
X0177851Y0079406D01*
X0177754Y0079401D01*
X0177657Y0079400D01*
X0177560Y0079403D01*
X0177463Y0079410D01*
X0177367Y0079421D01*
X0177271Y0079436D01*
X0177176Y0079455D01*
X0177081Y0079477D01*
X0176988Y0079504D01*
X0176896Y0079534D01*
X0176805Y0079568D01*
X0176716Y0079606D01*
X0176628Y0079648D01*
X0176542Y0079693D01*
X0176458Y0079741D01*
X0176376Y0079793D01*
X0176297Y0079848D01*
X0176219Y0079907D01*
X0176144Y0079968D01*
X0176072Y0080033D01*
X0176002Y0080100D01*
X0175935Y0080171D01*
X0175872Y0080244D01*
X0175811Y0080319D01*
X0175753Y0080397D01*
X0175699Y0080478D01*
X0175648Y0080560D01*
X0175600Y0080645D01*
X0175556Y0080731D01*
X0175515Y0080819D01*
X0175479Y0080909D01*
X0175445Y0081000D01*
X0175416Y0081092D01*
X0175390Y0081186D01*
X0175369Y0081280D01*
X0175351Y0081376D01*
X0175337Y0081472D01*
X0175327Y0081568D01*
X0175321Y0081665D01*
X0175319Y0081762D01*
X0185752Y0058337D02*
X0185754Y0058393D01*
X0185760Y0058448D01*
X0185770Y0058502D01*
X0185783Y0058556D01*
X0185801Y0058609D01*
X0185822Y0058660D01*
X0185846Y0058710D01*
X0185874Y0058758D01*
X0185906Y0058804D01*
X0185940Y0058848D01*
X0185978Y0058889D01*
X0186018Y0058927D01*
X0186061Y0058962D01*
X0186106Y0058994D01*
X0186154Y0059023D01*
X0186203Y0059049D01*
X0186254Y0059071D01*
X0186306Y0059089D01*
X0186360Y0059103D01*
X0186415Y0059114D01*
X0186470Y0059121D01*
X0186525Y0059124D01*
X0186581Y0059123D01*
X0186636Y0059118D01*
X0186691Y0059109D01*
X0186745Y0059097D01*
X0186798Y0059080D01*
X0186850Y0059060D01*
X0186900Y0059036D01*
X0186948Y0059009D01*
X0186995Y0058979D01*
X0187039Y0058945D01*
X0187081Y0058908D01*
X0187119Y0058868D01*
X0187156Y0058826D01*
X0187189Y0058781D01*
X0187218Y0058735D01*
X0187245Y0058686D01*
X0187267Y0058635D01*
X0187287Y0058583D01*
X0187302Y0058529D01*
X0187314Y0058475D01*
X0187322Y0058420D01*
X0187326Y0058365D01*
X0187326Y0058309D01*
X0187322Y0058254D01*
X0187314Y0058199D01*
X0187302Y0058145D01*
X0187287Y0058091D01*
X0187267Y0058039D01*
X0187245Y0057988D01*
X0187218Y0057939D01*
X0187189Y0057893D01*
X0187156Y0057848D01*
X0187119Y0057806D01*
X0187081Y0057766D01*
X0187039Y0057729D01*
X0186995Y0057695D01*
X0186948Y0057665D01*
X0186900Y0057638D01*
X0186850Y0057614D01*
X0186798Y0057594D01*
X0186745Y0057577D01*
X0186691Y0057565D01*
X0186636Y0057556D01*
X0186581Y0057551D01*
X0186525Y0057550D01*
X0186470Y0057553D01*
X0186415Y0057560D01*
X0186360Y0057571D01*
X0186306Y0057585D01*
X0186254Y0057603D01*
X0186203Y0057625D01*
X0186154Y0057651D01*
X0186106Y0057680D01*
X0186061Y0057712D01*
X0186018Y0057747D01*
X0185978Y0057785D01*
X0185940Y0057826D01*
X0185906Y0057870D01*
X0185874Y0057916D01*
X0185846Y0057964D01*
X0185822Y0058014D01*
X0185801Y0058065D01*
X0185783Y0058118D01*
X0185770Y0058172D01*
X0185760Y0058226D01*
X0185754Y0058281D01*
X0185752Y0058337D01*
X0185752Y0052431D02*
X0185754Y0052487D01*
X0185760Y0052542D01*
X0185770Y0052596D01*
X0185783Y0052650D01*
X0185801Y0052703D01*
X0185822Y0052754D01*
X0185846Y0052804D01*
X0185874Y0052852D01*
X0185906Y0052898D01*
X0185940Y0052942D01*
X0185978Y0052983D01*
X0186018Y0053021D01*
X0186061Y0053056D01*
X0186106Y0053088D01*
X0186154Y0053117D01*
X0186203Y0053143D01*
X0186254Y0053165D01*
X0186306Y0053183D01*
X0186360Y0053197D01*
X0186415Y0053208D01*
X0186470Y0053215D01*
X0186525Y0053218D01*
X0186581Y0053217D01*
X0186636Y0053212D01*
X0186691Y0053203D01*
X0186745Y0053191D01*
X0186798Y0053174D01*
X0186850Y0053154D01*
X0186900Y0053130D01*
X0186948Y0053103D01*
X0186995Y0053073D01*
X0187039Y0053039D01*
X0187081Y0053002D01*
X0187119Y0052962D01*
X0187156Y0052920D01*
X0187189Y0052875D01*
X0187218Y0052829D01*
X0187245Y0052780D01*
X0187267Y0052729D01*
X0187287Y0052677D01*
X0187302Y0052623D01*
X0187314Y0052569D01*
X0187322Y0052514D01*
X0187326Y0052459D01*
X0187326Y0052403D01*
X0187322Y0052348D01*
X0187314Y0052293D01*
X0187302Y0052239D01*
X0187287Y0052185D01*
X0187267Y0052133D01*
X0187245Y0052082D01*
X0187218Y0052033D01*
X0187189Y0051987D01*
X0187156Y0051942D01*
X0187119Y0051900D01*
X0187081Y0051860D01*
X0187039Y0051823D01*
X0186995Y0051789D01*
X0186948Y0051759D01*
X0186900Y0051732D01*
X0186850Y0051708D01*
X0186798Y0051688D01*
X0186745Y0051671D01*
X0186691Y0051659D01*
X0186636Y0051650D01*
X0186581Y0051645D01*
X0186525Y0051644D01*
X0186470Y0051647D01*
X0186415Y0051654D01*
X0186360Y0051665D01*
X0186306Y0051679D01*
X0186254Y0051697D01*
X0186203Y0051719D01*
X0186154Y0051745D01*
X0186106Y0051774D01*
X0186061Y0051806D01*
X0186018Y0051841D01*
X0185978Y0051879D01*
X0185940Y0051920D01*
X0185906Y0051964D01*
X0185874Y0052010D01*
X0185846Y0052058D01*
X0185822Y0052108D01*
X0185801Y0052159D01*
X0185783Y0052212D01*
X0185770Y0052266D01*
X0185760Y0052320D01*
X0185754Y0052375D01*
X0185752Y0052431D01*
X0187130Y0026644D02*
X0187132Y0026741D01*
X0187138Y0026838D01*
X0187148Y0026934D01*
X0187162Y0027030D01*
X0187180Y0027126D01*
X0187201Y0027220D01*
X0187227Y0027314D01*
X0187256Y0027406D01*
X0187290Y0027497D01*
X0187326Y0027587D01*
X0187367Y0027675D01*
X0187411Y0027761D01*
X0187459Y0027846D01*
X0187510Y0027928D01*
X0187564Y0028009D01*
X0187622Y0028087D01*
X0187683Y0028162D01*
X0187746Y0028235D01*
X0187813Y0028306D01*
X0187883Y0028373D01*
X0187955Y0028438D01*
X0188030Y0028499D01*
X0188108Y0028558D01*
X0188187Y0028613D01*
X0188269Y0028665D01*
X0188353Y0028713D01*
X0188439Y0028758D01*
X0188527Y0028800D01*
X0188616Y0028838D01*
X0188707Y0028872D01*
X0188799Y0028902D01*
X0188892Y0028929D01*
X0188987Y0028951D01*
X0189082Y0028970D01*
X0189178Y0028985D01*
X0189274Y0028996D01*
X0189371Y0029003D01*
X0189468Y0029006D01*
X0189565Y0029005D01*
X0189662Y0029000D01*
X0189758Y0028991D01*
X0189854Y0028978D01*
X0189950Y0028961D01*
X0190045Y0028940D01*
X0190138Y0028916D01*
X0190231Y0028887D01*
X0190323Y0028855D01*
X0190413Y0028819D01*
X0190501Y0028780D01*
X0190588Y0028736D01*
X0190673Y0028690D01*
X0190756Y0028639D01*
X0190837Y0028586D01*
X0190915Y0028529D01*
X0190992Y0028469D01*
X0191065Y0028406D01*
X0191136Y0028340D01*
X0191204Y0028271D01*
X0191270Y0028199D01*
X0191332Y0028125D01*
X0191391Y0028048D01*
X0191447Y0027969D01*
X0191500Y0027887D01*
X0191550Y0027804D01*
X0191595Y0027718D01*
X0191638Y0027631D01*
X0191677Y0027542D01*
X0191712Y0027452D01*
X0191743Y0027360D01*
X0191770Y0027267D01*
X0191794Y0027173D01*
X0191814Y0027078D01*
X0191830Y0026982D01*
X0191842Y0026886D01*
X0191850Y0026789D01*
X0191854Y0026692D01*
X0191854Y0026596D01*
X0191850Y0026499D01*
X0191842Y0026402D01*
X0191830Y0026306D01*
X0191814Y0026210D01*
X0191794Y0026115D01*
X0191770Y0026021D01*
X0191743Y0025928D01*
X0191712Y0025836D01*
X0191677Y0025746D01*
X0191638Y0025657D01*
X0191595Y0025570D01*
X0191550Y0025484D01*
X0191500Y0025401D01*
X0191447Y0025319D01*
X0191391Y0025240D01*
X0191332Y0025163D01*
X0191270Y0025089D01*
X0191204Y0025017D01*
X0191136Y0024948D01*
X0191065Y0024882D01*
X0190992Y0024819D01*
X0190915Y0024759D01*
X0190837Y0024702D01*
X0190756Y0024649D01*
X0190673Y0024598D01*
X0190588Y0024552D01*
X0190501Y0024508D01*
X0190413Y0024469D01*
X0190323Y0024433D01*
X0190231Y0024401D01*
X0190138Y0024372D01*
X0190045Y0024348D01*
X0189950Y0024327D01*
X0189854Y0024310D01*
X0189758Y0024297D01*
X0189662Y0024288D01*
X0189565Y0024283D01*
X0189468Y0024282D01*
X0189371Y0024285D01*
X0189274Y0024292D01*
X0189178Y0024303D01*
X0189082Y0024318D01*
X0188987Y0024337D01*
X0188892Y0024359D01*
X0188799Y0024386D01*
X0188707Y0024416D01*
X0188616Y0024450D01*
X0188527Y0024488D01*
X0188439Y0024530D01*
X0188353Y0024575D01*
X0188269Y0024623D01*
X0188187Y0024675D01*
X0188108Y0024730D01*
X0188030Y0024789D01*
X0187955Y0024850D01*
X0187883Y0024915D01*
X0187813Y0024982D01*
X0187746Y0025053D01*
X0187683Y0025126D01*
X0187622Y0025201D01*
X0187564Y0025279D01*
X0187510Y0025360D01*
X0187459Y0025442D01*
X0187411Y0025527D01*
X0187367Y0025613D01*
X0187326Y0025701D01*
X0187290Y0025791D01*
X0187256Y0025882D01*
X0187227Y0025974D01*
X0187201Y0026068D01*
X0187180Y0026162D01*
X0187162Y0026258D01*
X0187148Y0026354D01*
X0187138Y0026450D01*
X0187132Y0026547D01*
X0187130Y0026644D01*
X0175319Y0026644D02*
X0175321Y0026741D01*
X0175327Y0026838D01*
X0175337Y0026934D01*
X0175351Y0027030D01*
X0175369Y0027126D01*
X0175390Y0027220D01*
X0175416Y0027314D01*
X0175445Y0027406D01*
X0175479Y0027497D01*
X0175515Y0027587D01*
X0175556Y0027675D01*
X0175600Y0027761D01*
X0175648Y0027846D01*
X0175699Y0027928D01*
X0175753Y0028009D01*
X0175811Y0028087D01*
X0175872Y0028162D01*
X0175935Y0028235D01*
X0176002Y0028306D01*
X0176072Y0028373D01*
X0176144Y0028438D01*
X0176219Y0028499D01*
X0176297Y0028558D01*
X0176376Y0028613D01*
X0176458Y0028665D01*
X0176542Y0028713D01*
X0176628Y0028758D01*
X0176716Y0028800D01*
X0176805Y0028838D01*
X0176896Y0028872D01*
X0176988Y0028902D01*
X0177081Y0028929D01*
X0177176Y0028951D01*
X0177271Y0028970D01*
X0177367Y0028985D01*
X0177463Y0028996D01*
X0177560Y0029003D01*
X0177657Y0029006D01*
X0177754Y0029005D01*
X0177851Y0029000D01*
X0177947Y0028991D01*
X0178043Y0028978D01*
X0178139Y0028961D01*
X0178234Y0028940D01*
X0178327Y0028916D01*
X0178420Y0028887D01*
X0178512Y0028855D01*
X0178602Y0028819D01*
X0178690Y0028780D01*
X0178777Y0028736D01*
X0178862Y0028690D01*
X0178945Y0028639D01*
X0179026Y0028586D01*
X0179104Y0028529D01*
X0179181Y0028469D01*
X0179254Y0028406D01*
X0179325Y0028340D01*
X0179393Y0028271D01*
X0179459Y0028199D01*
X0179521Y0028125D01*
X0179580Y0028048D01*
X0179636Y0027969D01*
X0179689Y0027887D01*
X0179739Y0027804D01*
X0179784Y0027718D01*
X0179827Y0027631D01*
X0179866Y0027542D01*
X0179901Y0027452D01*
X0179932Y0027360D01*
X0179959Y0027267D01*
X0179983Y0027173D01*
X0180003Y0027078D01*
X0180019Y0026982D01*
X0180031Y0026886D01*
X0180039Y0026789D01*
X0180043Y0026692D01*
X0180043Y0026596D01*
X0180039Y0026499D01*
X0180031Y0026402D01*
X0180019Y0026306D01*
X0180003Y0026210D01*
X0179983Y0026115D01*
X0179959Y0026021D01*
X0179932Y0025928D01*
X0179901Y0025836D01*
X0179866Y0025746D01*
X0179827Y0025657D01*
X0179784Y0025570D01*
X0179739Y0025484D01*
X0179689Y0025401D01*
X0179636Y0025319D01*
X0179580Y0025240D01*
X0179521Y0025163D01*
X0179459Y0025089D01*
X0179393Y0025017D01*
X0179325Y0024948D01*
X0179254Y0024882D01*
X0179181Y0024819D01*
X0179104Y0024759D01*
X0179026Y0024702D01*
X0178945Y0024649D01*
X0178862Y0024598D01*
X0178777Y0024552D01*
X0178690Y0024508D01*
X0178602Y0024469D01*
X0178512Y0024433D01*
X0178420Y0024401D01*
X0178327Y0024372D01*
X0178234Y0024348D01*
X0178139Y0024327D01*
X0178043Y0024310D01*
X0177947Y0024297D01*
X0177851Y0024288D01*
X0177754Y0024283D01*
X0177657Y0024282D01*
X0177560Y0024285D01*
X0177463Y0024292D01*
X0177367Y0024303D01*
X0177271Y0024318D01*
X0177176Y0024337D01*
X0177081Y0024359D01*
X0176988Y0024386D01*
X0176896Y0024416D01*
X0176805Y0024450D01*
X0176716Y0024488D01*
X0176628Y0024530D01*
X0176542Y0024575D01*
X0176458Y0024623D01*
X0176376Y0024675D01*
X0176297Y0024730D01*
X0176219Y0024789D01*
X0176144Y0024850D01*
X0176072Y0024915D01*
X0176002Y0024982D01*
X0175935Y0025053D01*
X0175872Y0025126D01*
X0175811Y0025201D01*
X0175753Y0025279D01*
X0175699Y0025360D01*
X0175648Y0025442D01*
X0175600Y0025527D01*
X0175556Y0025613D01*
X0175515Y0025701D01*
X0175479Y0025791D01*
X0175445Y0025882D01*
X0175416Y0025974D01*
X0175390Y0026068D01*
X0175369Y0026162D01*
X0175351Y0026258D01*
X0175337Y0026354D01*
X0175327Y0026450D01*
X0175321Y0026547D01*
X0175319Y0026644D01*
X0042052Y0052431D02*
X0042054Y0052487D01*
X0042060Y0052542D01*
X0042070Y0052596D01*
X0042083Y0052650D01*
X0042101Y0052703D01*
X0042122Y0052754D01*
X0042146Y0052804D01*
X0042174Y0052852D01*
X0042206Y0052898D01*
X0042240Y0052942D01*
X0042278Y0052983D01*
X0042318Y0053021D01*
X0042361Y0053056D01*
X0042406Y0053088D01*
X0042454Y0053117D01*
X0042503Y0053143D01*
X0042554Y0053165D01*
X0042606Y0053183D01*
X0042660Y0053197D01*
X0042715Y0053208D01*
X0042770Y0053215D01*
X0042825Y0053218D01*
X0042881Y0053217D01*
X0042936Y0053212D01*
X0042991Y0053203D01*
X0043045Y0053191D01*
X0043098Y0053174D01*
X0043150Y0053154D01*
X0043200Y0053130D01*
X0043248Y0053103D01*
X0043295Y0053073D01*
X0043339Y0053039D01*
X0043381Y0053002D01*
X0043419Y0052962D01*
X0043456Y0052920D01*
X0043489Y0052875D01*
X0043518Y0052829D01*
X0043545Y0052780D01*
X0043567Y0052729D01*
X0043587Y0052677D01*
X0043602Y0052623D01*
X0043614Y0052569D01*
X0043622Y0052514D01*
X0043626Y0052459D01*
X0043626Y0052403D01*
X0043622Y0052348D01*
X0043614Y0052293D01*
X0043602Y0052239D01*
X0043587Y0052185D01*
X0043567Y0052133D01*
X0043545Y0052082D01*
X0043518Y0052033D01*
X0043489Y0051987D01*
X0043456Y0051942D01*
X0043419Y0051900D01*
X0043381Y0051860D01*
X0043339Y0051823D01*
X0043295Y0051789D01*
X0043248Y0051759D01*
X0043200Y0051732D01*
X0043150Y0051708D01*
X0043098Y0051688D01*
X0043045Y0051671D01*
X0042991Y0051659D01*
X0042936Y0051650D01*
X0042881Y0051645D01*
X0042825Y0051644D01*
X0042770Y0051647D01*
X0042715Y0051654D01*
X0042660Y0051665D01*
X0042606Y0051679D01*
X0042554Y0051697D01*
X0042503Y0051719D01*
X0042454Y0051745D01*
X0042406Y0051774D01*
X0042361Y0051806D01*
X0042318Y0051841D01*
X0042278Y0051879D01*
X0042240Y0051920D01*
X0042206Y0051964D01*
X0042174Y0052010D01*
X0042146Y0052058D01*
X0042122Y0052108D01*
X0042101Y0052159D01*
X0042083Y0052212D01*
X0042070Y0052266D01*
X0042060Y0052320D01*
X0042054Y0052375D01*
X0042052Y0052431D01*
X0042052Y0058337D02*
X0042054Y0058393D01*
X0042060Y0058448D01*
X0042070Y0058502D01*
X0042083Y0058556D01*
X0042101Y0058609D01*
X0042122Y0058660D01*
X0042146Y0058710D01*
X0042174Y0058758D01*
X0042206Y0058804D01*
X0042240Y0058848D01*
X0042278Y0058889D01*
X0042318Y0058927D01*
X0042361Y0058962D01*
X0042406Y0058994D01*
X0042454Y0059023D01*
X0042503Y0059049D01*
X0042554Y0059071D01*
X0042606Y0059089D01*
X0042660Y0059103D01*
X0042715Y0059114D01*
X0042770Y0059121D01*
X0042825Y0059124D01*
X0042881Y0059123D01*
X0042936Y0059118D01*
X0042991Y0059109D01*
X0043045Y0059097D01*
X0043098Y0059080D01*
X0043150Y0059060D01*
X0043200Y0059036D01*
X0043248Y0059009D01*
X0043295Y0058979D01*
X0043339Y0058945D01*
X0043381Y0058908D01*
X0043419Y0058868D01*
X0043456Y0058826D01*
X0043489Y0058781D01*
X0043518Y0058735D01*
X0043545Y0058686D01*
X0043567Y0058635D01*
X0043587Y0058583D01*
X0043602Y0058529D01*
X0043614Y0058475D01*
X0043622Y0058420D01*
X0043626Y0058365D01*
X0043626Y0058309D01*
X0043622Y0058254D01*
X0043614Y0058199D01*
X0043602Y0058145D01*
X0043587Y0058091D01*
X0043567Y0058039D01*
X0043545Y0057988D01*
X0043518Y0057939D01*
X0043489Y0057893D01*
X0043456Y0057848D01*
X0043419Y0057806D01*
X0043381Y0057766D01*
X0043339Y0057729D01*
X0043295Y0057695D01*
X0043248Y0057665D01*
X0043200Y0057638D01*
X0043150Y0057614D01*
X0043098Y0057594D01*
X0043045Y0057577D01*
X0042991Y0057565D01*
X0042936Y0057556D01*
X0042881Y0057551D01*
X0042825Y0057550D01*
X0042770Y0057553D01*
X0042715Y0057560D01*
X0042660Y0057571D01*
X0042606Y0057585D01*
X0042554Y0057603D01*
X0042503Y0057625D01*
X0042454Y0057651D01*
X0042406Y0057680D01*
X0042361Y0057712D01*
X0042318Y0057747D01*
X0042278Y0057785D01*
X0042240Y0057826D01*
X0042206Y0057870D01*
X0042174Y0057916D01*
X0042146Y0057964D01*
X0042122Y0058014D01*
X0042101Y0058065D01*
X0042083Y0058118D01*
X0042070Y0058172D01*
X0042060Y0058226D01*
X0042054Y0058281D01*
X0042052Y0058337D01*
X0042052Y0107549D02*
X0042054Y0107605D01*
X0042060Y0107660D01*
X0042070Y0107714D01*
X0042083Y0107768D01*
X0042101Y0107821D01*
X0042122Y0107872D01*
X0042146Y0107922D01*
X0042174Y0107970D01*
X0042206Y0108016D01*
X0042240Y0108060D01*
X0042278Y0108101D01*
X0042318Y0108139D01*
X0042361Y0108174D01*
X0042406Y0108206D01*
X0042454Y0108235D01*
X0042503Y0108261D01*
X0042554Y0108283D01*
X0042606Y0108301D01*
X0042660Y0108315D01*
X0042715Y0108326D01*
X0042770Y0108333D01*
X0042825Y0108336D01*
X0042881Y0108335D01*
X0042936Y0108330D01*
X0042991Y0108321D01*
X0043045Y0108309D01*
X0043098Y0108292D01*
X0043150Y0108272D01*
X0043200Y0108248D01*
X0043248Y0108221D01*
X0043295Y0108191D01*
X0043339Y0108157D01*
X0043381Y0108120D01*
X0043419Y0108080D01*
X0043456Y0108038D01*
X0043489Y0107993D01*
X0043518Y0107947D01*
X0043545Y0107898D01*
X0043567Y0107847D01*
X0043587Y0107795D01*
X0043602Y0107741D01*
X0043614Y0107687D01*
X0043622Y0107632D01*
X0043626Y0107577D01*
X0043626Y0107521D01*
X0043622Y0107466D01*
X0043614Y0107411D01*
X0043602Y0107357D01*
X0043587Y0107303D01*
X0043567Y0107251D01*
X0043545Y0107200D01*
X0043518Y0107151D01*
X0043489Y0107105D01*
X0043456Y0107060D01*
X0043419Y0107018D01*
X0043381Y0106978D01*
X0043339Y0106941D01*
X0043295Y0106907D01*
X0043248Y0106877D01*
X0043200Y0106850D01*
X0043150Y0106826D01*
X0043098Y0106806D01*
X0043045Y0106789D01*
X0042991Y0106777D01*
X0042936Y0106768D01*
X0042881Y0106763D01*
X0042825Y0106762D01*
X0042770Y0106765D01*
X0042715Y0106772D01*
X0042660Y0106783D01*
X0042606Y0106797D01*
X0042554Y0106815D01*
X0042503Y0106837D01*
X0042454Y0106863D01*
X0042406Y0106892D01*
X0042361Y0106924D01*
X0042318Y0106959D01*
X0042278Y0106997D01*
X0042240Y0107038D01*
X0042206Y0107082D01*
X0042174Y0107128D01*
X0042146Y0107176D01*
X0042122Y0107226D01*
X0042101Y0107277D01*
X0042083Y0107330D01*
X0042070Y0107384D01*
X0042060Y0107438D01*
X0042054Y0107493D01*
X0042052Y0107549D01*
X0042052Y0113455D02*
X0042054Y0113511D01*
X0042060Y0113566D01*
X0042070Y0113620D01*
X0042083Y0113674D01*
X0042101Y0113727D01*
X0042122Y0113778D01*
X0042146Y0113828D01*
X0042174Y0113876D01*
X0042206Y0113922D01*
X0042240Y0113966D01*
X0042278Y0114007D01*
X0042318Y0114045D01*
X0042361Y0114080D01*
X0042406Y0114112D01*
X0042454Y0114141D01*
X0042503Y0114167D01*
X0042554Y0114189D01*
X0042606Y0114207D01*
X0042660Y0114221D01*
X0042715Y0114232D01*
X0042770Y0114239D01*
X0042825Y0114242D01*
X0042881Y0114241D01*
X0042936Y0114236D01*
X0042991Y0114227D01*
X0043045Y0114215D01*
X0043098Y0114198D01*
X0043150Y0114178D01*
X0043200Y0114154D01*
X0043248Y0114127D01*
X0043295Y0114097D01*
X0043339Y0114063D01*
X0043381Y0114026D01*
X0043419Y0113986D01*
X0043456Y0113944D01*
X0043489Y0113899D01*
X0043518Y0113853D01*
X0043545Y0113804D01*
X0043567Y0113753D01*
X0043587Y0113701D01*
X0043602Y0113647D01*
X0043614Y0113593D01*
X0043622Y0113538D01*
X0043626Y0113483D01*
X0043626Y0113427D01*
X0043622Y0113372D01*
X0043614Y0113317D01*
X0043602Y0113263D01*
X0043587Y0113209D01*
X0043567Y0113157D01*
X0043545Y0113106D01*
X0043518Y0113057D01*
X0043489Y0113011D01*
X0043456Y0112966D01*
X0043419Y0112924D01*
X0043381Y0112884D01*
X0043339Y0112847D01*
X0043295Y0112813D01*
X0043248Y0112783D01*
X0043200Y0112756D01*
X0043150Y0112732D01*
X0043098Y0112712D01*
X0043045Y0112695D01*
X0042991Y0112683D01*
X0042936Y0112674D01*
X0042881Y0112669D01*
X0042825Y0112668D01*
X0042770Y0112671D01*
X0042715Y0112678D01*
X0042660Y0112689D01*
X0042606Y0112703D01*
X0042554Y0112721D01*
X0042503Y0112743D01*
X0042454Y0112769D01*
X0042406Y0112798D01*
X0042361Y0112830D01*
X0042318Y0112865D01*
X0042278Y0112903D01*
X0042240Y0112944D01*
X0042206Y0112988D01*
X0042174Y0113034D01*
X0042146Y0113082D01*
X0042122Y0113132D01*
X0042101Y0113183D01*
X0042083Y0113236D01*
X0042070Y0113290D01*
X0042060Y0113344D01*
X0042054Y0113399D01*
X0042052Y0113455D01*
X0042052Y0162667D02*
X0042054Y0162723D01*
X0042060Y0162778D01*
X0042070Y0162832D01*
X0042083Y0162886D01*
X0042101Y0162939D01*
X0042122Y0162990D01*
X0042146Y0163040D01*
X0042174Y0163088D01*
X0042206Y0163134D01*
X0042240Y0163178D01*
X0042278Y0163219D01*
X0042318Y0163257D01*
X0042361Y0163292D01*
X0042406Y0163324D01*
X0042454Y0163353D01*
X0042503Y0163379D01*
X0042554Y0163401D01*
X0042606Y0163419D01*
X0042660Y0163433D01*
X0042715Y0163444D01*
X0042770Y0163451D01*
X0042825Y0163454D01*
X0042881Y0163453D01*
X0042936Y0163448D01*
X0042991Y0163439D01*
X0043045Y0163427D01*
X0043098Y0163410D01*
X0043150Y0163390D01*
X0043200Y0163366D01*
X0043248Y0163339D01*
X0043295Y0163309D01*
X0043339Y0163275D01*
X0043381Y0163238D01*
X0043419Y0163198D01*
X0043456Y0163156D01*
X0043489Y0163111D01*
X0043518Y0163065D01*
X0043545Y0163016D01*
X0043567Y0162965D01*
X0043587Y0162913D01*
X0043602Y0162859D01*
X0043614Y0162805D01*
X0043622Y0162750D01*
X0043626Y0162695D01*
X0043626Y0162639D01*
X0043622Y0162584D01*
X0043614Y0162529D01*
X0043602Y0162475D01*
X0043587Y0162421D01*
X0043567Y0162369D01*
X0043545Y0162318D01*
X0043518Y0162269D01*
X0043489Y0162223D01*
X0043456Y0162178D01*
X0043419Y0162136D01*
X0043381Y0162096D01*
X0043339Y0162059D01*
X0043295Y0162025D01*
X0043248Y0161995D01*
X0043200Y0161968D01*
X0043150Y0161944D01*
X0043098Y0161924D01*
X0043045Y0161907D01*
X0042991Y0161895D01*
X0042936Y0161886D01*
X0042881Y0161881D01*
X0042825Y0161880D01*
X0042770Y0161883D01*
X0042715Y0161890D01*
X0042660Y0161901D01*
X0042606Y0161915D01*
X0042554Y0161933D01*
X0042503Y0161955D01*
X0042454Y0161981D01*
X0042406Y0162010D01*
X0042361Y0162042D01*
X0042318Y0162077D01*
X0042278Y0162115D01*
X0042240Y0162156D01*
X0042206Y0162200D01*
X0042174Y0162246D01*
X0042146Y0162294D01*
X0042122Y0162344D01*
X0042101Y0162395D01*
X0042083Y0162448D01*
X0042070Y0162502D01*
X0042060Y0162556D01*
X0042054Y0162611D01*
X0042052Y0162667D01*
X0042052Y0168573D02*
X0042054Y0168629D01*
X0042060Y0168684D01*
X0042070Y0168738D01*
X0042083Y0168792D01*
X0042101Y0168845D01*
X0042122Y0168896D01*
X0042146Y0168946D01*
X0042174Y0168994D01*
X0042206Y0169040D01*
X0042240Y0169084D01*
X0042278Y0169125D01*
X0042318Y0169163D01*
X0042361Y0169198D01*
X0042406Y0169230D01*
X0042454Y0169259D01*
X0042503Y0169285D01*
X0042554Y0169307D01*
X0042606Y0169325D01*
X0042660Y0169339D01*
X0042715Y0169350D01*
X0042770Y0169357D01*
X0042825Y0169360D01*
X0042881Y0169359D01*
X0042936Y0169354D01*
X0042991Y0169345D01*
X0043045Y0169333D01*
X0043098Y0169316D01*
X0043150Y0169296D01*
X0043200Y0169272D01*
X0043248Y0169245D01*
X0043295Y0169215D01*
X0043339Y0169181D01*
X0043381Y0169144D01*
X0043419Y0169104D01*
X0043456Y0169062D01*
X0043489Y0169017D01*
X0043518Y0168971D01*
X0043545Y0168922D01*
X0043567Y0168871D01*
X0043587Y0168819D01*
X0043602Y0168765D01*
X0043614Y0168711D01*
X0043622Y0168656D01*
X0043626Y0168601D01*
X0043626Y0168545D01*
X0043622Y0168490D01*
X0043614Y0168435D01*
X0043602Y0168381D01*
X0043587Y0168327D01*
X0043567Y0168275D01*
X0043545Y0168224D01*
X0043518Y0168175D01*
X0043489Y0168129D01*
X0043456Y0168084D01*
X0043419Y0168042D01*
X0043381Y0168002D01*
X0043339Y0167965D01*
X0043295Y0167931D01*
X0043248Y0167901D01*
X0043200Y0167874D01*
X0043150Y0167850D01*
X0043098Y0167830D01*
X0043045Y0167813D01*
X0042991Y0167801D01*
X0042936Y0167792D01*
X0042881Y0167787D01*
X0042825Y0167786D01*
X0042770Y0167789D01*
X0042715Y0167796D01*
X0042660Y0167807D01*
X0042606Y0167821D01*
X0042554Y0167839D01*
X0042503Y0167861D01*
X0042454Y0167887D01*
X0042406Y0167916D01*
X0042361Y0167948D01*
X0042318Y0167983D01*
X0042278Y0168021D01*
X0042240Y0168062D01*
X0042206Y0168106D01*
X0042174Y0168152D01*
X0042146Y0168200D01*
X0042122Y0168250D01*
X0042101Y0168301D01*
X0042083Y0168354D01*
X0042070Y0168408D01*
X0042060Y0168462D01*
X0042054Y0168517D01*
X0042052Y0168573D01*
M02*
