%
M48
M72
T01C0.01575
T02C0.04724
T03C0.05906
T04C0.06693
%
T01
X31028Y16014
X35949Y16014
X43823Y8632
X51165Y13061
X48744Y24380
X48744Y31270
X58587Y31270
X58587Y24380
X63508Y9616
X71382Y15030
X77287Y9616
X83685Y11093
X89098Y11093
X95043Y26309
X105339Y16506
X112720Y33730
X112720Y38652
X85122Y31309
X76795Y46033
X63016Y46033
X43823Y46033
X42839Y52431
X42839Y58337
X34965Y65226
X33488Y74085
X33488Y91309
X31028Y98691
X31520Y103612
X39886Y100659
X42839Y107549
X42839Y113455
X32012Y120344
X34472Y132648
X32012Y140030
X34472Y153317
X42839Y162667
X42839Y168573
X43331Y175955
X38409Y175955
X27583Y181860
X19217Y198100
X43331Y196663
X53213Y191663
X64000Y181860
X71382Y199085
X71382Y204006
X116854Y207746
X141264Y209911
X141264Y213848
X147169Y213848
X147169Y209911
X154059Y194163
X159965Y194163
X169807Y204006
X177681Y207451
X169807Y181368
X177681Y179892
X186539Y168573
X186539Y162667
X186539Y158730
X186539Y154793
X192445Y154793
X192445Y158730
X169807Y144754
X173744Y129006
X186539Y121329
X186539Y117392
X186539Y113455
X186539Y107549
X186539Y103612
X186539Y99675
X192445Y99675
X192445Y103612
X192445Y117392
X192445Y121329
X161933Y94262
X169807Y89636
X173744Y73888
X161933Y69163
X186539Y66211
X186539Y62274
X186539Y58337
X186539Y52431
X186539Y48494
X186539Y44557
X192445Y44557
X192445Y48494
X192445Y62274
X192445Y66211
X170299Y34518
X173744Y18770
X161933Y14045
X186539Y11093
X186539Y7156
X192445Y7156
X192445Y11093
X115181Y89341
X115181Y94262
X118626Y97707
X98449Y118868
X91067Y118868
X87130Y122805
X84669Y120837
X89591Y138553
X99925Y133632
X110260Y123789
X106815Y122805
X117642Y141506
X121579Y153809
X131421Y162667
X131421Y168573
X141264Y172510
X141264Y176447
X147169Y176447
X147169Y172510
X116854Y178612
X93035Y155778
X75811Y140522
X72366Y138061
X59571Y146427
X49728Y151348
X49236Y130679
X59571Y125758
X62524Y96230
X65476Y93278
X68429Y96230
X66953Y75561
X66953Y70640
X70398Y70640
X72858Y73593
X81717Y65226
X86638Y65226
X98941Y69656
X107307Y70640
X35949Y39636
X31028Y39636
X74827Y156270
T02
X132406Y191998
X144217Y191998
X177681Y136880
X189492Y136880
X189492Y81762
X177681Y81762
X177681Y26644
X189492Y26644
T03
X136343Y27825
X136343Y82943
X136343Y138061
X91067Y193179
T04
X101106Y203218
X81028Y203218
X81028Y183140
X101106Y183140
X126304Y148100
X146381Y148100
X146381Y128022
X126304Y128022
X126304Y92982
X146381Y92982
X146381Y72904
X126304Y72904
X126304Y37864
X146381Y37864
X146381Y17786
X126304Y17786
M30
