G75*
%MOIN*%
%OFA0B0*%
%FSLAX25Y25*%
%IPPOS*%
%LPD*%
%AMOC8*
5,1,8,0,0,1.08239X$1,22.5*
%
%ADD10C,0.01975*%
%ADD11C,0.00887*%
%ADD12R,0.09100X0.02800*%
%ADD13C,0.05124*%
%ADD14R,0.12211X0.04337*%
%ADD15C,0.09455*%
%ADD16C,0.10439*%
%ADD17C,0.01084*%
%ADD18R,0.02800X0.09100*%
%ADD19R,0.04337X0.04731*%
%ADD20R,0.16900X0.07400*%
%ADD21R,0.16900X0.10900*%
D10*
X0042839Y0052431D03*
X0042839Y0058337D03*
X0042839Y0107549D03*
X0042839Y0113455D03*
X0042839Y0162667D03*
X0042839Y0168573D03*
X0131421Y0168573D03*
X0131421Y0162667D03*
X0154059Y0194163D03*
X0159965Y0194163D03*
X0186539Y0168573D03*
X0186539Y0162667D03*
X0186539Y0113455D03*
X0186539Y0107549D03*
X0186539Y0058337D03*
X0186539Y0052431D03*
D11*
X0022517Y0019806D02*
X0022517Y0017142D01*
X0019853Y0017142D01*
X0019853Y0019806D01*
X0022517Y0019806D01*
X0022517Y0018028D02*
X0019853Y0018028D01*
X0019853Y0018914D02*
X0022517Y0018914D01*
X0022517Y0019800D02*
X0019853Y0019800D01*
X0019853Y0022064D02*
X0019853Y0024728D01*
X0022517Y0024728D01*
X0022517Y0022064D01*
X0019853Y0022064D01*
X0019853Y0022950D02*
X0022517Y0022950D01*
X0022517Y0023836D02*
X0019853Y0023836D01*
X0019853Y0024722D02*
X0022517Y0024722D01*
X0024774Y0024728D02*
X0024774Y0022064D01*
X0024774Y0024728D02*
X0027438Y0024728D01*
X0027438Y0022064D01*
X0024774Y0022064D01*
X0024774Y0022950D02*
X0027438Y0022950D01*
X0027438Y0023836D02*
X0024774Y0023836D01*
X0024774Y0024722D02*
X0027438Y0024722D01*
X0029696Y0024728D02*
X0029696Y0022064D01*
X0029696Y0024728D02*
X0032360Y0024728D01*
X0032360Y0022064D01*
X0029696Y0022064D01*
X0029696Y0022950D02*
X0032360Y0022950D01*
X0032360Y0023836D02*
X0029696Y0023836D01*
X0029696Y0024722D02*
X0032360Y0024722D01*
X0034617Y0024728D02*
X0034617Y0022064D01*
X0034617Y0024728D02*
X0037281Y0024728D01*
X0037281Y0022064D01*
X0034617Y0022064D01*
X0034617Y0022950D02*
X0037281Y0022950D01*
X0037281Y0023836D02*
X0034617Y0023836D01*
X0034617Y0024722D02*
X0037281Y0024722D01*
X0039538Y0024728D02*
X0039538Y0022064D01*
X0039538Y0024728D02*
X0042202Y0024728D01*
X0042202Y0022064D01*
X0039538Y0022064D01*
X0039538Y0022950D02*
X0042202Y0022950D01*
X0042202Y0023836D02*
X0039538Y0023836D01*
X0039538Y0024722D02*
X0042202Y0024722D01*
X0042202Y0019806D02*
X0042202Y0017142D01*
X0039538Y0017142D01*
X0039538Y0019806D01*
X0042202Y0019806D01*
X0042202Y0018028D02*
X0039538Y0018028D01*
X0039538Y0018914D02*
X0042202Y0018914D01*
X0042202Y0019800D02*
X0039538Y0019800D01*
X0037281Y0019806D02*
X0037281Y0017142D01*
X0034617Y0017142D01*
X0034617Y0019806D01*
X0037281Y0019806D01*
X0037281Y0018028D02*
X0034617Y0018028D01*
X0034617Y0018914D02*
X0037281Y0018914D01*
X0037281Y0019800D02*
X0034617Y0019800D01*
X0032360Y0019806D02*
X0032360Y0017142D01*
X0029696Y0017142D01*
X0029696Y0019806D01*
X0032360Y0019806D01*
X0032360Y0018028D02*
X0029696Y0018028D01*
X0029696Y0018914D02*
X0032360Y0018914D01*
X0032360Y0019800D02*
X0029696Y0019800D01*
X0027438Y0019806D02*
X0027438Y0017142D01*
X0024774Y0017142D01*
X0024774Y0019806D01*
X0027438Y0019806D01*
X0027438Y0018028D02*
X0024774Y0018028D01*
X0024774Y0018914D02*
X0027438Y0018914D01*
X0027438Y0019800D02*
X0024774Y0019800D01*
X0027438Y0030922D02*
X0027438Y0033586D01*
X0027438Y0030922D02*
X0024774Y0030922D01*
X0024774Y0033586D01*
X0027438Y0033586D01*
X0027438Y0031808D02*
X0024774Y0031808D01*
X0024774Y0032694D02*
X0027438Y0032694D01*
X0027438Y0033580D02*
X0024774Y0033580D01*
X0022517Y0033586D02*
X0022517Y0030922D01*
X0019853Y0030922D01*
X0019853Y0033586D01*
X0022517Y0033586D01*
X0022517Y0031808D02*
X0019853Y0031808D01*
X0019853Y0032694D02*
X0022517Y0032694D01*
X0022517Y0033580D02*
X0019853Y0033580D01*
X0019853Y0035843D02*
X0019853Y0038507D01*
X0022517Y0038507D01*
X0022517Y0035843D01*
X0019853Y0035843D01*
X0019853Y0036729D02*
X0022517Y0036729D01*
X0022517Y0037615D02*
X0019853Y0037615D01*
X0019853Y0038501D02*
X0022517Y0038501D01*
X0024774Y0038507D02*
X0024774Y0035843D01*
X0024774Y0038507D02*
X0027438Y0038507D01*
X0027438Y0035843D01*
X0024774Y0035843D01*
X0024774Y0036729D02*
X0027438Y0036729D01*
X0027438Y0037615D02*
X0024774Y0037615D01*
X0024774Y0038501D02*
X0027438Y0038501D01*
X0029696Y0038507D02*
X0029696Y0035843D01*
X0029696Y0038507D02*
X0032360Y0038507D01*
X0032360Y0035843D01*
X0029696Y0035843D01*
X0029696Y0036729D02*
X0032360Y0036729D01*
X0032360Y0037615D02*
X0029696Y0037615D01*
X0029696Y0038501D02*
X0032360Y0038501D01*
X0034617Y0038507D02*
X0034617Y0035843D01*
X0034617Y0038507D02*
X0037281Y0038507D01*
X0037281Y0035843D01*
X0034617Y0035843D01*
X0034617Y0036729D02*
X0037281Y0036729D01*
X0037281Y0037615D02*
X0034617Y0037615D01*
X0034617Y0038501D02*
X0037281Y0038501D01*
X0039538Y0038507D02*
X0039538Y0035843D01*
X0039538Y0038507D02*
X0042202Y0038507D01*
X0042202Y0035843D01*
X0039538Y0035843D01*
X0039538Y0036729D02*
X0042202Y0036729D01*
X0042202Y0037615D02*
X0039538Y0037615D01*
X0039538Y0038501D02*
X0042202Y0038501D01*
X0042202Y0033586D02*
X0042202Y0030922D01*
X0039538Y0030922D01*
X0039538Y0033586D01*
X0042202Y0033586D01*
X0042202Y0031808D02*
X0039538Y0031808D01*
X0039538Y0032694D02*
X0042202Y0032694D01*
X0042202Y0033580D02*
X0039538Y0033580D01*
X0037281Y0033586D02*
X0037281Y0030922D01*
X0034617Y0030922D01*
X0034617Y0033586D01*
X0037281Y0033586D01*
X0037281Y0031808D02*
X0034617Y0031808D01*
X0034617Y0032694D02*
X0037281Y0032694D01*
X0037281Y0033580D02*
X0034617Y0033580D01*
X0032360Y0033586D02*
X0032360Y0030922D01*
X0029696Y0030922D01*
X0029696Y0033586D01*
X0032360Y0033586D01*
X0032360Y0031808D02*
X0029696Y0031808D01*
X0029696Y0032694D02*
X0032360Y0032694D01*
X0032360Y0033580D02*
X0029696Y0033580D01*
X0044951Y0044701D02*
X0047615Y0044701D01*
X0044951Y0044701D02*
X0044951Y0047365D01*
X0047615Y0047365D01*
X0047615Y0044701D01*
X0047615Y0045587D02*
X0044951Y0045587D01*
X0044951Y0046473D02*
X0047615Y0046473D01*
X0047615Y0047359D02*
X0044951Y0047359D01*
X0049873Y0047365D02*
X0052537Y0047365D01*
X0052537Y0044701D01*
X0049873Y0044701D01*
X0049873Y0047365D01*
X0049873Y0045587D02*
X0052537Y0045587D01*
X0052537Y0046473D02*
X0049873Y0046473D01*
X0049873Y0047359D02*
X0052537Y0047359D01*
X0054794Y0044701D02*
X0057458Y0044701D01*
X0054794Y0044701D02*
X0054794Y0047365D01*
X0057458Y0047365D01*
X0057458Y0044701D01*
X0057458Y0045587D02*
X0054794Y0045587D01*
X0054794Y0046473D02*
X0057458Y0046473D01*
X0057458Y0047359D02*
X0054794Y0047359D01*
X0059715Y0047365D02*
X0062379Y0047365D01*
X0062379Y0044701D01*
X0059715Y0044701D01*
X0059715Y0047365D01*
X0059715Y0045587D02*
X0062379Y0045587D01*
X0062379Y0046473D02*
X0059715Y0046473D01*
X0059715Y0047359D02*
X0062379Y0047359D01*
X0065129Y0039491D02*
X0065129Y0036827D01*
X0065129Y0039491D02*
X0067793Y0039491D01*
X0067793Y0036827D01*
X0065129Y0036827D01*
X0065129Y0037713D02*
X0067793Y0037713D01*
X0067793Y0038599D02*
X0065129Y0038599D01*
X0065129Y0039485D02*
X0067793Y0039485D01*
X0067793Y0034570D02*
X0067793Y0031906D01*
X0065129Y0031906D01*
X0065129Y0034570D01*
X0067793Y0034570D01*
X0067793Y0032792D02*
X0065129Y0032792D01*
X0065129Y0033678D02*
X0067793Y0033678D01*
X0067793Y0034564D02*
X0065129Y0034564D01*
X0065129Y0023743D02*
X0065129Y0021079D01*
X0065129Y0023743D02*
X0067793Y0023743D01*
X0067793Y0021079D01*
X0065129Y0021079D01*
X0065129Y0021965D02*
X0067793Y0021965D01*
X0067793Y0022851D02*
X0065129Y0022851D01*
X0065129Y0023737D02*
X0067793Y0023737D01*
X0070050Y0023743D02*
X0070050Y0021079D01*
X0070050Y0023743D02*
X0072714Y0023743D01*
X0072714Y0021079D01*
X0070050Y0021079D01*
X0070050Y0021965D02*
X0072714Y0021965D01*
X0072714Y0022851D02*
X0070050Y0022851D01*
X0070050Y0023737D02*
X0072714Y0023737D01*
X0072714Y0018822D02*
X0072714Y0016158D01*
X0070050Y0016158D01*
X0070050Y0018822D01*
X0072714Y0018822D01*
X0072714Y0017044D02*
X0070050Y0017044D01*
X0070050Y0017930D02*
X0072714Y0017930D01*
X0072714Y0018816D02*
X0070050Y0018816D01*
X0067793Y0018822D02*
X0067793Y0016158D01*
X0065129Y0016158D01*
X0065129Y0018822D01*
X0067793Y0018822D01*
X0067793Y0017044D02*
X0065129Y0017044D01*
X0065129Y0017930D02*
X0067793Y0017930D01*
X0067793Y0018816D02*
X0065129Y0018816D01*
X0062379Y0010948D02*
X0059715Y0010948D01*
X0062379Y0010948D02*
X0062379Y0008284D01*
X0059715Y0008284D01*
X0059715Y0010948D01*
X0059715Y0009170D02*
X0062379Y0009170D01*
X0062379Y0010056D02*
X0059715Y0010056D01*
X0059715Y0010942D02*
X0062379Y0010942D01*
X0057458Y0008284D02*
X0054794Y0008284D01*
X0054794Y0010948D01*
X0057458Y0010948D01*
X0057458Y0008284D01*
X0057458Y0009170D02*
X0054794Y0009170D01*
X0054794Y0010056D02*
X0057458Y0010056D01*
X0057458Y0010942D02*
X0054794Y0010942D01*
X0052537Y0009964D02*
X0049873Y0009964D01*
X0052537Y0009964D02*
X0052537Y0007300D01*
X0049873Y0007300D01*
X0049873Y0009964D01*
X0049873Y0008186D02*
X0052537Y0008186D01*
X0052537Y0009072D02*
X0049873Y0009072D01*
X0049873Y0009958D02*
X0052537Y0009958D01*
X0047615Y0007300D02*
X0044951Y0007300D01*
X0044951Y0009964D01*
X0047615Y0009964D01*
X0047615Y0007300D01*
X0047615Y0008186D02*
X0044951Y0008186D01*
X0044951Y0009072D02*
X0047615Y0009072D01*
X0047615Y0009958D02*
X0044951Y0009958D01*
X0082556Y0009761D02*
X0082556Y0012425D01*
X0082556Y0009761D02*
X0079892Y0009761D01*
X0079892Y0012425D01*
X0082556Y0012425D01*
X0082556Y0010647D02*
X0079892Y0010647D01*
X0079892Y0011533D02*
X0082556Y0011533D01*
X0082556Y0012419D02*
X0079892Y0012419D01*
X0079892Y0014682D02*
X0079892Y0017346D01*
X0082556Y0017346D01*
X0082556Y0014682D01*
X0079892Y0014682D01*
X0079892Y0015568D02*
X0082556Y0015568D01*
X0082556Y0016454D02*
X0079892Y0016454D01*
X0079892Y0017340D02*
X0082556Y0017340D01*
X0084814Y0017346D02*
X0084814Y0014682D01*
X0084814Y0017346D02*
X0087478Y0017346D01*
X0087478Y0014682D01*
X0084814Y0014682D01*
X0084814Y0015568D02*
X0087478Y0015568D01*
X0087478Y0016454D02*
X0084814Y0016454D01*
X0084814Y0017340D02*
X0087478Y0017340D01*
X0087478Y0012425D02*
X0087478Y0009761D01*
X0084814Y0009761D01*
X0084814Y0012425D01*
X0087478Y0012425D01*
X0087478Y0010647D02*
X0084814Y0010647D01*
X0084814Y0011533D02*
X0087478Y0011533D01*
X0087478Y0012419D02*
X0084814Y0012419D01*
X0106467Y0015174D02*
X0109131Y0015174D01*
X0106467Y0015174D02*
X0106467Y0017838D01*
X0109131Y0017838D01*
X0109131Y0015174D01*
X0109131Y0016060D02*
X0106467Y0016060D01*
X0106467Y0016946D02*
X0109131Y0016946D01*
X0109131Y0017832D02*
X0106467Y0017832D01*
X0109131Y0020095D02*
X0109131Y0022759D01*
X0109131Y0020095D02*
X0106467Y0020095D01*
X0106467Y0022759D01*
X0109131Y0022759D01*
X0109131Y0020981D02*
X0106467Y0020981D01*
X0106467Y0021867D02*
X0109131Y0021867D01*
X0109131Y0022753D02*
X0106467Y0022753D01*
X0106467Y0025016D02*
X0106467Y0027680D01*
X0109131Y0027680D01*
X0109131Y0025016D01*
X0106467Y0025016D01*
X0106467Y0025902D02*
X0109131Y0025902D01*
X0109131Y0026788D02*
X0106467Y0026788D01*
X0106467Y0027674D02*
X0109131Y0027674D01*
X0111388Y0027680D02*
X0111388Y0025016D01*
X0111388Y0027680D02*
X0114052Y0027680D01*
X0114052Y0025016D01*
X0111388Y0025016D01*
X0111388Y0025902D02*
X0114052Y0025902D01*
X0114052Y0026788D02*
X0111388Y0026788D01*
X0111388Y0027674D02*
X0114052Y0027674D01*
X0114052Y0032602D02*
X0111388Y0032602D01*
X0114052Y0032602D02*
X0114052Y0029938D01*
X0111388Y0029938D01*
X0111388Y0032602D01*
X0111388Y0030824D02*
X0114052Y0030824D01*
X0114052Y0031710D02*
X0111388Y0031710D01*
X0111388Y0032596D02*
X0114052Y0032596D01*
X0114052Y0037523D02*
X0111388Y0037523D01*
X0114052Y0037523D02*
X0114052Y0034859D01*
X0111388Y0034859D01*
X0111388Y0037523D01*
X0111388Y0035745D02*
X0114052Y0035745D01*
X0114052Y0036631D02*
X0111388Y0036631D01*
X0111388Y0037517D02*
X0114052Y0037517D01*
X0109131Y0034859D02*
X0106467Y0034859D01*
X0106467Y0037523D01*
X0109131Y0037523D01*
X0109131Y0034859D01*
X0109131Y0035745D02*
X0106467Y0035745D01*
X0106467Y0036631D02*
X0109131Y0036631D01*
X0109131Y0037517D02*
X0106467Y0037517D01*
X0106467Y0029938D02*
X0109131Y0029938D01*
X0106467Y0029938D02*
X0106467Y0032602D01*
X0109131Y0032602D01*
X0109131Y0029938D01*
X0109131Y0030824D02*
X0106467Y0030824D01*
X0106467Y0031710D02*
X0109131Y0031710D01*
X0109131Y0032596D02*
X0106467Y0032596D01*
X0114052Y0022759D02*
X0114052Y0020095D01*
X0111388Y0020095D01*
X0111388Y0022759D01*
X0114052Y0022759D01*
X0114052Y0020981D02*
X0111388Y0020981D01*
X0111388Y0021867D02*
X0114052Y0021867D01*
X0114052Y0022753D02*
X0111388Y0022753D01*
X0111388Y0017838D02*
X0114052Y0017838D01*
X0114052Y0015174D01*
X0111388Y0015174D01*
X0111388Y0017838D01*
X0111388Y0016060D02*
X0114052Y0016060D01*
X0114052Y0016946D02*
X0111388Y0016946D01*
X0111388Y0017832D02*
X0114052Y0017832D01*
X0085509Y0063894D02*
X0085509Y0066558D01*
X0085509Y0063894D02*
X0082845Y0063894D01*
X0082845Y0066558D01*
X0085509Y0066558D01*
X0085509Y0064780D02*
X0082845Y0064780D01*
X0082845Y0065666D02*
X0085509Y0065666D01*
X0085509Y0066552D02*
X0082845Y0066552D01*
X0080588Y0066558D02*
X0080588Y0063894D01*
X0077924Y0063894D01*
X0077924Y0066558D01*
X0080588Y0066558D01*
X0080588Y0064780D02*
X0077924Y0064780D01*
X0077924Y0065666D02*
X0080588Y0065666D01*
X0080588Y0066552D02*
X0077924Y0066552D01*
X0077924Y0068816D02*
X0077924Y0071480D01*
X0080588Y0071480D01*
X0080588Y0068816D01*
X0077924Y0068816D01*
X0077924Y0069702D02*
X0080588Y0069702D01*
X0080588Y0070588D02*
X0077924Y0070588D01*
X0077924Y0071474D02*
X0080588Y0071474D01*
X0082845Y0071480D02*
X0082845Y0068816D01*
X0082845Y0071480D02*
X0085509Y0071480D01*
X0085509Y0068816D01*
X0082845Y0068816D01*
X0082845Y0069702D02*
X0085509Y0069702D01*
X0085509Y0070588D02*
X0082845Y0070588D01*
X0082845Y0071474D02*
X0085509Y0071474D01*
X0074190Y0074721D02*
X0074190Y0077385D01*
X0074190Y0074721D02*
X0071526Y0074721D01*
X0071526Y0077385D01*
X0074190Y0077385D01*
X0074190Y0075607D02*
X0071526Y0075607D01*
X0071526Y0076493D02*
X0074190Y0076493D01*
X0074190Y0077379D02*
X0071526Y0077379D01*
X0071526Y0079642D02*
X0071526Y0082306D01*
X0074190Y0082306D01*
X0074190Y0079642D01*
X0071526Y0079642D01*
X0071526Y0080528D02*
X0074190Y0080528D01*
X0074190Y0081414D02*
X0071526Y0081414D01*
X0071526Y0082300D02*
X0074190Y0082300D01*
X0069269Y0081814D02*
X0066605Y0081814D01*
X0069269Y0081814D02*
X0069269Y0079150D01*
X0066605Y0079150D01*
X0066605Y0081814D01*
X0066605Y0080036D02*
X0069269Y0080036D01*
X0069269Y0080922D02*
X0066605Y0080922D01*
X0066605Y0081808D02*
X0069269Y0081808D01*
X0069269Y0086736D02*
X0066605Y0086736D01*
X0069269Y0086736D02*
X0069269Y0084072D01*
X0066605Y0084072D01*
X0066605Y0086736D01*
X0066605Y0084958D02*
X0069269Y0084958D01*
X0069269Y0085844D02*
X0066605Y0085844D01*
X0066605Y0086730D02*
X0069269Y0086730D01*
X0064348Y0084072D02*
X0061684Y0084072D01*
X0061684Y0086736D01*
X0064348Y0086736D01*
X0064348Y0084072D01*
X0064348Y0084958D02*
X0061684Y0084958D01*
X0061684Y0085844D02*
X0064348Y0085844D01*
X0064348Y0086730D02*
X0061684Y0086730D01*
X0061684Y0079150D02*
X0064348Y0079150D01*
X0061684Y0079150D02*
X0061684Y0081814D01*
X0064348Y0081814D01*
X0064348Y0079150D01*
X0064348Y0080036D02*
X0061684Y0080036D01*
X0061684Y0080922D02*
X0064348Y0080922D01*
X0064348Y0081808D02*
X0061684Y0081808D01*
X0060699Y0071768D02*
X0063363Y0071768D01*
X0060699Y0071768D02*
X0060699Y0074432D01*
X0063363Y0074432D01*
X0063363Y0071768D01*
X0063363Y0072654D02*
X0060699Y0072654D01*
X0060699Y0073540D02*
X0063363Y0073540D01*
X0063363Y0074426D02*
X0060699Y0074426D01*
X0060699Y0066847D02*
X0063363Y0066847D01*
X0060699Y0066847D02*
X0060699Y0069511D01*
X0063363Y0069511D01*
X0063363Y0066847D01*
X0063363Y0067733D02*
X0060699Y0067733D01*
X0060699Y0068619D02*
X0063363Y0068619D01*
X0063363Y0069505D02*
X0060699Y0069505D01*
X0065621Y0069511D02*
X0068285Y0069511D01*
X0068285Y0066847D01*
X0065621Y0066847D01*
X0065621Y0069511D01*
X0065621Y0067733D02*
X0068285Y0067733D01*
X0068285Y0068619D02*
X0065621Y0068619D01*
X0065621Y0069505D02*
X0068285Y0069505D01*
X0068285Y0074432D02*
X0065621Y0074432D01*
X0068285Y0074432D02*
X0068285Y0071768D01*
X0065621Y0071768D01*
X0065621Y0074432D01*
X0065621Y0072654D02*
X0068285Y0072654D01*
X0068285Y0073540D02*
X0065621Y0073540D01*
X0065621Y0074426D02*
X0068285Y0074426D01*
X0053521Y0066558D02*
X0050857Y0066558D01*
X0053521Y0066558D02*
X0053521Y0063894D01*
X0050857Y0063894D01*
X0050857Y0066558D01*
X0050857Y0064780D02*
X0053521Y0064780D01*
X0053521Y0065666D02*
X0050857Y0065666D01*
X0050857Y0066552D02*
X0053521Y0066552D01*
X0048600Y0063894D02*
X0045936Y0063894D01*
X0045936Y0066558D01*
X0048600Y0066558D01*
X0048600Y0063894D01*
X0048600Y0064780D02*
X0045936Y0064780D01*
X0045936Y0065666D02*
X0048600Y0065666D01*
X0048600Y0066552D02*
X0045936Y0066552D01*
X0043678Y0066558D02*
X0041014Y0066558D01*
X0043678Y0066558D02*
X0043678Y0063894D01*
X0041014Y0063894D01*
X0041014Y0066558D01*
X0041014Y0064780D02*
X0043678Y0064780D01*
X0043678Y0065666D02*
X0041014Y0065666D01*
X0041014Y0066552D02*
X0043678Y0066552D01*
X0038757Y0063894D02*
X0036093Y0063894D01*
X0036093Y0066558D01*
X0038757Y0066558D01*
X0038757Y0063894D01*
X0038757Y0064780D02*
X0036093Y0064780D01*
X0036093Y0065666D02*
X0038757Y0065666D01*
X0038757Y0066552D02*
X0036093Y0066552D01*
X0037281Y0072753D02*
X0037281Y0075417D01*
X0037281Y0072753D02*
X0034617Y0072753D01*
X0034617Y0075417D01*
X0037281Y0075417D01*
X0037281Y0073639D02*
X0034617Y0073639D01*
X0034617Y0074525D02*
X0037281Y0074525D01*
X0037281Y0075411D02*
X0034617Y0075411D01*
X0032360Y0075417D02*
X0032360Y0072753D01*
X0029696Y0072753D01*
X0029696Y0075417D01*
X0032360Y0075417D01*
X0032360Y0073639D02*
X0029696Y0073639D01*
X0029696Y0074525D02*
X0032360Y0074525D01*
X0032360Y0075411D02*
X0029696Y0075411D01*
X0027438Y0075417D02*
X0027438Y0072753D01*
X0024774Y0072753D01*
X0024774Y0075417D01*
X0027438Y0075417D01*
X0027438Y0073639D02*
X0024774Y0073639D01*
X0024774Y0074525D02*
X0027438Y0074525D01*
X0027438Y0075411D02*
X0024774Y0075411D01*
X0022517Y0075417D02*
X0022517Y0072753D01*
X0019853Y0072753D01*
X0019853Y0075417D01*
X0022517Y0075417D01*
X0022517Y0073639D02*
X0019853Y0073639D01*
X0019853Y0074525D02*
X0022517Y0074525D01*
X0022517Y0075411D02*
X0019853Y0075411D01*
X0019853Y0077674D02*
X0019853Y0080338D01*
X0022517Y0080338D01*
X0022517Y0077674D01*
X0019853Y0077674D01*
X0019853Y0078560D02*
X0022517Y0078560D01*
X0022517Y0079446D02*
X0019853Y0079446D01*
X0019853Y0080332D02*
X0022517Y0080332D01*
X0024774Y0080338D02*
X0024774Y0077674D01*
X0024774Y0080338D02*
X0027438Y0080338D01*
X0027438Y0077674D01*
X0024774Y0077674D01*
X0024774Y0078560D02*
X0027438Y0078560D01*
X0027438Y0079446D02*
X0024774Y0079446D01*
X0024774Y0080332D02*
X0027438Y0080332D01*
X0029696Y0080338D02*
X0029696Y0077674D01*
X0029696Y0080338D02*
X0032360Y0080338D01*
X0032360Y0077674D01*
X0029696Y0077674D01*
X0029696Y0078560D02*
X0032360Y0078560D01*
X0032360Y0079446D02*
X0029696Y0079446D01*
X0029696Y0080332D02*
X0032360Y0080332D01*
X0034617Y0080338D02*
X0034617Y0077674D01*
X0034617Y0080338D02*
X0037281Y0080338D01*
X0037281Y0077674D01*
X0034617Y0077674D01*
X0034617Y0078560D02*
X0037281Y0078560D01*
X0037281Y0079446D02*
X0034617Y0079446D01*
X0034617Y0080332D02*
X0037281Y0080332D01*
X0037281Y0085056D02*
X0037281Y0087720D01*
X0037281Y0085056D02*
X0034617Y0085056D01*
X0034617Y0087720D01*
X0037281Y0087720D01*
X0037281Y0085942D02*
X0034617Y0085942D01*
X0034617Y0086828D02*
X0037281Y0086828D01*
X0037281Y0087714D02*
X0034617Y0087714D01*
X0032360Y0087720D02*
X0032360Y0085056D01*
X0029696Y0085056D01*
X0029696Y0087720D01*
X0032360Y0087720D01*
X0032360Y0085942D02*
X0029696Y0085942D01*
X0029696Y0086828D02*
X0032360Y0086828D01*
X0032360Y0087714D02*
X0029696Y0087714D01*
X0027438Y0087720D02*
X0027438Y0085056D01*
X0024774Y0085056D01*
X0024774Y0087720D01*
X0027438Y0087720D01*
X0027438Y0085942D02*
X0024774Y0085942D01*
X0024774Y0086828D02*
X0027438Y0086828D01*
X0027438Y0087714D02*
X0024774Y0087714D01*
X0022517Y0087720D02*
X0022517Y0085056D01*
X0019853Y0085056D01*
X0019853Y0087720D01*
X0022517Y0087720D01*
X0022517Y0085942D02*
X0019853Y0085942D01*
X0019853Y0086828D02*
X0022517Y0086828D01*
X0022517Y0087714D02*
X0019853Y0087714D01*
X0019853Y0089977D02*
X0019853Y0092641D01*
X0022517Y0092641D01*
X0022517Y0089977D01*
X0019853Y0089977D01*
X0019853Y0090863D02*
X0022517Y0090863D01*
X0022517Y0091749D02*
X0019853Y0091749D01*
X0019853Y0092635D02*
X0022517Y0092635D01*
X0024774Y0092641D02*
X0024774Y0089977D01*
X0024774Y0092641D02*
X0027438Y0092641D01*
X0027438Y0089977D01*
X0024774Y0089977D01*
X0024774Y0090863D02*
X0027438Y0090863D01*
X0027438Y0091749D02*
X0024774Y0091749D01*
X0024774Y0092635D02*
X0027438Y0092635D01*
X0029696Y0092641D02*
X0029696Y0089977D01*
X0029696Y0092641D02*
X0032360Y0092641D01*
X0032360Y0089977D01*
X0029696Y0089977D01*
X0029696Y0090863D02*
X0032360Y0090863D01*
X0032360Y0091749D02*
X0029696Y0091749D01*
X0029696Y0092635D02*
X0032360Y0092635D01*
X0034617Y0092641D02*
X0034617Y0089977D01*
X0034617Y0092641D02*
X0037281Y0092641D01*
X0037281Y0089977D01*
X0034617Y0089977D01*
X0034617Y0090863D02*
X0037281Y0090863D01*
X0037281Y0091749D02*
X0034617Y0091749D01*
X0034617Y0092635D02*
X0037281Y0092635D01*
X0037281Y0097562D02*
X0034617Y0097562D01*
X0037281Y0097562D02*
X0037281Y0094898D01*
X0034617Y0094898D01*
X0034617Y0097562D01*
X0034617Y0095784D02*
X0037281Y0095784D01*
X0037281Y0096670D02*
X0034617Y0096670D01*
X0034617Y0097556D02*
X0037281Y0097556D01*
X0037281Y0102484D02*
X0034617Y0102484D01*
X0037281Y0102484D02*
X0037281Y0099820D01*
X0034617Y0099820D01*
X0034617Y0102484D01*
X0034617Y0100706D02*
X0037281Y0100706D01*
X0037281Y0101592D02*
X0034617Y0101592D01*
X0034617Y0102478D02*
X0037281Y0102478D01*
X0041014Y0099327D02*
X0043678Y0099327D01*
X0041014Y0099327D02*
X0041014Y0101991D01*
X0043678Y0101991D01*
X0043678Y0099327D01*
X0043678Y0100213D02*
X0041014Y0100213D01*
X0041014Y0101099D02*
X0043678Y0101099D01*
X0043678Y0101985D02*
X0041014Y0101985D01*
X0045936Y0101991D02*
X0048600Y0101991D01*
X0048600Y0099327D01*
X0045936Y0099327D01*
X0045936Y0101991D01*
X0045936Y0100213D02*
X0048600Y0100213D01*
X0048600Y0101099D02*
X0045936Y0101099D01*
X0045936Y0101985D02*
X0048600Y0101985D01*
X0050857Y0099327D02*
X0053521Y0099327D01*
X0050857Y0099327D02*
X0050857Y0101991D01*
X0053521Y0101991D01*
X0053521Y0099327D01*
X0053521Y0100213D02*
X0050857Y0100213D01*
X0050857Y0101099D02*
X0053521Y0101099D01*
X0053521Y0101985D02*
X0050857Y0101985D01*
X0055778Y0101991D02*
X0058442Y0101991D01*
X0058442Y0099327D01*
X0055778Y0099327D01*
X0055778Y0101991D01*
X0055778Y0100213D02*
X0058442Y0100213D01*
X0058442Y0101099D02*
X0055778Y0101099D01*
X0055778Y0101985D02*
X0058442Y0101985D01*
X0075955Y0119505D02*
X0078619Y0119505D01*
X0075955Y0119505D02*
X0075955Y0122169D01*
X0078619Y0122169D01*
X0078619Y0119505D01*
X0078619Y0120391D02*
X0075955Y0120391D01*
X0075955Y0121277D02*
X0078619Y0121277D01*
X0078619Y0122163D02*
X0075955Y0122163D01*
X0075955Y0127090D02*
X0078619Y0127090D01*
X0078619Y0124426D01*
X0075955Y0124426D01*
X0075955Y0127090D01*
X0075955Y0125312D02*
X0078619Y0125312D01*
X0078619Y0126198D02*
X0075955Y0126198D01*
X0075955Y0127084D02*
X0078619Y0127084D01*
X0080877Y0122169D02*
X0083541Y0122169D01*
X0083541Y0119505D01*
X0080877Y0119505D01*
X0080877Y0122169D01*
X0080877Y0120391D02*
X0083541Y0120391D01*
X0083541Y0121277D02*
X0080877Y0121277D01*
X0080877Y0122163D02*
X0083541Y0122163D01*
X0088259Y0121473D02*
X0090923Y0121473D01*
X0088259Y0121473D02*
X0088259Y0124137D01*
X0090923Y0124137D01*
X0090923Y0121473D01*
X0090923Y0122359D02*
X0088259Y0122359D01*
X0088259Y0123245D02*
X0090923Y0123245D01*
X0090923Y0124131D02*
X0088259Y0124131D01*
X0093180Y0124137D02*
X0095844Y0124137D01*
X0095844Y0121473D01*
X0093180Y0121473D01*
X0093180Y0124137D01*
X0093180Y0122359D02*
X0095844Y0122359D01*
X0095844Y0123245D02*
X0093180Y0123245D01*
X0093180Y0124131D02*
X0095844Y0124131D01*
X0098101Y0121473D02*
X0100765Y0121473D01*
X0098101Y0121473D02*
X0098101Y0124137D01*
X0100765Y0124137D01*
X0100765Y0121473D01*
X0100765Y0122359D02*
X0098101Y0122359D01*
X0098101Y0123245D02*
X0100765Y0123245D01*
X0100765Y0124131D02*
X0098101Y0124131D01*
X0103022Y0124137D02*
X0105686Y0124137D01*
X0105686Y0121473D01*
X0103022Y0121473D01*
X0103022Y0124137D01*
X0103022Y0122359D02*
X0105686Y0122359D01*
X0105686Y0123245D02*
X0103022Y0123245D01*
X0103022Y0124131D02*
X0105686Y0124131D01*
X0111388Y0122457D02*
X0114052Y0122457D01*
X0111388Y0122457D02*
X0111388Y0125121D01*
X0114052Y0125121D01*
X0114052Y0122457D01*
X0114052Y0123343D02*
X0111388Y0123343D01*
X0111388Y0124229D02*
X0114052Y0124229D01*
X0114052Y0125115D02*
X0111388Y0125115D01*
X0114052Y0127379D02*
X0114052Y0130043D01*
X0114052Y0127379D02*
X0111388Y0127379D01*
X0111388Y0130043D01*
X0114052Y0130043D01*
X0114052Y0128265D02*
X0111388Y0128265D01*
X0111388Y0129151D02*
X0114052Y0129151D01*
X0114052Y0130037D02*
X0111388Y0130037D01*
X0111388Y0132300D02*
X0111388Y0134964D01*
X0114052Y0134964D01*
X0114052Y0132300D01*
X0111388Y0132300D01*
X0111388Y0133186D02*
X0114052Y0133186D01*
X0114052Y0134072D02*
X0111388Y0134072D01*
X0111388Y0134958D02*
X0114052Y0134958D01*
X0116310Y0134964D02*
X0116310Y0132300D01*
X0116310Y0134964D02*
X0118974Y0134964D01*
X0118974Y0132300D01*
X0116310Y0132300D01*
X0116310Y0133186D02*
X0118974Y0133186D01*
X0118974Y0134072D02*
X0116310Y0134072D01*
X0116310Y0134958D02*
X0118974Y0134958D01*
X0118974Y0140377D02*
X0116310Y0140377D01*
X0118974Y0140377D02*
X0118974Y0137713D01*
X0116310Y0137713D01*
X0116310Y0140377D01*
X0116310Y0138599D02*
X0118974Y0138599D01*
X0118974Y0139485D02*
X0116310Y0139485D01*
X0116310Y0140371D02*
X0118974Y0140371D01*
X0118974Y0145299D02*
X0116310Y0145299D01*
X0118974Y0145299D02*
X0118974Y0142635D01*
X0116310Y0142635D01*
X0116310Y0145299D01*
X0116310Y0143521D02*
X0118974Y0143521D01*
X0118974Y0144407D02*
X0116310Y0144407D01*
X0116310Y0145293D02*
X0118974Y0145293D01*
X0114052Y0142635D02*
X0111388Y0142635D01*
X0111388Y0145299D01*
X0114052Y0145299D01*
X0114052Y0142635D01*
X0114052Y0143521D02*
X0111388Y0143521D01*
X0111388Y0144407D02*
X0114052Y0144407D01*
X0114052Y0145293D02*
X0111388Y0145293D01*
X0111388Y0137713D02*
X0114052Y0137713D01*
X0111388Y0137713D02*
X0111388Y0140377D01*
X0114052Y0140377D01*
X0114052Y0137713D01*
X0114052Y0138599D02*
X0111388Y0138599D01*
X0111388Y0139485D02*
X0114052Y0139485D01*
X0114052Y0140371D02*
X0111388Y0140371D01*
X0118974Y0130043D02*
X0118974Y0127379D01*
X0116310Y0127379D01*
X0116310Y0130043D01*
X0118974Y0130043D01*
X0118974Y0128265D02*
X0116310Y0128265D01*
X0116310Y0129151D02*
X0118974Y0129151D01*
X0118974Y0130037D02*
X0116310Y0130037D01*
X0116310Y0125121D02*
X0118974Y0125121D01*
X0118974Y0122457D01*
X0116310Y0122457D01*
X0116310Y0125121D01*
X0116310Y0123343D02*
X0118974Y0123343D01*
X0118974Y0124229D02*
X0116310Y0124229D01*
X0116310Y0125115D02*
X0118974Y0125115D01*
X0094860Y0097070D02*
X0092196Y0097070D01*
X0094860Y0097070D02*
X0094860Y0094406D01*
X0092196Y0094406D01*
X0092196Y0097070D01*
X0092196Y0095292D02*
X0094860Y0095292D01*
X0094860Y0096178D02*
X0092196Y0096178D01*
X0092196Y0097064D02*
X0094860Y0097064D01*
X0089938Y0094406D02*
X0087274Y0094406D01*
X0087274Y0097070D01*
X0089938Y0097070D01*
X0089938Y0094406D01*
X0089938Y0095292D02*
X0087274Y0095292D01*
X0087274Y0096178D02*
X0089938Y0096178D01*
X0089938Y0097064D02*
X0087274Y0097064D01*
X0108928Y0090469D02*
X0111592Y0090469D01*
X0108928Y0090469D02*
X0108928Y0093133D01*
X0111592Y0093133D01*
X0111592Y0090469D01*
X0111592Y0091355D02*
X0108928Y0091355D01*
X0108928Y0092241D02*
X0111592Y0092241D01*
X0111592Y0093127D02*
X0108928Y0093127D01*
X0108928Y0085548D02*
X0111592Y0085548D01*
X0108928Y0085548D02*
X0108928Y0088212D01*
X0111592Y0088212D01*
X0111592Y0085548D01*
X0111592Y0086434D02*
X0108928Y0086434D01*
X0108928Y0087320D02*
X0111592Y0087320D01*
X0111592Y0088206D02*
X0108928Y0088206D01*
X0113849Y0088212D02*
X0116513Y0088212D01*
X0116513Y0085548D01*
X0113849Y0085548D01*
X0113849Y0088212D01*
X0113849Y0086434D02*
X0116513Y0086434D01*
X0116513Y0087320D02*
X0113849Y0087320D01*
X0113849Y0088206D02*
X0116513Y0088206D01*
X0116513Y0093133D02*
X0113849Y0093133D01*
X0116513Y0093133D02*
X0116513Y0090469D01*
X0113849Y0090469D01*
X0113849Y0093133D01*
X0113849Y0091355D02*
X0116513Y0091355D01*
X0116513Y0092241D02*
X0113849Y0092241D01*
X0113849Y0093127D02*
X0116513Y0093127D01*
X0113357Y0081814D02*
X0113357Y0079150D01*
X0113357Y0081814D02*
X0116021Y0081814D01*
X0116021Y0079150D01*
X0113357Y0079150D01*
X0113357Y0080036D02*
X0116021Y0080036D01*
X0116021Y0080922D02*
X0113357Y0080922D01*
X0113357Y0081808D02*
X0116021Y0081808D01*
X0108436Y0081814D02*
X0108436Y0079150D01*
X0108436Y0081814D02*
X0111100Y0081814D01*
X0111100Y0079150D01*
X0108436Y0079150D01*
X0108436Y0080036D02*
X0111100Y0080036D01*
X0111100Y0080922D02*
X0108436Y0080922D01*
X0108436Y0081808D02*
X0111100Y0081808D01*
X0111100Y0076893D02*
X0111100Y0074229D01*
X0108436Y0074229D01*
X0108436Y0076893D01*
X0111100Y0076893D01*
X0111100Y0075115D02*
X0108436Y0075115D01*
X0108436Y0076001D02*
X0111100Y0076001D01*
X0111100Y0076887D02*
X0108436Y0076887D01*
X0108436Y0069308D02*
X0111100Y0069308D01*
X0108436Y0069308D02*
X0108436Y0071972D01*
X0111100Y0071972D01*
X0111100Y0069308D01*
X0111100Y0070194D02*
X0108436Y0070194D01*
X0108436Y0071080D02*
X0111100Y0071080D01*
X0111100Y0071966D02*
X0108436Y0071966D01*
X0113357Y0071972D02*
X0116021Y0071972D01*
X0116021Y0069308D01*
X0113357Y0069308D01*
X0113357Y0071972D01*
X0113357Y0070194D02*
X0116021Y0070194D01*
X0116021Y0071080D02*
X0113357Y0071080D01*
X0113357Y0071966D02*
X0116021Y0071966D01*
X0116021Y0074229D02*
X0116021Y0076893D01*
X0116021Y0074229D02*
X0113357Y0074229D01*
X0113357Y0076893D01*
X0116021Y0076893D01*
X0116021Y0075115D02*
X0113357Y0075115D01*
X0113357Y0076001D02*
X0116021Y0076001D01*
X0116021Y0076887D02*
X0113357Y0076887D01*
X0073698Y0124426D02*
X0071034Y0124426D01*
X0071034Y0127090D01*
X0073698Y0127090D01*
X0073698Y0124426D01*
X0073698Y0125312D02*
X0071034Y0125312D01*
X0071034Y0126198D02*
X0073698Y0126198D01*
X0073698Y0127084D02*
X0071034Y0127084D01*
X0073698Y0129347D02*
X0073698Y0132011D01*
X0073698Y0129347D02*
X0071034Y0129347D01*
X0071034Y0132011D01*
X0073698Y0132011D01*
X0073698Y0130233D02*
X0071034Y0130233D01*
X0071034Y0131119D02*
X0073698Y0131119D01*
X0073698Y0132005D02*
X0071034Y0132005D01*
X0071034Y0134268D02*
X0071034Y0136932D01*
X0073698Y0136932D01*
X0073698Y0134268D01*
X0071034Y0134268D01*
X0071034Y0135154D02*
X0073698Y0135154D01*
X0073698Y0136040D02*
X0071034Y0136040D01*
X0071034Y0136926D02*
X0073698Y0136926D01*
X0075955Y0137221D02*
X0075955Y0139885D01*
X0078619Y0139885D01*
X0078619Y0137221D01*
X0075955Y0137221D01*
X0075955Y0138107D02*
X0078619Y0138107D01*
X0078619Y0138993D02*
X0075955Y0138993D01*
X0075955Y0139879D02*
X0078619Y0139879D01*
X0078619Y0134964D02*
X0078619Y0132300D01*
X0075955Y0132300D01*
X0075955Y0134964D01*
X0078619Y0134964D01*
X0078619Y0133186D02*
X0075955Y0133186D01*
X0075955Y0134072D02*
X0078619Y0134072D01*
X0078619Y0134958D02*
X0075955Y0134958D01*
X0075955Y0147759D02*
X0078619Y0147759D01*
X0078619Y0145095D01*
X0075955Y0145095D01*
X0075955Y0147759D01*
X0075955Y0145981D02*
X0078619Y0145981D01*
X0078619Y0146867D02*
X0075955Y0146867D01*
X0075955Y0147753D02*
X0078619Y0147753D01*
X0078619Y0150016D02*
X0078619Y0152680D01*
X0078619Y0150016D02*
X0075955Y0150016D01*
X0075955Y0152680D01*
X0078619Y0152680D01*
X0078619Y0150902D02*
X0075955Y0150902D01*
X0075955Y0151788D02*
X0078619Y0151788D01*
X0078619Y0152674D02*
X0075955Y0152674D01*
X0073698Y0152680D02*
X0073698Y0150016D01*
X0071034Y0150016D01*
X0071034Y0152680D01*
X0073698Y0152680D01*
X0073698Y0150902D02*
X0071034Y0150902D01*
X0071034Y0151788D02*
X0073698Y0151788D01*
X0073698Y0152674D02*
X0071034Y0152674D01*
X0071034Y0154938D02*
X0071034Y0157602D01*
X0073698Y0157602D01*
X0073698Y0154938D01*
X0071034Y0154938D01*
X0071034Y0155824D02*
X0073698Y0155824D01*
X0073698Y0156710D02*
X0071034Y0156710D01*
X0071034Y0157596D02*
X0073698Y0157596D01*
X0075955Y0157602D02*
X0075955Y0154938D01*
X0075955Y0157602D02*
X0078619Y0157602D01*
X0078619Y0154938D01*
X0075955Y0154938D01*
X0075955Y0155824D02*
X0078619Y0155824D01*
X0078619Y0156710D02*
X0075955Y0156710D01*
X0075955Y0157596D02*
X0078619Y0157596D01*
X0073698Y0145095D02*
X0071034Y0145095D01*
X0071034Y0147759D01*
X0073698Y0147759D01*
X0073698Y0145095D01*
X0073698Y0145981D02*
X0071034Y0145981D01*
X0071034Y0146867D02*
X0073698Y0146867D01*
X0073698Y0147753D02*
X0071034Y0147753D01*
X0042202Y0174623D02*
X0042202Y0177287D01*
X0042202Y0174623D02*
X0039538Y0174623D01*
X0039538Y0177287D01*
X0042202Y0177287D01*
X0042202Y0175509D02*
X0039538Y0175509D01*
X0039538Y0176395D02*
X0042202Y0176395D01*
X0042202Y0177281D02*
X0039538Y0177281D01*
X0037281Y0177287D02*
X0037281Y0174623D01*
X0034617Y0174623D01*
X0034617Y0177287D01*
X0037281Y0177287D01*
X0037281Y0175509D02*
X0034617Y0175509D01*
X0034617Y0176395D02*
X0037281Y0176395D01*
X0037281Y0177281D02*
X0034617Y0177281D01*
X0034617Y0179544D02*
X0034617Y0182208D01*
X0037281Y0182208D01*
X0037281Y0179544D01*
X0034617Y0179544D01*
X0034617Y0180430D02*
X0037281Y0180430D01*
X0037281Y0181316D02*
X0034617Y0181316D01*
X0034617Y0182202D02*
X0037281Y0182202D01*
X0039538Y0182208D02*
X0039538Y0179544D01*
X0039538Y0182208D02*
X0042202Y0182208D01*
X0042202Y0179544D01*
X0039538Y0179544D01*
X0039538Y0180430D02*
X0042202Y0180430D01*
X0042202Y0181316D02*
X0039538Y0181316D01*
X0039538Y0182202D02*
X0042202Y0182202D01*
X0031375Y0183192D02*
X0031375Y0180528D01*
X0028711Y0180528D01*
X0028711Y0183192D01*
X0031375Y0183192D01*
X0031375Y0181414D02*
X0028711Y0181414D01*
X0028711Y0182300D02*
X0031375Y0182300D01*
X0031375Y0183186D02*
X0028711Y0183186D01*
X0026454Y0183192D02*
X0026454Y0180528D01*
X0023790Y0180528D01*
X0023790Y0183192D01*
X0026454Y0183192D01*
X0026454Y0181414D02*
X0023790Y0181414D01*
X0023790Y0182300D02*
X0026454Y0182300D01*
X0026454Y0183186D02*
X0023790Y0183186D01*
X0023790Y0185449D02*
X0023790Y0188113D01*
X0026454Y0188113D01*
X0026454Y0185449D01*
X0023790Y0185449D01*
X0023790Y0186335D02*
X0026454Y0186335D01*
X0026454Y0187221D02*
X0023790Y0187221D01*
X0023790Y0188107D02*
X0026454Y0188107D01*
X0028711Y0188113D02*
X0028711Y0185449D01*
X0028711Y0188113D02*
X0031375Y0188113D01*
X0031375Y0185449D01*
X0028711Y0185449D01*
X0028711Y0186335D02*
X0031375Y0186335D01*
X0031375Y0187221D02*
X0028711Y0187221D01*
X0028711Y0188107D02*
X0031375Y0188107D01*
X0031375Y0190371D02*
X0031375Y0193035D01*
X0031375Y0190371D02*
X0028711Y0190371D01*
X0028711Y0193035D01*
X0031375Y0193035D01*
X0031375Y0191257D02*
X0028711Y0191257D01*
X0028711Y0192143D02*
X0031375Y0192143D01*
X0031375Y0193029D02*
X0028711Y0193029D01*
X0028711Y0195292D02*
X0028711Y0197956D01*
X0031375Y0197956D01*
X0031375Y0195292D01*
X0028711Y0195292D01*
X0028711Y0196178D02*
X0031375Y0196178D01*
X0031375Y0197064D02*
X0028711Y0197064D01*
X0028711Y0197950D02*
X0031375Y0197950D01*
X0023790Y0197956D02*
X0023790Y0195292D01*
X0023790Y0197956D02*
X0026454Y0197956D01*
X0026454Y0195292D01*
X0023790Y0195292D01*
X0023790Y0196178D02*
X0026454Y0196178D01*
X0026454Y0197064D02*
X0023790Y0197064D01*
X0023790Y0197950D02*
X0026454Y0197950D01*
X0026454Y0193035D02*
X0026454Y0190371D01*
X0023790Y0190371D01*
X0023790Y0193035D01*
X0026454Y0193035D01*
X0026454Y0191257D02*
X0023790Y0191257D01*
X0023790Y0192143D02*
X0026454Y0192143D01*
X0026454Y0193029D02*
X0023790Y0193029D01*
X0030680Y0154649D02*
X0030680Y0151985D01*
X0030680Y0154649D02*
X0033344Y0154649D01*
X0033344Y0151985D01*
X0030680Y0151985D01*
X0030680Y0152871D02*
X0033344Y0152871D01*
X0033344Y0153757D02*
X0030680Y0153757D01*
X0030680Y0154643D02*
X0033344Y0154643D01*
X0035601Y0154649D02*
X0035601Y0151985D01*
X0035601Y0154649D02*
X0038265Y0154649D01*
X0038265Y0151985D01*
X0035601Y0151985D01*
X0035601Y0152871D02*
X0038265Y0152871D01*
X0038265Y0153757D02*
X0035601Y0153757D01*
X0035601Y0154643D02*
X0038265Y0154643D01*
X0038265Y0149728D02*
X0038265Y0147064D01*
X0035601Y0147064D01*
X0035601Y0149728D01*
X0038265Y0149728D01*
X0038265Y0147950D02*
X0035601Y0147950D01*
X0035601Y0148836D02*
X0038265Y0148836D01*
X0038265Y0149722D02*
X0035601Y0149722D01*
X0033344Y0149728D02*
X0033344Y0147064D01*
X0030680Y0147064D01*
X0030680Y0149728D01*
X0033344Y0149728D01*
X0033344Y0147950D02*
X0030680Y0147950D01*
X0030680Y0148836D02*
X0033344Y0148836D01*
X0033344Y0149722D02*
X0030680Y0149722D01*
X0024774Y0148743D02*
X0024774Y0146079D01*
X0024774Y0148743D02*
X0027438Y0148743D01*
X0027438Y0146079D01*
X0024774Y0146079D01*
X0024774Y0146965D02*
X0027438Y0146965D01*
X0027438Y0147851D02*
X0024774Y0147851D01*
X0024774Y0148737D02*
X0027438Y0148737D01*
X0027438Y0143822D02*
X0027438Y0141158D01*
X0024774Y0141158D01*
X0024774Y0143822D01*
X0027438Y0143822D01*
X0027438Y0142044D02*
X0024774Y0142044D01*
X0024774Y0142930D02*
X0027438Y0142930D01*
X0027438Y0143816D02*
X0024774Y0143816D01*
X0022517Y0143822D02*
X0022517Y0141158D01*
X0019853Y0141158D01*
X0019853Y0143822D01*
X0022517Y0143822D01*
X0022517Y0142044D02*
X0019853Y0142044D01*
X0019853Y0142930D02*
X0022517Y0142930D01*
X0022517Y0143816D02*
X0019853Y0143816D01*
X0019853Y0146079D02*
X0019853Y0148743D01*
X0022517Y0148743D01*
X0022517Y0146079D01*
X0019853Y0146079D01*
X0019853Y0146965D02*
X0022517Y0146965D01*
X0022517Y0147851D02*
X0019853Y0147851D01*
X0019853Y0148737D02*
X0022517Y0148737D01*
X0030680Y0141158D02*
X0033344Y0141158D01*
X0030680Y0141158D02*
X0030680Y0143822D01*
X0033344Y0143822D01*
X0033344Y0141158D01*
X0033344Y0142044D02*
X0030680Y0142044D01*
X0030680Y0142930D02*
X0033344Y0142930D01*
X0033344Y0143816D02*
X0030680Y0143816D01*
X0030680Y0136237D02*
X0033344Y0136237D01*
X0030680Y0136237D02*
X0030680Y0138901D01*
X0033344Y0138901D01*
X0033344Y0136237D01*
X0033344Y0137123D02*
X0030680Y0137123D01*
X0030680Y0138009D02*
X0033344Y0138009D01*
X0033344Y0138895D02*
X0030680Y0138895D01*
X0030680Y0133980D02*
X0030680Y0131316D01*
X0030680Y0133980D02*
X0033344Y0133980D01*
X0033344Y0131316D01*
X0030680Y0131316D01*
X0030680Y0132202D02*
X0033344Y0132202D01*
X0033344Y0133088D02*
X0030680Y0133088D01*
X0030680Y0133974D02*
X0033344Y0133974D01*
X0035601Y0133980D02*
X0035601Y0131316D01*
X0035601Y0133980D02*
X0038265Y0133980D01*
X0038265Y0131316D01*
X0035601Y0131316D01*
X0035601Y0132202D02*
X0038265Y0132202D01*
X0038265Y0133088D02*
X0035601Y0133088D01*
X0035601Y0133974D02*
X0038265Y0133974D01*
X0038265Y0138901D02*
X0035601Y0138901D01*
X0038265Y0138901D02*
X0038265Y0136237D01*
X0035601Y0136237D01*
X0035601Y0138901D01*
X0035601Y0137123D02*
X0038265Y0137123D01*
X0038265Y0138009D02*
X0035601Y0138009D01*
X0035601Y0138895D02*
X0038265Y0138895D01*
X0038265Y0143822D02*
X0035601Y0143822D01*
X0038265Y0143822D02*
X0038265Y0141158D01*
X0035601Y0141158D01*
X0035601Y0143822D01*
X0035601Y0142044D02*
X0038265Y0142044D01*
X0038265Y0142930D02*
X0035601Y0142930D01*
X0035601Y0143816D02*
X0038265Y0143816D01*
X0024774Y0134964D02*
X0024774Y0132300D01*
X0024774Y0134964D02*
X0027438Y0134964D01*
X0027438Y0132300D01*
X0024774Y0132300D01*
X0024774Y0133186D02*
X0027438Y0133186D01*
X0027438Y0134072D02*
X0024774Y0134072D01*
X0024774Y0134958D02*
X0027438Y0134958D01*
X0027438Y0130043D02*
X0027438Y0127379D01*
X0024774Y0127379D01*
X0024774Y0130043D01*
X0027438Y0130043D01*
X0027438Y0128265D02*
X0024774Y0128265D01*
X0024774Y0129151D02*
X0027438Y0129151D01*
X0027438Y0130037D02*
X0024774Y0130037D01*
X0022517Y0130043D02*
X0022517Y0127379D01*
X0019853Y0127379D01*
X0019853Y0130043D01*
X0022517Y0130043D01*
X0022517Y0128265D02*
X0019853Y0128265D01*
X0019853Y0129151D02*
X0022517Y0129151D01*
X0022517Y0130037D02*
X0019853Y0130037D01*
X0019853Y0132300D02*
X0019853Y0134964D01*
X0022517Y0134964D01*
X0022517Y0132300D01*
X0019853Y0132300D01*
X0019853Y0133186D02*
X0022517Y0133186D01*
X0022517Y0134072D02*
X0019853Y0134072D01*
X0019853Y0134958D02*
X0022517Y0134958D01*
X0033344Y0129058D02*
X0033344Y0126394D01*
X0030680Y0126394D01*
X0030680Y0129058D01*
X0033344Y0129058D01*
X0033344Y0127280D02*
X0030680Y0127280D01*
X0030680Y0128166D02*
X0033344Y0128166D01*
X0033344Y0129052D02*
X0030680Y0129052D01*
X0030680Y0121473D02*
X0033344Y0121473D01*
X0030680Y0121473D02*
X0030680Y0124137D01*
X0033344Y0124137D01*
X0033344Y0121473D01*
X0033344Y0122359D02*
X0030680Y0122359D01*
X0030680Y0123245D02*
X0033344Y0123245D01*
X0033344Y0124131D02*
X0030680Y0124131D01*
X0030680Y0116552D02*
X0033344Y0116552D01*
X0030680Y0116552D02*
X0030680Y0119216D01*
X0033344Y0119216D01*
X0033344Y0116552D01*
X0033344Y0117438D02*
X0030680Y0117438D01*
X0030680Y0118324D02*
X0033344Y0118324D01*
X0033344Y0119210D02*
X0030680Y0119210D01*
X0035601Y0119216D02*
X0038265Y0119216D01*
X0038265Y0116552D01*
X0035601Y0116552D01*
X0035601Y0119216D01*
X0035601Y0117438D02*
X0038265Y0117438D01*
X0038265Y0118324D02*
X0035601Y0118324D01*
X0035601Y0119210D02*
X0038265Y0119210D01*
X0038265Y0124137D02*
X0035601Y0124137D01*
X0038265Y0124137D02*
X0038265Y0121473D01*
X0035601Y0121473D01*
X0035601Y0124137D01*
X0035601Y0122359D02*
X0038265Y0122359D01*
X0038265Y0123245D02*
X0035601Y0123245D01*
X0035601Y0124131D02*
X0038265Y0124131D01*
X0038265Y0126394D02*
X0038265Y0129058D01*
X0038265Y0126394D02*
X0035601Y0126394D01*
X0035601Y0129058D01*
X0038265Y0129058D01*
X0038265Y0127280D02*
X0035601Y0127280D01*
X0035601Y0128166D02*
X0038265Y0128166D01*
X0038265Y0129052D02*
X0035601Y0129052D01*
X0032360Y0099820D02*
X0029696Y0099820D01*
X0029696Y0102484D01*
X0032360Y0102484D01*
X0032360Y0099820D01*
X0032360Y0100706D02*
X0029696Y0100706D01*
X0029696Y0101592D02*
X0032360Y0101592D01*
X0032360Y0102478D02*
X0029696Y0102478D01*
X0029696Y0094898D02*
X0032360Y0094898D01*
X0029696Y0094898D02*
X0029696Y0097562D01*
X0032360Y0097562D01*
X0032360Y0094898D01*
X0032360Y0095784D02*
X0029696Y0095784D01*
X0029696Y0096670D02*
X0032360Y0096670D01*
X0032360Y0097556D02*
X0029696Y0097556D01*
X0065129Y0180528D02*
X0067793Y0180528D01*
X0065129Y0180528D02*
X0065129Y0183192D01*
X0067793Y0183192D01*
X0067793Y0180528D01*
X0067793Y0181414D02*
X0065129Y0181414D01*
X0065129Y0182300D02*
X0067793Y0182300D01*
X0067793Y0183186D02*
X0065129Y0183186D01*
X0067793Y0185449D02*
X0067793Y0188113D01*
X0067793Y0185449D02*
X0065129Y0185449D01*
X0065129Y0188113D01*
X0067793Y0188113D01*
X0067793Y0186335D02*
X0065129Y0186335D01*
X0065129Y0187221D02*
X0067793Y0187221D01*
X0067793Y0188107D02*
X0065129Y0188107D01*
X0065129Y0190371D02*
X0065129Y0193035D01*
X0067793Y0193035D01*
X0067793Y0190371D01*
X0065129Y0190371D01*
X0065129Y0191257D02*
X0067793Y0191257D01*
X0067793Y0192143D02*
X0065129Y0192143D01*
X0065129Y0193029D02*
X0067793Y0193029D01*
X0067793Y0195292D02*
X0065129Y0195292D01*
X0065129Y0197956D01*
X0067793Y0197956D01*
X0067793Y0195292D01*
X0067793Y0196178D02*
X0065129Y0196178D01*
X0065129Y0197064D02*
X0067793Y0197064D01*
X0067793Y0197950D02*
X0065129Y0197950D01*
X0065129Y0200213D02*
X0067793Y0200213D01*
X0065129Y0200213D02*
X0065129Y0202877D01*
X0067793Y0202877D01*
X0067793Y0200213D01*
X0067793Y0201099D02*
X0065129Y0201099D01*
X0065129Y0201985D02*
X0067793Y0201985D01*
X0067793Y0202871D02*
X0065129Y0202871D01*
X0070050Y0202877D02*
X0072714Y0202877D01*
X0072714Y0200213D01*
X0070050Y0200213D01*
X0070050Y0202877D01*
X0070050Y0201099D02*
X0072714Y0201099D01*
X0072714Y0201985D02*
X0070050Y0201985D01*
X0070050Y0202871D02*
X0072714Y0202871D01*
X0072714Y0197956D02*
X0070050Y0197956D01*
X0072714Y0197956D02*
X0072714Y0195292D01*
X0070050Y0195292D01*
X0070050Y0197956D01*
X0070050Y0196178D02*
X0072714Y0196178D01*
X0072714Y0197064D02*
X0070050Y0197064D01*
X0070050Y0197950D02*
X0072714Y0197950D01*
X0070050Y0193035D02*
X0070050Y0190371D01*
X0070050Y0193035D02*
X0072714Y0193035D01*
X0072714Y0190371D01*
X0070050Y0190371D01*
X0070050Y0191257D02*
X0072714Y0191257D01*
X0072714Y0192143D02*
X0070050Y0192143D01*
X0070050Y0193029D02*
X0072714Y0193029D01*
X0072714Y0188113D02*
X0072714Y0185449D01*
X0070050Y0185449D01*
X0070050Y0188113D01*
X0072714Y0188113D01*
X0072714Y0186335D02*
X0070050Y0186335D01*
X0070050Y0187221D02*
X0072714Y0187221D01*
X0072714Y0188107D02*
X0070050Y0188107D01*
X0070050Y0183192D02*
X0072714Y0183192D01*
X0072714Y0180528D01*
X0070050Y0180528D01*
X0070050Y0183192D01*
X0070050Y0181414D02*
X0072714Y0181414D01*
X0072714Y0182300D02*
X0070050Y0182300D01*
X0070050Y0183186D02*
X0072714Y0183186D01*
X0171139Y0195292D02*
X0171139Y0197956D01*
X0171139Y0195292D02*
X0168475Y0195292D01*
X0168475Y0197956D01*
X0171139Y0197956D01*
X0171139Y0196178D02*
X0168475Y0196178D01*
X0168475Y0197064D02*
X0171139Y0197064D01*
X0171139Y0197950D02*
X0168475Y0197950D01*
X0168475Y0200213D02*
X0168475Y0202877D01*
X0171139Y0202877D01*
X0171139Y0200213D01*
X0168475Y0200213D01*
X0168475Y0201099D02*
X0171139Y0201099D01*
X0171139Y0201985D02*
X0168475Y0201985D01*
X0168475Y0202871D02*
X0171139Y0202871D01*
D12*
X0105304Y0143593D03*
X0105304Y0138593D03*
X0105304Y0133593D03*
X0105304Y0128593D03*
X0084704Y0128593D03*
X0084704Y0133593D03*
X0084704Y0138593D03*
X0084704Y0143593D03*
X0064950Y0141388D03*
X0064950Y0135719D03*
X0064950Y0130719D03*
X0064950Y0125719D03*
X0064950Y0120719D03*
X0044350Y0120719D03*
X0044350Y0125719D03*
X0044350Y0130719D03*
X0044350Y0135719D03*
X0044350Y0141388D03*
X0044350Y0146388D03*
X0044350Y0151388D03*
X0044350Y0156388D03*
X0064950Y0156388D03*
X0064950Y0151388D03*
X0064950Y0146388D03*
X0058552Y0186663D03*
X0058552Y0191663D03*
X0058552Y0196663D03*
X0058552Y0201663D03*
X0037952Y0201663D03*
X0037952Y0196663D03*
X0037952Y0191663D03*
X0037952Y0186663D03*
X0080767Y0090443D03*
X0080767Y0085443D03*
X0080767Y0080443D03*
X0080767Y0075443D03*
X0101367Y0075443D03*
X0101367Y0080443D03*
X0101367Y0085443D03*
X0101367Y0090443D03*
X0100383Y0036309D03*
X0100383Y0031309D03*
X0100383Y0026309D03*
X0100383Y0021309D03*
X0079783Y0021309D03*
X0079783Y0026309D03*
X0079783Y0031309D03*
X0079783Y0036309D03*
D13*
X0177681Y0026644D03*
X0189492Y0026644D03*
X0189492Y0081762D03*
X0177681Y0081762D03*
X0177681Y0136880D03*
X0189492Y0136880D03*
X0144217Y0191998D03*
X0132406Y0191998D03*
D14*
X0009374Y0188179D03*
X0009374Y0198179D03*
X0009374Y0143061D03*
X0009374Y0133061D03*
X0009374Y0087943D03*
X0009374Y0077943D03*
X0009374Y0032825D03*
X0009374Y0022825D03*
D15*
X0136343Y0027825D03*
X0136343Y0082943D03*
X0136343Y0138061D03*
X0091067Y0193179D03*
D16*
X0101106Y0203218D03*
X0081028Y0203218D03*
X0081028Y0183140D03*
X0101106Y0183140D03*
X0126304Y0148100D03*
X0146381Y0148100D03*
X0146381Y0128022D03*
X0126304Y0128022D03*
X0126304Y0092982D03*
X0146381Y0092982D03*
X0146381Y0072904D03*
X0126304Y0072904D03*
X0126304Y0037864D03*
X0146381Y0037864D03*
X0146381Y0017786D03*
X0126304Y0017786D03*
D17*
X0115331Y0039781D02*
X0112079Y0039781D01*
X0112079Y0043427D01*
X0115331Y0043427D01*
X0115331Y0039781D01*
X0115331Y0040864D02*
X0112079Y0040864D01*
X0112079Y0041947D02*
X0115331Y0041947D01*
X0115331Y0043030D02*
X0112079Y0043030D01*
X0108441Y0039978D02*
X0105189Y0039978D01*
X0105189Y0043230D01*
X0108441Y0043230D01*
X0108441Y0039978D01*
X0108441Y0041061D02*
X0105189Y0041061D01*
X0105189Y0042144D02*
X0108441Y0042144D01*
X0108441Y0043227D02*
X0105189Y0043227D01*
X0093874Y0018132D02*
X0093874Y0014880D01*
X0090228Y0014880D01*
X0090228Y0018132D01*
X0093874Y0018132D01*
X0093874Y0015963D02*
X0090228Y0015963D01*
X0090228Y0017046D02*
X0093874Y0017046D01*
X0093874Y0018129D02*
X0090228Y0018129D01*
X0093677Y0011242D02*
X0093677Y0007990D01*
X0090425Y0007990D01*
X0090425Y0011242D01*
X0093677Y0011242D01*
X0093677Y0009073D02*
X0090425Y0009073D01*
X0090425Y0010156D02*
X0093677Y0010156D01*
X0093677Y0011239D02*
X0090425Y0011239D01*
X0076453Y0007793D02*
X0073201Y0007793D01*
X0073201Y0011439D01*
X0076453Y0011439D01*
X0076453Y0007793D01*
X0076453Y0008876D02*
X0073201Y0008876D01*
X0073201Y0009959D02*
X0076453Y0009959D01*
X0076453Y0011042D02*
X0073201Y0011042D01*
X0069563Y0007990D02*
X0066311Y0007990D01*
X0066311Y0011242D01*
X0069563Y0011242D01*
X0069563Y0007990D01*
X0069563Y0009073D02*
X0066311Y0009073D01*
X0066311Y0010156D02*
X0069563Y0010156D01*
X0069563Y0011239D02*
X0066311Y0011239D01*
X0065819Y0047856D02*
X0069071Y0047856D01*
X0069071Y0044210D01*
X0065819Y0044210D01*
X0065819Y0047856D01*
X0065819Y0045293D02*
X0069071Y0045293D01*
X0069071Y0046376D02*
X0065819Y0046376D01*
X0065819Y0047459D02*
X0069071Y0047459D01*
X0072709Y0047659D02*
X0075961Y0047659D01*
X0075961Y0044407D01*
X0072709Y0044407D01*
X0072709Y0047659D01*
X0072709Y0045490D02*
X0075961Y0045490D01*
X0075961Y0046573D02*
X0072709Y0046573D01*
X0072709Y0047656D02*
X0075961Y0047656D01*
X0074976Y0061140D02*
X0074976Y0064392D01*
X0074976Y0061140D02*
X0071724Y0061140D01*
X0071724Y0064392D01*
X0074976Y0064392D01*
X0074976Y0062223D02*
X0071724Y0062223D01*
X0071724Y0063306D02*
X0074976Y0063306D01*
X0074976Y0064389D02*
X0071724Y0064389D01*
X0075173Y0068030D02*
X0075173Y0071282D01*
X0075173Y0068030D02*
X0071527Y0068030D01*
X0071527Y0071282D01*
X0075173Y0071282D01*
X0075173Y0069113D02*
X0071527Y0069113D01*
X0071527Y0070196D02*
X0075173Y0070196D01*
X0075173Y0071279D02*
X0071527Y0071279D01*
X0087965Y0071479D02*
X0091217Y0071479D01*
X0091217Y0067833D01*
X0087965Y0067833D01*
X0087965Y0071479D01*
X0087965Y0068916D02*
X0091217Y0068916D01*
X0091217Y0069999D02*
X0087965Y0069999D01*
X0087965Y0071082D02*
X0091217Y0071082D01*
X0094854Y0071282D02*
X0098106Y0071282D01*
X0098106Y0068030D01*
X0094854Y0068030D01*
X0094854Y0071282D01*
X0094854Y0069113D02*
X0098106Y0069113D01*
X0098106Y0070196D02*
X0094854Y0070196D01*
X0094854Y0071279D02*
X0098106Y0071279D01*
X0107650Y0096081D02*
X0110902Y0096081D01*
X0107650Y0096081D02*
X0107650Y0099333D01*
X0110902Y0099333D01*
X0110902Y0096081D01*
X0110902Y0097164D02*
X0107650Y0097164D01*
X0107650Y0098247D02*
X0110902Y0098247D01*
X0110902Y0099330D02*
X0107650Y0099330D01*
X0114539Y0095884D02*
X0117791Y0095884D01*
X0114539Y0095884D02*
X0114539Y0099530D01*
X0117791Y0099530D01*
X0117791Y0095884D01*
X0117791Y0096967D02*
X0114539Y0096967D01*
X0114539Y0098050D02*
X0117791Y0098050D01*
X0117791Y0099133D02*
X0114539Y0099133D01*
X0067102Y0097856D02*
X0067102Y0094604D01*
X0063850Y0094604D01*
X0063850Y0097856D01*
X0067102Y0097856D01*
X0067102Y0095687D02*
X0063850Y0095687D01*
X0063850Y0096770D02*
X0067102Y0096770D01*
X0067102Y0097853D02*
X0063850Y0097853D01*
X0067299Y0101494D02*
X0067299Y0104746D01*
X0067299Y0101494D02*
X0063653Y0101494D01*
X0063653Y0104746D01*
X0067299Y0104746D01*
X0067299Y0102577D02*
X0063653Y0102577D01*
X0063653Y0103660D02*
X0067299Y0103660D01*
X0067299Y0104743D02*
X0063653Y0104743D01*
X0047909Y0172360D02*
X0047909Y0175612D01*
X0047909Y0172360D02*
X0044657Y0172360D01*
X0044657Y0175612D01*
X0047909Y0175612D01*
X0047909Y0173443D02*
X0044657Y0173443D01*
X0044657Y0174526D02*
X0047909Y0174526D01*
X0047909Y0175609D02*
X0044657Y0175609D01*
X0048106Y0179250D02*
X0048106Y0182502D01*
X0048106Y0179250D02*
X0044460Y0179250D01*
X0044460Y0182502D01*
X0048106Y0182502D01*
X0048106Y0180333D02*
X0044460Y0180333D01*
X0044460Y0181416D02*
X0048106Y0181416D01*
X0048106Y0182499D02*
X0044460Y0182499D01*
X0063850Y0205333D02*
X0067102Y0205333D01*
X0063850Y0205333D02*
X0063850Y0208585D01*
X0067102Y0208585D01*
X0067102Y0205333D01*
X0067102Y0206416D02*
X0063850Y0206416D01*
X0063850Y0207499D02*
X0067102Y0207499D01*
X0067102Y0208582D02*
X0063850Y0208582D01*
X0070740Y0205136D02*
X0073992Y0205136D01*
X0070740Y0205136D02*
X0070740Y0208782D01*
X0073992Y0208782D01*
X0073992Y0205136D01*
X0073992Y0206219D02*
X0070740Y0206219D01*
X0070740Y0207302D02*
X0073992Y0207302D01*
X0073992Y0208385D02*
X0070740Y0208385D01*
X0168181Y0192837D02*
X0168181Y0189585D01*
X0168181Y0192837D02*
X0171433Y0192837D01*
X0171433Y0189585D01*
X0168181Y0189585D01*
X0168181Y0190668D02*
X0171433Y0190668D01*
X0171433Y0191751D02*
X0168181Y0191751D01*
X0168181Y0192834D02*
X0171433Y0192834D01*
X0167984Y0185947D02*
X0167984Y0182695D01*
X0167984Y0185947D02*
X0171630Y0185947D01*
X0171630Y0182695D01*
X0167984Y0182695D01*
X0167984Y0183778D02*
X0171630Y0183778D01*
X0171630Y0184861D02*
X0167984Y0184861D01*
X0167984Y0185944D02*
X0171630Y0185944D01*
D18*
X0057228Y0093243D03*
X0052228Y0093243D03*
X0047228Y0093243D03*
X0042228Y0093243D03*
X0042228Y0072643D03*
X0047228Y0072643D03*
X0052228Y0072643D03*
X0057228Y0072643D03*
X0056165Y0038125D03*
X0051165Y0038125D03*
X0046165Y0038125D03*
X0061165Y0038125D03*
X0061165Y0017525D03*
X0056165Y0017525D03*
X0051165Y0017525D03*
X0046165Y0017525D03*
D19*
X0112327Y0153809D03*
X0119020Y0153809D03*
X0090476Y0155778D03*
X0083783Y0155778D03*
D20*
X0190022Y0193671D03*
D21*
X0190022Y0179913D03*
X0190022Y0207430D03*
M02*
