G75*
%MOIN*%
%OFA0B0*%
%FSLAX25Y25*%
%IPPOS*%
%LPD*%
%AMOC8*
5,1,8,0,0,1.08239X$1,22.5*
%
%ADD10C,0.01975*%
%ADD11R,0.14180X0.05124*%
%ADD12R,0.13392X0.07880*%
%ADD13C,0.05124*%
%ADD14C,0.00887*%
%ADD15C,0.09455*%
%ADD16C,0.10439*%
%ADD17R,0.16900X0.10900*%
D10*
X0042839Y0052431D03*
X0042839Y0058337D03*
X0042839Y0107549D03*
X0042839Y0113455D03*
X0042839Y0162667D03*
X0042839Y0168573D03*
X0131421Y0168573D03*
X0131421Y0162667D03*
X0154059Y0194163D03*
X0159965Y0194163D03*
X0186539Y0168573D03*
X0186539Y0162667D03*
X0186539Y0113455D03*
X0186539Y0107549D03*
X0186539Y0058337D03*
X0186539Y0052431D03*
D11*
X0162130Y0034518D03*
X0162130Y0026644D03*
X0162130Y0018770D03*
X0162130Y0073888D03*
X0162130Y0081762D03*
X0162130Y0089636D03*
X0162130Y0129006D03*
X0162130Y0136880D03*
X0162130Y0144754D03*
X0116854Y0184124D03*
X0116854Y0191998D03*
X0116854Y0199872D03*
D12*
X0144217Y0211880D03*
X0144217Y0174478D03*
X0189492Y0156762D03*
X0189492Y0119360D03*
X0189492Y0101644D03*
X0189492Y0064242D03*
X0189492Y0046526D03*
X0189492Y0009124D03*
D13*
X0189492Y0026644D03*
X0177681Y0026644D03*
X0177681Y0081762D03*
X0189492Y0081762D03*
X0189492Y0136880D03*
X0177681Y0136880D03*
X0144217Y0191998D03*
X0132406Y0191998D03*
D14*
X0052537Y0023048D02*
X0049873Y0023048D01*
X0049873Y0025712D01*
X0052537Y0025712D01*
X0052537Y0023048D01*
X0052537Y0023934D02*
X0049873Y0023934D01*
X0049873Y0024820D02*
X0052537Y0024820D01*
X0052537Y0025706D02*
X0049873Y0025706D01*
X0049873Y0029938D02*
X0052537Y0029938D01*
X0049873Y0029938D02*
X0049873Y0032602D01*
X0052537Y0032602D01*
X0052537Y0029938D01*
X0052537Y0030824D02*
X0049873Y0030824D01*
X0049873Y0031710D02*
X0052537Y0031710D01*
X0052537Y0032596D02*
X0049873Y0032596D01*
X0054794Y0032602D02*
X0057458Y0032602D01*
X0057458Y0029938D01*
X0054794Y0029938D01*
X0054794Y0032602D01*
X0054794Y0030824D02*
X0057458Y0030824D01*
X0057458Y0031710D02*
X0054794Y0031710D01*
X0054794Y0032596D02*
X0057458Y0032596D01*
X0057458Y0025712D02*
X0054794Y0025712D01*
X0057458Y0025712D02*
X0057458Y0023048D01*
X0054794Y0023048D01*
X0054794Y0025712D01*
X0054794Y0023934D02*
X0057458Y0023934D01*
X0057458Y0024820D02*
X0054794Y0024820D01*
X0054794Y0025706D02*
X0057458Y0025706D01*
X0086290Y0027477D02*
X0088954Y0027477D01*
X0086290Y0027477D02*
X0086290Y0030141D01*
X0088954Y0030141D01*
X0088954Y0027477D01*
X0088954Y0028363D02*
X0086290Y0028363D01*
X0086290Y0029249D02*
X0088954Y0029249D01*
X0088954Y0030135D02*
X0086290Y0030135D01*
X0091211Y0030141D02*
X0093875Y0030141D01*
X0093875Y0027477D01*
X0091211Y0027477D01*
X0091211Y0030141D01*
X0091211Y0028363D02*
X0093875Y0028363D01*
X0093875Y0029249D02*
X0091211Y0029249D01*
X0091211Y0030135D02*
X0093875Y0030135D01*
X0058442Y0127090D02*
X0055778Y0127090D01*
X0058442Y0127090D02*
X0058442Y0124426D01*
X0055778Y0124426D01*
X0055778Y0127090D01*
X0055778Y0125312D02*
X0058442Y0125312D01*
X0058442Y0126198D02*
X0055778Y0126198D01*
X0055778Y0127084D02*
X0058442Y0127084D01*
X0058442Y0132011D02*
X0055778Y0132011D01*
X0058442Y0132011D02*
X0058442Y0129347D01*
X0055778Y0129347D01*
X0055778Y0132011D01*
X0055778Y0130233D02*
X0058442Y0130233D01*
X0058442Y0131119D02*
X0055778Y0131119D01*
X0055778Y0132005D02*
X0058442Y0132005D01*
X0053521Y0129347D02*
X0050857Y0129347D01*
X0050857Y0132011D01*
X0053521Y0132011D01*
X0053521Y0129347D01*
X0053521Y0130233D02*
X0050857Y0130233D01*
X0050857Y0131119D02*
X0053521Y0131119D01*
X0053521Y0132005D02*
X0050857Y0132005D01*
X0050857Y0124426D02*
X0053521Y0124426D01*
X0050857Y0124426D02*
X0050857Y0127090D01*
X0053521Y0127090D01*
X0053521Y0124426D01*
X0053521Y0125312D02*
X0050857Y0125312D01*
X0050857Y0126198D02*
X0053521Y0126198D01*
X0053521Y0127084D02*
X0050857Y0127084D01*
X0050857Y0145095D02*
X0053521Y0145095D01*
X0050857Y0145095D02*
X0050857Y0147759D01*
X0053521Y0147759D01*
X0053521Y0145095D01*
X0053521Y0145981D02*
X0050857Y0145981D01*
X0050857Y0146867D02*
X0053521Y0146867D01*
X0053521Y0147753D02*
X0050857Y0147753D01*
X0050857Y0150016D02*
X0053521Y0150016D01*
X0050857Y0150016D02*
X0050857Y0152680D01*
X0053521Y0152680D01*
X0053521Y0150016D01*
X0053521Y0150902D02*
X0050857Y0150902D01*
X0050857Y0151788D02*
X0053521Y0151788D01*
X0053521Y0152674D02*
X0050857Y0152674D01*
X0055778Y0152680D02*
X0058442Y0152680D01*
X0058442Y0150016D01*
X0055778Y0150016D01*
X0055778Y0152680D01*
X0055778Y0150902D02*
X0058442Y0150902D01*
X0058442Y0151788D02*
X0055778Y0151788D01*
X0055778Y0152674D02*
X0058442Y0152674D01*
X0058442Y0147759D02*
X0055778Y0147759D01*
X0058442Y0147759D02*
X0058442Y0145095D01*
X0055778Y0145095D01*
X0055778Y0147759D01*
X0055778Y0145981D02*
X0058442Y0145981D01*
X0058442Y0146867D02*
X0055778Y0146867D01*
X0055778Y0147753D02*
X0058442Y0147753D01*
X0091211Y0134761D02*
X0093875Y0134761D01*
X0091211Y0134761D02*
X0091211Y0137425D01*
X0093875Y0137425D01*
X0093875Y0134761D01*
X0093875Y0135647D02*
X0091211Y0135647D01*
X0091211Y0136533D02*
X0093875Y0136533D01*
X0093875Y0137419D02*
X0091211Y0137419D01*
X0096133Y0137425D02*
X0098797Y0137425D01*
X0098797Y0134761D01*
X0096133Y0134761D01*
X0096133Y0137425D01*
X0096133Y0135647D02*
X0098797Y0135647D01*
X0098797Y0136533D02*
X0096133Y0136533D01*
X0096133Y0137419D02*
X0098797Y0137419D01*
X0052045Y0195495D02*
X0049381Y0195495D01*
X0052045Y0195495D02*
X0052045Y0192831D01*
X0049381Y0192831D01*
X0049381Y0195495D01*
X0049381Y0193717D02*
X0052045Y0193717D01*
X0052045Y0194603D02*
X0049381Y0194603D01*
X0049381Y0195489D02*
X0052045Y0195489D01*
X0052045Y0200417D02*
X0049381Y0200417D01*
X0052045Y0200417D02*
X0052045Y0197753D01*
X0049381Y0197753D01*
X0049381Y0200417D01*
X0049381Y0198639D02*
X0052045Y0198639D01*
X0052045Y0199525D02*
X0049381Y0199525D01*
X0049381Y0200411D02*
X0052045Y0200411D01*
X0047123Y0197753D02*
X0044459Y0197753D01*
X0044459Y0200417D01*
X0047123Y0200417D01*
X0047123Y0197753D01*
X0047123Y0198639D02*
X0044459Y0198639D01*
X0044459Y0199525D02*
X0047123Y0199525D01*
X0047123Y0200411D02*
X0044459Y0200411D01*
X0044459Y0192831D02*
X0047123Y0192831D01*
X0044459Y0192831D02*
X0044459Y0195495D01*
X0047123Y0195495D01*
X0047123Y0192831D01*
X0047123Y0193717D02*
X0044459Y0193717D01*
X0044459Y0194603D02*
X0047123Y0194603D01*
X0047123Y0195489D02*
X0044459Y0195489D01*
D15*
X0091067Y0193179D03*
X0136343Y0138061D03*
X0136343Y0082943D03*
X0136343Y0027825D03*
D16*
X0146381Y0017786D03*
X0126304Y0017786D03*
X0126304Y0037864D03*
X0146381Y0037864D03*
X0146381Y0072904D03*
X0126304Y0072904D03*
X0126304Y0092982D03*
X0146381Y0092982D03*
X0146381Y0128022D03*
X0126304Y0128022D03*
X0126304Y0148100D03*
X0146381Y0148100D03*
X0101106Y0183140D03*
X0081028Y0183140D03*
X0081028Y0203218D03*
X0101106Y0203218D03*
D17*
X0190022Y0207430D03*
X0190022Y0179913D03*
M02*
