G75*
%MOIN*%
%OFA0B0*%
%FSLAX25Y25*%
%IPPOS*%
%LPD*%
%AMOC8*
5,1,8,0,0,1.08239X$1,22.5*
%
%ADD10C,0.01000*%
%ADD11C,0.00787*%
%ADD12R,0.08700X0.02400*%
%ADD13R,0.11811X0.03937*%
%ADD14C,0.09055*%
%ADD15C,0.10039*%
%ADD16C,0.00984*%
%ADD17R,0.02400X0.08700*%
%ADD18R,0.03937X0.04331*%
%ADD19R,0.16500X0.07000*%
%ADD20R,0.16500X0.10500*%
%ADD21C,0.03150*%
%ADD22C,0.01575*%
%ADD23C,0.01181*%
%ADD24C,0.01800*%
%ADD25C,0.00600*%
%ADD26C,0.01378*%
D10*
X0021185Y0018474D02*
X0026106Y0018474D01*
X0031028Y0018474D02*
X0031028Y0016014D01*
X0035949Y0016014D02*
X0035949Y0018474D01*
X0040870Y0018474D02*
X0046165Y0018474D01*
X0046165Y0017525D01*
X0046165Y0020325D01*
X0048744Y0024380D01*
X0048744Y0031270D02*
X0046165Y0035325D01*
X0046165Y0038125D01*
X0046165Y0037175D01*
X0040870Y0037175D01*
X0035949Y0037175D02*
X0035949Y0039636D01*
X0031028Y0039636D02*
X0031028Y0037175D01*
X0026106Y0037175D02*
X0021185Y0037175D01*
X0021185Y0032254D02*
X0009374Y0032254D01*
X0009374Y0032825D01*
X0009945Y0023396D02*
X0009374Y0022825D01*
X0009945Y0023396D02*
X0021185Y0023396D01*
X0026106Y0023396D02*
X0031028Y0023396D01*
X0035949Y0023396D01*
X0040870Y0023396D01*
X0040870Y0032254D02*
X0035949Y0032254D01*
X0031028Y0032254D01*
X0026106Y0032254D01*
X0058587Y0031270D02*
X0061165Y0034833D01*
X0061165Y0038125D01*
X0061200Y0038159D01*
X0066461Y0038159D01*
X0066461Y0033238D02*
X0068390Y0031309D01*
X0079783Y0031309D01*
X0085122Y0031309D01*
X0079783Y0026309D02*
X0074787Y0026309D01*
X0071382Y0022904D01*
X0071382Y0022411D01*
X0066461Y0022411D01*
X0066461Y0017490D02*
X0061200Y0017490D01*
X0061165Y0017525D01*
X0061165Y0020817D01*
X0058587Y0024380D01*
X0087056Y0041612D02*
X0087056Y0043614D01*
X0087723Y0044281D01*
X0090392Y0044281D01*
X0091059Y0043614D01*
X0091059Y0041612D01*
X0087056Y0041612D01*
X0095043Y0026309D02*
X0100383Y0026309D01*
X0107760Y0026309D01*
X0107799Y0026348D01*
X0107799Y0021427D02*
X0112720Y0021427D01*
X0112720Y0016506D01*
X0107799Y0016506D02*
X0105339Y0016506D01*
X0062031Y0068179D02*
X0062031Y0073100D01*
X0063016Y0080482D02*
X0054157Y0080482D01*
X0052228Y0078553D01*
X0052228Y0072643D01*
X0052189Y0072604D01*
X0052189Y0065226D01*
X0047268Y0065226D02*
X0047268Y0072604D01*
X0047228Y0072643D01*
X0042228Y0072643D02*
X0042228Y0078140D01*
X0041362Y0079006D01*
X0035949Y0079006D01*
X0031028Y0079006D01*
X0026106Y0079006D01*
X0021185Y0079006D02*
X0012327Y0079006D01*
X0012327Y0077943D01*
X0009374Y0077943D01*
X0010437Y0078022D01*
X0009787Y0077530D02*
X0009374Y0077943D01*
X0010437Y0086880D02*
X0009374Y0087943D01*
X0009787Y0088356D01*
X0010437Y0086880D02*
X0020693Y0086880D01*
X0021185Y0086388D01*
X0021185Y0091309D02*
X0026106Y0091309D01*
X0026106Y0086388D02*
X0031028Y0086388D01*
X0035949Y0086388D01*
X0035949Y0085896D01*
X0045791Y0085896D01*
X0047228Y0087333D01*
X0047228Y0093243D01*
X0052189Y0093282D02*
X0052189Y0100659D01*
X0047268Y0100659D01*
X0052189Y0093282D02*
X0052228Y0093243D01*
X0057110Y0093361D02*
X0057228Y0093243D01*
X0057228Y0087746D01*
X0059571Y0085404D01*
X0063016Y0085404D01*
X0067937Y0085404D02*
X0080728Y0085404D01*
X0080767Y0085443D01*
X0086185Y0085443D01*
X0088606Y0087864D01*
X0088606Y0095738D01*
X0093528Y0095738D02*
X0093528Y0082943D01*
X0096028Y0080443D01*
X0101367Y0080443D01*
X0101406Y0080482D01*
X0109768Y0080482D01*
X0080767Y0080443D02*
X0080728Y0080482D01*
X0073843Y0080482D01*
X0067937Y0080482D01*
X0072858Y0080974D02*
X0073843Y0080482D01*
X0072858Y0076053D02*
X0072858Y0073593D01*
X0057110Y0093361D02*
X0057110Y0100659D01*
X0054650Y0119360D02*
X0054650Y0128219D01*
X0057110Y0130679D01*
X0059571Y0130679D01*
X0061500Y0130719D01*
X0064950Y0130719D01*
X0064989Y0130679D01*
X0072366Y0130679D01*
X0074335Y0130679D01*
X0077287Y0133632D01*
X0077287Y0138553D02*
X0075811Y0140030D01*
X0075811Y0140522D01*
X0077287Y0143474D02*
X0081717Y0139045D01*
X0084251Y0139045D01*
X0084704Y0138593D01*
X0089551Y0138593D01*
X0089591Y0138553D01*
X0084665Y0133632D02*
X0084704Y0133593D01*
X0084665Y0133632D02*
X0082209Y0133632D01*
X0077287Y0128711D01*
X0077287Y0125758D01*
X0077287Y0120837D01*
X0082209Y0120837D02*
X0084669Y0120837D01*
X0087130Y0122805D02*
X0089591Y0122805D01*
X0099965Y0133593D02*
X0099925Y0133632D01*
X0099965Y0133593D02*
X0105304Y0133593D01*
X0112681Y0133593D01*
X0112720Y0133632D01*
X0112720Y0128711D02*
X0117642Y0128711D01*
X0117642Y0123789D01*
X0112720Y0123789D02*
X0110260Y0123789D01*
X0106815Y0122805D02*
X0104354Y0122805D01*
X0105304Y0138593D02*
X0112268Y0138593D01*
X0112720Y0139045D01*
X0112720Y0143967D01*
X0112720Y0153809D01*
X0112327Y0153809D01*
X0107299Y0150897D02*
X0107299Y0148896D01*
X0103296Y0148896D01*
X0103296Y0150897D01*
X0103963Y0151565D01*
X0104630Y0151565D01*
X0105298Y0150897D01*
X0105298Y0148896D01*
X0105298Y0150897D02*
X0105965Y0151565D01*
X0106632Y0151565D01*
X0107299Y0150897D01*
X0119020Y0153809D02*
X0121579Y0153809D01*
X0084177Y0160207D02*
X0083783Y0159321D01*
X0077287Y0156270D02*
X0074827Y0156270D01*
X0072366Y0156270D01*
X0072366Y0151348D02*
X0071343Y0151388D01*
X0071913Y0146388D02*
X0072366Y0146427D01*
X0071913Y0146388D02*
X0064950Y0146388D01*
X0059610Y0146388D01*
X0059571Y0146427D01*
X0054650Y0143474D02*
X0054650Y0155285D01*
X0049728Y0151348D02*
X0049689Y0151388D01*
X0044350Y0151388D01*
X0044350Y0146388D02*
X0041402Y0146388D01*
X0036933Y0148396D01*
X0032012Y0148396D01*
X0031520Y0147411D01*
X0026598Y0142490D01*
X0026106Y0142490D01*
X0026106Y0147411D02*
X0021185Y0147411D01*
X0021185Y0142490D02*
X0020693Y0141998D01*
X0012327Y0141998D01*
X0011264Y0143061D01*
X0009374Y0143061D01*
X0013803Y0134124D02*
X0012740Y0133061D01*
X0009374Y0133061D01*
X0013803Y0134124D02*
X0020693Y0134124D01*
X0021185Y0133632D01*
X0021185Y0128711D02*
X0026106Y0128711D01*
X0026106Y0133632D02*
X0032012Y0127726D01*
X0036933Y0127726D01*
X0041402Y0125719D01*
X0044350Y0125719D01*
X0044389Y0130679D02*
X0044350Y0130719D01*
X0044389Y0130679D02*
X0049236Y0130679D01*
X0052563Y0141388D02*
X0044350Y0141388D01*
X0036933Y0132648D02*
X0034472Y0132648D01*
X0032012Y0132648D01*
X0032012Y0137569D02*
X0032012Y0140030D01*
X0032012Y0142490D01*
X0027091Y0134616D02*
X0026106Y0133632D01*
X0032012Y0120344D02*
X0032012Y0117884D01*
X0052563Y0141388D02*
X0054650Y0143474D01*
X0059571Y0125758D02*
X0064910Y0125758D01*
X0064950Y0125719D01*
X0072327Y0125719D01*
X0072366Y0125758D01*
X0072366Y0135600D02*
X0072366Y0138061D01*
X0077287Y0143474D02*
X0077287Y0146427D01*
X0071382Y0181860D02*
X0071382Y0186781D01*
X0066461Y0186781D01*
X0066461Y0181860D02*
X0064000Y0181860D01*
X0066461Y0191703D02*
X0058591Y0191703D01*
X0058552Y0191663D01*
X0053213Y0191663D01*
X0043331Y0196663D02*
X0037952Y0196663D01*
X0037913Y0191703D02*
X0037952Y0191663D01*
X0037913Y0191703D02*
X0030043Y0191703D01*
X0030043Y0186781D01*
X0025122Y0186781D01*
X0025122Y0181860D02*
X0027583Y0181860D01*
X0030043Y0181860D01*
X0025122Y0191703D02*
X0021185Y0191703D01*
X0017661Y0188179D01*
X0009374Y0188179D01*
X0025122Y0196624D02*
X0030043Y0196624D01*
X0050146Y0209285D02*
X0051481Y0207951D01*
X0054150Y0207951D01*
X0052148Y0207951D02*
X0052148Y0210620D01*
X0051481Y0210620D02*
X0054150Y0210620D01*
X0051481Y0210620D02*
X0050146Y0209285D01*
X0066461Y0191703D02*
X0066953Y0191703D01*
X0036933Y0153317D02*
X0034472Y0153317D01*
X0032012Y0153317D01*
X0076896Y0100384D02*
X0076229Y0099716D01*
X0076229Y0098382D01*
X0076896Y0097715D01*
X0079565Y0097715D01*
X0080232Y0098382D01*
X0080232Y0099716D01*
X0079565Y0100384D01*
X0047268Y0065226D02*
X0042346Y0065226D01*
X0026106Y0074085D02*
X0021185Y0074085D01*
X0167346Y0190226D02*
X0167346Y0197116D01*
X0181126Y0197116D01*
X0181618Y0196624D01*
X0190969Y0196624D01*
X0190969Y0190719D01*
X0181618Y0190719D01*
X0181126Y0190226D01*
X0167346Y0190226D01*
X0167346Y0190924D02*
X0190969Y0190924D01*
X0190969Y0191923D02*
X0167346Y0191923D01*
X0167346Y0192921D02*
X0190969Y0192921D01*
X0190969Y0193920D02*
X0167346Y0193920D01*
X0167346Y0194918D02*
X0190969Y0194918D01*
X0190969Y0195917D02*
X0167346Y0195917D01*
X0167346Y0196915D02*
X0181327Y0196915D01*
X0169807Y0201545D02*
X0169807Y0204006D01*
X0173744Y0074085D02*
X0173744Y0073888D01*
D11*
X0022367Y0019656D02*
X0022367Y0017292D01*
X0020003Y0017292D01*
X0020003Y0019656D01*
X0022367Y0019656D01*
X0022367Y0018078D02*
X0020003Y0018078D01*
X0020003Y0018864D02*
X0022367Y0018864D01*
X0022367Y0019650D02*
X0020003Y0019650D01*
X0020003Y0022214D02*
X0020003Y0024578D01*
X0022367Y0024578D01*
X0022367Y0022214D01*
X0020003Y0022214D01*
X0020003Y0023000D02*
X0022367Y0023000D01*
X0022367Y0023786D02*
X0020003Y0023786D01*
X0020003Y0024572D02*
X0022367Y0024572D01*
X0024924Y0024578D02*
X0024924Y0022214D01*
X0024924Y0024578D02*
X0027288Y0024578D01*
X0027288Y0022214D01*
X0024924Y0022214D01*
X0024924Y0023000D02*
X0027288Y0023000D01*
X0027288Y0023786D02*
X0024924Y0023786D01*
X0024924Y0024572D02*
X0027288Y0024572D01*
X0029846Y0024578D02*
X0029846Y0022214D01*
X0029846Y0024578D02*
X0032210Y0024578D01*
X0032210Y0022214D01*
X0029846Y0022214D01*
X0029846Y0023000D02*
X0032210Y0023000D01*
X0032210Y0023786D02*
X0029846Y0023786D01*
X0029846Y0024572D02*
X0032210Y0024572D01*
X0034767Y0024578D02*
X0034767Y0022214D01*
X0034767Y0024578D02*
X0037131Y0024578D01*
X0037131Y0022214D01*
X0034767Y0022214D01*
X0034767Y0023000D02*
X0037131Y0023000D01*
X0037131Y0023786D02*
X0034767Y0023786D01*
X0034767Y0024572D02*
X0037131Y0024572D01*
X0039688Y0024578D02*
X0039688Y0022214D01*
X0039688Y0024578D02*
X0042052Y0024578D01*
X0042052Y0022214D01*
X0039688Y0022214D01*
X0039688Y0023000D02*
X0042052Y0023000D01*
X0042052Y0023786D02*
X0039688Y0023786D01*
X0039688Y0024572D02*
X0042052Y0024572D01*
X0042052Y0019656D02*
X0042052Y0017292D01*
X0039688Y0017292D01*
X0039688Y0019656D01*
X0042052Y0019656D01*
X0042052Y0018078D02*
X0039688Y0018078D01*
X0039688Y0018864D02*
X0042052Y0018864D01*
X0042052Y0019650D02*
X0039688Y0019650D01*
X0037131Y0019656D02*
X0037131Y0017292D01*
X0034767Y0017292D01*
X0034767Y0019656D01*
X0037131Y0019656D01*
X0037131Y0018078D02*
X0034767Y0018078D01*
X0034767Y0018864D02*
X0037131Y0018864D01*
X0037131Y0019650D02*
X0034767Y0019650D01*
X0032210Y0019656D02*
X0032210Y0017292D01*
X0029846Y0017292D01*
X0029846Y0019656D01*
X0032210Y0019656D01*
X0032210Y0018078D02*
X0029846Y0018078D01*
X0029846Y0018864D02*
X0032210Y0018864D01*
X0032210Y0019650D02*
X0029846Y0019650D01*
X0027288Y0019656D02*
X0027288Y0017292D01*
X0024924Y0017292D01*
X0024924Y0019656D01*
X0027288Y0019656D01*
X0027288Y0018078D02*
X0024924Y0018078D01*
X0024924Y0018864D02*
X0027288Y0018864D01*
X0027288Y0019650D02*
X0024924Y0019650D01*
X0027288Y0031072D02*
X0027288Y0033436D01*
X0027288Y0031072D02*
X0024924Y0031072D01*
X0024924Y0033436D01*
X0027288Y0033436D01*
X0027288Y0031858D02*
X0024924Y0031858D01*
X0024924Y0032644D02*
X0027288Y0032644D01*
X0027288Y0033430D02*
X0024924Y0033430D01*
X0022367Y0033436D02*
X0022367Y0031072D01*
X0020003Y0031072D01*
X0020003Y0033436D01*
X0022367Y0033436D01*
X0022367Y0031858D02*
X0020003Y0031858D01*
X0020003Y0032644D02*
X0022367Y0032644D01*
X0022367Y0033430D02*
X0020003Y0033430D01*
X0020003Y0035993D02*
X0020003Y0038357D01*
X0022367Y0038357D01*
X0022367Y0035993D01*
X0020003Y0035993D01*
X0020003Y0036779D02*
X0022367Y0036779D01*
X0022367Y0037565D02*
X0020003Y0037565D01*
X0020003Y0038351D02*
X0022367Y0038351D01*
X0024924Y0038357D02*
X0024924Y0035993D01*
X0024924Y0038357D02*
X0027288Y0038357D01*
X0027288Y0035993D01*
X0024924Y0035993D01*
X0024924Y0036779D02*
X0027288Y0036779D01*
X0027288Y0037565D02*
X0024924Y0037565D01*
X0024924Y0038351D02*
X0027288Y0038351D01*
X0029846Y0038357D02*
X0029846Y0035993D01*
X0029846Y0038357D02*
X0032210Y0038357D01*
X0032210Y0035993D01*
X0029846Y0035993D01*
X0029846Y0036779D02*
X0032210Y0036779D01*
X0032210Y0037565D02*
X0029846Y0037565D01*
X0029846Y0038351D02*
X0032210Y0038351D01*
X0034767Y0038357D02*
X0034767Y0035993D01*
X0034767Y0038357D02*
X0037131Y0038357D01*
X0037131Y0035993D01*
X0034767Y0035993D01*
X0034767Y0036779D02*
X0037131Y0036779D01*
X0037131Y0037565D02*
X0034767Y0037565D01*
X0034767Y0038351D02*
X0037131Y0038351D01*
X0039688Y0038357D02*
X0039688Y0035993D01*
X0039688Y0038357D02*
X0042052Y0038357D01*
X0042052Y0035993D01*
X0039688Y0035993D01*
X0039688Y0036779D02*
X0042052Y0036779D01*
X0042052Y0037565D02*
X0039688Y0037565D01*
X0039688Y0038351D02*
X0042052Y0038351D01*
X0042052Y0033436D02*
X0042052Y0031072D01*
X0039688Y0031072D01*
X0039688Y0033436D01*
X0042052Y0033436D01*
X0042052Y0031858D02*
X0039688Y0031858D01*
X0039688Y0032644D02*
X0042052Y0032644D01*
X0042052Y0033430D02*
X0039688Y0033430D01*
X0037131Y0033436D02*
X0037131Y0031072D01*
X0034767Y0031072D01*
X0034767Y0033436D01*
X0037131Y0033436D01*
X0037131Y0031858D02*
X0034767Y0031858D01*
X0034767Y0032644D02*
X0037131Y0032644D01*
X0037131Y0033430D02*
X0034767Y0033430D01*
X0032210Y0033436D02*
X0032210Y0031072D01*
X0029846Y0031072D01*
X0029846Y0033436D01*
X0032210Y0033436D01*
X0032210Y0031858D02*
X0029846Y0031858D01*
X0029846Y0032644D02*
X0032210Y0032644D01*
X0032210Y0033430D02*
X0029846Y0033430D01*
X0045101Y0044851D02*
X0047465Y0044851D01*
X0045101Y0044851D02*
X0045101Y0047215D01*
X0047465Y0047215D01*
X0047465Y0044851D01*
X0047465Y0045637D02*
X0045101Y0045637D01*
X0045101Y0046423D02*
X0047465Y0046423D01*
X0047465Y0047209D02*
X0045101Y0047209D01*
X0050023Y0047215D02*
X0052387Y0047215D01*
X0052387Y0044851D01*
X0050023Y0044851D01*
X0050023Y0047215D01*
X0050023Y0045637D02*
X0052387Y0045637D01*
X0052387Y0046423D02*
X0050023Y0046423D01*
X0050023Y0047209D02*
X0052387Y0047209D01*
X0054944Y0044851D02*
X0057308Y0044851D01*
X0054944Y0044851D02*
X0054944Y0047215D01*
X0057308Y0047215D01*
X0057308Y0044851D01*
X0057308Y0045637D02*
X0054944Y0045637D01*
X0054944Y0046423D02*
X0057308Y0046423D01*
X0057308Y0047209D02*
X0054944Y0047209D01*
X0059865Y0047215D02*
X0062229Y0047215D01*
X0062229Y0044851D01*
X0059865Y0044851D01*
X0059865Y0047215D01*
X0059865Y0045637D02*
X0062229Y0045637D01*
X0062229Y0046423D02*
X0059865Y0046423D01*
X0059865Y0047209D02*
X0062229Y0047209D01*
X0065279Y0039341D02*
X0065279Y0036977D01*
X0065279Y0039341D02*
X0067643Y0039341D01*
X0067643Y0036977D01*
X0065279Y0036977D01*
X0065279Y0037763D02*
X0067643Y0037763D01*
X0067643Y0038549D02*
X0065279Y0038549D01*
X0065279Y0039335D02*
X0067643Y0039335D01*
X0067643Y0034420D02*
X0067643Y0032056D01*
X0065279Y0032056D01*
X0065279Y0034420D01*
X0067643Y0034420D01*
X0067643Y0032842D02*
X0065279Y0032842D01*
X0065279Y0033628D02*
X0067643Y0033628D01*
X0067643Y0034414D02*
X0065279Y0034414D01*
X0065279Y0023593D02*
X0065279Y0021229D01*
X0065279Y0023593D02*
X0067643Y0023593D01*
X0067643Y0021229D01*
X0065279Y0021229D01*
X0065279Y0022015D02*
X0067643Y0022015D01*
X0067643Y0022801D02*
X0065279Y0022801D01*
X0065279Y0023587D02*
X0067643Y0023587D01*
X0070200Y0023593D02*
X0070200Y0021229D01*
X0070200Y0023593D02*
X0072564Y0023593D01*
X0072564Y0021229D01*
X0070200Y0021229D01*
X0070200Y0022015D02*
X0072564Y0022015D01*
X0072564Y0022801D02*
X0070200Y0022801D01*
X0070200Y0023587D02*
X0072564Y0023587D01*
X0072564Y0018672D02*
X0072564Y0016308D01*
X0070200Y0016308D01*
X0070200Y0018672D01*
X0072564Y0018672D01*
X0072564Y0017094D02*
X0070200Y0017094D01*
X0070200Y0017880D02*
X0072564Y0017880D01*
X0072564Y0018666D02*
X0070200Y0018666D01*
X0067643Y0018672D02*
X0067643Y0016308D01*
X0065279Y0016308D01*
X0065279Y0018672D01*
X0067643Y0018672D01*
X0067643Y0017094D02*
X0065279Y0017094D01*
X0065279Y0017880D02*
X0067643Y0017880D01*
X0067643Y0018666D02*
X0065279Y0018666D01*
X0062229Y0010798D02*
X0059865Y0010798D01*
X0062229Y0010798D02*
X0062229Y0008434D01*
X0059865Y0008434D01*
X0059865Y0010798D01*
X0059865Y0009220D02*
X0062229Y0009220D01*
X0062229Y0010006D02*
X0059865Y0010006D01*
X0059865Y0010792D02*
X0062229Y0010792D01*
X0057308Y0008434D02*
X0054944Y0008434D01*
X0054944Y0010798D01*
X0057308Y0010798D01*
X0057308Y0008434D01*
X0057308Y0009220D02*
X0054944Y0009220D01*
X0054944Y0010006D02*
X0057308Y0010006D01*
X0057308Y0010792D02*
X0054944Y0010792D01*
X0052387Y0009814D02*
X0050023Y0009814D01*
X0052387Y0009814D02*
X0052387Y0007450D01*
X0050023Y0007450D01*
X0050023Y0009814D01*
X0050023Y0008236D02*
X0052387Y0008236D01*
X0052387Y0009022D02*
X0050023Y0009022D01*
X0050023Y0009808D02*
X0052387Y0009808D01*
X0047465Y0007450D02*
X0045101Y0007450D01*
X0045101Y0009814D01*
X0047465Y0009814D01*
X0047465Y0007450D01*
X0047465Y0008236D02*
X0045101Y0008236D01*
X0045101Y0009022D02*
X0047465Y0009022D01*
X0047465Y0009808D02*
X0045101Y0009808D01*
X0082406Y0009911D02*
X0082406Y0012275D01*
X0082406Y0009911D02*
X0080042Y0009911D01*
X0080042Y0012275D01*
X0082406Y0012275D01*
X0082406Y0010697D02*
X0080042Y0010697D01*
X0080042Y0011483D02*
X0082406Y0011483D01*
X0082406Y0012269D02*
X0080042Y0012269D01*
X0080042Y0014832D02*
X0080042Y0017196D01*
X0082406Y0017196D01*
X0082406Y0014832D01*
X0080042Y0014832D01*
X0080042Y0015618D02*
X0082406Y0015618D01*
X0082406Y0016404D02*
X0080042Y0016404D01*
X0080042Y0017190D02*
X0082406Y0017190D01*
X0084964Y0017196D02*
X0084964Y0014832D01*
X0084964Y0017196D02*
X0087328Y0017196D01*
X0087328Y0014832D01*
X0084964Y0014832D01*
X0084964Y0015618D02*
X0087328Y0015618D01*
X0087328Y0016404D02*
X0084964Y0016404D01*
X0084964Y0017190D02*
X0087328Y0017190D01*
X0087328Y0012275D02*
X0087328Y0009911D01*
X0084964Y0009911D01*
X0084964Y0012275D01*
X0087328Y0012275D01*
X0087328Y0010697D02*
X0084964Y0010697D01*
X0084964Y0011483D02*
X0087328Y0011483D01*
X0087328Y0012269D02*
X0084964Y0012269D01*
X0106617Y0015324D02*
X0108981Y0015324D01*
X0106617Y0015324D02*
X0106617Y0017688D01*
X0108981Y0017688D01*
X0108981Y0015324D01*
X0108981Y0016110D02*
X0106617Y0016110D01*
X0106617Y0016896D02*
X0108981Y0016896D01*
X0108981Y0017682D02*
X0106617Y0017682D01*
X0108981Y0020245D02*
X0108981Y0022609D01*
X0108981Y0020245D02*
X0106617Y0020245D01*
X0106617Y0022609D01*
X0108981Y0022609D01*
X0108981Y0021031D02*
X0106617Y0021031D01*
X0106617Y0021817D02*
X0108981Y0021817D01*
X0108981Y0022603D02*
X0106617Y0022603D01*
X0106617Y0025166D02*
X0106617Y0027530D01*
X0108981Y0027530D01*
X0108981Y0025166D01*
X0106617Y0025166D01*
X0106617Y0025952D02*
X0108981Y0025952D01*
X0108981Y0026738D02*
X0106617Y0026738D01*
X0106617Y0027524D02*
X0108981Y0027524D01*
X0111538Y0027530D02*
X0111538Y0025166D01*
X0111538Y0027530D02*
X0113902Y0027530D01*
X0113902Y0025166D01*
X0111538Y0025166D01*
X0111538Y0025952D02*
X0113902Y0025952D01*
X0113902Y0026738D02*
X0111538Y0026738D01*
X0111538Y0027524D02*
X0113902Y0027524D01*
X0113902Y0032452D02*
X0111538Y0032452D01*
X0113902Y0032452D02*
X0113902Y0030088D01*
X0111538Y0030088D01*
X0111538Y0032452D01*
X0111538Y0030874D02*
X0113902Y0030874D01*
X0113902Y0031660D02*
X0111538Y0031660D01*
X0111538Y0032446D02*
X0113902Y0032446D01*
X0113902Y0037373D02*
X0111538Y0037373D01*
X0113902Y0037373D02*
X0113902Y0035009D01*
X0111538Y0035009D01*
X0111538Y0037373D01*
X0111538Y0035795D02*
X0113902Y0035795D01*
X0113902Y0036581D02*
X0111538Y0036581D01*
X0111538Y0037367D02*
X0113902Y0037367D01*
X0108981Y0035009D02*
X0106617Y0035009D01*
X0106617Y0037373D01*
X0108981Y0037373D01*
X0108981Y0035009D01*
X0108981Y0035795D02*
X0106617Y0035795D01*
X0106617Y0036581D02*
X0108981Y0036581D01*
X0108981Y0037367D02*
X0106617Y0037367D01*
X0106617Y0030088D02*
X0108981Y0030088D01*
X0106617Y0030088D02*
X0106617Y0032452D01*
X0108981Y0032452D01*
X0108981Y0030088D01*
X0108981Y0030874D02*
X0106617Y0030874D01*
X0106617Y0031660D02*
X0108981Y0031660D01*
X0108981Y0032446D02*
X0106617Y0032446D01*
X0113902Y0022609D02*
X0113902Y0020245D01*
X0111538Y0020245D01*
X0111538Y0022609D01*
X0113902Y0022609D01*
X0113902Y0021031D02*
X0111538Y0021031D01*
X0111538Y0021817D02*
X0113902Y0021817D01*
X0113902Y0022603D02*
X0111538Y0022603D01*
X0111538Y0017688D02*
X0113902Y0017688D01*
X0113902Y0015324D01*
X0111538Y0015324D01*
X0111538Y0017688D01*
X0111538Y0016110D02*
X0113902Y0016110D01*
X0113902Y0016896D02*
X0111538Y0016896D01*
X0111538Y0017682D02*
X0113902Y0017682D01*
X0085359Y0064044D02*
X0085359Y0066408D01*
X0085359Y0064044D02*
X0082995Y0064044D01*
X0082995Y0066408D01*
X0085359Y0066408D01*
X0085359Y0064830D02*
X0082995Y0064830D01*
X0082995Y0065616D02*
X0085359Y0065616D01*
X0085359Y0066402D02*
X0082995Y0066402D01*
X0080438Y0066408D02*
X0080438Y0064044D01*
X0078074Y0064044D01*
X0078074Y0066408D01*
X0080438Y0066408D01*
X0080438Y0064830D02*
X0078074Y0064830D01*
X0078074Y0065616D02*
X0080438Y0065616D01*
X0080438Y0066402D02*
X0078074Y0066402D01*
X0078074Y0068966D02*
X0078074Y0071330D01*
X0080438Y0071330D01*
X0080438Y0068966D01*
X0078074Y0068966D01*
X0078074Y0069752D02*
X0080438Y0069752D01*
X0080438Y0070538D02*
X0078074Y0070538D01*
X0078074Y0071324D02*
X0080438Y0071324D01*
X0082995Y0071330D02*
X0082995Y0068966D01*
X0082995Y0071330D02*
X0085359Y0071330D01*
X0085359Y0068966D01*
X0082995Y0068966D01*
X0082995Y0069752D02*
X0085359Y0069752D01*
X0085359Y0070538D02*
X0082995Y0070538D01*
X0082995Y0071324D02*
X0085359Y0071324D01*
X0074040Y0074871D02*
X0074040Y0077235D01*
X0074040Y0074871D02*
X0071676Y0074871D01*
X0071676Y0077235D01*
X0074040Y0077235D01*
X0074040Y0075657D02*
X0071676Y0075657D01*
X0071676Y0076443D02*
X0074040Y0076443D01*
X0074040Y0077229D02*
X0071676Y0077229D01*
X0071676Y0079792D02*
X0071676Y0082156D01*
X0074040Y0082156D01*
X0074040Y0079792D01*
X0071676Y0079792D01*
X0071676Y0080578D02*
X0074040Y0080578D01*
X0074040Y0081364D02*
X0071676Y0081364D01*
X0071676Y0082150D02*
X0074040Y0082150D01*
X0069119Y0081664D02*
X0066755Y0081664D01*
X0069119Y0081664D02*
X0069119Y0079300D01*
X0066755Y0079300D01*
X0066755Y0081664D01*
X0066755Y0080086D02*
X0069119Y0080086D01*
X0069119Y0080872D02*
X0066755Y0080872D01*
X0066755Y0081658D02*
X0069119Y0081658D01*
X0069119Y0086586D02*
X0066755Y0086586D01*
X0069119Y0086586D02*
X0069119Y0084222D01*
X0066755Y0084222D01*
X0066755Y0086586D01*
X0066755Y0085008D02*
X0069119Y0085008D01*
X0069119Y0085794D02*
X0066755Y0085794D01*
X0066755Y0086580D02*
X0069119Y0086580D01*
X0064198Y0084222D02*
X0061834Y0084222D01*
X0061834Y0086586D01*
X0064198Y0086586D01*
X0064198Y0084222D01*
X0064198Y0085008D02*
X0061834Y0085008D01*
X0061834Y0085794D02*
X0064198Y0085794D01*
X0064198Y0086580D02*
X0061834Y0086580D01*
X0061834Y0079300D02*
X0064198Y0079300D01*
X0061834Y0079300D02*
X0061834Y0081664D01*
X0064198Y0081664D01*
X0064198Y0079300D01*
X0064198Y0080086D02*
X0061834Y0080086D01*
X0061834Y0080872D02*
X0064198Y0080872D01*
X0064198Y0081658D02*
X0061834Y0081658D01*
X0060849Y0071918D02*
X0063213Y0071918D01*
X0060849Y0071918D02*
X0060849Y0074282D01*
X0063213Y0074282D01*
X0063213Y0071918D01*
X0063213Y0072704D02*
X0060849Y0072704D01*
X0060849Y0073490D02*
X0063213Y0073490D01*
X0063213Y0074276D02*
X0060849Y0074276D01*
X0060849Y0066997D02*
X0063213Y0066997D01*
X0060849Y0066997D02*
X0060849Y0069361D01*
X0063213Y0069361D01*
X0063213Y0066997D01*
X0063213Y0067783D02*
X0060849Y0067783D01*
X0060849Y0068569D02*
X0063213Y0068569D01*
X0063213Y0069355D02*
X0060849Y0069355D01*
X0065771Y0069361D02*
X0068135Y0069361D01*
X0068135Y0066997D01*
X0065771Y0066997D01*
X0065771Y0069361D01*
X0065771Y0067783D02*
X0068135Y0067783D01*
X0068135Y0068569D02*
X0065771Y0068569D01*
X0065771Y0069355D02*
X0068135Y0069355D01*
X0068135Y0074282D02*
X0065771Y0074282D01*
X0068135Y0074282D02*
X0068135Y0071918D01*
X0065771Y0071918D01*
X0065771Y0074282D01*
X0065771Y0072704D02*
X0068135Y0072704D01*
X0068135Y0073490D02*
X0065771Y0073490D01*
X0065771Y0074276D02*
X0068135Y0074276D01*
X0053371Y0066408D02*
X0051007Y0066408D01*
X0053371Y0066408D02*
X0053371Y0064044D01*
X0051007Y0064044D01*
X0051007Y0066408D01*
X0051007Y0064830D02*
X0053371Y0064830D01*
X0053371Y0065616D02*
X0051007Y0065616D01*
X0051007Y0066402D02*
X0053371Y0066402D01*
X0048450Y0064044D02*
X0046086Y0064044D01*
X0046086Y0066408D01*
X0048450Y0066408D01*
X0048450Y0064044D01*
X0048450Y0064830D02*
X0046086Y0064830D01*
X0046086Y0065616D02*
X0048450Y0065616D01*
X0048450Y0066402D02*
X0046086Y0066402D01*
X0043528Y0066408D02*
X0041164Y0066408D01*
X0043528Y0066408D02*
X0043528Y0064044D01*
X0041164Y0064044D01*
X0041164Y0066408D01*
X0041164Y0064830D02*
X0043528Y0064830D01*
X0043528Y0065616D02*
X0041164Y0065616D01*
X0041164Y0066402D02*
X0043528Y0066402D01*
X0038607Y0064044D02*
X0036243Y0064044D01*
X0036243Y0066408D01*
X0038607Y0066408D01*
X0038607Y0064044D01*
X0038607Y0064830D02*
X0036243Y0064830D01*
X0036243Y0065616D02*
X0038607Y0065616D01*
X0038607Y0066402D02*
X0036243Y0066402D01*
X0037131Y0072903D02*
X0037131Y0075267D01*
X0037131Y0072903D02*
X0034767Y0072903D01*
X0034767Y0075267D01*
X0037131Y0075267D01*
X0037131Y0073689D02*
X0034767Y0073689D01*
X0034767Y0074475D02*
X0037131Y0074475D01*
X0037131Y0075261D02*
X0034767Y0075261D01*
X0032210Y0075267D02*
X0032210Y0072903D01*
X0029846Y0072903D01*
X0029846Y0075267D01*
X0032210Y0075267D01*
X0032210Y0073689D02*
X0029846Y0073689D01*
X0029846Y0074475D02*
X0032210Y0074475D01*
X0032210Y0075261D02*
X0029846Y0075261D01*
X0027288Y0075267D02*
X0027288Y0072903D01*
X0024924Y0072903D01*
X0024924Y0075267D01*
X0027288Y0075267D01*
X0027288Y0073689D02*
X0024924Y0073689D01*
X0024924Y0074475D02*
X0027288Y0074475D01*
X0027288Y0075261D02*
X0024924Y0075261D01*
X0022367Y0075267D02*
X0022367Y0072903D01*
X0020003Y0072903D01*
X0020003Y0075267D01*
X0022367Y0075267D01*
X0022367Y0073689D02*
X0020003Y0073689D01*
X0020003Y0074475D02*
X0022367Y0074475D01*
X0022367Y0075261D02*
X0020003Y0075261D01*
X0020003Y0077824D02*
X0020003Y0080188D01*
X0022367Y0080188D01*
X0022367Y0077824D01*
X0020003Y0077824D01*
X0020003Y0078610D02*
X0022367Y0078610D01*
X0022367Y0079396D02*
X0020003Y0079396D01*
X0020003Y0080182D02*
X0022367Y0080182D01*
X0024924Y0080188D02*
X0024924Y0077824D01*
X0024924Y0080188D02*
X0027288Y0080188D01*
X0027288Y0077824D01*
X0024924Y0077824D01*
X0024924Y0078610D02*
X0027288Y0078610D01*
X0027288Y0079396D02*
X0024924Y0079396D01*
X0024924Y0080182D02*
X0027288Y0080182D01*
X0029846Y0080188D02*
X0029846Y0077824D01*
X0029846Y0080188D02*
X0032210Y0080188D01*
X0032210Y0077824D01*
X0029846Y0077824D01*
X0029846Y0078610D02*
X0032210Y0078610D01*
X0032210Y0079396D02*
X0029846Y0079396D01*
X0029846Y0080182D02*
X0032210Y0080182D01*
X0034767Y0080188D02*
X0034767Y0077824D01*
X0034767Y0080188D02*
X0037131Y0080188D01*
X0037131Y0077824D01*
X0034767Y0077824D01*
X0034767Y0078610D02*
X0037131Y0078610D01*
X0037131Y0079396D02*
X0034767Y0079396D01*
X0034767Y0080182D02*
X0037131Y0080182D01*
X0037131Y0085206D02*
X0037131Y0087570D01*
X0037131Y0085206D02*
X0034767Y0085206D01*
X0034767Y0087570D01*
X0037131Y0087570D01*
X0037131Y0085992D02*
X0034767Y0085992D01*
X0034767Y0086778D02*
X0037131Y0086778D01*
X0037131Y0087564D02*
X0034767Y0087564D01*
X0032210Y0087570D02*
X0032210Y0085206D01*
X0029846Y0085206D01*
X0029846Y0087570D01*
X0032210Y0087570D01*
X0032210Y0085992D02*
X0029846Y0085992D01*
X0029846Y0086778D02*
X0032210Y0086778D01*
X0032210Y0087564D02*
X0029846Y0087564D01*
X0027288Y0087570D02*
X0027288Y0085206D01*
X0024924Y0085206D01*
X0024924Y0087570D01*
X0027288Y0087570D01*
X0027288Y0085992D02*
X0024924Y0085992D01*
X0024924Y0086778D02*
X0027288Y0086778D01*
X0027288Y0087564D02*
X0024924Y0087564D01*
X0022367Y0087570D02*
X0022367Y0085206D01*
X0020003Y0085206D01*
X0020003Y0087570D01*
X0022367Y0087570D01*
X0022367Y0085992D02*
X0020003Y0085992D01*
X0020003Y0086778D02*
X0022367Y0086778D01*
X0022367Y0087564D02*
X0020003Y0087564D01*
X0020003Y0090127D02*
X0020003Y0092491D01*
X0022367Y0092491D01*
X0022367Y0090127D01*
X0020003Y0090127D01*
X0020003Y0090913D02*
X0022367Y0090913D01*
X0022367Y0091699D02*
X0020003Y0091699D01*
X0020003Y0092485D02*
X0022367Y0092485D01*
X0024924Y0092491D02*
X0024924Y0090127D01*
X0024924Y0092491D02*
X0027288Y0092491D01*
X0027288Y0090127D01*
X0024924Y0090127D01*
X0024924Y0090913D02*
X0027288Y0090913D01*
X0027288Y0091699D02*
X0024924Y0091699D01*
X0024924Y0092485D02*
X0027288Y0092485D01*
X0029846Y0092491D02*
X0029846Y0090127D01*
X0029846Y0092491D02*
X0032210Y0092491D01*
X0032210Y0090127D01*
X0029846Y0090127D01*
X0029846Y0090913D02*
X0032210Y0090913D01*
X0032210Y0091699D02*
X0029846Y0091699D01*
X0029846Y0092485D02*
X0032210Y0092485D01*
X0034767Y0092491D02*
X0034767Y0090127D01*
X0034767Y0092491D02*
X0037131Y0092491D01*
X0037131Y0090127D01*
X0034767Y0090127D01*
X0034767Y0090913D02*
X0037131Y0090913D01*
X0037131Y0091699D02*
X0034767Y0091699D01*
X0034767Y0092485D02*
X0037131Y0092485D01*
X0037131Y0097412D02*
X0034767Y0097412D01*
X0037131Y0097412D02*
X0037131Y0095048D01*
X0034767Y0095048D01*
X0034767Y0097412D01*
X0034767Y0095834D02*
X0037131Y0095834D01*
X0037131Y0096620D02*
X0034767Y0096620D01*
X0034767Y0097406D02*
X0037131Y0097406D01*
X0037131Y0102334D02*
X0034767Y0102334D01*
X0037131Y0102334D02*
X0037131Y0099970D01*
X0034767Y0099970D01*
X0034767Y0102334D01*
X0034767Y0100756D02*
X0037131Y0100756D01*
X0037131Y0101542D02*
X0034767Y0101542D01*
X0034767Y0102328D02*
X0037131Y0102328D01*
X0041164Y0099477D02*
X0043528Y0099477D01*
X0041164Y0099477D02*
X0041164Y0101841D01*
X0043528Y0101841D01*
X0043528Y0099477D01*
X0043528Y0100263D02*
X0041164Y0100263D01*
X0041164Y0101049D02*
X0043528Y0101049D01*
X0043528Y0101835D02*
X0041164Y0101835D01*
X0046086Y0101841D02*
X0048450Y0101841D01*
X0048450Y0099477D01*
X0046086Y0099477D01*
X0046086Y0101841D01*
X0046086Y0100263D02*
X0048450Y0100263D01*
X0048450Y0101049D02*
X0046086Y0101049D01*
X0046086Y0101835D02*
X0048450Y0101835D01*
X0051007Y0099477D02*
X0053371Y0099477D01*
X0051007Y0099477D02*
X0051007Y0101841D01*
X0053371Y0101841D01*
X0053371Y0099477D01*
X0053371Y0100263D02*
X0051007Y0100263D01*
X0051007Y0101049D02*
X0053371Y0101049D01*
X0053371Y0101835D02*
X0051007Y0101835D01*
X0055928Y0101841D02*
X0058292Y0101841D01*
X0058292Y0099477D01*
X0055928Y0099477D01*
X0055928Y0101841D01*
X0055928Y0100263D02*
X0058292Y0100263D01*
X0058292Y0101049D02*
X0055928Y0101049D01*
X0055928Y0101835D02*
X0058292Y0101835D01*
X0038115Y0119066D02*
X0035751Y0119066D01*
X0038115Y0119066D02*
X0038115Y0116702D01*
X0035751Y0116702D01*
X0035751Y0119066D01*
X0035751Y0117488D02*
X0038115Y0117488D01*
X0038115Y0118274D02*
X0035751Y0118274D01*
X0035751Y0119060D02*
X0038115Y0119060D01*
X0038115Y0123987D02*
X0035751Y0123987D01*
X0038115Y0123987D02*
X0038115Y0121623D01*
X0035751Y0121623D01*
X0035751Y0123987D01*
X0035751Y0122409D02*
X0038115Y0122409D01*
X0038115Y0123195D02*
X0035751Y0123195D01*
X0035751Y0123981D02*
X0038115Y0123981D01*
X0038115Y0126544D02*
X0038115Y0128908D01*
X0038115Y0126544D02*
X0035751Y0126544D01*
X0035751Y0128908D01*
X0038115Y0128908D01*
X0038115Y0127330D02*
X0035751Y0127330D01*
X0035751Y0128116D02*
X0038115Y0128116D01*
X0038115Y0128902D02*
X0035751Y0128902D01*
X0033194Y0128908D02*
X0033194Y0126544D01*
X0030830Y0126544D01*
X0030830Y0128908D01*
X0033194Y0128908D01*
X0033194Y0127330D02*
X0030830Y0127330D01*
X0030830Y0128116D02*
X0033194Y0128116D01*
X0033194Y0128902D02*
X0030830Y0128902D01*
X0030830Y0131466D02*
X0030830Y0133830D01*
X0033194Y0133830D01*
X0033194Y0131466D01*
X0030830Y0131466D01*
X0030830Y0132252D02*
X0033194Y0132252D01*
X0033194Y0133038D02*
X0030830Y0133038D01*
X0030830Y0133824D02*
X0033194Y0133824D01*
X0035751Y0133830D02*
X0035751Y0131466D01*
X0035751Y0133830D02*
X0038115Y0133830D01*
X0038115Y0131466D01*
X0035751Y0131466D01*
X0035751Y0132252D02*
X0038115Y0132252D01*
X0038115Y0133038D02*
X0035751Y0133038D01*
X0035751Y0133824D02*
X0038115Y0133824D01*
X0038115Y0138751D02*
X0035751Y0138751D01*
X0038115Y0138751D02*
X0038115Y0136387D01*
X0035751Y0136387D01*
X0035751Y0138751D01*
X0035751Y0137173D02*
X0038115Y0137173D01*
X0038115Y0137959D02*
X0035751Y0137959D01*
X0035751Y0138745D02*
X0038115Y0138745D01*
X0038115Y0143672D02*
X0035751Y0143672D01*
X0038115Y0143672D02*
X0038115Y0141308D01*
X0035751Y0141308D01*
X0035751Y0143672D01*
X0035751Y0142094D02*
X0038115Y0142094D01*
X0038115Y0142880D02*
X0035751Y0142880D01*
X0035751Y0143666D02*
X0038115Y0143666D01*
X0038115Y0147214D02*
X0038115Y0149578D01*
X0038115Y0147214D02*
X0035751Y0147214D01*
X0035751Y0149578D01*
X0038115Y0149578D01*
X0038115Y0148000D02*
X0035751Y0148000D01*
X0035751Y0148786D02*
X0038115Y0148786D01*
X0038115Y0149572D02*
X0035751Y0149572D01*
X0033194Y0149578D02*
X0033194Y0147214D01*
X0030830Y0147214D01*
X0030830Y0149578D01*
X0033194Y0149578D01*
X0033194Y0148000D02*
X0030830Y0148000D01*
X0030830Y0148786D02*
X0033194Y0148786D01*
X0033194Y0149572D02*
X0030830Y0149572D01*
X0030830Y0152135D02*
X0030830Y0154499D01*
X0033194Y0154499D01*
X0033194Y0152135D01*
X0030830Y0152135D01*
X0030830Y0152921D02*
X0033194Y0152921D01*
X0033194Y0153707D02*
X0030830Y0153707D01*
X0030830Y0154493D02*
X0033194Y0154493D01*
X0035751Y0154499D02*
X0035751Y0152135D01*
X0035751Y0154499D02*
X0038115Y0154499D01*
X0038115Y0152135D01*
X0035751Y0152135D01*
X0035751Y0152921D02*
X0038115Y0152921D01*
X0038115Y0153707D02*
X0035751Y0153707D01*
X0035751Y0154493D02*
X0038115Y0154493D01*
X0033194Y0141308D02*
X0030830Y0141308D01*
X0030830Y0143672D01*
X0033194Y0143672D01*
X0033194Y0141308D01*
X0033194Y0142094D02*
X0030830Y0142094D01*
X0030830Y0142880D02*
X0033194Y0142880D01*
X0033194Y0143666D02*
X0030830Y0143666D01*
X0027288Y0143672D02*
X0027288Y0141308D01*
X0024924Y0141308D01*
X0024924Y0143672D01*
X0027288Y0143672D01*
X0027288Y0142094D02*
X0024924Y0142094D01*
X0024924Y0142880D02*
X0027288Y0142880D01*
X0027288Y0143666D02*
X0024924Y0143666D01*
X0022367Y0143672D02*
X0022367Y0141308D01*
X0020003Y0141308D01*
X0020003Y0143672D01*
X0022367Y0143672D01*
X0022367Y0142094D02*
X0020003Y0142094D01*
X0020003Y0142880D02*
X0022367Y0142880D01*
X0022367Y0143666D02*
X0020003Y0143666D01*
X0020003Y0146229D02*
X0020003Y0148593D01*
X0022367Y0148593D01*
X0022367Y0146229D01*
X0020003Y0146229D01*
X0020003Y0147015D02*
X0022367Y0147015D01*
X0022367Y0147801D02*
X0020003Y0147801D01*
X0020003Y0148587D02*
X0022367Y0148587D01*
X0024924Y0148593D02*
X0024924Y0146229D01*
X0024924Y0148593D02*
X0027288Y0148593D01*
X0027288Y0146229D01*
X0024924Y0146229D01*
X0024924Y0147015D02*
X0027288Y0147015D01*
X0027288Y0147801D02*
X0024924Y0147801D01*
X0024924Y0148587D02*
X0027288Y0148587D01*
X0030830Y0136387D02*
X0033194Y0136387D01*
X0030830Y0136387D02*
X0030830Y0138751D01*
X0033194Y0138751D01*
X0033194Y0136387D01*
X0033194Y0137173D02*
X0030830Y0137173D01*
X0030830Y0137959D02*
X0033194Y0137959D01*
X0033194Y0138745D02*
X0030830Y0138745D01*
X0024924Y0134814D02*
X0024924Y0132450D01*
X0024924Y0134814D02*
X0027288Y0134814D01*
X0027288Y0132450D01*
X0024924Y0132450D01*
X0024924Y0133236D02*
X0027288Y0133236D01*
X0027288Y0134022D02*
X0024924Y0134022D01*
X0024924Y0134808D02*
X0027288Y0134808D01*
X0027288Y0129893D02*
X0027288Y0127529D01*
X0024924Y0127529D01*
X0024924Y0129893D01*
X0027288Y0129893D01*
X0027288Y0128315D02*
X0024924Y0128315D01*
X0024924Y0129101D02*
X0027288Y0129101D01*
X0027288Y0129887D02*
X0024924Y0129887D01*
X0022367Y0129893D02*
X0022367Y0127529D01*
X0020003Y0127529D01*
X0020003Y0129893D01*
X0022367Y0129893D01*
X0022367Y0128315D02*
X0020003Y0128315D01*
X0020003Y0129101D02*
X0022367Y0129101D01*
X0022367Y0129887D02*
X0020003Y0129887D01*
X0020003Y0132450D02*
X0020003Y0134814D01*
X0022367Y0134814D01*
X0022367Y0132450D01*
X0020003Y0132450D01*
X0020003Y0133236D02*
X0022367Y0133236D01*
X0022367Y0134022D02*
X0020003Y0134022D01*
X0020003Y0134808D02*
X0022367Y0134808D01*
X0030830Y0121623D02*
X0033194Y0121623D01*
X0030830Y0121623D02*
X0030830Y0123987D01*
X0033194Y0123987D01*
X0033194Y0121623D01*
X0033194Y0122409D02*
X0030830Y0122409D01*
X0030830Y0123195D02*
X0033194Y0123195D01*
X0033194Y0123981D02*
X0030830Y0123981D01*
X0030830Y0116702D02*
X0033194Y0116702D01*
X0030830Y0116702D02*
X0030830Y0119066D01*
X0033194Y0119066D01*
X0033194Y0116702D01*
X0033194Y0117488D02*
X0030830Y0117488D01*
X0030830Y0118274D02*
X0033194Y0118274D01*
X0033194Y0119060D02*
X0030830Y0119060D01*
X0029846Y0099970D02*
X0032210Y0099970D01*
X0029846Y0099970D02*
X0029846Y0102334D01*
X0032210Y0102334D01*
X0032210Y0099970D01*
X0032210Y0100756D02*
X0029846Y0100756D01*
X0029846Y0101542D02*
X0032210Y0101542D01*
X0032210Y0102328D02*
X0029846Y0102328D01*
X0029846Y0095048D02*
X0032210Y0095048D01*
X0029846Y0095048D02*
X0029846Y0097412D01*
X0032210Y0097412D01*
X0032210Y0095048D01*
X0032210Y0095834D02*
X0029846Y0095834D01*
X0029846Y0096620D02*
X0032210Y0096620D01*
X0032210Y0097406D02*
X0029846Y0097406D01*
X0071184Y0124576D02*
X0073548Y0124576D01*
X0071184Y0124576D02*
X0071184Y0126940D01*
X0073548Y0126940D01*
X0073548Y0124576D01*
X0073548Y0125362D02*
X0071184Y0125362D01*
X0071184Y0126148D02*
X0073548Y0126148D01*
X0073548Y0126934D02*
X0071184Y0126934D01*
X0073548Y0129497D02*
X0073548Y0131861D01*
X0073548Y0129497D02*
X0071184Y0129497D01*
X0071184Y0131861D01*
X0073548Y0131861D01*
X0073548Y0130283D02*
X0071184Y0130283D01*
X0071184Y0131069D02*
X0073548Y0131069D01*
X0073548Y0131855D02*
X0071184Y0131855D01*
X0071184Y0134418D02*
X0071184Y0136782D01*
X0073548Y0136782D01*
X0073548Y0134418D01*
X0071184Y0134418D01*
X0071184Y0135204D02*
X0073548Y0135204D01*
X0073548Y0135990D02*
X0071184Y0135990D01*
X0071184Y0136776D02*
X0073548Y0136776D01*
X0076105Y0137371D02*
X0076105Y0139735D01*
X0078469Y0139735D01*
X0078469Y0137371D01*
X0076105Y0137371D01*
X0076105Y0138157D02*
X0078469Y0138157D01*
X0078469Y0138943D02*
X0076105Y0138943D01*
X0076105Y0139729D02*
X0078469Y0139729D01*
X0078469Y0134814D02*
X0078469Y0132450D01*
X0076105Y0132450D01*
X0076105Y0134814D01*
X0078469Y0134814D01*
X0078469Y0133236D02*
X0076105Y0133236D01*
X0076105Y0134022D02*
X0078469Y0134022D01*
X0078469Y0134808D02*
X0076105Y0134808D01*
X0076105Y0126940D02*
X0078469Y0126940D01*
X0078469Y0124576D01*
X0076105Y0124576D01*
X0076105Y0126940D01*
X0076105Y0125362D02*
X0078469Y0125362D01*
X0078469Y0126148D02*
X0076105Y0126148D01*
X0076105Y0126934D02*
X0078469Y0126934D01*
X0078469Y0119655D02*
X0076105Y0119655D01*
X0076105Y0122019D01*
X0078469Y0122019D01*
X0078469Y0119655D01*
X0078469Y0120441D02*
X0076105Y0120441D01*
X0076105Y0121227D02*
X0078469Y0121227D01*
X0078469Y0122013D02*
X0076105Y0122013D01*
X0081027Y0122019D02*
X0083391Y0122019D01*
X0083391Y0119655D01*
X0081027Y0119655D01*
X0081027Y0122019D01*
X0081027Y0120441D02*
X0083391Y0120441D01*
X0083391Y0121227D02*
X0081027Y0121227D01*
X0081027Y0122013D02*
X0083391Y0122013D01*
X0088409Y0121623D02*
X0090773Y0121623D01*
X0088409Y0121623D02*
X0088409Y0123987D01*
X0090773Y0123987D01*
X0090773Y0121623D01*
X0090773Y0122409D02*
X0088409Y0122409D01*
X0088409Y0123195D02*
X0090773Y0123195D01*
X0090773Y0123981D02*
X0088409Y0123981D01*
X0093330Y0123987D02*
X0095694Y0123987D01*
X0095694Y0121623D01*
X0093330Y0121623D01*
X0093330Y0123987D01*
X0093330Y0122409D02*
X0095694Y0122409D01*
X0095694Y0123195D02*
X0093330Y0123195D01*
X0093330Y0123981D02*
X0095694Y0123981D01*
X0098251Y0121623D02*
X0100615Y0121623D01*
X0098251Y0121623D02*
X0098251Y0123987D01*
X0100615Y0123987D01*
X0100615Y0121623D01*
X0100615Y0122409D02*
X0098251Y0122409D01*
X0098251Y0123195D02*
X0100615Y0123195D01*
X0100615Y0123981D02*
X0098251Y0123981D01*
X0103172Y0123987D02*
X0105536Y0123987D01*
X0105536Y0121623D01*
X0103172Y0121623D01*
X0103172Y0123987D01*
X0103172Y0122409D02*
X0105536Y0122409D01*
X0105536Y0123195D02*
X0103172Y0123195D01*
X0103172Y0123981D02*
X0105536Y0123981D01*
X0111538Y0122607D02*
X0113902Y0122607D01*
X0111538Y0122607D02*
X0111538Y0124971D01*
X0113902Y0124971D01*
X0113902Y0122607D01*
X0113902Y0123393D02*
X0111538Y0123393D01*
X0111538Y0124179D02*
X0113902Y0124179D01*
X0113902Y0124965D02*
X0111538Y0124965D01*
X0113902Y0127529D02*
X0113902Y0129893D01*
X0113902Y0127529D02*
X0111538Y0127529D01*
X0111538Y0129893D01*
X0113902Y0129893D01*
X0113902Y0128315D02*
X0111538Y0128315D01*
X0111538Y0129101D02*
X0113902Y0129101D01*
X0113902Y0129887D02*
X0111538Y0129887D01*
X0111538Y0132450D02*
X0111538Y0134814D01*
X0113902Y0134814D01*
X0113902Y0132450D01*
X0111538Y0132450D01*
X0111538Y0133236D02*
X0113902Y0133236D01*
X0113902Y0134022D02*
X0111538Y0134022D01*
X0111538Y0134808D02*
X0113902Y0134808D01*
X0116460Y0134814D02*
X0116460Y0132450D01*
X0116460Y0134814D02*
X0118824Y0134814D01*
X0118824Y0132450D01*
X0116460Y0132450D01*
X0116460Y0133236D02*
X0118824Y0133236D01*
X0118824Y0134022D02*
X0116460Y0134022D01*
X0116460Y0134808D02*
X0118824Y0134808D01*
X0118824Y0140227D02*
X0116460Y0140227D01*
X0118824Y0140227D02*
X0118824Y0137863D01*
X0116460Y0137863D01*
X0116460Y0140227D01*
X0116460Y0138649D02*
X0118824Y0138649D01*
X0118824Y0139435D02*
X0116460Y0139435D01*
X0116460Y0140221D02*
X0118824Y0140221D01*
X0118824Y0145149D02*
X0116460Y0145149D01*
X0118824Y0145149D02*
X0118824Y0142785D01*
X0116460Y0142785D01*
X0116460Y0145149D01*
X0116460Y0143571D02*
X0118824Y0143571D01*
X0118824Y0144357D02*
X0116460Y0144357D01*
X0116460Y0145143D02*
X0118824Y0145143D01*
X0113902Y0142785D02*
X0111538Y0142785D01*
X0111538Y0145149D01*
X0113902Y0145149D01*
X0113902Y0142785D01*
X0113902Y0143571D02*
X0111538Y0143571D01*
X0111538Y0144357D02*
X0113902Y0144357D01*
X0113902Y0145143D02*
X0111538Y0145143D01*
X0111538Y0137863D02*
X0113902Y0137863D01*
X0111538Y0137863D02*
X0111538Y0140227D01*
X0113902Y0140227D01*
X0113902Y0137863D01*
X0113902Y0138649D02*
X0111538Y0138649D01*
X0111538Y0139435D02*
X0113902Y0139435D01*
X0113902Y0140221D02*
X0111538Y0140221D01*
X0118824Y0129893D02*
X0118824Y0127529D01*
X0116460Y0127529D01*
X0116460Y0129893D01*
X0118824Y0129893D01*
X0118824Y0128315D02*
X0116460Y0128315D01*
X0116460Y0129101D02*
X0118824Y0129101D01*
X0118824Y0129887D02*
X0116460Y0129887D01*
X0116460Y0124971D02*
X0118824Y0124971D01*
X0118824Y0122607D01*
X0116460Y0122607D01*
X0116460Y0124971D01*
X0116460Y0123393D02*
X0118824Y0123393D01*
X0118824Y0124179D02*
X0116460Y0124179D01*
X0116460Y0124965D02*
X0118824Y0124965D01*
X0094710Y0096920D02*
X0092346Y0096920D01*
X0094710Y0096920D02*
X0094710Y0094556D01*
X0092346Y0094556D01*
X0092346Y0096920D01*
X0092346Y0095342D02*
X0094710Y0095342D01*
X0094710Y0096128D02*
X0092346Y0096128D01*
X0092346Y0096914D02*
X0094710Y0096914D01*
X0089788Y0094556D02*
X0087424Y0094556D01*
X0087424Y0096920D01*
X0089788Y0096920D01*
X0089788Y0094556D01*
X0089788Y0095342D02*
X0087424Y0095342D01*
X0087424Y0096128D02*
X0089788Y0096128D01*
X0089788Y0096914D02*
X0087424Y0096914D01*
X0109078Y0090619D02*
X0111442Y0090619D01*
X0109078Y0090619D02*
X0109078Y0092983D01*
X0111442Y0092983D01*
X0111442Y0090619D01*
X0111442Y0091405D02*
X0109078Y0091405D01*
X0109078Y0092191D02*
X0111442Y0092191D01*
X0111442Y0092977D02*
X0109078Y0092977D01*
X0113999Y0092983D02*
X0116363Y0092983D01*
X0116363Y0090619D01*
X0113999Y0090619D01*
X0113999Y0092983D01*
X0113999Y0091405D02*
X0116363Y0091405D01*
X0116363Y0092191D02*
X0113999Y0092191D01*
X0113999Y0092977D02*
X0116363Y0092977D01*
X0116363Y0088062D02*
X0113999Y0088062D01*
X0116363Y0088062D02*
X0116363Y0085698D01*
X0113999Y0085698D01*
X0113999Y0088062D01*
X0113999Y0086484D02*
X0116363Y0086484D01*
X0116363Y0087270D02*
X0113999Y0087270D01*
X0113999Y0088056D02*
X0116363Y0088056D01*
X0111442Y0085698D02*
X0109078Y0085698D01*
X0109078Y0088062D01*
X0111442Y0088062D01*
X0111442Y0085698D01*
X0111442Y0086484D02*
X0109078Y0086484D01*
X0109078Y0087270D02*
X0111442Y0087270D01*
X0111442Y0088056D02*
X0109078Y0088056D01*
X0108586Y0081664D02*
X0108586Y0079300D01*
X0108586Y0081664D02*
X0110950Y0081664D01*
X0110950Y0079300D01*
X0108586Y0079300D01*
X0108586Y0080086D02*
X0110950Y0080086D01*
X0110950Y0080872D02*
X0108586Y0080872D01*
X0108586Y0081658D02*
X0110950Y0081658D01*
X0113507Y0081664D02*
X0113507Y0079300D01*
X0113507Y0081664D02*
X0115871Y0081664D01*
X0115871Y0079300D01*
X0113507Y0079300D01*
X0113507Y0080086D02*
X0115871Y0080086D01*
X0115871Y0080872D02*
X0113507Y0080872D01*
X0113507Y0081658D02*
X0115871Y0081658D01*
X0115871Y0076743D02*
X0115871Y0074379D01*
X0113507Y0074379D01*
X0113507Y0076743D01*
X0115871Y0076743D01*
X0115871Y0075165D02*
X0113507Y0075165D01*
X0113507Y0075951D02*
X0115871Y0075951D01*
X0115871Y0076737D02*
X0113507Y0076737D01*
X0110950Y0076743D02*
X0110950Y0074379D01*
X0108586Y0074379D01*
X0108586Y0076743D01*
X0110950Y0076743D01*
X0110950Y0075165D02*
X0108586Y0075165D01*
X0108586Y0075951D02*
X0110950Y0075951D01*
X0110950Y0076737D02*
X0108586Y0076737D01*
X0108586Y0069458D02*
X0110950Y0069458D01*
X0108586Y0069458D02*
X0108586Y0071822D01*
X0110950Y0071822D01*
X0110950Y0069458D01*
X0110950Y0070244D02*
X0108586Y0070244D01*
X0108586Y0071030D02*
X0110950Y0071030D01*
X0110950Y0071816D02*
X0108586Y0071816D01*
X0113507Y0071822D02*
X0115871Y0071822D01*
X0115871Y0069458D01*
X0113507Y0069458D01*
X0113507Y0071822D01*
X0113507Y0070244D02*
X0115871Y0070244D01*
X0115871Y0071030D02*
X0113507Y0071030D01*
X0113507Y0071816D02*
X0115871Y0071816D01*
X0078469Y0147609D02*
X0076105Y0147609D01*
X0078469Y0147609D02*
X0078469Y0145245D01*
X0076105Y0145245D01*
X0076105Y0147609D01*
X0076105Y0146031D02*
X0078469Y0146031D01*
X0078469Y0146817D02*
X0076105Y0146817D01*
X0076105Y0147603D02*
X0078469Y0147603D01*
X0078469Y0150166D02*
X0078469Y0152530D01*
X0078469Y0150166D02*
X0076105Y0150166D01*
X0076105Y0152530D01*
X0078469Y0152530D01*
X0078469Y0150952D02*
X0076105Y0150952D01*
X0076105Y0151738D02*
X0078469Y0151738D01*
X0078469Y0152524D02*
X0076105Y0152524D01*
X0073548Y0152530D02*
X0073548Y0150166D01*
X0071184Y0150166D01*
X0071184Y0152530D01*
X0073548Y0152530D01*
X0073548Y0150952D02*
X0071184Y0150952D01*
X0071184Y0151738D02*
X0073548Y0151738D01*
X0073548Y0152524D02*
X0071184Y0152524D01*
X0071184Y0155088D02*
X0071184Y0157452D01*
X0073548Y0157452D01*
X0073548Y0155088D01*
X0071184Y0155088D01*
X0071184Y0155874D02*
X0073548Y0155874D01*
X0073548Y0156660D02*
X0071184Y0156660D01*
X0071184Y0157446D02*
X0073548Y0157446D01*
X0076105Y0157452D02*
X0076105Y0155088D01*
X0076105Y0157452D02*
X0078469Y0157452D01*
X0078469Y0155088D01*
X0076105Y0155088D01*
X0076105Y0155874D02*
X0078469Y0155874D01*
X0078469Y0156660D02*
X0076105Y0156660D01*
X0076105Y0157446D02*
X0078469Y0157446D01*
X0073548Y0145245D02*
X0071184Y0145245D01*
X0071184Y0147609D01*
X0073548Y0147609D01*
X0073548Y0145245D01*
X0073548Y0146031D02*
X0071184Y0146031D01*
X0071184Y0146817D02*
X0073548Y0146817D01*
X0073548Y0147603D02*
X0071184Y0147603D01*
X0042052Y0174773D02*
X0042052Y0177137D01*
X0042052Y0174773D02*
X0039688Y0174773D01*
X0039688Y0177137D01*
X0042052Y0177137D01*
X0042052Y0175559D02*
X0039688Y0175559D01*
X0039688Y0176345D02*
X0042052Y0176345D01*
X0042052Y0177131D02*
X0039688Y0177131D01*
X0037131Y0177137D02*
X0037131Y0174773D01*
X0034767Y0174773D01*
X0034767Y0177137D01*
X0037131Y0177137D01*
X0037131Y0175559D02*
X0034767Y0175559D01*
X0034767Y0176345D02*
X0037131Y0176345D01*
X0037131Y0177131D02*
X0034767Y0177131D01*
X0034767Y0179694D02*
X0034767Y0182058D01*
X0037131Y0182058D01*
X0037131Y0179694D01*
X0034767Y0179694D01*
X0034767Y0180480D02*
X0037131Y0180480D01*
X0037131Y0181266D02*
X0034767Y0181266D01*
X0034767Y0182052D02*
X0037131Y0182052D01*
X0039688Y0182058D02*
X0039688Y0179694D01*
X0039688Y0182058D02*
X0042052Y0182058D01*
X0042052Y0179694D01*
X0039688Y0179694D01*
X0039688Y0180480D02*
X0042052Y0180480D01*
X0042052Y0181266D02*
X0039688Y0181266D01*
X0039688Y0182052D02*
X0042052Y0182052D01*
X0031225Y0183042D02*
X0031225Y0180678D01*
X0028861Y0180678D01*
X0028861Y0183042D01*
X0031225Y0183042D01*
X0031225Y0181464D02*
X0028861Y0181464D01*
X0028861Y0182250D02*
X0031225Y0182250D01*
X0031225Y0183036D02*
X0028861Y0183036D01*
X0026304Y0183042D02*
X0026304Y0180678D01*
X0023940Y0180678D01*
X0023940Y0183042D01*
X0026304Y0183042D01*
X0026304Y0181464D02*
X0023940Y0181464D01*
X0023940Y0182250D02*
X0026304Y0182250D01*
X0026304Y0183036D02*
X0023940Y0183036D01*
X0023940Y0185599D02*
X0023940Y0187963D01*
X0026304Y0187963D01*
X0026304Y0185599D01*
X0023940Y0185599D01*
X0023940Y0186385D02*
X0026304Y0186385D01*
X0026304Y0187171D02*
X0023940Y0187171D01*
X0023940Y0187957D02*
X0026304Y0187957D01*
X0028861Y0187963D02*
X0028861Y0185599D01*
X0028861Y0187963D02*
X0031225Y0187963D01*
X0031225Y0185599D01*
X0028861Y0185599D01*
X0028861Y0186385D02*
X0031225Y0186385D01*
X0031225Y0187171D02*
X0028861Y0187171D01*
X0028861Y0187957D02*
X0031225Y0187957D01*
X0031225Y0190521D02*
X0031225Y0192885D01*
X0031225Y0190521D02*
X0028861Y0190521D01*
X0028861Y0192885D01*
X0031225Y0192885D01*
X0031225Y0191307D02*
X0028861Y0191307D01*
X0028861Y0192093D02*
X0031225Y0192093D01*
X0031225Y0192879D02*
X0028861Y0192879D01*
X0028861Y0195442D02*
X0028861Y0197806D01*
X0031225Y0197806D01*
X0031225Y0195442D01*
X0028861Y0195442D01*
X0028861Y0196228D02*
X0031225Y0196228D01*
X0031225Y0197014D02*
X0028861Y0197014D01*
X0028861Y0197800D02*
X0031225Y0197800D01*
X0023940Y0197806D02*
X0023940Y0195442D01*
X0023940Y0197806D02*
X0026304Y0197806D01*
X0026304Y0195442D01*
X0023940Y0195442D01*
X0023940Y0196228D02*
X0026304Y0196228D01*
X0026304Y0197014D02*
X0023940Y0197014D01*
X0023940Y0197800D02*
X0026304Y0197800D01*
X0026304Y0192885D02*
X0026304Y0190521D01*
X0023940Y0190521D01*
X0023940Y0192885D01*
X0026304Y0192885D01*
X0026304Y0191307D02*
X0023940Y0191307D01*
X0023940Y0192093D02*
X0026304Y0192093D01*
X0026304Y0192879D02*
X0023940Y0192879D01*
X0065279Y0192885D02*
X0065279Y0190521D01*
X0065279Y0192885D02*
X0067643Y0192885D01*
X0067643Y0190521D01*
X0065279Y0190521D01*
X0065279Y0191307D02*
X0067643Y0191307D01*
X0067643Y0192093D02*
X0065279Y0192093D01*
X0065279Y0192879D02*
X0067643Y0192879D01*
X0067643Y0195442D02*
X0065279Y0195442D01*
X0065279Y0197806D01*
X0067643Y0197806D01*
X0067643Y0195442D01*
X0067643Y0196228D02*
X0065279Y0196228D01*
X0065279Y0197014D02*
X0067643Y0197014D01*
X0067643Y0197800D02*
X0065279Y0197800D01*
X0065279Y0200363D02*
X0067643Y0200363D01*
X0065279Y0200363D02*
X0065279Y0202727D01*
X0067643Y0202727D01*
X0067643Y0200363D01*
X0067643Y0201149D02*
X0065279Y0201149D01*
X0065279Y0201935D02*
X0067643Y0201935D01*
X0067643Y0202721D02*
X0065279Y0202721D01*
X0070200Y0202727D02*
X0072564Y0202727D01*
X0072564Y0200363D01*
X0070200Y0200363D01*
X0070200Y0202727D01*
X0070200Y0201149D02*
X0072564Y0201149D01*
X0072564Y0201935D02*
X0070200Y0201935D01*
X0070200Y0202721D02*
X0072564Y0202721D01*
X0072564Y0197806D02*
X0070200Y0197806D01*
X0072564Y0197806D02*
X0072564Y0195442D01*
X0070200Y0195442D01*
X0070200Y0197806D01*
X0070200Y0196228D02*
X0072564Y0196228D01*
X0072564Y0197014D02*
X0070200Y0197014D01*
X0070200Y0197800D02*
X0072564Y0197800D01*
X0070200Y0192885D02*
X0070200Y0190521D01*
X0070200Y0192885D02*
X0072564Y0192885D01*
X0072564Y0190521D01*
X0070200Y0190521D01*
X0070200Y0191307D02*
X0072564Y0191307D01*
X0072564Y0192093D02*
X0070200Y0192093D01*
X0070200Y0192879D02*
X0072564Y0192879D01*
X0072564Y0187963D02*
X0072564Y0185599D01*
X0070200Y0185599D01*
X0070200Y0187963D01*
X0072564Y0187963D01*
X0072564Y0186385D02*
X0070200Y0186385D01*
X0070200Y0187171D02*
X0072564Y0187171D01*
X0072564Y0187957D02*
X0070200Y0187957D01*
X0067643Y0187963D02*
X0067643Y0185599D01*
X0065279Y0185599D01*
X0065279Y0187963D01*
X0067643Y0187963D01*
X0067643Y0186385D02*
X0065279Y0186385D01*
X0065279Y0187171D02*
X0067643Y0187171D01*
X0067643Y0187957D02*
X0065279Y0187957D01*
X0065279Y0180678D02*
X0067643Y0180678D01*
X0065279Y0180678D02*
X0065279Y0183042D01*
X0067643Y0183042D01*
X0067643Y0180678D01*
X0067643Y0181464D02*
X0065279Y0181464D01*
X0065279Y0182250D02*
X0067643Y0182250D01*
X0067643Y0183036D02*
X0065279Y0183036D01*
X0070200Y0183042D02*
X0072564Y0183042D01*
X0072564Y0180678D01*
X0070200Y0180678D01*
X0070200Y0183042D01*
X0070200Y0181464D02*
X0072564Y0181464D01*
X0072564Y0182250D02*
X0070200Y0182250D01*
X0070200Y0183036D02*
X0072564Y0183036D01*
X0170989Y0195442D02*
X0170989Y0197806D01*
X0170989Y0195442D02*
X0168625Y0195442D01*
X0168625Y0197806D01*
X0170989Y0197806D01*
X0170989Y0196228D02*
X0168625Y0196228D01*
X0168625Y0197014D02*
X0170989Y0197014D01*
X0170989Y0197800D02*
X0168625Y0197800D01*
X0168625Y0200363D02*
X0168625Y0202727D01*
X0170989Y0202727D01*
X0170989Y0200363D01*
X0168625Y0200363D01*
X0168625Y0201149D02*
X0170989Y0201149D01*
X0170989Y0201935D02*
X0168625Y0201935D01*
X0168625Y0202721D02*
X0170989Y0202721D01*
D12*
X0105304Y0143593D03*
X0105304Y0138593D03*
X0105304Y0133593D03*
X0105304Y0128593D03*
X0084704Y0128593D03*
X0084704Y0133593D03*
X0084704Y0138593D03*
X0084704Y0143593D03*
X0064950Y0141388D03*
X0064950Y0135719D03*
X0064950Y0130719D03*
X0064950Y0125719D03*
X0064950Y0120719D03*
X0044350Y0120719D03*
X0044350Y0125719D03*
X0044350Y0130719D03*
X0044350Y0135719D03*
X0044350Y0141388D03*
X0044350Y0146388D03*
X0044350Y0151388D03*
X0044350Y0156388D03*
X0064950Y0156388D03*
X0064950Y0151388D03*
X0064950Y0146388D03*
X0058552Y0186663D03*
X0058552Y0191663D03*
X0058552Y0196663D03*
X0058552Y0201663D03*
X0037952Y0201663D03*
X0037952Y0196663D03*
X0037952Y0191663D03*
X0037952Y0186663D03*
X0080767Y0090443D03*
X0080767Y0085443D03*
X0080767Y0080443D03*
X0080767Y0075443D03*
X0101367Y0075443D03*
X0101367Y0080443D03*
X0101367Y0085443D03*
X0101367Y0090443D03*
X0100383Y0036309D03*
X0100383Y0031309D03*
X0100383Y0026309D03*
X0100383Y0021309D03*
X0079783Y0021309D03*
X0079783Y0026309D03*
X0079783Y0031309D03*
X0079783Y0036309D03*
D13*
X0009374Y0032825D03*
X0009374Y0022825D03*
X0009374Y0077943D03*
X0009374Y0087943D03*
X0009374Y0133061D03*
X0009374Y0143061D03*
X0009374Y0188179D03*
X0009374Y0198179D03*
D14*
X0091067Y0193179D03*
X0136343Y0138061D03*
X0136343Y0082943D03*
X0136343Y0027825D03*
D15*
X0146381Y0017786D03*
X0126304Y0017786D03*
X0126304Y0037864D03*
X0146381Y0037864D03*
X0146381Y0072904D03*
X0126304Y0072904D03*
X0126304Y0092982D03*
X0146381Y0092982D03*
X0146381Y0128022D03*
X0126304Y0128022D03*
X0126304Y0148100D03*
X0146381Y0148100D03*
X0101106Y0183140D03*
X0081028Y0183140D03*
X0081028Y0203218D03*
X0101106Y0203218D03*
D16*
X0073842Y0205286D02*
X0070890Y0205286D01*
X0070890Y0208632D01*
X0073842Y0208632D01*
X0073842Y0205286D01*
X0073842Y0206269D02*
X0070890Y0206269D01*
X0070890Y0207252D02*
X0073842Y0207252D01*
X0073842Y0208235D02*
X0070890Y0208235D01*
X0066952Y0205483D02*
X0064000Y0205483D01*
X0064000Y0208435D01*
X0066952Y0208435D01*
X0066952Y0205483D01*
X0066952Y0206466D02*
X0064000Y0206466D01*
X0064000Y0207449D02*
X0066952Y0207449D01*
X0066952Y0208432D02*
X0064000Y0208432D01*
X0047956Y0182352D02*
X0047956Y0179400D01*
X0044610Y0179400D01*
X0044610Y0182352D01*
X0047956Y0182352D01*
X0047956Y0180383D02*
X0044610Y0180383D01*
X0044610Y0181366D02*
X0047956Y0181366D01*
X0047956Y0182349D02*
X0044610Y0182349D01*
X0047759Y0175462D02*
X0047759Y0172510D01*
X0044807Y0172510D01*
X0044807Y0175462D01*
X0047759Y0175462D01*
X0047759Y0173493D02*
X0044807Y0173493D01*
X0044807Y0174476D02*
X0047759Y0174476D01*
X0047759Y0175459D02*
X0044807Y0175459D01*
X0067149Y0104596D02*
X0067149Y0101644D01*
X0063803Y0101644D01*
X0063803Y0104596D01*
X0067149Y0104596D01*
X0067149Y0102627D02*
X0063803Y0102627D01*
X0063803Y0103610D02*
X0067149Y0103610D01*
X0067149Y0104593D02*
X0063803Y0104593D01*
X0066952Y0097706D02*
X0066952Y0094754D01*
X0064000Y0094754D01*
X0064000Y0097706D01*
X0066952Y0097706D01*
X0066952Y0095737D02*
X0064000Y0095737D01*
X0064000Y0096720D02*
X0066952Y0096720D01*
X0066952Y0097703D02*
X0064000Y0097703D01*
X0075023Y0071132D02*
X0075023Y0068180D01*
X0071677Y0068180D01*
X0071677Y0071132D01*
X0075023Y0071132D01*
X0075023Y0069163D02*
X0071677Y0069163D01*
X0071677Y0070146D02*
X0075023Y0070146D01*
X0075023Y0071129D02*
X0071677Y0071129D01*
X0074826Y0064242D02*
X0074826Y0061290D01*
X0071874Y0061290D01*
X0071874Y0064242D01*
X0074826Y0064242D01*
X0074826Y0062273D02*
X0071874Y0062273D01*
X0071874Y0063256D02*
X0074826Y0063256D01*
X0074826Y0064239D02*
X0071874Y0064239D01*
X0088115Y0071329D02*
X0091067Y0071329D01*
X0091067Y0067983D01*
X0088115Y0067983D01*
X0088115Y0071329D01*
X0088115Y0068966D02*
X0091067Y0068966D01*
X0091067Y0069949D02*
X0088115Y0069949D01*
X0088115Y0070932D02*
X0091067Y0070932D01*
X0095004Y0071132D02*
X0097956Y0071132D01*
X0097956Y0068180D01*
X0095004Y0068180D01*
X0095004Y0071132D01*
X0095004Y0069163D02*
X0097956Y0069163D01*
X0097956Y0070146D02*
X0095004Y0070146D01*
X0095004Y0071129D02*
X0097956Y0071129D01*
X0075811Y0047509D02*
X0072859Y0047509D01*
X0075811Y0047509D02*
X0075811Y0044557D01*
X0072859Y0044557D01*
X0072859Y0047509D01*
X0072859Y0045540D02*
X0075811Y0045540D01*
X0075811Y0046523D02*
X0072859Y0046523D01*
X0072859Y0047506D02*
X0075811Y0047506D01*
X0068921Y0047706D02*
X0065969Y0047706D01*
X0068921Y0047706D02*
X0068921Y0044360D01*
X0065969Y0044360D01*
X0065969Y0047706D01*
X0065969Y0045343D02*
X0068921Y0045343D01*
X0068921Y0046326D02*
X0065969Y0046326D01*
X0065969Y0047309D02*
X0068921Y0047309D01*
X0093724Y0017982D02*
X0093724Y0015030D01*
X0090378Y0015030D01*
X0090378Y0017982D01*
X0093724Y0017982D01*
X0093724Y0016013D02*
X0090378Y0016013D01*
X0090378Y0016996D02*
X0093724Y0016996D01*
X0093724Y0017979D02*
X0090378Y0017979D01*
X0093527Y0011092D02*
X0093527Y0008140D01*
X0090575Y0008140D01*
X0090575Y0011092D01*
X0093527Y0011092D01*
X0093527Y0009123D02*
X0090575Y0009123D01*
X0090575Y0010106D02*
X0093527Y0010106D01*
X0093527Y0011089D02*
X0090575Y0011089D01*
X0076303Y0007943D02*
X0073351Y0007943D01*
X0073351Y0011289D01*
X0076303Y0011289D01*
X0076303Y0007943D01*
X0076303Y0008926D02*
X0073351Y0008926D01*
X0073351Y0009909D02*
X0076303Y0009909D01*
X0076303Y0010892D02*
X0073351Y0010892D01*
X0069413Y0008140D02*
X0066461Y0008140D01*
X0066461Y0011092D01*
X0069413Y0011092D01*
X0069413Y0008140D01*
X0069413Y0009123D02*
X0066461Y0009123D01*
X0066461Y0010106D02*
X0069413Y0010106D01*
X0069413Y0011089D02*
X0066461Y0011089D01*
X0105339Y0040128D02*
X0108291Y0040128D01*
X0105339Y0040128D02*
X0105339Y0043080D01*
X0108291Y0043080D01*
X0108291Y0040128D01*
X0108291Y0041111D02*
X0105339Y0041111D01*
X0105339Y0042094D02*
X0108291Y0042094D01*
X0108291Y0043077D02*
X0105339Y0043077D01*
X0112229Y0039931D02*
X0115181Y0039931D01*
X0112229Y0039931D02*
X0112229Y0043277D01*
X0115181Y0043277D01*
X0115181Y0039931D01*
X0115181Y0040914D02*
X0112229Y0040914D01*
X0112229Y0041897D02*
X0115181Y0041897D01*
X0115181Y0042880D02*
X0112229Y0042880D01*
X0110752Y0096231D02*
X0107800Y0096231D01*
X0107800Y0099183D01*
X0110752Y0099183D01*
X0110752Y0096231D01*
X0110752Y0097214D02*
X0107800Y0097214D01*
X0107800Y0098197D02*
X0110752Y0098197D01*
X0110752Y0099180D02*
X0107800Y0099180D01*
X0114689Y0096034D02*
X0117641Y0096034D01*
X0114689Y0096034D02*
X0114689Y0099380D01*
X0117641Y0099380D01*
X0117641Y0096034D01*
X0117641Y0097017D02*
X0114689Y0097017D01*
X0114689Y0098000D02*
X0117641Y0098000D01*
X0117641Y0098983D02*
X0114689Y0098983D01*
X0168134Y0182845D02*
X0168134Y0185797D01*
X0171480Y0185797D01*
X0171480Y0182845D01*
X0168134Y0182845D01*
X0168134Y0183828D02*
X0171480Y0183828D01*
X0171480Y0184811D02*
X0168134Y0184811D01*
X0168134Y0185794D02*
X0171480Y0185794D01*
X0168331Y0189735D02*
X0168331Y0192687D01*
X0171283Y0192687D01*
X0171283Y0189735D01*
X0168331Y0189735D01*
X0168331Y0190718D02*
X0171283Y0190718D01*
X0171283Y0191701D02*
X0168331Y0191701D01*
X0168331Y0192684D02*
X0171283Y0192684D01*
D17*
X0057228Y0093243D03*
X0052228Y0093243D03*
X0047228Y0093243D03*
X0042228Y0093243D03*
X0042228Y0072643D03*
X0047228Y0072643D03*
X0052228Y0072643D03*
X0057228Y0072643D03*
X0056165Y0038125D03*
X0051165Y0038125D03*
X0046165Y0038125D03*
X0061165Y0038125D03*
X0061165Y0017525D03*
X0056165Y0017525D03*
X0051165Y0017525D03*
X0046165Y0017525D03*
D18*
X0112327Y0153809D03*
X0119020Y0153809D03*
X0090476Y0155778D03*
X0083783Y0155778D03*
D19*
X0190022Y0193671D03*
D20*
X0190022Y0179913D03*
X0190022Y0207430D03*
D21*
X0177681Y0207451D03*
X0169807Y0204006D03*
X0169807Y0181368D03*
X0177681Y0179892D03*
X0186539Y0158730D03*
X0186539Y0154793D03*
X0192445Y0154793D03*
X0192445Y0158730D03*
X0169807Y0144754D03*
X0173744Y0129006D03*
X0186539Y0121329D03*
X0186539Y0117392D03*
X0192445Y0117392D03*
X0192445Y0121329D03*
X0192445Y0103612D03*
X0192445Y0099675D03*
X0186539Y0099675D03*
X0186539Y0103612D03*
X0169807Y0089636D03*
X0161933Y0094262D03*
X0173744Y0073888D03*
X0161933Y0069163D03*
X0186539Y0066211D03*
X0186539Y0062274D03*
X0192445Y0062274D03*
X0192445Y0066211D03*
X0192445Y0048494D03*
X0192445Y0044557D03*
X0186539Y0044557D03*
X0186539Y0048494D03*
X0170299Y0034518D03*
X0173744Y0018770D03*
X0161933Y0014045D03*
X0186539Y0011093D03*
X0186539Y0007156D03*
X0192445Y0007156D03*
X0192445Y0011093D03*
X0112720Y0033730D03*
X0112720Y0038652D03*
X0095043Y0026309D03*
X0105339Y0016506D03*
X0089098Y0011093D03*
X0083685Y0011093D03*
X0077287Y0009616D03*
X0071382Y0015030D03*
X0063508Y0009616D03*
X0051165Y0013061D03*
X0043823Y0008632D03*
X0035949Y0016014D03*
X0031028Y0016014D03*
X0048744Y0024380D03*
X0048744Y0031270D03*
X0058587Y0031270D03*
X0058587Y0024380D03*
X0063016Y0046033D03*
X0076795Y0046033D03*
X0085122Y0031309D03*
X0086638Y0065226D03*
X0081717Y0065226D03*
X0072858Y0073593D03*
X0070398Y0070640D03*
X0066953Y0070640D03*
X0066953Y0075561D03*
X0065476Y0093278D03*
X0062524Y0096230D03*
X0068429Y0096230D03*
X0091067Y0118868D03*
X0087130Y0122805D03*
X0084669Y0120837D03*
X0098449Y0118868D03*
X0106815Y0122805D03*
X0110260Y0123789D03*
X0099925Y0133632D03*
X0089591Y0138553D03*
X0075811Y0140522D03*
X0072366Y0138061D03*
X0059571Y0146427D03*
X0049728Y0151348D03*
X0034472Y0153317D03*
X0032012Y0140030D03*
X0034472Y0132648D03*
X0032012Y0120344D03*
X0031520Y0103612D03*
X0031028Y0098691D03*
X0033488Y0091309D03*
X0039886Y0100659D03*
X0059571Y0125758D03*
X0049236Y0130679D03*
X0074827Y0156270D03*
X0093035Y0155778D03*
X0117642Y0141506D03*
X0121579Y0153809D03*
X0141264Y0172510D03*
X0141264Y0176447D03*
X0147169Y0176447D03*
X0147169Y0172510D03*
X0116854Y0178612D03*
X0116854Y0207746D03*
X0141264Y0209911D03*
X0141264Y0213848D03*
X0147169Y0213848D03*
X0147169Y0209911D03*
X0071382Y0204006D03*
X0071382Y0199085D03*
X0064000Y0181860D03*
X0053213Y0191663D03*
X0043331Y0196663D03*
X0027583Y0181860D03*
X0038409Y0175955D03*
X0043331Y0175955D03*
X0019217Y0198100D03*
X0118626Y0097707D03*
X0115181Y0094262D03*
X0115181Y0089341D03*
X0107307Y0070640D03*
X0098941Y0069656D03*
X0043823Y0046033D03*
X0035949Y0039636D03*
X0031028Y0039636D03*
X0034965Y0065226D03*
X0033488Y0074085D03*
D22*
X0031028Y0074085D01*
X0033488Y0074085D02*
X0035949Y0074085D01*
X0034965Y0065226D02*
X0037425Y0065226D01*
X0056126Y0046526D02*
X0056126Y0046033D01*
X0061047Y0046033D02*
X0063016Y0046033D01*
X0056126Y0038164D02*
X0056165Y0038125D01*
X0046283Y0046033D02*
X0043823Y0046033D01*
X0062031Y0063258D02*
X0064000Y0061289D01*
X0072858Y0061289D01*
X0073350Y0062766D01*
X0072858Y0061289D02*
X0160949Y0061289D01*
X0169807Y0070148D01*
X0169807Y0089636D01*
X0161933Y0094262D02*
X0161933Y0099183D01*
X0159472Y0101644D01*
X0112228Y0101644D01*
X0110260Y0099675D01*
X0110260Y0096722D01*
X0109276Y0097707D01*
X0110260Y0096722D02*
X0110260Y0091801D01*
X0110260Y0086880D01*
X0108823Y0085443D01*
X0101367Y0085443D01*
X0109768Y0075561D02*
X0114689Y0075561D01*
X0114689Y0070640D01*
X0109768Y0070640D02*
X0107307Y0070640D01*
X0098941Y0069656D02*
X0096480Y0069656D01*
X0094020Y0064242D02*
X0089689Y0068573D01*
X0089591Y0069656D01*
X0089197Y0070148D01*
X0084177Y0070148D01*
X0079256Y0070148D01*
X0084177Y0070148D02*
X0084177Y0075069D01*
X0083803Y0075443D01*
X0080767Y0075443D01*
X0084177Y0075561D02*
X0084177Y0075069D01*
X0084177Y0065226D02*
X0086638Y0065226D01*
X0081717Y0065226D02*
X0079256Y0065226D01*
X0073350Y0069656D02*
X0073350Y0070640D01*
X0072858Y0070640D02*
X0070398Y0070640D01*
X0072858Y0070640D02*
X0072858Y0069656D01*
X0073350Y0069656D01*
X0066953Y0069656D02*
X0066953Y0068179D01*
X0066953Y0070640D01*
X0066953Y0073100D01*
X0062031Y0073100D02*
X0057686Y0073100D01*
X0057228Y0072643D01*
X0062031Y0068179D02*
X0062031Y0063258D01*
X0074335Y0046033D02*
X0076795Y0046033D01*
X0094020Y0064242D02*
X0158980Y0064242D01*
X0161933Y0067195D01*
X0161933Y0069163D01*
X0173744Y0074085D02*
X0173744Y0099675D01*
X0168823Y0104596D01*
X0065969Y0104596D01*
X0065476Y0104104D01*
X0065476Y0103120D01*
X0065969Y0104596D02*
X0038902Y0104596D01*
X0035949Y0101644D01*
X0035949Y0101152D01*
X0035949Y0096230D01*
X0042346Y0096230D01*
X0042346Y0093361D01*
X0042228Y0093243D01*
X0035949Y0091309D02*
X0033488Y0091309D01*
X0031028Y0091309D01*
X0031028Y0096230D02*
X0031028Y0098691D01*
X0031028Y0101152D02*
X0031520Y0103612D01*
X0039886Y0100659D02*
X0042346Y0100659D01*
X0036933Y0117884D02*
X0036933Y0120719D01*
X0044350Y0120719D01*
X0047268Y0120719D01*
X0047268Y0120837D01*
X0036933Y0120837D02*
X0036933Y0122805D01*
X0036933Y0117884D01*
X0032012Y0120344D02*
X0032012Y0122805D01*
X0036933Y0137569D02*
X0036933Y0142490D01*
X0036933Y0141388D01*
X0044350Y0141388D01*
X0064950Y0151388D02*
X0071343Y0151388D01*
X0072366Y0151348D02*
X0077287Y0151348D01*
X0056126Y0172018D02*
X0110260Y0172018D01*
X0116854Y0178612D01*
X0091067Y0193179D02*
X0079256Y0193179D01*
X0077780Y0191703D01*
X0071382Y0191703D01*
X0071382Y0196624D02*
X0071382Y0199085D01*
X0071382Y0201545D02*
X0071382Y0204006D01*
X0071382Y0206959D01*
X0072366Y0206959D01*
X0066461Y0206959D02*
X0065476Y0206959D01*
X0065575Y0208041D01*
X0071874Y0214341D01*
X0110260Y0214341D01*
X0116854Y0207746D01*
X0066461Y0206959D02*
X0066461Y0201545D01*
X0066461Y0196624D01*
X0058591Y0196624D01*
X0058552Y0196663D01*
X0047366Y0180778D02*
X0056126Y0172018D01*
X0046283Y0173986D02*
X0043331Y0175955D01*
X0035949Y0175955D01*
X0040870Y0175955D01*
X0043331Y0175955D01*
X0040870Y0180778D02*
X0046283Y0180876D01*
X0047366Y0180778D01*
X0040870Y0180876D02*
X0040870Y0180778D01*
X0040870Y0180876D02*
X0040870Y0186781D01*
X0038409Y0186781D01*
X0037952Y0186663D02*
X0035949Y0186663D01*
X0035949Y0180876D01*
X0040870Y0180876D01*
X0019217Y0198100D02*
X0009453Y0198100D01*
X0009374Y0198179D01*
X0084704Y0128593D02*
X0093154Y0128593D01*
X0094512Y0127234D01*
X0094512Y0122805D01*
X0099433Y0122805D01*
X0117642Y0133632D02*
X0120594Y0133632D01*
X0125024Y0138061D01*
X0136343Y0138061D01*
X0118626Y0097707D02*
X0116165Y0097707D01*
X0115181Y0097707D01*
X0115181Y0091801D01*
X0115181Y0089341D02*
X0115181Y0086880D01*
X0114689Y0080482D02*
X0118626Y0080482D01*
X0121087Y0082943D01*
X0136343Y0082943D01*
X0113705Y0041604D02*
X0112720Y0040719D01*
X0112720Y0036191D01*
X0112720Y0038652D01*
X0112720Y0041604D01*
X0113705Y0041604D01*
X0112720Y0036191D02*
X0112720Y0031270D01*
X0107799Y0031270D02*
X0107799Y0031309D01*
X0100383Y0031309D01*
X0106815Y0041604D02*
X0107799Y0041604D01*
X0112720Y0026348D02*
X0117642Y0026348D01*
X0119118Y0027825D01*
X0136343Y0027825D01*
X0093528Y0016014D02*
X0092051Y0016014D01*
X0092051Y0016506D01*
X0092051Y0016014D02*
X0086146Y0016014D01*
X0081224Y0016014D01*
X0081224Y0021309D01*
X0079783Y0021309D01*
X0071382Y0017490D02*
X0071382Y0015030D01*
X0074827Y0009616D02*
X0077287Y0009616D01*
X0081224Y0011093D02*
X0083685Y0011093D01*
X0086146Y0011093D01*
X0092051Y0011093D01*
X0092051Y0009616D01*
X0063508Y0009616D02*
X0061047Y0009616D01*
X0056165Y0009656D02*
X0056165Y0009085D01*
X0056126Y0009616D02*
X0056165Y0009656D01*
X0051165Y0013061D02*
X0051165Y0017525D01*
X0046283Y0008632D02*
X0043823Y0008632D01*
X0062524Y0096230D02*
X0065476Y0096230D01*
X0169807Y0181368D02*
X0169807Y0184321D01*
X0189509Y0179892D02*
X0190022Y0179913D01*
X0190022Y0207430D02*
X0189509Y0207451D01*
D23*
X0169315Y0160207D02*
X0173744Y0155778D01*
X0173744Y0129006D01*
X0173744Y0121329D01*
X0168331Y0115915D01*
X0094512Y0115915D01*
X0094512Y0122805D01*
X0091067Y0118868D02*
X0090083Y0117884D01*
X0056126Y0117884D01*
X0054650Y0119360D01*
X0052189Y0115915D02*
X0094512Y0115915D01*
X0098449Y0118868D02*
X0166362Y0118868D01*
X0169807Y0122313D01*
X0169807Y0144754D01*
X0169807Y0155778D01*
X0167839Y0157746D01*
X0116657Y0157746D01*
X0112720Y0153809D01*
X0112327Y0153809D02*
X0100909Y0153809D01*
X0099433Y0151348D01*
X0077287Y0151348D01*
X0083783Y0155778D02*
X0083783Y0159321D01*
X0084177Y0160207D02*
X0169315Y0160207D01*
X0093035Y0155778D02*
X0090476Y0155778D01*
X0084177Y0160207D02*
X0059571Y0160207D01*
X0054650Y0155285D01*
X0047268Y0120837D02*
X0052189Y0115915D01*
D24*
X0177681Y0179892D02*
X0189509Y0179892D01*
X0189509Y0207451D02*
X0177681Y0207451D01*
D25*
X0117642Y0143967D02*
X0117642Y0141506D01*
X0117642Y0139045D01*
D26*
X0160949Y0049970D02*
X0067445Y0049970D01*
X0067445Y0046033D01*
X0067445Y0049970D02*
X0059571Y0049970D01*
X0056126Y0046526D01*
X0056126Y0046033D02*
X0056126Y0038164D01*
X0056126Y0046033D02*
X0051205Y0046033D01*
X0056165Y0017525D02*
X0056165Y0009656D01*
X0056126Y0009616D02*
X0052189Y0009616D01*
X0051205Y0008632D01*
X0056165Y0009085D02*
X0059571Y0005679D01*
X0067937Y0005679D01*
X0162425Y0005679D01*
X0170299Y0013553D01*
X0170299Y0034518D01*
X0157504Y0047018D01*
X0111244Y0047018D01*
X0107799Y0043573D01*
X0107799Y0041604D01*
X0107799Y0036191D01*
X0107799Y0031309D01*
X0093528Y0016014D02*
X0101402Y0008140D01*
X0156028Y0008140D01*
X0161933Y0014045D01*
X0173744Y0018770D02*
X0173744Y0037175D01*
X0160949Y0049970D01*
X0067937Y0009616D02*
X0067937Y0005679D01*
M02*
